%
M48
M72
T01C0.01969
T02C0.03150
T03C0.03200
T04C0.03543
T05C0.03600
T06C0.03937
T07C0.04000
T08C0.05118
%
T01
X197805Y43750
X220305Y40207
X220305Y47293
X261555Y23750
X175305Y103750
X170305Y128750
X162805Y141250
X142805Y113750
X125305Y108750
X129055Y91250
X149055Y63750
X119055Y41250
X87805Y21250
X71555Y41250
X55305Y21250
X39055Y41250
X22805Y21250
X91555Y91250
X90305Y127500
X111555Y141250
X72805Y176250
X65305Y201250
X115305Y192500
X176555Y172500
X211555Y192500
X46555Y100000
T02
X19656Y12500
X25955Y12500
X52156Y12500
X58455Y12500
X84656Y12500
X90955Y12500
X235305Y55000
X225305Y55000
X215305Y55000
X205305Y55000
X205305Y25000
X215305Y25000
X225305Y25000
X235305Y25000
X135305Y101250
X125305Y101250
X115305Y101250
T03
X170305Y155000
X180305Y155000
X190305Y155000
T04
X18967Y132992
X18967Y164488
T05
X227805Y162500
X217805Y162500
X217805Y172500
X227805Y172500
T06
X225305Y205000
X215305Y205000
X205305Y205000
X195305Y205000
X185305Y205000
X170305Y205000
X160305Y205000
X150305Y205000
X140305Y205000
X130305Y205000
X120305Y205000
X110305Y205000
X100305Y205000
X90305Y205000
X80305Y205000
X125305Y167402
X235305Y205000
X245305Y205000
X255305Y205000
X186447Y65630
X190581Y65630
X194715Y65630
X198652Y65630
X202589Y65630
X206526Y65630
X210463Y65630
X214400Y65630
X218337Y65630
X222274Y65630
X226211Y65630
X230148Y65630
X234085Y65630
X238022Y65630
X241959Y65630
X245896Y65630
X250030Y65630
X254163Y65630
X255305Y15000
X245305Y15000
X235305Y15000
X225305Y15000
X215305Y15000
X205305Y15000
X185305Y15000
X175305Y15000
X165305Y15000
X155305Y15000
X145305Y15000
X135305Y15000
X125305Y15000
T07
X165305Y27500
X165305Y37500
X175305Y37500
X175305Y27500
X175305Y47500
X165305Y47500
X255305Y152500
X255305Y162500
X255305Y172500
X255305Y182500
X255305Y192500
X20305Y85000
X20305Y75000
X20305Y65000
X20305Y55000
T08
X125305Y137874
M30
