G75*
%MOIN*%
%OFA0B0*%
%FSLAX25Y25*%
%IPPOS*%
%LPD*%
%AMOC8*
5,1,8,0,0,1.08239X$1,22.5*
%
%ADD10OC8,0.05937*%
%ADD11OC8,0.05150*%
%ADD12OC8,0.03969*%
%ADD13R,0.05000X0.10000*%
%ADD14OC8,0.06000*%
%ADD15R,0.01575X0.15000*%
%ADD16OC8,0.05600*%
%ADD17R,0.05906X0.05118*%
%ADD18R,0.03150X0.06299*%
%ADD19R,0.05118X0.05906*%
%ADD20OC8,0.05200*%
%ADD21R,0.06300X0.04600*%
%ADD22OC8,0.03569*%
%ADD23C,0.01200*%
%ADD24C,0.02400*%
%ADD25C,0.01000*%
D10*
X0125305Y0015000D03*
X0135305Y0015000D03*
X0145305Y0015000D03*
X0155305Y0015000D03*
X0165305Y0015000D03*
X0175305Y0015000D03*
X0185305Y0015000D03*
X0205305Y0015000D03*
X0215305Y0015000D03*
X0225305Y0015000D03*
X0235305Y0015000D03*
X0245305Y0015000D03*
X0255305Y0015000D03*
X0255305Y0205000D03*
X0245305Y0205000D03*
X0235305Y0205000D03*
X0225305Y0205000D03*
X0215305Y0205000D03*
X0205305Y0205000D03*
X0195305Y0205000D03*
X0185305Y0205000D03*
X0170305Y0205000D03*
X0160305Y0205000D03*
X0150305Y0205000D03*
X0140305Y0205000D03*
X0130305Y0205000D03*
X0120305Y0205000D03*
X0110305Y0205000D03*
X0100305Y0205000D03*
X0090305Y0205000D03*
X0080305Y0205000D03*
D11*
X0115305Y0101250D03*
X0125305Y0101250D03*
X0135305Y0101250D03*
X0205305Y0055000D03*
X0215305Y0055000D03*
X0225305Y0055000D03*
X0235305Y0055000D03*
X0235305Y0025000D03*
X0225305Y0025000D03*
X0215305Y0025000D03*
X0205305Y0025000D03*
D12*
X0220305Y0040207D03*
X0220305Y0047293D03*
D13*
X0255305Y0043750D03*
D14*
X0175305Y0047500D03*
X0165305Y0047500D03*
X0165305Y0037500D03*
X0165305Y0027500D03*
X0175305Y0027500D03*
X0175305Y0037500D03*
X0255305Y0152500D03*
X0255305Y0162500D03*
X0255305Y0172500D03*
X0255305Y0182500D03*
X0255305Y0192500D03*
X0020305Y0085000D03*
X0020305Y0075000D03*
X0020305Y0065000D03*
X0020305Y0055000D03*
D15*
X0180344Y0105000D03*
X0183100Y0105000D03*
X0185856Y0105000D03*
X0188612Y0105000D03*
X0191368Y0105000D03*
X0194124Y0105000D03*
X0196880Y0105000D03*
X0199636Y0105000D03*
X0202392Y0105000D03*
X0205148Y0105000D03*
X0207904Y0105000D03*
X0210659Y0105000D03*
X0213415Y0105000D03*
X0216171Y0105000D03*
X0218927Y0105000D03*
X0221683Y0105000D03*
X0224439Y0105000D03*
X0227195Y0105000D03*
X0229951Y0105000D03*
X0232707Y0105000D03*
X0235463Y0105000D03*
X0238219Y0105000D03*
X0240974Y0105000D03*
X0243730Y0105000D03*
X0246486Y0105000D03*
X0249242Y0105000D03*
X0251998Y0105000D03*
X0254754Y0105000D03*
X0257510Y0105000D03*
X0260266Y0105000D03*
D16*
X0227805Y0162500D03*
X0217805Y0162500D03*
X0217805Y0172500D03*
X0227805Y0172500D03*
D17*
X0195305Y0146240D03*
X0195305Y0138760D03*
X0195305Y0128740D03*
X0195305Y0121260D03*
X0215305Y0128760D03*
X0215305Y0136240D03*
X0225305Y0136240D03*
X0225305Y0128760D03*
X0234055Y0128760D03*
X0234055Y0136240D03*
X0242805Y0136240D03*
X0242805Y0128760D03*
X0166555Y0108740D03*
X0157805Y0108740D03*
X0157805Y0101260D03*
X0166555Y0101260D03*
X0087805Y0034990D03*
X0087805Y0027510D03*
X0055305Y0027510D03*
X0055305Y0034990D03*
X0022805Y0034990D03*
X0022805Y0027510D03*
D18*
X0185305Y0128307D03*
X0185305Y0141693D03*
D19*
X0184045Y0165000D03*
X0176565Y0165000D03*
X0261565Y0137500D03*
X0269045Y0137500D03*
X0269045Y0127500D03*
X0261565Y0127500D03*
X0261565Y0117500D03*
X0269045Y0117500D03*
D20*
X0190305Y0155000D03*
X0180305Y0155000D03*
X0170305Y0155000D03*
D21*
X0090305Y0181500D03*
X0090305Y0187500D03*
X0090305Y0193500D03*
X0135305Y0038500D03*
X0135305Y0032500D03*
X0135305Y0026500D03*
D22*
X0119055Y0041250D03*
X0149055Y0063750D03*
X0129055Y0091250D03*
X0125305Y0108750D03*
X0142805Y0113750D03*
X0170305Y0128750D03*
X0162805Y0141250D03*
X0176555Y0172500D03*
X0211555Y0192500D03*
X0115305Y0192500D03*
X0072805Y0176250D03*
X0065305Y0201250D03*
X0111555Y0141250D03*
X0090305Y0127500D03*
X0091555Y0091250D03*
X0046555Y0100000D03*
X0039055Y0041250D03*
X0022805Y0021250D03*
X0055305Y0021250D03*
X0071555Y0041250D03*
X0087805Y0021250D03*
X0175305Y0103750D03*
X0197805Y0043750D03*
X0261555Y0023750D03*
D23*
X0265305Y0027500D01*
X0265305Y0077500D01*
X0262805Y0080000D01*
X0234055Y0080000D01*
X0232707Y0081348D01*
X0232707Y0105000D01*
X0232707Y0113652D01*
X0242805Y0123750D01*
X0242805Y0128760D01*
X0234055Y0128760D02*
X0234055Y0123750D01*
X0227195Y0116890D01*
X0227195Y0105000D01*
X0227195Y0078110D01*
X0229055Y0076250D01*
X0260305Y0076250D01*
X0261555Y0075000D01*
X0261555Y0031250D01*
X0255305Y0025000D01*
X0255305Y0015000D01*
X0220305Y0040207D02*
X0217598Y0040207D01*
X0215305Y0042500D01*
X0215305Y0055000D01*
X0220305Y0047293D02*
X0223848Y0047293D01*
X0225305Y0048750D01*
X0225305Y0055000D01*
X0188612Y0092057D02*
X0186555Y0090000D01*
X0160305Y0090000D01*
X0157805Y0092500D01*
X0157805Y0101260D01*
X0166555Y0101260D02*
X0166555Y0095000D01*
X0167805Y0093750D01*
X0185305Y0093750D01*
X0185856Y0094301D01*
X0185856Y0105000D01*
X0183100Y0105000D02*
X0183100Y0113455D01*
X0181555Y0115000D01*
X0167805Y0115000D01*
X0166555Y0113750D01*
X0166555Y0108740D01*
X0157805Y0108740D02*
X0157805Y0116250D01*
X0160305Y0118750D01*
X0186555Y0118750D01*
X0191368Y0113937D01*
X0191368Y0105000D01*
X0188612Y0105000D02*
X0188612Y0092057D01*
X0202392Y0092913D02*
X0204055Y0091250D01*
X0206555Y0091250D01*
X0207904Y0092598D01*
X0207904Y0105000D01*
X0202392Y0105000D02*
X0202392Y0119163D01*
X0200305Y0121250D01*
X0195315Y0121250D01*
X0195305Y0121260D01*
X0195305Y0116250D01*
X0194124Y0115069D01*
X0194124Y0105000D01*
X0202392Y0105000D02*
X0202392Y0092913D01*
X0216171Y0105000D02*
X0216171Y0117884D01*
X0205305Y0128750D01*
X0195315Y0128750D01*
X0195305Y0128740D01*
X0195305Y0138760D01*
X0195295Y0138750D01*
X0190305Y0138750D01*
X0187362Y0141693D01*
X0185305Y0141693D01*
X0185305Y0128307D02*
X0185305Y0126250D01*
X0190305Y0121250D01*
X0195295Y0121250D01*
X0195305Y0121260D01*
X0215305Y0128760D02*
X0225305Y0128760D01*
X0225305Y0123750D01*
X0218927Y0117372D01*
X0218927Y0105000D01*
X0229951Y0105000D02*
X0232707Y0105000D01*
X0249242Y0105000D02*
X0249242Y0135187D01*
X0251555Y0137500D01*
X0261565Y0137500D01*
X0261565Y0127500D02*
X0254055Y0127500D01*
X0251998Y0125443D01*
X0251998Y0105000D01*
X0254754Y0105000D02*
X0254754Y0115699D01*
X0256555Y0117500D01*
X0261565Y0117500D01*
X0255305Y0172500D02*
X0245305Y0172500D01*
X0242805Y0175000D01*
X0242805Y0197500D01*
X0245305Y0200000D01*
X0245305Y0205000D01*
X0246555Y0196250D02*
X0246555Y0185000D01*
X0249055Y0182500D01*
X0255305Y0182500D01*
X0246555Y0196250D02*
X0255305Y0205000D01*
X0225305Y0205000D02*
X0225305Y0188750D01*
X0222805Y0186250D01*
X0114055Y0186250D01*
X0111555Y0183750D01*
X0111555Y0141250D01*
X0097805Y0187500D02*
X0090305Y0187500D01*
X0097805Y0187500D02*
X0100305Y0190000D01*
X0100305Y0205000D01*
X0115305Y0192500D02*
X0117805Y0192500D01*
X0120305Y0195000D01*
X0120305Y0205000D01*
X0176555Y0172500D02*
X0176565Y0171240D01*
X0176565Y0165000D01*
X0176555Y0164990D01*
X0176555Y0158750D01*
X0180305Y0155000D01*
X0190305Y0155000D02*
X0190305Y0162500D01*
X0187805Y0165000D01*
X0184045Y0165000D01*
X0211555Y0192500D02*
X0211555Y0201250D01*
X0215305Y0205000D01*
X0046555Y0100000D02*
X0046555Y0050000D01*
X0049055Y0047500D01*
X0112805Y0047500D01*
X0119055Y0041250D01*
X0135305Y0026500D02*
X0135555Y0026250D01*
X0087805Y0027510D02*
X0087805Y0021250D01*
X0055305Y0021250D02*
X0055305Y0027510D01*
X0022805Y0027510D02*
X0022805Y0021250D01*
D24*
X0022805Y0034990D02*
X0055305Y0034990D01*
X0087805Y0034990D01*
X0122795Y0034990D01*
X0126305Y0038500D01*
X0135305Y0038500D01*
X0135305Y0101250D01*
X0135305Y0137500D01*
X0139055Y0141250D01*
X0162805Y0141250D01*
X0170305Y0128750D02*
X0145305Y0128750D01*
X0142805Y0126250D01*
X0142805Y0113750D01*
X0125305Y0108750D02*
X0075305Y0108750D01*
X0072805Y0111250D01*
X0072805Y0176250D01*
X0090305Y0181500D02*
X0051805Y0181500D01*
X0046555Y0176250D01*
X0046555Y0113750D01*
X0069055Y0091250D01*
X0091555Y0091250D01*
X0129055Y0091250D01*
X0149055Y0063750D02*
X0149055Y0057500D01*
X0151555Y0055000D01*
X0194055Y0055000D01*
X0197805Y0051250D01*
X0197805Y0043750D01*
X0211555Y0037500D02*
X0216555Y0032500D01*
X0232805Y0032500D01*
X0235305Y0035000D01*
X0235305Y0055000D01*
X0211555Y0037500D02*
X0175305Y0037500D01*
X0155305Y0035000D02*
X0155305Y0015000D01*
X0145305Y0015000D02*
X0145305Y0023750D01*
X0142805Y0026250D01*
X0135555Y0026250D01*
X0135305Y0032500D02*
X0127805Y0032500D01*
X0125305Y0030000D01*
X0125305Y0015000D01*
X0135305Y0038500D02*
X0151805Y0038500D01*
X0155305Y0035000D01*
X0170748Y0128307D02*
X0170305Y0128750D01*
X0170748Y0128307D02*
X0185305Y0128307D01*
X0217805Y0156250D02*
X0217805Y0162500D01*
X0217805Y0156250D02*
X0225305Y0148750D01*
X0225305Y0136240D01*
X0234055Y0136240D01*
X0242805Y0136240D01*
X0255305Y0162500D02*
X0227805Y0162500D01*
X0227805Y0172500D01*
X0090305Y0193500D02*
X0080555Y0193500D01*
X0072805Y0201250D01*
X0065305Y0201250D01*
X0020305Y0055000D02*
X0020305Y0048750D01*
X0022805Y0046250D01*
X0022805Y0034990D01*
D25*
X0009805Y0009500D02*
X0009805Y0210500D01*
X0258441Y0210500D01*
X0260805Y0208136D01*
X0260805Y0164105D01*
X0261490Y0162451D01*
X0270805Y0153136D01*
X0270805Y0141953D01*
X0269545Y0141953D01*
X0269545Y0138000D01*
X0268545Y0138000D01*
X0268545Y0141953D01*
X0266289Y0141953D01*
X0265907Y0141851D01*
X0265565Y0141653D01*
X0265286Y0141374D01*
X0265196Y0141219D01*
X0264662Y0141753D01*
X0258467Y0141753D01*
X0257706Y0140991D01*
X0257706Y0139400D01*
X0250768Y0139400D01*
X0249655Y0138287D01*
X0247342Y0135974D01*
X0247342Y0114000D01*
X0246486Y0114000D01*
X0245501Y0114000D01*
X0245120Y0113898D01*
X0245108Y0113891D01*
X0245097Y0113898D01*
X0244715Y0114000D01*
X0243730Y0114000D01*
X0242745Y0114000D01*
X0242364Y0113898D01*
X0242352Y0113891D01*
X0242341Y0113898D01*
X0241959Y0114000D01*
X0240974Y0114000D01*
X0239990Y0114000D01*
X0239608Y0113898D01*
X0239596Y0113891D01*
X0239585Y0113898D01*
X0239203Y0114000D01*
X0238219Y0114000D01*
X0238219Y0105000D01*
X0240974Y0105000D01*
X0238687Y0105000D01*
X0238219Y0105000D01*
X0238219Y0105000D01*
X0238219Y0096000D01*
X0239203Y0096000D01*
X0239585Y0096102D01*
X0239596Y0096109D01*
X0239608Y0096102D01*
X0239990Y0096000D01*
X0240974Y0096000D01*
X0240974Y0105000D01*
X0240974Y0105000D01*
X0240974Y0114000D01*
X0240974Y0105000D01*
X0240974Y0105000D01*
X0240974Y0105000D01*
X0240974Y0096000D01*
X0241959Y0096000D01*
X0242341Y0096102D01*
X0242352Y0096109D01*
X0242364Y0096102D01*
X0242745Y0096000D01*
X0243730Y0096000D01*
X0243730Y0105000D01*
X0243730Y0105000D01*
X0240975Y0105000D01*
X0240975Y0105000D01*
X0241443Y0105000D01*
X0243730Y0105000D01*
X0243730Y0105000D01*
X0243730Y0114000D01*
X0243730Y0105000D01*
X0243730Y0105000D01*
X0243730Y0096000D01*
X0244715Y0096000D01*
X0245097Y0096102D01*
X0245108Y0096109D01*
X0245120Y0096102D01*
X0245501Y0096000D01*
X0246486Y0096000D01*
X0246486Y0105000D01*
X0246486Y0105000D01*
X0243730Y0105000D01*
X0243730Y0105000D01*
X0244199Y0105000D01*
X0246486Y0105000D01*
X0246486Y0114000D01*
X0246486Y0105000D01*
X0246486Y0105000D01*
X0246486Y0105000D01*
X0246486Y0096000D01*
X0247471Y0096000D01*
X0247853Y0096102D01*
X0248022Y0096200D01*
X0250568Y0096200D01*
X0250620Y0096252D01*
X0250672Y0096200D01*
X0253324Y0096200D01*
X0253376Y0096252D01*
X0253428Y0096200D01*
X0255974Y0096200D01*
X0256143Y0096102D01*
X0256525Y0096000D01*
X0257510Y0096000D01*
X0258495Y0096000D01*
X0258876Y0096102D01*
X0258888Y0096109D01*
X0258899Y0096102D01*
X0259281Y0096000D01*
X0260266Y0096000D01*
X0261251Y0096000D01*
X0261632Y0096102D01*
X0261974Y0096300D01*
X0262253Y0096579D01*
X0262451Y0096921D01*
X0262553Y0097303D01*
X0262553Y0105000D01*
X0262553Y0112697D01*
X0262451Y0113079D01*
X0262354Y0113247D01*
X0264662Y0113247D01*
X0265196Y0113781D01*
X0265286Y0113626D01*
X0265565Y0113347D01*
X0265907Y0113149D01*
X0266289Y0113047D01*
X0268545Y0113047D01*
X0268545Y0117000D01*
X0269545Y0117000D01*
X0269545Y0113047D01*
X0270805Y0113047D01*
X0270805Y0026864D01*
X0262756Y0018815D01*
X0261490Y0017549D01*
X0260805Y0015895D01*
X0260805Y0009500D01*
X0096287Y0009500D01*
X0097030Y0011292D01*
X0097030Y0013708D01*
X0096105Y0015941D01*
X0094396Y0017650D01*
X0092163Y0018575D01*
X0089746Y0018575D01*
X0089312Y0018395D01*
X0090889Y0019972D01*
X0090889Y0022528D01*
X0089766Y0023651D01*
X0091296Y0023651D01*
X0092058Y0024412D01*
X0092058Y0030607D01*
X0091415Y0031250D01*
X0092058Y0031893D01*
X0092058Y0032490D01*
X0123293Y0032490D01*
X0124211Y0032871D01*
X0127341Y0036000D01*
X0130855Y0036000D01*
X0130855Y0035662D01*
X0131017Y0035500D01*
X0130855Y0035338D01*
X0130855Y0035000D01*
X0127308Y0035000D01*
X0126389Y0034619D01*
X0125686Y0033916D01*
X0123186Y0031416D01*
X0122805Y0030497D01*
X0122805Y0018537D01*
X0121037Y0016768D01*
X0121037Y0013232D01*
X0123537Y0010731D01*
X0127073Y0010731D01*
X0129574Y0013232D01*
X0129574Y0016768D01*
X0127805Y0018537D01*
X0127805Y0028964D01*
X0130855Y0028964D01*
X0130855Y0029338D02*
X0130855Y0023662D01*
X0131617Y0022900D01*
X0138994Y0022900D01*
X0139755Y0023662D01*
X0139755Y0023750D01*
X0141770Y0023750D01*
X0142805Y0022714D01*
X0142805Y0018537D01*
X0141037Y0016768D01*
X0141037Y0013232D01*
X0143537Y0010731D01*
X0147073Y0010731D01*
X0149574Y0013232D01*
X0149574Y0016768D01*
X0147805Y0018537D01*
X0147805Y0024247D01*
X0147425Y0025166D01*
X0146721Y0025869D01*
X0144221Y0028369D01*
X0143302Y0028750D01*
X0139755Y0028750D01*
X0139755Y0029338D01*
X0139594Y0029500D01*
X0139755Y0029662D01*
X0139755Y0035338D01*
X0139594Y0035500D01*
X0139755Y0035662D01*
X0139755Y0036000D01*
X0150770Y0036000D01*
X0152805Y0033964D01*
X0152805Y0018537D01*
X0151037Y0016768D01*
X0151037Y0013232D01*
X0153537Y0010731D01*
X0157073Y0010731D01*
X0159574Y0013232D01*
X0159574Y0016768D01*
X0157805Y0018537D01*
X0157805Y0035497D01*
X0157425Y0036416D01*
X0156721Y0037119D01*
X0153221Y0040619D01*
X0152302Y0041000D01*
X0139755Y0041000D01*
X0139755Y0041338D01*
X0138994Y0042100D01*
X0137805Y0042100D01*
X0137805Y0098270D01*
X0139180Y0099645D01*
X0139180Y0102855D01*
X0137805Y0104230D01*
X0137805Y0136464D01*
X0140091Y0138750D01*
X0160943Y0138750D01*
X0161528Y0138166D01*
X0164083Y0138166D01*
X0165889Y0139972D01*
X0165889Y0142528D01*
X0164083Y0144334D01*
X0161528Y0144334D01*
X0160943Y0143750D01*
X0138558Y0143750D01*
X0137639Y0143369D01*
X0136936Y0142666D01*
X0133186Y0138916D01*
X0132805Y0137997D01*
X0132805Y0104230D01*
X0131430Y0102855D01*
X0131430Y0099645D01*
X0132805Y0098270D01*
X0132805Y0042100D01*
X0131617Y0042100D01*
X0130855Y0041338D01*
X0130855Y0041000D01*
X0125808Y0041000D01*
X0124889Y0040619D01*
X0124186Y0039916D01*
X0121760Y0037490D01*
X0092058Y0037490D01*
X0092058Y0038088D01*
X0091296Y0038849D01*
X0084314Y0038849D01*
X0083552Y0038088D01*
X0083552Y0037490D01*
X0059558Y0037490D01*
X0059558Y0038088D01*
X0058796Y0038849D01*
X0051814Y0038849D01*
X0051052Y0038088D01*
X0051052Y0037490D01*
X0027058Y0037490D01*
X0027058Y0038088D01*
X0026296Y0038849D01*
X0025305Y0038849D01*
X0025305Y0046747D01*
X0024925Y0047666D01*
X0022805Y0049786D01*
X0022805Y0051419D01*
X0024605Y0053219D01*
X0024605Y0056781D01*
X0022086Y0059300D01*
X0018524Y0059300D01*
X0016005Y0056781D01*
X0016005Y0053219D01*
X0017805Y0051419D01*
X0017805Y0048253D01*
X0018186Y0047334D01*
X0018889Y0046631D01*
X0020305Y0045214D01*
X0020305Y0038849D01*
X0019314Y0038849D01*
X0018552Y0038088D01*
X0018552Y0031893D01*
X0019195Y0031250D01*
X0018552Y0030607D01*
X0018552Y0024412D01*
X0019314Y0023651D01*
X0020844Y0023651D01*
X0019721Y0022528D01*
X0019721Y0019972D01*
X0021299Y0018395D01*
X0020864Y0018575D01*
X0018447Y0018575D01*
X0016214Y0017650D01*
X0014506Y0015941D01*
X0013581Y0013708D01*
X0013581Y0011292D01*
X0014323Y0009500D01*
X0009805Y0009500D01*
X0009805Y0009993D02*
X0014119Y0009993D01*
X0013705Y0010991D02*
X0009805Y0010991D01*
X0009805Y0011990D02*
X0013581Y0011990D01*
X0013581Y0012988D02*
X0009805Y0012988D01*
X0009805Y0013987D02*
X0013696Y0013987D01*
X0014110Y0014985D02*
X0009805Y0014985D01*
X0009805Y0015984D02*
X0014548Y0015984D01*
X0015547Y0016982D02*
X0009805Y0016982D01*
X0009805Y0017981D02*
X0017013Y0017981D01*
X0019721Y0019978D02*
X0009805Y0019978D01*
X0009805Y0020976D02*
X0019721Y0020976D01*
X0019721Y0021975D02*
X0009805Y0021975D01*
X0009805Y0022973D02*
X0020167Y0022973D01*
X0018993Y0023972D02*
X0009805Y0023972D01*
X0009805Y0024970D02*
X0018552Y0024970D01*
X0018552Y0025969D02*
X0009805Y0025969D01*
X0009805Y0026967D02*
X0018552Y0026967D01*
X0018552Y0027966D02*
X0009805Y0027966D01*
X0009805Y0028964D02*
X0018552Y0028964D01*
X0018552Y0029963D02*
X0009805Y0029963D01*
X0009805Y0030961D02*
X0018906Y0030961D01*
X0018552Y0031960D02*
X0009805Y0031960D01*
X0009805Y0032958D02*
X0018552Y0032958D01*
X0018552Y0033957D02*
X0009805Y0033957D01*
X0009805Y0034955D02*
X0018552Y0034955D01*
X0018552Y0035954D02*
X0009805Y0035954D01*
X0009805Y0036952D02*
X0018552Y0036952D01*
X0018552Y0037951D02*
X0009805Y0037951D01*
X0009805Y0038949D02*
X0020305Y0038949D01*
X0020305Y0039948D02*
X0009805Y0039948D01*
X0009805Y0040946D02*
X0020305Y0040946D01*
X0020305Y0041945D02*
X0009805Y0041945D01*
X0009805Y0042943D02*
X0020305Y0042943D01*
X0020305Y0043942D02*
X0009805Y0043942D01*
X0009805Y0044940D02*
X0020305Y0044940D01*
X0019581Y0045939D02*
X0009805Y0045939D01*
X0009805Y0046937D02*
X0018582Y0046937D01*
X0017936Y0047936D02*
X0009805Y0047936D01*
X0009805Y0048934D02*
X0017805Y0048934D01*
X0017805Y0049933D02*
X0009805Y0049933D01*
X0009805Y0050932D02*
X0017805Y0050932D01*
X0017294Y0051930D02*
X0009805Y0051930D01*
X0009805Y0052929D02*
X0016295Y0052929D01*
X0016005Y0053927D02*
X0009805Y0053927D01*
X0009805Y0054926D02*
X0016005Y0054926D01*
X0016005Y0055924D02*
X0009805Y0055924D01*
X0009805Y0056923D02*
X0016147Y0056923D01*
X0017145Y0057921D02*
X0009805Y0057921D01*
X0009805Y0058920D02*
X0018144Y0058920D01*
X0018524Y0060700D02*
X0022086Y0060700D01*
X0024605Y0063219D01*
X0024605Y0066781D01*
X0022086Y0069300D01*
X0018524Y0069300D01*
X0016005Y0066781D01*
X0016005Y0063219D01*
X0018524Y0060700D01*
X0018307Y0060917D02*
X0009805Y0060917D01*
X0009805Y0061915D02*
X0017309Y0061915D01*
X0016310Y0062914D02*
X0009805Y0062914D01*
X0009805Y0063912D02*
X0016005Y0063912D01*
X0016005Y0064911D02*
X0009805Y0064911D01*
X0009805Y0065909D02*
X0016005Y0065909D01*
X0016132Y0066908D02*
X0009805Y0066908D01*
X0009805Y0067906D02*
X0017130Y0067906D01*
X0018129Y0068905D02*
X0009805Y0068905D01*
X0009805Y0069903D02*
X0044655Y0069903D01*
X0044655Y0068905D02*
X0022481Y0068905D01*
X0023480Y0067906D02*
X0044655Y0067906D01*
X0044655Y0066908D02*
X0024479Y0066908D01*
X0024605Y0065909D02*
X0044655Y0065909D01*
X0044655Y0064911D02*
X0024605Y0064911D01*
X0024605Y0063912D02*
X0044655Y0063912D01*
X0044655Y0062914D02*
X0024300Y0062914D01*
X0023301Y0061915D02*
X0044655Y0061915D01*
X0044655Y0060917D02*
X0022303Y0060917D01*
X0022467Y0058920D02*
X0044655Y0058920D01*
X0044655Y0059918D02*
X0009805Y0059918D01*
X0009805Y0070902D02*
X0018322Y0070902D01*
X0018524Y0070700D02*
X0022086Y0070700D01*
X0024605Y0073219D01*
X0024605Y0076781D01*
X0022086Y0079300D01*
X0018524Y0079300D01*
X0016005Y0076781D01*
X0016005Y0073219D01*
X0018524Y0070700D01*
X0017324Y0071900D02*
X0009805Y0071900D01*
X0009805Y0072899D02*
X0016325Y0072899D01*
X0016005Y0073897D02*
X0009805Y0073897D01*
X0009805Y0074896D02*
X0016005Y0074896D01*
X0016005Y0075894D02*
X0009805Y0075894D01*
X0009805Y0076893D02*
X0016117Y0076893D01*
X0017115Y0077891D02*
X0009805Y0077891D01*
X0009805Y0078890D02*
X0018114Y0078890D01*
X0018441Y0080500D02*
X0019805Y0080500D01*
X0019805Y0084500D01*
X0015805Y0084500D01*
X0015805Y0083136D01*
X0018441Y0080500D01*
X0018054Y0080887D02*
X0009805Y0080887D01*
X0009805Y0081885D02*
X0017056Y0081885D01*
X0016057Y0082884D02*
X0009805Y0082884D01*
X0009805Y0083882D02*
X0015805Y0083882D01*
X0015805Y0085500D02*
X0019805Y0085500D01*
X0019805Y0084500D01*
X0020805Y0084500D01*
X0020805Y0080500D01*
X0022169Y0080500D01*
X0024805Y0083136D01*
X0024805Y0084500D01*
X0020805Y0084500D01*
X0020805Y0085500D01*
X0019805Y0085500D01*
X0019805Y0089500D01*
X0018441Y0089500D01*
X0015805Y0086864D01*
X0015805Y0085500D01*
X0015805Y0085879D02*
X0009805Y0085879D01*
X0009805Y0084881D02*
X0019805Y0084881D01*
X0019805Y0085879D02*
X0020805Y0085879D01*
X0020805Y0085500D02*
X0020805Y0089500D01*
X0022169Y0089500D01*
X0024805Y0086864D01*
X0024805Y0085500D01*
X0020805Y0085500D01*
X0020805Y0084881D02*
X0044655Y0084881D01*
X0044655Y0085879D02*
X0024805Y0085879D01*
X0024791Y0086878D02*
X0044655Y0086878D01*
X0044655Y0087876D02*
X0023793Y0087876D01*
X0022794Y0088875D02*
X0044655Y0088875D01*
X0044655Y0089873D02*
X0009805Y0089873D01*
X0009805Y0088875D02*
X0017816Y0088875D01*
X0016818Y0087876D02*
X0009805Y0087876D01*
X0009805Y0086878D02*
X0015819Y0086878D01*
X0019805Y0086878D02*
X0020805Y0086878D01*
X0020805Y0087876D02*
X0019805Y0087876D01*
X0019805Y0088875D02*
X0020805Y0088875D01*
X0020805Y0083882D02*
X0019805Y0083882D01*
X0019805Y0082884D02*
X0020805Y0082884D01*
X0020805Y0081885D02*
X0019805Y0081885D01*
X0019805Y0080887D02*
X0020805Y0080887D01*
X0022556Y0080887D02*
X0044655Y0080887D01*
X0044655Y0081885D02*
X0023554Y0081885D01*
X0024553Y0082884D02*
X0044655Y0082884D01*
X0044655Y0083882D02*
X0024805Y0083882D01*
X0022496Y0078890D02*
X0044655Y0078890D01*
X0044655Y0079888D02*
X0009805Y0079888D01*
X0009805Y0090872D02*
X0044655Y0090872D01*
X0044655Y0091870D02*
X0009805Y0091870D01*
X0009805Y0092869D02*
X0044655Y0092869D01*
X0044655Y0093868D02*
X0009805Y0093868D01*
X0009805Y0094866D02*
X0044655Y0094866D01*
X0044655Y0095865D02*
X0009805Y0095865D01*
X0009805Y0096863D02*
X0044655Y0096863D01*
X0044655Y0097538D02*
X0043471Y0098722D01*
X0043471Y0101278D01*
X0045278Y0103084D01*
X0047833Y0103084D01*
X0049639Y0101278D01*
X0049639Y0098722D01*
X0048455Y0097538D01*
X0048455Y0050787D01*
X0049842Y0049400D01*
X0113592Y0049400D01*
X0118658Y0044334D01*
X0120333Y0044334D01*
X0122139Y0042528D01*
X0122139Y0039972D01*
X0120333Y0038166D01*
X0117778Y0038166D01*
X0115971Y0039972D01*
X0115971Y0041647D01*
X0112018Y0045600D01*
X0048268Y0045600D01*
X0047155Y0046713D01*
X0044655Y0049213D01*
X0044655Y0097538D01*
X0044332Y0097862D02*
X0009805Y0097862D01*
X0009805Y0098860D02*
X0043471Y0098860D01*
X0043471Y0099859D02*
X0009805Y0099859D01*
X0009805Y0100857D02*
X0043471Y0100857D01*
X0044049Y0101856D02*
X0009805Y0101856D01*
X0009805Y0102854D02*
X0045047Y0102854D01*
X0048063Y0102854D02*
X0053915Y0102854D01*
X0052917Y0103853D02*
X0009805Y0103853D01*
X0009805Y0104851D02*
X0051918Y0104851D01*
X0050920Y0105850D02*
X0009805Y0105850D01*
X0009805Y0106848D02*
X0049921Y0106848D01*
X0048923Y0107847D02*
X0009805Y0107847D01*
X0009805Y0108845D02*
X0047924Y0108845D01*
X0046926Y0109844D02*
X0009805Y0109844D01*
X0009805Y0110842D02*
X0045927Y0110842D01*
X0044929Y0111841D02*
X0009805Y0111841D01*
X0009805Y0112839D02*
X0044226Y0112839D01*
X0044055Y0113253D02*
X0044436Y0112334D01*
X0066936Y0089834D01*
X0067639Y0089131D01*
X0068558Y0088750D01*
X0089693Y0088750D01*
X0090278Y0088166D01*
X0092833Y0088166D01*
X0093417Y0088750D01*
X0127193Y0088750D01*
X0127778Y0088166D01*
X0130333Y0088166D01*
X0132139Y0089972D01*
X0132139Y0092528D01*
X0130333Y0094334D01*
X0127778Y0094334D01*
X0127193Y0093750D01*
X0093417Y0093750D01*
X0092833Y0094334D01*
X0090278Y0094334D01*
X0089693Y0093750D01*
X0070091Y0093750D01*
X0049055Y0114786D01*
X0049055Y0175214D01*
X0052841Y0179000D01*
X0071193Y0179000D01*
X0069721Y0177528D01*
X0069721Y0174972D01*
X0070305Y0174388D01*
X0070305Y0110753D01*
X0070686Y0109834D01*
X0073186Y0107334D01*
X0073889Y0106631D01*
X0074808Y0106250D01*
X0123443Y0106250D01*
X0124028Y0105666D01*
X0126583Y0105666D01*
X0128389Y0107472D01*
X0128389Y0110028D01*
X0126583Y0111834D01*
X0124028Y0111834D01*
X0123443Y0111250D01*
X0076341Y0111250D01*
X0075305Y0112286D01*
X0075305Y0174388D01*
X0075889Y0174972D01*
X0075889Y0177528D01*
X0074417Y0179000D01*
X0085855Y0179000D01*
X0085855Y0178662D01*
X0086617Y0177900D01*
X0093994Y0177900D01*
X0094755Y0178662D01*
X0094755Y0184338D01*
X0094594Y0184500D01*
X0094755Y0184662D01*
X0094755Y0185600D01*
X0098592Y0185600D01*
X0101092Y0188100D01*
X0102205Y0189213D01*
X0102205Y0200863D01*
X0104574Y0203232D01*
X0104574Y0206768D01*
X0102073Y0209268D01*
X0098537Y0209268D01*
X0096037Y0206768D01*
X0096037Y0203232D01*
X0098405Y0200863D01*
X0098405Y0190787D01*
X0097018Y0189400D01*
X0094755Y0189400D01*
X0094755Y0190338D01*
X0094594Y0190500D01*
X0094755Y0190662D01*
X0094755Y0196338D01*
X0093994Y0197100D01*
X0086617Y0197100D01*
X0085855Y0196338D01*
X0085855Y0196000D01*
X0081591Y0196000D01*
X0074925Y0202666D01*
X0074221Y0203369D01*
X0073302Y0203750D01*
X0067167Y0203750D01*
X0066583Y0204334D01*
X0064028Y0204334D01*
X0062221Y0202528D01*
X0062221Y0199972D01*
X0064028Y0198166D01*
X0066583Y0198166D01*
X0067167Y0198750D01*
X0071770Y0198750D01*
X0079139Y0191381D01*
X0080058Y0191000D01*
X0085855Y0191000D01*
X0085855Y0190662D01*
X0086017Y0190500D01*
X0085855Y0190338D01*
X0085855Y0184662D01*
X0086017Y0184500D01*
X0085855Y0184338D01*
X0085855Y0184000D01*
X0051308Y0184000D01*
X0050389Y0183619D01*
X0045139Y0178369D01*
X0044436Y0177666D01*
X0044055Y0176747D01*
X0044055Y0113253D01*
X0044055Y0113838D02*
X0009805Y0113838D01*
X0009805Y0114836D02*
X0044055Y0114836D01*
X0044055Y0115835D02*
X0009805Y0115835D01*
X0009805Y0116833D02*
X0044055Y0116833D01*
X0044055Y0117832D02*
X0009805Y0117832D01*
X0009805Y0118830D02*
X0044055Y0118830D01*
X0044055Y0119829D02*
X0009805Y0119829D01*
X0009805Y0120827D02*
X0044055Y0120827D01*
X0044055Y0121826D02*
X0009805Y0121826D01*
X0009805Y0122824D02*
X0044055Y0122824D01*
X0044055Y0123823D02*
X0009805Y0123823D01*
X0009805Y0124821D02*
X0044055Y0124821D01*
X0044055Y0125820D02*
X0009805Y0125820D01*
X0009805Y0126818D02*
X0017483Y0126818D01*
X0017719Y0126720D02*
X0020214Y0126720D01*
X0022519Y0127675D01*
X0024283Y0129440D01*
X0025238Y0131745D01*
X0025238Y0134240D01*
X0024283Y0136545D01*
X0022519Y0138309D01*
X0020214Y0139264D01*
X0017719Y0139264D01*
X0015414Y0138309D01*
X0013650Y0136545D01*
X0012695Y0134240D01*
X0012695Y0131745D01*
X0013650Y0129440D01*
X0015414Y0127675D01*
X0017719Y0126720D01*
X0015272Y0127817D02*
X0009805Y0127817D01*
X0009805Y0128815D02*
X0014274Y0128815D01*
X0013495Y0129814D02*
X0009805Y0129814D01*
X0009805Y0130812D02*
X0013081Y0130812D01*
X0012695Y0131811D02*
X0009805Y0131811D01*
X0009805Y0132809D02*
X0012695Y0132809D01*
X0012695Y0133808D02*
X0009805Y0133808D01*
X0009805Y0134806D02*
X0012930Y0134806D01*
X0013343Y0135805D02*
X0009805Y0135805D01*
X0009805Y0136803D02*
X0013908Y0136803D01*
X0014907Y0137802D02*
X0009805Y0137802D01*
X0009805Y0138801D02*
X0016601Y0138801D01*
X0021332Y0138801D02*
X0044055Y0138801D01*
X0044055Y0139799D02*
X0009805Y0139799D01*
X0009805Y0140798D02*
X0044055Y0140798D01*
X0044055Y0141796D02*
X0009805Y0141796D01*
X0009805Y0142795D02*
X0044055Y0142795D01*
X0044055Y0143793D02*
X0009805Y0143793D01*
X0009805Y0144792D02*
X0044055Y0144792D01*
X0044055Y0145790D02*
X0009805Y0145790D01*
X0009805Y0146789D02*
X0044055Y0146789D01*
X0044055Y0147787D02*
X0009805Y0147787D01*
X0009805Y0148786D02*
X0044055Y0148786D01*
X0044055Y0149784D02*
X0009805Y0149784D01*
X0009805Y0150783D02*
X0044055Y0150783D01*
X0044055Y0151781D02*
X0009805Y0151781D01*
X0009805Y0152780D02*
X0044055Y0152780D01*
X0044055Y0153778D02*
X0009805Y0153778D01*
X0009805Y0154777D02*
X0044055Y0154777D01*
X0044055Y0155775D02*
X0009805Y0155775D01*
X0009805Y0156774D02*
X0044055Y0156774D01*
X0044055Y0157772D02*
X0009805Y0157772D01*
X0009805Y0158771D02*
X0016381Y0158771D01*
X0015414Y0159171D02*
X0013650Y0160936D01*
X0012695Y0163241D01*
X0012695Y0165736D01*
X0013650Y0168041D01*
X0015414Y0169805D01*
X0017719Y0170760D01*
X0020214Y0170760D01*
X0022519Y0169805D01*
X0024283Y0168041D01*
X0025238Y0165736D01*
X0025238Y0163241D01*
X0024283Y0160936D01*
X0022519Y0159171D01*
X0020214Y0158217D01*
X0017719Y0158217D01*
X0015414Y0159171D01*
X0014816Y0159769D02*
X0009805Y0159769D01*
X0009805Y0160768D02*
X0013817Y0160768D01*
X0013306Y0161766D02*
X0009805Y0161766D01*
X0009805Y0162765D02*
X0012892Y0162765D01*
X0012695Y0163763D02*
X0009805Y0163763D01*
X0009805Y0164762D02*
X0012695Y0164762D01*
X0012705Y0165760D02*
X0009805Y0165760D01*
X0009805Y0166759D02*
X0013119Y0166759D01*
X0013532Y0167757D02*
X0009805Y0167757D01*
X0009805Y0168756D02*
X0014365Y0168756D01*
X0015363Y0169754D02*
X0009805Y0169754D01*
X0009805Y0170753D02*
X0017702Y0170753D01*
X0020231Y0170753D02*
X0044055Y0170753D01*
X0044055Y0171751D02*
X0009805Y0171751D01*
X0009805Y0172750D02*
X0044055Y0172750D01*
X0044055Y0173748D02*
X0009805Y0173748D01*
X0009805Y0174747D02*
X0044055Y0174747D01*
X0044055Y0175745D02*
X0009805Y0175745D01*
X0009805Y0176744D02*
X0044055Y0176744D01*
X0044512Y0177742D02*
X0009805Y0177742D01*
X0009805Y0178741D02*
X0045511Y0178741D01*
X0046509Y0179739D02*
X0009805Y0179739D01*
X0009805Y0180738D02*
X0047508Y0180738D01*
X0048506Y0181737D02*
X0009805Y0181737D01*
X0009805Y0182735D02*
X0049505Y0182735D01*
X0050665Y0183734D02*
X0009805Y0183734D01*
X0009805Y0184732D02*
X0085855Y0184732D01*
X0085855Y0185731D02*
X0009805Y0185731D01*
X0009805Y0186729D02*
X0085855Y0186729D01*
X0085855Y0187728D02*
X0009805Y0187728D01*
X0009805Y0188726D02*
X0085855Y0188726D01*
X0085855Y0189725D02*
X0009805Y0189725D01*
X0009805Y0190723D02*
X0085855Y0190723D01*
X0086231Y0196714D02*
X0080876Y0196714D01*
X0079878Y0197713D02*
X0098405Y0197713D01*
X0098405Y0198711D02*
X0078879Y0198711D01*
X0077881Y0199710D02*
X0098405Y0199710D01*
X0098405Y0200708D02*
X0076882Y0200708D01*
X0077562Y0201707D02*
X0075884Y0201707D01*
X0076563Y0202705D02*
X0074885Y0202705D01*
X0076037Y0203232D02*
X0078537Y0200731D01*
X0082073Y0200731D01*
X0084574Y0203232D01*
X0084574Y0206768D01*
X0082073Y0209268D01*
X0078537Y0209268D01*
X0076037Y0206768D01*
X0076037Y0203232D01*
X0076037Y0203704D02*
X0073414Y0203704D01*
X0076037Y0204702D02*
X0009805Y0204702D01*
X0009805Y0203704D02*
X0063397Y0203704D01*
X0062399Y0202705D02*
X0009805Y0202705D01*
X0009805Y0201707D02*
X0062221Y0201707D01*
X0062221Y0200708D02*
X0009805Y0200708D01*
X0009805Y0199710D02*
X0062484Y0199710D01*
X0063482Y0198711D02*
X0009805Y0198711D01*
X0009805Y0197713D02*
X0072807Y0197713D01*
X0071808Y0198711D02*
X0067128Y0198711D01*
X0073805Y0196714D02*
X0009805Y0196714D01*
X0009805Y0195716D02*
X0074804Y0195716D01*
X0075802Y0194717D02*
X0009805Y0194717D01*
X0009805Y0193719D02*
X0076801Y0193719D01*
X0077799Y0192720D02*
X0009805Y0192720D01*
X0009805Y0191722D02*
X0078798Y0191722D01*
X0088537Y0200731D02*
X0092073Y0200731D01*
X0094574Y0203232D01*
X0094574Y0206768D01*
X0092073Y0209268D01*
X0088537Y0209268D01*
X0086037Y0206768D01*
X0086037Y0203232D01*
X0088537Y0200731D01*
X0087562Y0201707D02*
X0083048Y0201707D01*
X0084047Y0202705D02*
X0086563Y0202705D01*
X0086037Y0203704D02*
X0084574Y0203704D01*
X0084574Y0204702D02*
X0086037Y0204702D01*
X0086037Y0205701D02*
X0084574Y0205701D01*
X0084574Y0206699D02*
X0086037Y0206699D01*
X0086966Y0207698D02*
X0083644Y0207698D01*
X0082645Y0208696D02*
X0087965Y0208696D01*
X0092645Y0208696D02*
X0097965Y0208696D01*
X0096966Y0207698D02*
X0093644Y0207698D01*
X0094574Y0206699D02*
X0096037Y0206699D01*
X0096037Y0205701D02*
X0094574Y0205701D01*
X0094574Y0204702D02*
X0096037Y0204702D01*
X0096037Y0203704D02*
X0094574Y0203704D01*
X0094047Y0202705D02*
X0096563Y0202705D01*
X0097562Y0201707D02*
X0093048Y0201707D01*
X0094379Y0196714D02*
X0098405Y0196714D01*
X0098405Y0195716D02*
X0094755Y0195716D01*
X0094755Y0194717D02*
X0098405Y0194717D01*
X0098405Y0193719D02*
X0094755Y0193719D01*
X0094755Y0192720D02*
X0098405Y0192720D01*
X0098405Y0191722D02*
X0094755Y0191722D01*
X0094755Y0190723D02*
X0098341Y0190723D01*
X0097343Y0189725D02*
X0094755Y0189725D01*
X0098723Y0185731D02*
X0110849Y0185731D01*
X0111847Y0186729D02*
X0099721Y0186729D01*
X0100720Y0187728D02*
X0112846Y0187728D01*
X0113268Y0188150D02*
X0112155Y0187037D01*
X0109655Y0184537D01*
X0109655Y0143712D01*
X0108471Y0142528D01*
X0108471Y0139972D01*
X0110278Y0138166D01*
X0112833Y0138166D01*
X0114639Y0139972D01*
X0114639Y0142528D01*
X0113455Y0143712D01*
X0113455Y0182963D01*
X0114842Y0184350D01*
X0223592Y0184350D01*
X0226092Y0186850D01*
X0227205Y0187963D01*
X0227205Y0200863D01*
X0229574Y0203232D01*
X0229574Y0206768D01*
X0227073Y0209268D01*
X0223537Y0209268D01*
X0221037Y0206768D01*
X0221037Y0203232D01*
X0223405Y0200863D01*
X0223405Y0189537D01*
X0222018Y0188150D01*
X0113268Y0188150D01*
X0114028Y0189416D02*
X0112221Y0191222D01*
X0112221Y0193778D01*
X0114028Y0195584D01*
X0116583Y0195584D01*
X0117392Y0194774D01*
X0118405Y0195787D01*
X0118405Y0200863D01*
X0116037Y0203232D01*
X0116037Y0206768D01*
X0118537Y0209268D01*
X0122073Y0209268D01*
X0124574Y0206768D01*
X0124574Y0203232D01*
X0122205Y0200863D01*
X0122205Y0194213D01*
X0121092Y0193100D01*
X0118592Y0190600D01*
X0117767Y0190600D01*
X0116583Y0189416D01*
X0114028Y0189416D01*
X0113719Y0189725D02*
X0102205Y0189725D01*
X0102205Y0190723D02*
X0112720Y0190723D01*
X0112221Y0191722D02*
X0102205Y0191722D01*
X0102205Y0192720D02*
X0112221Y0192720D01*
X0112221Y0193719D02*
X0102205Y0193719D01*
X0102205Y0194717D02*
X0113160Y0194717D01*
X0118334Y0195716D02*
X0102205Y0195716D01*
X0102205Y0196714D02*
X0118405Y0196714D01*
X0118405Y0197713D02*
X0102205Y0197713D01*
X0102205Y0198711D02*
X0118405Y0198711D01*
X0118405Y0199710D02*
X0102205Y0199710D01*
X0102205Y0200708D02*
X0108277Y0200708D01*
X0108454Y0200531D02*
X0105837Y0203149D01*
X0105837Y0204516D01*
X0109821Y0204516D01*
X0109821Y0205484D01*
X0105837Y0205484D01*
X0105837Y0206851D01*
X0108454Y0209468D01*
X0109821Y0209468D01*
X0109821Y0205484D01*
X0110789Y0205484D01*
X0110789Y0209468D01*
X0112156Y0209468D01*
X0114774Y0206851D01*
X0114774Y0205484D01*
X0110789Y0205484D01*
X0110789Y0204516D01*
X0110789Y0200531D01*
X0112156Y0200531D01*
X0114774Y0203149D01*
X0114774Y0204516D01*
X0110789Y0204516D01*
X0109821Y0204516D01*
X0109821Y0200531D01*
X0108454Y0200531D01*
X0109821Y0200708D02*
X0110789Y0200708D01*
X0110789Y0201707D02*
X0109821Y0201707D01*
X0109821Y0202705D02*
X0110789Y0202705D01*
X0110789Y0203704D02*
X0109821Y0203704D01*
X0109821Y0204702D02*
X0104574Y0204702D01*
X0104574Y0203704D02*
X0105837Y0203704D01*
X0106280Y0202705D02*
X0104047Y0202705D01*
X0103048Y0201707D02*
X0107279Y0201707D01*
X0105837Y0205701D02*
X0104574Y0205701D01*
X0104574Y0206699D02*
X0105837Y0206699D01*
X0106684Y0207698D02*
X0103644Y0207698D01*
X0102645Y0208696D02*
X0107682Y0208696D01*
X0109821Y0208696D02*
X0110789Y0208696D01*
X0110789Y0207698D02*
X0109821Y0207698D01*
X0109821Y0206699D02*
X0110789Y0206699D01*
X0110789Y0205701D02*
X0109821Y0205701D01*
X0110789Y0204702D02*
X0116037Y0204702D01*
X0116037Y0203704D02*
X0114774Y0203704D01*
X0114330Y0202705D02*
X0116563Y0202705D01*
X0117562Y0201707D02*
X0113331Y0201707D01*
X0112333Y0200708D02*
X0118405Y0200708D01*
X0122205Y0200708D02*
X0209655Y0200708D01*
X0209655Y0199710D02*
X0122205Y0199710D01*
X0122205Y0198711D02*
X0209655Y0198711D01*
X0209655Y0197713D02*
X0122205Y0197713D01*
X0122205Y0196714D02*
X0209655Y0196714D01*
X0209655Y0195716D02*
X0122205Y0195716D01*
X0122205Y0194717D02*
X0209410Y0194717D01*
X0209655Y0194962D02*
X0208471Y0193778D01*
X0208471Y0191222D01*
X0210278Y0189416D01*
X0212833Y0189416D01*
X0214639Y0191222D01*
X0214639Y0193778D01*
X0213455Y0194962D01*
X0213455Y0200463D01*
X0213724Y0200731D01*
X0217073Y0200731D01*
X0219574Y0203232D01*
X0219574Y0206768D01*
X0217073Y0209268D01*
X0213537Y0209268D01*
X0211037Y0206768D01*
X0211037Y0203418D01*
X0209655Y0202037D01*
X0209655Y0194962D01*
X0208471Y0193719D02*
X0121711Y0193719D01*
X0120712Y0192720D02*
X0208471Y0192720D01*
X0208471Y0191722D02*
X0119714Y0191722D01*
X0118715Y0190723D02*
X0208970Y0190723D01*
X0209969Y0189725D02*
X0116891Y0189725D01*
X0114226Y0183734D02*
X0240905Y0183734D01*
X0240905Y0184732D02*
X0223974Y0184732D01*
X0224973Y0185731D02*
X0240905Y0185731D01*
X0240905Y0186729D02*
X0225971Y0186729D01*
X0226970Y0187728D02*
X0240905Y0187728D01*
X0240905Y0188726D02*
X0227205Y0188726D01*
X0227205Y0189725D02*
X0240905Y0189725D01*
X0240905Y0190723D02*
X0227205Y0190723D01*
X0227205Y0191722D02*
X0240905Y0191722D01*
X0240905Y0192720D02*
X0227205Y0192720D01*
X0227205Y0193719D02*
X0240905Y0193719D01*
X0240905Y0194717D02*
X0227205Y0194717D01*
X0227205Y0195716D02*
X0240905Y0195716D01*
X0240905Y0196714D02*
X0227205Y0196714D01*
X0227205Y0197713D02*
X0240905Y0197713D01*
X0240905Y0198287D02*
X0240905Y0174213D01*
X0243405Y0171713D01*
X0244518Y0170600D01*
X0251124Y0170600D01*
X0253524Y0168200D01*
X0257086Y0168200D01*
X0259605Y0170719D01*
X0259605Y0174281D01*
X0257086Y0176800D01*
X0253524Y0176800D01*
X0251124Y0174400D01*
X0246092Y0174400D01*
X0244705Y0175787D01*
X0244705Y0184163D01*
X0247155Y0181713D01*
X0248268Y0180600D01*
X0251124Y0180600D01*
X0253524Y0178200D01*
X0257086Y0178200D01*
X0259605Y0180719D01*
X0259605Y0184281D01*
X0257086Y0186800D01*
X0253524Y0186800D01*
X0251124Y0184400D01*
X0249842Y0184400D01*
X0248455Y0185787D01*
X0248455Y0195463D01*
X0253724Y0200731D01*
X0257073Y0200731D01*
X0259574Y0203232D01*
X0259574Y0206768D01*
X0257073Y0209268D01*
X0253537Y0209268D01*
X0251037Y0206768D01*
X0251037Y0203418D01*
X0247205Y0199587D01*
X0247205Y0200863D01*
X0249574Y0203232D01*
X0249574Y0206768D01*
X0247073Y0209268D01*
X0243537Y0209268D01*
X0241037Y0206768D01*
X0241037Y0203232D01*
X0243405Y0200863D01*
X0243405Y0200787D01*
X0242018Y0199400D01*
X0240905Y0198287D01*
X0241329Y0198711D02*
X0227205Y0198711D01*
X0227205Y0199710D02*
X0242328Y0199710D01*
X0243326Y0200708D02*
X0227205Y0200708D01*
X0228048Y0201707D02*
X0232562Y0201707D01*
X0233537Y0200731D02*
X0231037Y0203232D01*
X0231037Y0206768D01*
X0233537Y0209268D01*
X0237073Y0209268D01*
X0239574Y0206768D01*
X0239574Y0203232D01*
X0237073Y0200731D01*
X0233537Y0200731D01*
X0231563Y0202705D02*
X0229047Y0202705D01*
X0229574Y0203704D02*
X0231037Y0203704D01*
X0231037Y0204702D02*
X0229574Y0204702D01*
X0229574Y0205701D02*
X0231037Y0205701D01*
X0231037Y0206699D02*
X0229574Y0206699D01*
X0228644Y0207698D02*
X0231966Y0207698D01*
X0232965Y0208696D02*
X0227645Y0208696D01*
X0222965Y0208696D02*
X0217645Y0208696D01*
X0218644Y0207698D02*
X0221966Y0207698D01*
X0221037Y0206699D02*
X0219574Y0206699D01*
X0219574Y0205701D02*
X0221037Y0205701D01*
X0221037Y0204702D02*
X0219574Y0204702D01*
X0219574Y0203704D02*
X0221037Y0203704D01*
X0221563Y0202705D02*
X0219047Y0202705D01*
X0218048Y0201707D02*
X0222562Y0201707D01*
X0223405Y0200708D02*
X0213700Y0200708D01*
X0213455Y0199710D02*
X0223405Y0199710D01*
X0223405Y0198711D02*
X0213455Y0198711D01*
X0213455Y0197713D02*
X0223405Y0197713D01*
X0223405Y0196714D02*
X0213455Y0196714D01*
X0213455Y0195716D02*
X0223405Y0195716D01*
X0223405Y0194717D02*
X0213700Y0194717D01*
X0214639Y0193719D02*
X0223405Y0193719D01*
X0223405Y0192720D02*
X0214639Y0192720D01*
X0214639Y0191722D02*
X0223405Y0191722D01*
X0223405Y0190723D02*
X0214140Y0190723D01*
X0213141Y0189725D02*
X0223405Y0189725D01*
X0222594Y0188726D02*
X0101718Y0188726D01*
X0094755Y0184732D02*
X0109850Y0184732D01*
X0109655Y0183734D02*
X0094755Y0183734D01*
X0094755Y0182735D02*
X0109655Y0182735D01*
X0109655Y0181737D02*
X0094755Y0181737D01*
X0094755Y0180738D02*
X0109655Y0180738D01*
X0109655Y0179739D02*
X0094755Y0179739D01*
X0094755Y0178741D02*
X0109655Y0178741D01*
X0109655Y0177742D02*
X0075674Y0177742D01*
X0075889Y0176744D02*
X0109655Y0176744D01*
X0109655Y0175745D02*
X0075889Y0175745D01*
X0075664Y0174747D02*
X0109655Y0174747D01*
X0109655Y0173748D02*
X0075305Y0173748D01*
X0075305Y0172750D02*
X0109655Y0172750D01*
X0109655Y0171751D02*
X0075305Y0171751D01*
X0075305Y0170753D02*
X0109655Y0170753D01*
X0109655Y0169754D02*
X0075305Y0169754D01*
X0075305Y0168756D02*
X0109655Y0168756D01*
X0109655Y0167757D02*
X0075305Y0167757D01*
X0075305Y0166759D02*
X0109655Y0166759D01*
X0109655Y0165760D02*
X0075305Y0165760D01*
X0075305Y0164762D02*
X0109655Y0164762D01*
X0109655Y0163763D02*
X0075305Y0163763D01*
X0075305Y0162765D02*
X0109655Y0162765D01*
X0109655Y0161766D02*
X0075305Y0161766D01*
X0075305Y0160768D02*
X0109655Y0160768D01*
X0109655Y0159769D02*
X0075305Y0159769D01*
X0075305Y0158771D02*
X0109655Y0158771D01*
X0109655Y0157772D02*
X0075305Y0157772D01*
X0075305Y0156774D02*
X0109655Y0156774D01*
X0109655Y0155775D02*
X0075305Y0155775D01*
X0075305Y0154777D02*
X0109655Y0154777D01*
X0109655Y0153778D02*
X0075305Y0153778D01*
X0075305Y0152780D02*
X0109655Y0152780D01*
X0109655Y0151781D02*
X0075305Y0151781D01*
X0075305Y0150783D02*
X0109655Y0150783D01*
X0109655Y0149784D02*
X0075305Y0149784D01*
X0075305Y0148786D02*
X0109655Y0148786D01*
X0109655Y0147787D02*
X0075305Y0147787D01*
X0075305Y0146789D02*
X0109655Y0146789D01*
X0109655Y0145790D02*
X0075305Y0145790D01*
X0075305Y0144792D02*
X0109655Y0144792D01*
X0109655Y0143793D02*
X0075305Y0143793D01*
X0075305Y0142795D02*
X0108738Y0142795D01*
X0108471Y0141796D02*
X0075305Y0141796D01*
X0075305Y0140798D02*
X0108471Y0140798D01*
X0108644Y0139799D02*
X0075305Y0139799D01*
X0075305Y0138801D02*
X0109643Y0138801D01*
X0113467Y0138801D02*
X0118246Y0138801D01*
X0118246Y0139278D02*
X0118246Y0136470D01*
X0119321Y0133875D01*
X0121306Y0131890D01*
X0123901Y0130815D01*
X0126709Y0130815D01*
X0129304Y0131890D01*
X0131289Y0133875D01*
X0132364Y0136470D01*
X0132364Y0139278D01*
X0131289Y0141873D01*
X0129304Y0143858D01*
X0126709Y0144933D01*
X0123901Y0144933D01*
X0121306Y0143858D01*
X0119321Y0141873D01*
X0118246Y0139278D01*
X0118462Y0139799D02*
X0114466Y0139799D01*
X0114639Y0140798D02*
X0118875Y0140798D01*
X0119289Y0141796D02*
X0114639Y0141796D01*
X0114372Y0142795D02*
X0120243Y0142795D01*
X0121241Y0143793D02*
X0113455Y0143793D01*
X0113455Y0144792D02*
X0123559Y0144792D01*
X0127051Y0144792D02*
X0182430Y0144792D01*
X0182430Y0145381D02*
X0182430Y0138005D01*
X0183192Y0137243D01*
X0187418Y0137243D01*
X0188180Y0138005D01*
X0188180Y0138188D01*
X0188405Y0137963D01*
X0189518Y0136850D01*
X0191052Y0136850D01*
X0191052Y0135662D01*
X0191814Y0134901D01*
X0193405Y0134901D01*
X0193405Y0132599D01*
X0191814Y0132599D01*
X0191052Y0131838D01*
X0191052Y0125643D01*
X0191695Y0125000D01*
X0191052Y0124357D01*
X0191052Y0123190D01*
X0188180Y0126062D01*
X0188180Y0131995D01*
X0187418Y0132757D01*
X0183192Y0132757D01*
X0182430Y0131995D01*
X0182430Y0130807D01*
X0172610Y0130807D01*
X0171583Y0131834D01*
X0169028Y0131834D01*
X0168443Y0131250D01*
X0144808Y0131250D01*
X0143889Y0130869D01*
X0143186Y0130166D01*
X0140686Y0127666D01*
X0140305Y0126747D01*
X0140305Y0115612D01*
X0139721Y0115028D01*
X0139721Y0112472D01*
X0141528Y0110666D01*
X0144083Y0110666D01*
X0145889Y0112472D01*
X0145889Y0115028D01*
X0145305Y0115612D01*
X0145305Y0125214D01*
X0146341Y0126250D01*
X0168443Y0126250D01*
X0169028Y0125666D01*
X0171583Y0125666D01*
X0171724Y0125807D01*
X0182430Y0125807D01*
X0182430Y0124619D01*
X0183192Y0123857D01*
X0185011Y0123857D01*
X0188405Y0120463D01*
X0189518Y0119350D01*
X0191052Y0119350D01*
X0191052Y0118162D01*
X0191814Y0117401D01*
X0193405Y0117401D01*
X0193405Y0117037D01*
X0192224Y0115856D01*
X0192224Y0115768D01*
X0188455Y0119537D01*
X0187342Y0120650D01*
X0159518Y0120650D01*
X0157018Y0118150D01*
X0155905Y0117037D01*
X0155905Y0112599D01*
X0154314Y0112599D01*
X0153552Y0111838D01*
X0153552Y0105643D01*
X0154195Y0105000D01*
X0153552Y0104357D01*
X0153552Y0098162D01*
X0154314Y0097401D01*
X0155905Y0097401D01*
X0155905Y0091713D01*
X0157018Y0090600D01*
X0159518Y0088100D01*
X0187342Y0088100D01*
X0188455Y0089213D01*
X0190512Y0091270D01*
X0190512Y0096200D01*
X0192694Y0096200D01*
X0192746Y0096252D01*
X0192798Y0096200D01*
X0195450Y0096200D01*
X0195502Y0096252D01*
X0195554Y0096200D01*
X0198100Y0096200D01*
X0198269Y0096102D01*
X0198651Y0096000D01*
X0199636Y0096000D01*
X0200492Y0096000D01*
X0200492Y0092126D01*
X0201605Y0091013D01*
X0203268Y0089350D01*
X0207342Y0089350D01*
X0208455Y0090463D01*
X0209804Y0091811D01*
X0209804Y0096000D01*
X0210659Y0096000D01*
X0210659Y0105000D01*
X0210659Y0114000D01*
X0209675Y0114000D01*
X0209293Y0113898D01*
X0209124Y0113800D01*
X0206683Y0113800D01*
X0206514Y0113898D01*
X0206133Y0114000D01*
X0205148Y0114000D01*
X0205148Y0105000D01*
X0205148Y0105000D01*
X0205148Y0096000D01*
X0206004Y0096000D01*
X0206004Y0093385D01*
X0205768Y0093150D01*
X0204842Y0093150D01*
X0204292Y0093700D01*
X0204292Y0096000D01*
X0205148Y0096000D01*
X0205148Y0105000D01*
X0205148Y0105000D01*
X0205148Y0114000D01*
X0204292Y0114000D01*
X0204292Y0119950D01*
X0202205Y0122037D01*
X0201092Y0123150D01*
X0199558Y0123150D01*
X0199558Y0124357D01*
X0198915Y0125000D01*
X0199558Y0125643D01*
X0199558Y0126850D01*
X0204518Y0126850D01*
X0214271Y0117097D01*
X0214271Y0114000D01*
X0213415Y0114000D01*
X0212430Y0114000D01*
X0212049Y0113898D01*
X0212037Y0113891D01*
X0212026Y0113898D01*
X0211644Y0114000D01*
X0210659Y0114000D01*
X0210659Y0105000D01*
X0210659Y0105000D01*
X0210659Y0105000D01*
X0210659Y0096000D01*
X0211644Y0096000D01*
X0212026Y0096102D01*
X0212037Y0096109D01*
X0212049Y0096102D01*
X0212430Y0096000D01*
X0213415Y0096000D01*
X0213415Y0105000D01*
X0210660Y0105000D01*
X0212947Y0105000D01*
X0213415Y0105000D01*
X0213415Y0105000D01*
X0213415Y0114000D01*
X0213415Y0105000D01*
X0213415Y0105000D01*
X0213415Y0105000D01*
X0213415Y0096000D01*
X0214400Y0096000D01*
X0214782Y0096102D01*
X0214951Y0096200D01*
X0217497Y0096200D01*
X0217549Y0096252D01*
X0217601Y0096200D01*
X0220147Y0096200D01*
X0220317Y0096102D01*
X0220698Y0096000D01*
X0221683Y0096000D01*
X0221683Y0105000D01*
X0221683Y0114000D01*
X0220827Y0114000D01*
X0220827Y0116585D01*
X0226092Y0121850D01*
X0227205Y0122963D01*
X0227205Y0124901D01*
X0228796Y0124901D01*
X0229558Y0125662D01*
X0229558Y0131857D01*
X0228915Y0132500D01*
X0229558Y0133143D01*
X0229558Y0133740D01*
X0229802Y0133740D01*
X0229802Y0133143D01*
X0230445Y0132500D01*
X0229802Y0131857D01*
X0229802Y0125662D01*
X0230564Y0124901D01*
X0232155Y0124901D01*
X0232155Y0124537D01*
X0225295Y0117677D01*
X0225295Y0114000D01*
X0224439Y0114000D01*
X0224439Y0105000D01*
X0224439Y0105000D01*
X0224439Y0096000D01*
X0225295Y0096000D01*
X0225295Y0077323D01*
X0228268Y0074350D01*
X0259518Y0074350D01*
X0259655Y0074213D01*
X0259655Y0069275D01*
X0259647Y0069294D01*
X0257827Y0071114D01*
X0255450Y0072098D01*
X0252877Y0072098D01*
X0252096Y0071775D01*
X0251316Y0072098D01*
X0248743Y0072098D01*
X0247963Y0071775D01*
X0247182Y0072098D01*
X0244609Y0072098D01*
X0243927Y0071816D01*
X0243245Y0072098D01*
X0240672Y0072098D01*
X0239990Y0071816D01*
X0239308Y0072098D01*
X0236735Y0072098D01*
X0236053Y0071816D01*
X0235371Y0072098D01*
X0232798Y0072098D01*
X0232116Y0071816D01*
X0231434Y0072098D01*
X0228861Y0072098D01*
X0228179Y0071816D01*
X0227497Y0072098D01*
X0224924Y0072098D01*
X0224242Y0071816D01*
X0223560Y0072098D01*
X0220987Y0072098D01*
X0220305Y0071816D01*
X0219623Y0072098D01*
X0217050Y0072098D01*
X0216368Y0071816D01*
X0215686Y0072098D01*
X0213113Y0072098D01*
X0212431Y0071816D01*
X0211749Y0072098D01*
X0209176Y0072098D01*
X0208494Y0071816D01*
X0207812Y0072098D01*
X0205239Y0072098D01*
X0204557Y0071816D01*
X0203875Y0072098D01*
X0201302Y0072098D01*
X0200620Y0071816D01*
X0199938Y0072098D01*
X0197365Y0072098D01*
X0196683Y0071816D01*
X0196001Y0072098D01*
X0193428Y0072098D01*
X0192648Y0071775D01*
X0191867Y0072098D01*
X0189294Y0072098D01*
X0188514Y0071775D01*
X0187734Y0072098D01*
X0185160Y0072098D01*
X0182783Y0071114D01*
X0180963Y0069294D01*
X0179978Y0066917D01*
X0179978Y0064343D01*
X0180963Y0061966D01*
X0182783Y0060146D01*
X0185160Y0059161D01*
X0187734Y0059161D01*
X0188514Y0059485D01*
X0189294Y0059161D01*
X0191867Y0059161D01*
X0192648Y0059485D01*
X0193428Y0059161D01*
X0196001Y0059161D01*
X0196683Y0059444D01*
X0197365Y0059161D01*
X0199938Y0059161D01*
X0200620Y0059444D01*
X0201302Y0059161D01*
X0203875Y0059161D01*
X0204557Y0059444D01*
X0205239Y0059161D01*
X0207812Y0059161D01*
X0208494Y0059444D01*
X0209176Y0059161D01*
X0211749Y0059161D01*
X0212431Y0059444D01*
X0213113Y0059161D01*
X0215686Y0059161D01*
X0216368Y0059444D01*
X0217050Y0059161D01*
X0219623Y0059161D01*
X0220305Y0059444D01*
X0220987Y0059161D01*
X0223560Y0059161D01*
X0224242Y0059444D01*
X0224924Y0059161D01*
X0227497Y0059161D01*
X0228179Y0059444D01*
X0228861Y0059161D01*
X0231434Y0059161D01*
X0232116Y0059444D01*
X0232798Y0059161D01*
X0235371Y0059161D01*
X0236053Y0059444D01*
X0236735Y0059161D01*
X0239308Y0059161D01*
X0239990Y0059444D01*
X0240672Y0059161D01*
X0243245Y0059161D01*
X0243927Y0059444D01*
X0244609Y0059161D01*
X0247182Y0059161D01*
X0247963Y0059485D01*
X0248743Y0059161D01*
X0251316Y0059161D01*
X0252096Y0059485D01*
X0252877Y0059161D01*
X0255450Y0059161D01*
X0257827Y0060146D01*
X0259647Y0061966D01*
X0259655Y0061985D01*
X0259655Y0032037D01*
X0254518Y0026900D01*
X0253405Y0025787D01*
X0253405Y0019137D01*
X0251037Y0016768D01*
X0251037Y0013232D01*
X0253537Y0010731D01*
X0257073Y0010731D01*
X0259574Y0013232D01*
X0259574Y0016768D01*
X0257205Y0019137D01*
X0257205Y0024213D01*
X0263405Y0030413D01*
X0263405Y0028287D01*
X0261952Y0026834D01*
X0260278Y0026834D01*
X0258471Y0025028D01*
X0258471Y0022472D01*
X0260278Y0020666D01*
X0262833Y0020666D01*
X0264639Y0022472D01*
X0264639Y0024147D01*
X0267205Y0026713D01*
X0267205Y0078287D01*
X0266092Y0079400D01*
X0263592Y0081900D01*
X0234842Y0081900D01*
X0234607Y0082135D01*
X0234607Y0096000D01*
X0235463Y0096000D01*
X0236447Y0096000D01*
X0236829Y0096102D01*
X0236841Y0096109D01*
X0236852Y0096102D01*
X0237234Y0096000D01*
X0238218Y0096000D01*
X0238218Y0105000D01*
X0235931Y0105000D01*
X0235463Y0105000D01*
X0238218Y0105000D01*
X0238218Y0105000D01*
X0238219Y0105000D01*
X0238218Y0105000D01*
X0238218Y0114000D01*
X0237234Y0114000D01*
X0236852Y0113898D01*
X0236841Y0113891D01*
X0236829Y0113898D01*
X0236447Y0114000D01*
X0235742Y0114000D01*
X0243592Y0121850D01*
X0244705Y0122963D01*
X0244705Y0124901D01*
X0246296Y0124901D01*
X0247058Y0125662D01*
X0247058Y0131857D01*
X0246415Y0132500D01*
X0247058Y0133143D01*
X0247058Y0139338D01*
X0246296Y0140099D01*
X0239314Y0140099D01*
X0238552Y0139338D01*
X0238552Y0138740D01*
X0238308Y0138740D01*
X0238308Y0139338D01*
X0237546Y0140099D01*
X0230564Y0140099D01*
X0229802Y0139338D01*
X0229802Y0138740D01*
X0229558Y0138740D01*
X0229558Y0139338D01*
X0228796Y0140099D01*
X0227805Y0140099D01*
X0227805Y0149247D01*
X0227425Y0150166D01*
X0220305Y0157286D01*
X0220305Y0159202D01*
X0221905Y0160802D01*
X0221905Y0164198D01*
X0219503Y0166600D01*
X0216107Y0166600D01*
X0213705Y0164198D01*
X0213705Y0160802D01*
X0215305Y0159202D01*
X0215305Y0155753D01*
X0215686Y0154834D01*
X0216389Y0154131D01*
X0222805Y0147714D01*
X0222805Y0140099D01*
X0221814Y0140099D01*
X0221052Y0139338D01*
X0221052Y0133143D01*
X0221695Y0132500D01*
X0221052Y0131857D01*
X0221052Y0130660D01*
X0219558Y0130660D01*
X0219558Y0131857D01*
X0219024Y0132391D01*
X0219179Y0132481D01*
X0219458Y0132760D01*
X0219656Y0133102D01*
X0219758Y0133484D01*
X0219758Y0135740D01*
X0215805Y0135740D01*
X0215805Y0136740D01*
X0219758Y0136740D01*
X0219758Y0138997D01*
X0219656Y0139378D01*
X0219458Y0139720D01*
X0219179Y0139999D01*
X0218837Y0140197D01*
X0218455Y0140299D01*
X0215805Y0140299D01*
X0215805Y0136740D01*
X0214805Y0136740D01*
X0214805Y0135740D01*
X0210852Y0135740D01*
X0210852Y0133484D01*
X0210955Y0133102D01*
X0211152Y0132760D01*
X0211431Y0132481D01*
X0211586Y0132391D01*
X0211052Y0131857D01*
X0211052Y0125690D01*
X0207205Y0129537D01*
X0206092Y0130650D01*
X0199558Y0130650D01*
X0199558Y0131838D01*
X0198796Y0132599D01*
X0197205Y0132599D01*
X0197205Y0134901D01*
X0198796Y0134901D01*
X0199558Y0135662D01*
X0199558Y0141857D01*
X0199024Y0142391D01*
X0199179Y0142481D01*
X0199458Y0142760D01*
X0199656Y0143102D01*
X0199758Y0143484D01*
X0199758Y0145740D01*
X0195805Y0145740D01*
X0195805Y0146740D01*
X0199758Y0146740D01*
X0199758Y0148997D01*
X0199656Y0149378D01*
X0199458Y0149720D01*
X0199179Y0149999D01*
X0198837Y0150197D01*
X0198455Y0150299D01*
X0195805Y0150299D01*
X0195805Y0146740D01*
X0194805Y0146740D01*
X0194805Y0145740D01*
X0190852Y0145740D01*
X0190852Y0143484D01*
X0190955Y0143102D01*
X0191152Y0142760D01*
X0191431Y0142481D01*
X0191586Y0142391D01*
X0191052Y0141857D01*
X0191052Y0140690D01*
X0188180Y0143562D01*
X0188180Y0145381D01*
X0187418Y0146143D01*
X0183192Y0146143D01*
X0182430Y0145381D01*
X0182839Y0145790D02*
X0113455Y0145790D01*
X0113455Y0146789D02*
X0190852Y0146789D01*
X0190852Y0146740D02*
X0194805Y0146740D01*
X0194805Y0150299D01*
X0192155Y0150299D01*
X0191773Y0150197D01*
X0191431Y0149999D01*
X0191152Y0149720D01*
X0190955Y0149378D01*
X0190852Y0148997D01*
X0190852Y0146740D01*
X0190852Y0147787D02*
X0113455Y0147787D01*
X0113455Y0148786D02*
X0190852Y0148786D01*
X0191216Y0149784D02*
X0113455Y0149784D01*
X0113455Y0150783D02*
X0219737Y0150783D01*
X0218738Y0151781D02*
X0192602Y0151781D01*
X0191921Y0151100D02*
X0194205Y0153385D01*
X0194205Y0156615D01*
X0192205Y0158615D01*
X0192205Y0163287D01*
X0189705Y0165787D01*
X0188592Y0166900D01*
X0187904Y0166900D01*
X0187904Y0168491D01*
X0187143Y0169253D01*
X0180948Y0169253D01*
X0180305Y0168610D01*
X0179662Y0169253D01*
X0178465Y0169253D01*
X0178465Y0170048D01*
X0179639Y0171222D01*
X0179639Y0173778D01*
X0177833Y0175584D01*
X0175278Y0175584D01*
X0173471Y0173778D01*
X0173471Y0171222D01*
X0174665Y0170028D01*
X0174665Y0169253D01*
X0173467Y0169253D01*
X0172706Y0168491D01*
X0172706Y0161509D01*
X0173467Y0160747D01*
X0174655Y0160747D01*
X0174655Y0157963D01*
X0175768Y0156850D01*
X0176405Y0156213D01*
X0176405Y0153385D01*
X0178690Y0151100D01*
X0181921Y0151100D01*
X0184205Y0153385D01*
X0184205Y0156615D01*
X0181921Y0158900D01*
X0179092Y0158900D01*
X0178455Y0159537D01*
X0178455Y0160747D01*
X0179662Y0160747D01*
X0180305Y0161390D01*
X0180948Y0160747D01*
X0187143Y0160747D01*
X0187904Y0161509D01*
X0187904Y0162214D01*
X0188405Y0161713D01*
X0188405Y0158615D01*
X0186405Y0156615D01*
X0186405Y0153385D01*
X0188690Y0151100D01*
X0191921Y0151100D01*
X0193600Y0152780D02*
X0217740Y0152780D01*
X0216741Y0153778D02*
X0194205Y0153778D01*
X0194205Y0154777D02*
X0215743Y0154777D01*
X0215305Y0155775D02*
X0194205Y0155775D01*
X0194047Y0156774D02*
X0215305Y0156774D01*
X0215305Y0157772D02*
X0193048Y0157772D01*
X0192205Y0158771D02*
X0215305Y0158771D01*
X0214738Y0159769D02*
X0192205Y0159769D01*
X0192205Y0160768D02*
X0213739Y0160768D01*
X0213705Y0161766D02*
X0192205Y0161766D01*
X0192205Y0162765D02*
X0213705Y0162765D01*
X0213705Y0163763D02*
X0191729Y0163763D01*
X0190730Y0164762D02*
X0214269Y0164762D01*
X0215267Y0165760D02*
X0189732Y0165760D01*
X0188733Y0166759D02*
X0225305Y0166759D01*
X0225305Y0165798D02*
X0223705Y0164198D01*
X0223705Y0160802D01*
X0226107Y0158400D01*
X0229503Y0158400D01*
X0231103Y0160000D01*
X0251724Y0160000D01*
X0253524Y0158200D01*
X0257086Y0158200D01*
X0259605Y0160719D01*
X0259605Y0164281D01*
X0257086Y0166800D01*
X0253524Y0166800D01*
X0251724Y0165000D01*
X0231103Y0165000D01*
X0230305Y0165798D01*
X0230305Y0169202D01*
X0231905Y0170802D01*
X0231905Y0174198D01*
X0229503Y0176600D01*
X0226107Y0176600D01*
X0223705Y0174198D01*
X0223705Y0170802D01*
X0225305Y0169202D01*
X0225305Y0165798D01*
X0225267Y0165760D02*
X0220343Y0165760D01*
X0221342Y0164762D02*
X0224269Y0164762D01*
X0223705Y0163763D02*
X0221905Y0163763D01*
X0221905Y0162765D02*
X0223705Y0162765D01*
X0223705Y0161766D02*
X0221905Y0161766D01*
X0221871Y0160768D02*
X0223739Y0160768D01*
X0224738Y0159769D02*
X0220873Y0159769D01*
X0220305Y0158771D02*
X0225736Y0158771D01*
X0221815Y0155775D02*
X0252216Y0155775D01*
X0251218Y0154777D02*
X0222814Y0154777D01*
X0223812Y0153778D02*
X0250805Y0153778D01*
X0250805Y0154364D02*
X0250805Y0153000D01*
X0254805Y0153000D01*
X0254805Y0152000D01*
X0250805Y0152000D01*
X0250805Y0150636D01*
X0253441Y0148000D01*
X0254805Y0148000D01*
X0254805Y0152000D01*
X0255805Y0152000D01*
X0255805Y0148000D01*
X0257169Y0148000D01*
X0259805Y0150636D01*
X0259805Y0152000D01*
X0255805Y0152000D01*
X0255805Y0153000D01*
X0254805Y0153000D01*
X0254805Y0157000D01*
X0253441Y0157000D01*
X0250805Y0154364D01*
X0250805Y0151781D02*
X0225809Y0151781D01*
X0224811Y0152780D02*
X0254805Y0152780D01*
X0254805Y0153778D02*
X0255805Y0153778D01*
X0255805Y0153000D02*
X0255805Y0157000D01*
X0257169Y0157000D01*
X0259805Y0154364D01*
X0259805Y0153000D01*
X0255805Y0153000D01*
X0255805Y0152780D02*
X0270805Y0152780D01*
X0270805Y0151781D02*
X0259805Y0151781D01*
X0259805Y0150783D02*
X0270805Y0150783D01*
X0270805Y0149784D02*
X0258953Y0149784D01*
X0257955Y0148786D02*
X0270805Y0148786D01*
X0270805Y0147787D02*
X0227805Y0147787D01*
X0227805Y0146789D02*
X0270805Y0146789D01*
X0270805Y0145790D02*
X0227805Y0145790D01*
X0227805Y0144792D02*
X0270805Y0144792D01*
X0270805Y0143793D02*
X0227805Y0143793D01*
X0227805Y0142795D02*
X0270805Y0142795D01*
X0269545Y0141796D02*
X0268545Y0141796D01*
X0268545Y0140798D02*
X0269545Y0140798D01*
X0269545Y0139799D02*
X0268545Y0139799D01*
X0268545Y0138801D02*
X0269545Y0138801D01*
X0269545Y0137000D02*
X0269545Y0133047D01*
X0270805Y0133047D01*
X0270805Y0131953D01*
X0269545Y0131953D01*
X0269545Y0128000D01*
X0268545Y0128000D01*
X0268545Y0131953D01*
X0266289Y0131953D01*
X0265907Y0131851D01*
X0265565Y0131653D01*
X0265286Y0131374D01*
X0265196Y0131219D01*
X0264662Y0131753D01*
X0258467Y0131753D01*
X0257706Y0130991D01*
X0257706Y0129400D01*
X0253268Y0129400D01*
X0252155Y0128287D01*
X0251142Y0127274D01*
X0251142Y0134400D01*
X0252342Y0135600D01*
X0257706Y0135600D01*
X0257706Y0134009D01*
X0258467Y0133247D01*
X0264662Y0133247D01*
X0265196Y0133781D01*
X0265286Y0133626D01*
X0265565Y0133347D01*
X0265907Y0133149D01*
X0266289Y0133047D01*
X0268545Y0133047D01*
X0268545Y0137000D01*
X0269545Y0137000D01*
X0269545Y0136803D02*
X0268545Y0136803D01*
X0268545Y0135805D02*
X0269545Y0135805D01*
X0269545Y0134806D02*
X0268545Y0134806D01*
X0268545Y0133808D02*
X0269545Y0133808D01*
X0270805Y0132809D02*
X0251142Y0132809D01*
X0251142Y0131811D02*
X0265839Y0131811D01*
X0268545Y0131811D02*
X0269545Y0131811D01*
X0269545Y0130812D02*
X0268545Y0130812D01*
X0268545Y0129814D02*
X0269545Y0129814D01*
X0269545Y0128815D02*
X0268545Y0128815D01*
X0268545Y0127000D02*
X0269545Y0127000D01*
X0269545Y0123047D01*
X0270805Y0123047D01*
X0270805Y0121953D01*
X0269545Y0121953D01*
X0269545Y0118000D01*
X0268545Y0118000D01*
X0268545Y0121953D01*
X0266289Y0121953D01*
X0265907Y0121851D01*
X0265565Y0121653D01*
X0265286Y0121374D01*
X0265196Y0121219D01*
X0264662Y0121753D01*
X0258467Y0121753D01*
X0257706Y0120991D01*
X0257706Y0119400D01*
X0255768Y0119400D01*
X0254655Y0118287D01*
X0253898Y0117530D01*
X0253898Y0124656D01*
X0254842Y0125600D01*
X0257706Y0125600D01*
X0257706Y0124009D01*
X0258467Y0123247D01*
X0264662Y0123247D01*
X0265196Y0123781D01*
X0265286Y0123626D01*
X0265565Y0123347D01*
X0265907Y0123149D01*
X0266289Y0123047D01*
X0268545Y0123047D01*
X0268545Y0127000D01*
X0268545Y0126818D02*
X0269545Y0126818D01*
X0269545Y0125820D02*
X0268545Y0125820D01*
X0268545Y0124821D02*
X0269545Y0124821D01*
X0269545Y0123823D02*
X0268545Y0123823D01*
X0268545Y0121826D02*
X0269545Y0121826D01*
X0269545Y0120827D02*
X0268545Y0120827D01*
X0268545Y0119829D02*
X0269545Y0119829D01*
X0269545Y0118830D02*
X0268545Y0118830D01*
X0268545Y0116833D02*
X0269545Y0116833D01*
X0269545Y0115835D02*
X0268545Y0115835D01*
X0268545Y0114836D02*
X0269545Y0114836D01*
X0269545Y0113838D02*
X0268545Y0113838D01*
X0270805Y0112839D02*
X0262515Y0112839D01*
X0262553Y0111841D02*
X0270805Y0111841D01*
X0270805Y0110842D02*
X0262553Y0110842D01*
X0262553Y0109844D02*
X0270805Y0109844D01*
X0270805Y0108845D02*
X0262553Y0108845D01*
X0262553Y0107847D02*
X0270805Y0107847D01*
X0270805Y0106848D02*
X0262553Y0106848D01*
X0262553Y0105850D02*
X0270805Y0105850D01*
X0270805Y0104851D02*
X0262553Y0104851D01*
X0262553Y0105000D02*
X0260266Y0105000D01*
X0262553Y0105000D01*
X0262553Y0103853D02*
X0270805Y0103853D01*
X0270805Y0102854D02*
X0262553Y0102854D01*
X0262553Y0101856D02*
X0270805Y0101856D01*
X0270805Y0100857D02*
X0262553Y0100857D01*
X0262553Y0099859D02*
X0270805Y0099859D01*
X0270805Y0098860D02*
X0262553Y0098860D01*
X0262553Y0097862D02*
X0270805Y0097862D01*
X0270805Y0096863D02*
X0262417Y0096863D01*
X0260266Y0096863D02*
X0260266Y0096863D01*
X0260266Y0096000D02*
X0260266Y0105000D01*
X0260266Y0105000D01*
X0260266Y0105000D01*
X0260266Y0096000D01*
X0260266Y0097862D02*
X0260266Y0097862D01*
X0260266Y0098860D02*
X0260266Y0098860D01*
X0260266Y0099859D02*
X0260266Y0099859D01*
X0260266Y0100857D02*
X0260266Y0100857D01*
X0260266Y0101856D02*
X0260266Y0101856D01*
X0260266Y0102854D02*
X0260266Y0102854D01*
X0260266Y0103853D02*
X0260266Y0103853D01*
X0260266Y0104851D02*
X0260266Y0104851D01*
X0260266Y0105000D02*
X0257978Y0105000D01*
X0257510Y0105000D01*
X0260266Y0105000D01*
X0260266Y0105000D01*
X0257510Y0105000D02*
X0257510Y0105000D01*
X0257510Y0105000D01*
X0257510Y0114000D01*
X0257715Y0114000D01*
X0257706Y0114009D01*
X0257706Y0115600D01*
X0257342Y0115600D01*
X0256654Y0114912D01*
X0256654Y0114000D01*
X0257510Y0114000D01*
X0257510Y0105000D01*
X0257510Y0096000D01*
X0257510Y0105000D01*
X0257510Y0105000D01*
X0257510Y0104851D02*
X0257510Y0104851D01*
X0257510Y0103853D02*
X0257510Y0103853D01*
X0257510Y0102854D02*
X0257510Y0102854D01*
X0257510Y0101856D02*
X0257510Y0101856D01*
X0257510Y0100857D02*
X0257510Y0100857D01*
X0257510Y0099859D02*
X0257510Y0099859D01*
X0257510Y0098860D02*
X0257510Y0098860D01*
X0257510Y0097862D02*
X0257510Y0097862D01*
X0257510Y0096863D02*
X0257510Y0096863D01*
X0257510Y0105850D02*
X0257510Y0105850D01*
X0257510Y0106848D02*
X0257510Y0106848D01*
X0257510Y0107847D02*
X0257510Y0107847D01*
X0257510Y0108845D02*
X0257510Y0108845D01*
X0257510Y0109844D02*
X0257510Y0109844D01*
X0257510Y0110842D02*
X0257510Y0110842D01*
X0257510Y0111841D02*
X0257510Y0111841D01*
X0257510Y0112839D02*
X0257510Y0112839D01*
X0257510Y0113838D02*
X0257510Y0113838D01*
X0257706Y0114836D02*
X0256654Y0114836D01*
X0254200Y0117832D02*
X0253898Y0117832D01*
X0253898Y0118830D02*
X0255198Y0118830D01*
X0253898Y0119829D02*
X0257706Y0119829D01*
X0257706Y0120827D02*
X0253898Y0120827D01*
X0253898Y0121826D02*
X0265864Y0121826D01*
X0270805Y0122824D02*
X0253898Y0122824D01*
X0253898Y0123823D02*
X0257892Y0123823D01*
X0257706Y0124821D02*
X0254063Y0124821D01*
X0251685Y0127817D02*
X0251142Y0127817D01*
X0251142Y0128815D02*
X0252684Y0128815D01*
X0251142Y0129814D02*
X0257706Y0129814D01*
X0257706Y0130812D02*
X0251142Y0130812D01*
X0251142Y0133808D02*
X0257907Y0133808D01*
X0257706Y0134806D02*
X0251549Y0134806D01*
X0249170Y0137802D02*
X0247058Y0137802D01*
X0247058Y0138801D02*
X0250169Y0138801D01*
X0248172Y0136803D02*
X0247058Y0136803D01*
X0247058Y0135805D02*
X0247342Y0135805D01*
X0247342Y0134806D02*
X0247058Y0134806D01*
X0247058Y0133808D02*
X0247342Y0133808D01*
X0247342Y0132809D02*
X0246725Y0132809D01*
X0247058Y0131811D02*
X0247342Y0131811D01*
X0247342Y0130812D02*
X0247058Y0130812D01*
X0247058Y0129814D02*
X0247342Y0129814D01*
X0247342Y0128815D02*
X0247058Y0128815D01*
X0247058Y0127817D02*
X0247342Y0127817D01*
X0247342Y0126818D02*
X0247058Y0126818D01*
X0247058Y0125820D02*
X0247342Y0125820D01*
X0247342Y0124821D02*
X0244705Y0124821D01*
X0244705Y0123823D02*
X0247342Y0123823D01*
X0247342Y0122824D02*
X0244566Y0122824D01*
X0243568Y0121826D02*
X0247342Y0121826D01*
X0247342Y0120827D02*
X0242569Y0120827D01*
X0241571Y0119829D02*
X0247342Y0119829D01*
X0247342Y0118830D02*
X0240572Y0118830D01*
X0239574Y0117832D02*
X0247342Y0117832D01*
X0247342Y0116833D02*
X0238575Y0116833D01*
X0237577Y0115835D02*
X0247342Y0115835D01*
X0247342Y0114836D02*
X0236578Y0114836D01*
X0238218Y0113838D02*
X0238219Y0113838D01*
X0238218Y0112839D02*
X0238219Y0112839D01*
X0238218Y0111841D02*
X0238219Y0111841D01*
X0238218Y0110842D02*
X0238219Y0110842D01*
X0238218Y0109844D02*
X0238219Y0109844D01*
X0238218Y0108845D02*
X0238219Y0108845D01*
X0238218Y0107847D02*
X0238219Y0107847D01*
X0238218Y0106848D02*
X0238219Y0106848D01*
X0238218Y0105850D02*
X0238219Y0105850D01*
X0238218Y0104851D02*
X0238219Y0104851D01*
X0238218Y0103853D02*
X0238219Y0103853D01*
X0238218Y0102854D02*
X0238219Y0102854D01*
X0238218Y0101856D02*
X0238219Y0101856D01*
X0238218Y0100857D02*
X0238219Y0100857D01*
X0238218Y0099859D02*
X0238219Y0099859D01*
X0238218Y0098860D02*
X0238219Y0098860D01*
X0238218Y0097862D02*
X0238219Y0097862D01*
X0238218Y0096863D02*
X0238219Y0096863D01*
X0240974Y0096863D02*
X0240974Y0096863D01*
X0240974Y0097862D02*
X0240974Y0097862D01*
X0240974Y0098860D02*
X0240974Y0098860D01*
X0240974Y0099859D02*
X0240974Y0099859D01*
X0240974Y0100857D02*
X0240974Y0100857D01*
X0240974Y0101856D02*
X0240974Y0101856D01*
X0240974Y0102854D02*
X0240974Y0102854D01*
X0240974Y0103853D02*
X0240974Y0103853D01*
X0240974Y0104851D02*
X0240974Y0104851D01*
X0240974Y0105850D02*
X0240974Y0105850D01*
X0240974Y0106848D02*
X0240974Y0106848D01*
X0240974Y0107847D02*
X0240974Y0107847D01*
X0240974Y0108845D02*
X0240974Y0108845D01*
X0240974Y0109844D02*
X0240974Y0109844D01*
X0240974Y0110842D02*
X0240974Y0110842D01*
X0240974Y0111841D02*
X0240974Y0111841D01*
X0240974Y0112839D02*
X0240974Y0112839D01*
X0240974Y0113838D02*
X0240974Y0113838D01*
X0243730Y0113838D02*
X0243730Y0113838D01*
X0243730Y0112839D02*
X0243730Y0112839D01*
X0243730Y0111841D02*
X0243730Y0111841D01*
X0243730Y0110842D02*
X0243730Y0110842D01*
X0243730Y0109844D02*
X0243730Y0109844D01*
X0243730Y0108845D02*
X0243730Y0108845D01*
X0243730Y0107847D02*
X0243730Y0107847D01*
X0243730Y0106848D02*
X0243730Y0106848D01*
X0243730Y0105850D02*
X0243730Y0105850D01*
X0243730Y0104851D02*
X0243730Y0104851D01*
X0243730Y0103853D02*
X0243730Y0103853D01*
X0243730Y0102854D02*
X0243730Y0102854D01*
X0243730Y0101856D02*
X0243730Y0101856D01*
X0243730Y0100857D02*
X0243730Y0100857D01*
X0243730Y0099859D02*
X0243730Y0099859D01*
X0243730Y0098860D02*
X0243730Y0098860D01*
X0243730Y0097862D02*
X0243730Y0097862D01*
X0243730Y0096863D02*
X0243730Y0096863D01*
X0246486Y0096863D02*
X0246486Y0096863D01*
X0246486Y0097862D02*
X0246486Y0097862D01*
X0246486Y0098860D02*
X0246486Y0098860D01*
X0246486Y0099859D02*
X0246486Y0099859D01*
X0246486Y0100857D02*
X0246486Y0100857D01*
X0246486Y0101856D02*
X0246486Y0101856D01*
X0246486Y0102854D02*
X0246486Y0102854D01*
X0246486Y0103853D02*
X0246486Y0103853D01*
X0246486Y0104851D02*
X0246486Y0104851D01*
X0246486Y0105850D02*
X0246486Y0105850D01*
X0246486Y0106848D02*
X0246486Y0106848D01*
X0246486Y0107847D02*
X0246486Y0107847D01*
X0246486Y0108845D02*
X0246486Y0108845D01*
X0246486Y0109844D02*
X0246486Y0109844D01*
X0246486Y0110842D02*
X0246486Y0110842D01*
X0246486Y0111841D02*
X0246486Y0111841D01*
X0246486Y0112839D02*
X0246486Y0112839D01*
X0246486Y0113838D02*
X0246486Y0113838D01*
X0235463Y0105000D02*
X0235463Y0105000D01*
X0235463Y0096000D01*
X0235463Y0105000D01*
X0235463Y0105000D01*
X0235463Y0104851D02*
X0235463Y0104851D01*
X0235463Y0103853D02*
X0235463Y0103853D01*
X0235463Y0102854D02*
X0235463Y0102854D01*
X0235463Y0101856D02*
X0235463Y0101856D01*
X0235463Y0100857D02*
X0235463Y0100857D01*
X0235463Y0099859D02*
X0235463Y0099859D01*
X0235463Y0098860D02*
X0235463Y0098860D01*
X0235463Y0097862D02*
X0235463Y0097862D01*
X0235463Y0096863D02*
X0235463Y0096863D01*
X0234607Y0095865D02*
X0270805Y0095865D01*
X0270805Y0094866D02*
X0234607Y0094866D01*
X0234607Y0093868D02*
X0270805Y0093868D01*
X0270805Y0092869D02*
X0234607Y0092869D01*
X0234607Y0091870D02*
X0270805Y0091870D01*
X0270805Y0090872D02*
X0234607Y0090872D01*
X0234607Y0089873D02*
X0270805Y0089873D01*
X0270805Y0088875D02*
X0234607Y0088875D01*
X0234607Y0087876D02*
X0270805Y0087876D01*
X0270805Y0086878D02*
X0234607Y0086878D01*
X0234607Y0085879D02*
X0270805Y0085879D01*
X0270805Y0084881D02*
X0234607Y0084881D01*
X0234607Y0083882D02*
X0270805Y0083882D01*
X0270805Y0082884D02*
X0234607Y0082884D01*
X0225295Y0082884D02*
X0137805Y0082884D01*
X0137805Y0083882D02*
X0225295Y0083882D01*
X0225295Y0084881D02*
X0137805Y0084881D01*
X0137805Y0085879D02*
X0225295Y0085879D01*
X0225295Y0086878D02*
X0137805Y0086878D01*
X0137805Y0087876D02*
X0225295Y0087876D01*
X0225295Y0088875D02*
X0188117Y0088875D01*
X0189116Y0089873D02*
X0202745Y0089873D01*
X0201746Y0090872D02*
X0190114Y0090872D01*
X0190512Y0091870D02*
X0200748Y0091870D01*
X0200492Y0092869D02*
X0190512Y0092869D01*
X0190512Y0093868D02*
X0200492Y0093868D01*
X0200492Y0094866D02*
X0190512Y0094866D01*
X0190512Y0095865D02*
X0200492Y0095865D01*
X0199636Y0096000D02*
X0199636Y0105000D01*
X0199636Y0105000D01*
X0199636Y0114000D01*
X0200492Y0114000D01*
X0200492Y0118376D01*
X0199558Y0119310D01*
X0199558Y0118162D01*
X0198796Y0117401D01*
X0197205Y0117401D01*
X0197205Y0115463D01*
X0196092Y0114350D01*
X0196024Y0114282D01*
X0196024Y0113800D01*
X0198100Y0113800D01*
X0198269Y0113898D01*
X0198651Y0114000D01*
X0199636Y0114000D01*
X0199636Y0105000D01*
X0199636Y0105000D01*
X0199636Y0096000D01*
X0199636Y0096863D02*
X0199636Y0096863D01*
X0199636Y0097862D02*
X0199636Y0097862D01*
X0199636Y0098860D02*
X0199636Y0098860D01*
X0199636Y0099859D02*
X0199636Y0099859D01*
X0199636Y0100857D02*
X0199636Y0100857D01*
X0199636Y0101856D02*
X0199636Y0101856D01*
X0199636Y0102854D02*
X0199636Y0102854D01*
X0199636Y0103853D02*
X0199636Y0103853D01*
X0199636Y0104851D02*
X0199636Y0104851D01*
X0199636Y0105850D02*
X0199636Y0105850D01*
X0199636Y0106848D02*
X0199636Y0106848D01*
X0199636Y0107847D02*
X0199636Y0107847D01*
X0199636Y0108845D02*
X0199636Y0108845D01*
X0199636Y0109844D02*
X0199636Y0109844D01*
X0199636Y0110842D02*
X0199636Y0110842D01*
X0199636Y0111841D02*
X0199636Y0111841D01*
X0199636Y0112839D02*
X0199636Y0112839D01*
X0199636Y0113838D02*
X0199636Y0113838D01*
X0200492Y0114836D02*
X0196578Y0114836D01*
X0196024Y0113838D02*
X0198165Y0113838D01*
X0197205Y0115835D02*
X0200492Y0115835D01*
X0200492Y0116833D02*
X0197205Y0116833D01*
X0199227Y0117832D02*
X0200492Y0117832D01*
X0200038Y0118830D02*
X0199558Y0118830D01*
X0203415Y0120827D02*
X0210541Y0120827D01*
X0211539Y0119829D02*
X0204292Y0119829D01*
X0204292Y0118830D02*
X0212538Y0118830D01*
X0213536Y0117832D02*
X0204292Y0117832D01*
X0204292Y0116833D02*
X0214271Y0116833D01*
X0214271Y0115835D02*
X0204292Y0115835D01*
X0204292Y0114836D02*
X0214271Y0114836D01*
X0213415Y0113838D02*
X0213415Y0113838D01*
X0213415Y0112839D02*
X0213415Y0112839D01*
X0213415Y0111841D02*
X0213415Y0111841D01*
X0213415Y0110842D02*
X0213415Y0110842D01*
X0213415Y0109844D02*
X0213415Y0109844D01*
X0213415Y0108845D02*
X0213415Y0108845D01*
X0213415Y0107847D02*
X0213415Y0107847D01*
X0213415Y0106848D02*
X0213415Y0106848D01*
X0213415Y0105850D02*
X0213415Y0105850D01*
X0213415Y0104851D02*
X0213415Y0104851D01*
X0213415Y0103853D02*
X0213415Y0103853D01*
X0213415Y0102854D02*
X0213415Y0102854D01*
X0213415Y0101856D02*
X0213415Y0101856D01*
X0213415Y0100857D02*
X0213415Y0100857D01*
X0213415Y0099859D02*
X0213415Y0099859D01*
X0213415Y0098860D02*
X0213415Y0098860D01*
X0213415Y0097862D02*
X0213415Y0097862D01*
X0213415Y0096863D02*
X0213415Y0096863D01*
X0210659Y0096863D02*
X0210659Y0096863D01*
X0210659Y0097862D02*
X0210659Y0097862D01*
X0210659Y0098860D02*
X0210659Y0098860D01*
X0210659Y0099859D02*
X0210659Y0099859D01*
X0210659Y0100857D02*
X0210659Y0100857D01*
X0210659Y0101856D02*
X0210659Y0101856D01*
X0210659Y0102854D02*
X0210659Y0102854D01*
X0210659Y0103853D02*
X0210659Y0103853D01*
X0210659Y0104851D02*
X0210659Y0104851D01*
X0210660Y0105000D02*
X0210660Y0105000D01*
X0210659Y0105850D02*
X0210659Y0105850D01*
X0210659Y0106848D02*
X0210659Y0106848D01*
X0210659Y0107847D02*
X0210659Y0107847D01*
X0210659Y0108845D02*
X0210659Y0108845D01*
X0210659Y0109844D02*
X0210659Y0109844D01*
X0210659Y0110842D02*
X0210659Y0110842D01*
X0210659Y0111841D02*
X0210659Y0111841D01*
X0210659Y0112839D02*
X0210659Y0112839D01*
X0210659Y0113838D02*
X0210659Y0113838D01*
X0209189Y0113838D02*
X0206618Y0113838D01*
X0205148Y0113838D02*
X0205148Y0113838D01*
X0205148Y0112839D02*
X0205148Y0112839D01*
X0205148Y0111841D02*
X0205148Y0111841D01*
X0205148Y0110842D02*
X0205148Y0110842D01*
X0205148Y0109844D02*
X0205148Y0109844D01*
X0205148Y0108845D02*
X0205148Y0108845D01*
X0205148Y0107847D02*
X0205148Y0107847D01*
X0205148Y0106848D02*
X0205148Y0106848D01*
X0205148Y0105850D02*
X0205148Y0105850D01*
X0205148Y0104851D02*
X0205148Y0104851D01*
X0205148Y0103853D02*
X0205148Y0103853D01*
X0205148Y0102854D02*
X0205148Y0102854D01*
X0205148Y0101856D02*
X0205148Y0101856D01*
X0205148Y0100857D02*
X0205148Y0100857D01*
X0205148Y0099859D02*
X0205148Y0099859D01*
X0205148Y0098860D02*
X0205148Y0098860D01*
X0205148Y0097862D02*
X0205148Y0097862D01*
X0205148Y0096863D02*
X0205148Y0096863D01*
X0204292Y0095865D02*
X0206004Y0095865D01*
X0206004Y0094866D02*
X0204292Y0094866D01*
X0204292Y0093868D02*
X0206004Y0093868D01*
X0209804Y0093868D02*
X0225295Y0093868D01*
X0225295Y0094866D02*
X0209804Y0094866D01*
X0209804Y0095865D02*
X0225295Y0095865D01*
X0224439Y0096000D02*
X0224439Y0105000D01*
X0224439Y0105000D01*
X0224439Y0114000D01*
X0223454Y0114000D01*
X0223073Y0113898D01*
X0223061Y0113891D01*
X0223049Y0113898D01*
X0222668Y0114000D01*
X0221683Y0114000D01*
X0221683Y0105000D01*
X0221683Y0105000D01*
X0221683Y0105000D01*
X0221683Y0096000D01*
X0222668Y0096000D01*
X0223049Y0096102D01*
X0223061Y0096109D01*
X0223073Y0096102D01*
X0223454Y0096000D01*
X0224439Y0096000D01*
X0224439Y0096863D02*
X0224439Y0096863D01*
X0224439Y0097862D02*
X0224439Y0097862D01*
X0224439Y0098860D02*
X0224439Y0098860D01*
X0224439Y0099859D02*
X0224439Y0099859D01*
X0224439Y0100857D02*
X0224439Y0100857D01*
X0224439Y0101856D02*
X0224439Y0101856D01*
X0224439Y0102854D02*
X0224439Y0102854D01*
X0224439Y0103853D02*
X0224439Y0103853D01*
X0224439Y0104851D02*
X0224439Y0104851D01*
X0224439Y0105000D02*
X0223970Y0105000D01*
X0221683Y0105000D01*
X0224439Y0105000D01*
X0224439Y0105000D01*
X0224439Y0105850D02*
X0224439Y0105850D01*
X0224439Y0106848D02*
X0224439Y0106848D01*
X0224439Y0107847D02*
X0224439Y0107847D01*
X0224439Y0108845D02*
X0224439Y0108845D01*
X0224439Y0109844D02*
X0224439Y0109844D01*
X0224439Y0110842D02*
X0224439Y0110842D01*
X0224439Y0111841D02*
X0224439Y0111841D01*
X0224439Y0112839D02*
X0224439Y0112839D01*
X0224439Y0113838D02*
X0224439Y0113838D01*
X0225295Y0114836D02*
X0220827Y0114836D01*
X0220827Y0115835D02*
X0225295Y0115835D01*
X0225295Y0116833D02*
X0221075Y0116833D01*
X0222074Y0117832D02*
X0225450Y0117832D01*
X0226448Y0118830D02*
X0223072Y0118830D01*
X0224071Y0119829D02*
X0227447Y0119829D01*
X0228445Y0120827D02*
X0225069Y0120827D01*
X0226068Y0121826D02*
X0229444Y0121826D01*
X0230442Y0122824D02*
X0227066Y0122824D01*
X0227205Y0123823D02*
X0231441Y0123823D01*
X0232155Y0124821D02*
X0227205Y0124821D01*
X0229558Y0125820D02*
X0229802Y0125820D01*
X0229802Y0126818D02*
X0229558Y0126818D01*
X0229558Y0127817D02*
X0229802Y0127817D01*
X0229802Y0128815D02*
X0229558Y0128815D01*
X0229558Y0129814D02*
X0229802Y0129814D01*
X0229802Y0130812D02*
X0229558Y0130812D01*
X0229558Y0131811D02*
X0229802Y0131811D01*
X0230136Y0132809D02*
X0229225Y0132809D01*
X0229558Y0138801D02*
X0229802Y0138801D01*
X0230264Y0139799D02*
X0229097Y0139799D01*
X0227805Y0140798D02*
X0257706Y0140798D01*
X0257706Y0139799D02*
X0246597Y0139799D01*
X0239014Y0139799D02*
X0237847Y0139799D01*
X0238308Y0138801D02*
X0238552Y0138801D01*
X0227805Y0141796D02*
X0265813Y0141796D01*
X0255805Y0148786D02*
X0254805Y0148786D01*
X0254805Y0149784D02*
X0255805Y0149784D01*
X0255805Y0150783D02*
X0254805Y0150783D01*
X0254805Y0151781D02*
X0255805Y0151781D01*
X0252656Y0148786D02*
X0227805Y0148786D01*
X0227583Y0149784D02*
X0251657Y0149784D01*
X0250805Y0150783D02*
X0226808Y0150783D01*
X0221734Y0148786D02*
X0199758Y0148786D01*
X0199758Y0147787D02*
X0222732Y0147787D01*
X0222805Y0146789D02*
X0199758Y0146789D01*
X0199758Y0144792D02*
X0222805Y0144792D01*
X0222805Y0145790D02*
X0195805Y0145790D01*
X0195805Y0146789D02*
X0194805Y0146789D01*
X0194805Y0147787D02*
X0195805Y0147787D01*
X0195805Y0148786D02*
X0194805Y0148786D01*
X0194805Y0149784D02*
X0195805Y0149784D01*
X0194805Y0145790D02*
X0187771Y0145790D01*
X0188180Y0144792D02*
X0190852Y0144792D01*
X0190852Y0143793D02*
X0188180Y0143793D01*
X0188948Y0142795D02*
X0191132Y0142795D01*
X0191052Y0141796D02*
X0189946Y0141796D01*
X0190945Y0140798D02*
X0191052Y0140798D01*
X0188566Y0137802D02*
X0187977Y0137802D01*
X0191052Y0136803D02*
X0138144Y0136803D01*
X0137805Y0135805D02*
X0191052Y0135805D01*
X0193405Y0134806D02*
X0137805Y0134806D01*
X0137805Y0133808D02*
X0193405Y0133808D01*
X0193405Y0132809D02*
X0137805Y0132809D01*
X0137805Y0131811D02*
X0169004Y0131811D01*
X0171606Y0131811D02*
X0182430Y0131811D01*
X0182430Y0130812D02*
X0172604Y0130812D01*
X0168873Y0125820D02*
X0145911Y0125820D01*
X0145305Y0124821D02*
X0182430Y0124821D01*
X0185045Y0123823D02*
X0145305Y0123823D01*
X0145305Y0122824D02*
X0186044Y0122824D01*
X0187042Y0121826D02*
X0145305Y0121826D01*
X0145305Y0120827D02*
X0188041Y0120827D01*
X0188163Y0119829D02*
X0189039Y0119829D01*
X0189162Y0118830D02*
X0191052Y0118830D01*
X0191383Y0117832D02*
X0190160Y0117832D01*
X0191159Y0116833D02*
X0193201Y0116833D01*
X0192224Y0115835D02*
X0192157Y0115835D01*
X0201418Y0122824D02*
X0208544Y0122824D01*
X0209542Y0121826D02*
X0202416Y0121826D01*
X0199558Y0123823D02*
X0207545Y0123823D01*
X0206547Y0124821D02*
X0199094Y0124821D01*
X0199558Y0125820D02*
X0205548Y0125820D01*
X0204550Y0126818D02*
X0199558Y0126818D01*
X0199558Y0130812D02*
X0211052Y0130812D01*
X0211052Y0129814D02*
X0206928Y0129814D01*
X0207927Y0128815D02*
X0211052Y0128815D01*
X0211052Y0127817D02*
X0208925Y0127817D01*
X0209924Y0126818D02*
X0211052Y0126818D01*
X0211052Y0125820D02*
X0210922Y0125820D01*
X0211052Y0131811D02*
X0199558Y0131811D01*
X0197205Y0132809D02*
X0211124Y0132809D01*
X0210852Y0133808D02*
X0197205Y0133808D01*
X0197205Y0134806D02*
X0210852Y0134806D01*
X0210852Y0136740D02*
X0214805Y0136740D01*
X0214805Y0140299D01*
X0212155Y0140299D01*
X0211773Y0140197D01*
X0211431Y0139999D01*
X0211152Y0139720D01*
X0210955Y0139378D01*
X0210852Y0138997D01*
X0210852Y0136740D01*
X0210852Y0136803D02*
X0199558Y0136803D01*
X0199558Y0135805D02*
X0214805Y0135805D01*
X0214805Y0136803D02*
X0215805Y0136803D01*
X0215805Y0135805D02*
X0221052Y0135805D01*
X0221052Y0136803D02*
X0219758Y0136803D01*
X0219758Y0137802D02*
X0221052Y0137802D01*
X0221052Y0138801D02*
X0219758Y0138801D01*
X0219379Y0139799D02*
X0221514Y0139799D01*
X0222805Y0140798D02*
X0199558Y0140798D01*
X0199558Y0141796D02*
X0222805Y0141796D01*
X0222805Y0142795D02*
X0199478Y0142795D01*
X0199758Y0143793D02*
X0222805Y0143793D01*
X0220735Y0149784D02*
X0199394Y0149784D01*
X0199558Y0139799D02*
X0211231Y0139799D01*
X0210852Y0138801D02*
X0199558Y0138801D01*
X0199558Y0137802D02*
X0210852Y0137802D01*
X0214805Y0137802D02*
X0215805Y0137802D01*
X0215805Y0138801D02*
X0214805Y0138801D01*
X0214805Y0139799D02*
X0215805Y0139799D01*
X0219758Y0134806D02*
X0221052Y0134806D01*
X0221052Y0133808D02*
X0219758Y0133808D01*
X0219487Y0132809D02*
X0221386Y0132809D01*
X0221052Y0131811D02*
X0219558Y0131811D01*
X0219558Y0130812D02*
X0221052Y0130812D01*
X0221683Y0113838D02*
X0221683Y0113838D01*
X0221683Y0112839D02*
X0221683Y0112839D01*
X0221683Y0111841D02*
X0221683Y0111841D01*
X0221683Y0110842D02*
X0221683Y0110842D01*
X0221683Y0109844D02*
X0221683Y0109844D01*
X0221683Y0108845D02*
X0221683Y0108845D01*
X0221683Y0107847D02*
X0221683Y0107847D01*
X0221683Y0106848D02*
X0221683Y0106848D01*
X0221683Y0105850D02*
X0221683Y0105850D01*
X0221683Y0105000D02*
X0221683Y0105000D01*
X0221683Y0104851D02*
X0221683Y0104851D01*
X0221683Y0103853D02*
X0221683Y0103853D01*
X0221683Y0102854D02*
X0221683Y0102854D01*
X0221683Y0101856D02*
X0221683Y0101856D01*
X0221683Y0100857D02*
X0221683Y0100857D01*
X0221683Y0099859D02*
X0221683Y0099859D01*
X0221683Y0098860D02*
X0221683Y0098860D01*
X0221683Y0097862D02*
X0221683Y0097862D01*
X0221683Y0096863D02*
X0221683Y0096863D01*
X0225295Y0092869D02*
X0209804Y0092869D01*
X0209804Y0091870D02*
X0225295Y0091870D01*
X0225295Y0090872D02*
X0208864Y0090872D01*
X0207866Y0089873D02*
X0225295Y0089873D01*
X0225295Y0081885D02*
X0137805Y0081885D01*
X0137805Y0080887D02*
X0225295Y0080887D01*
X0225295Y0079888D02*
X0137805Y0079888D01*
X0137805Y0078890D02*
X0225295Y0078890D01*
X0225295Y0077891D02*
X0137805Y0077891D01*
X0137805Y0076893D02*
X0225725Y0076893D01*
X0226724Y0075894D02*
X0137805Y0075894D01*
X0137805Y0074896D02*
X0227722Y0074896D01*
X0227976Y0071900D02*
X0228383Y0071900D01*
X0231913Y0071900D02*
X0232320Y0071900D01*
X0235850Y0071900D02*
X0236257Y0071900D01*
X0239787Y0071900D02*
X0240194Y0071900D01*
X0243724Y0071900D02*
X0244131Y0071900D01*
X0247661Y0071900D02*
X0248264Y0071900D01*
X0251795Y0071900D02*
X0252398Y0071900D01*
X0255928Y0071900D02*
X0259655Y0071900D01*
X0259655Y0070902D02*
X0258039Y0070902D01*
X0259038Y0069903D02*
X0259655Y0069903D01*
X0259655Y0072899D02*
X0137805Y0072899D01*
X0137805Y0073897D02*
X0259655Y0073897D01*
X0267205Y0073897D02*
X0270805Y0073897D01*
X0270805Y0072899D02*
X0267205Y0072899D01*
X0267205Y0071900D02*
X0270805Y0071900D01*
X0270805Y0070902D02*
X0267205Y0070902D01*
X0267205Y0069903D02*
X0270805Y0069903D01*
X0270805Y0068905D02*
X0267205Y0068905D01*
X0267205Y0067906D02*
X0270805Y0067906D01*
X0270805Y0066908D02*
X0267205Y0066908D01*
X0267205Y0065909D02*
X0270805Y0065909D01*
X0270805Y0064911D02*
X0267205Y0064911D01*
X0267205Y0063912D02*
X0270805Y0063912D01*
X0270805Y0062914D02*
X0267205Y0062914D01*
X0267205Y0061915D02*
X0270805Y0061915D01*
X0270805Y0060917D02*
X0267205Y0060917D01*
X0267205Y0059918D02*
X0270805Y0059918D01*
X0270805Y0058920D02*
X0267205Y0058920D01*
X0267205Y0057921D02*
X0270805Y0057921D01*
X0270805Y0056923D02*
X0267205Y0056923D01*
X0267205Y0055924D02*
X0270805Y0055924D01*
X0270805Y0054926D02*
X0267205Y0054926D01*
X0267205Y0053927D02*
X0270805Y0053927D01*
X0270805Y0052929D02*
X0267205Y0052929D01*
X0267205Y0051930D02*
X0270805Y0051930D01*
X0270805Y0050932D02*
X0267205Y0050932D01*
X0267205Y0049933D02*
X0270805Y0049933D01*
X0270805Y0048934D02*
X0267205Y0048934D01*
X0267205Y0047936D02*
X0270805Y0047936D01*
X0270805Y0046937D02*
X0267205Y0046937D01*
X0267205Y0045939D02*
X0270805Y0045939D01*
X0270805Y0044940D02*
X0267205Y0044940D01*
X0267205Y0043942D02*
X0270805Y0043942D01*
X0270805Y0042943D02*
X0267205Y0042943D01*
X0267205Y0041945D02*
X0270805Y0041945D01*
X0270805Y0040946D02*
X0267205Y0040946D01*
X0267205Y0039948D02*
X0270805Y0039948D01*
X0270805Y0038949D02*
X0267205Y0038949D01*
X0267205Y0037951D02*
X0270805Y0037951D01*
X0270805Y0036952D02*
X0267205Y0036952D01*
X0267205Y0035954D02*
X0270805Y0035954D01*
X0270805Y0034955D02*
X0267205Y0034955D01*
X0267205Y0033957D02*
X0270805Y0033957D01*
X0270805Y0032958D02*
X0267205Y0032958D01*
X0267205Y0031960D02*
X0270805Y0031960D01*
X0270805Y0030961D02*
X0267205Y0030961D01*
X0267205Y0029963D02*
X0270805Y0029963D01*
X0270805Y0028964D02*
X0267205Y0028964D01*
X0267205Y0027966D02*
X0270805Y0027966D01*
X0270805Y0026967D02*
X0267205Y0026967D01*
X0266461Y0025969D02*
X0269910Y0025969D01*
X0268911Y0024970D02*
X0265462Y0024970D01*
X0264639Y0023972D02*
X0267913Y0023972D01*
X0266914Y0022973D02*
X0264639Y0022973D01*
X0264142Y0021975D02*
X0265916Y0021975D01*
X0264917Y0020976D02*
X0263143Y0020976D01*
X0263919Y0019978D02*
X0257205Y0019978D01*
X0257205Y0020976D02*
X0259967Y0020976D01*
X0258969Y0021975D02*
X0257205Y0021975D01*
X0257205Y0022973D02*
X0258471Y0022973D01*
X0258471Y0023972D02*
X0257205Y0023972D01*
X0257962Y0024970D02*
X0258471Y0024970D01*
X0258961Y0025969D02*
X0259412Y0025969D01*
X0259959Y0026967D02*
X0262085Y0026967D01*
X0263084Y0027966D02*
X0260958Y0027966D01*
X0261956Y0028964D02*
X0263405Y0028964D01*
X0263405Y0029963D02*
X0262955Y0029963D01*
X0259578Y0031960D02*
X0235800Y0031960D01*
X0236721Y0032881D02*
X0237425Y0033584D01*
X0237805Y0034503D01*
X0237805Y0052020D01*
X0239180Y0053395D01*
X0239180Y0056605D01*
X0236910Y0058875D01*
X0233700Y0058875D01*
X0231430Y0056605D01*
X0231430Y0053395D01*
X0232805Y0052020D01*
X0232805Y0036036D01*
X0231770Y0035000D01*
X0217591Y0035000D01*
X0212971Y0039619D01*
X0212052Y0040000D01*
X0178886Y0040000D01*
X0177086Y0041800D01*
X0173524Y0041800D01*
X0171005Y0039281D01*
X0171005Y0035719D01*
X0173524Y0033200D01*
X0177086Y0033200D01*
X0178886Y0035000D01*
X0210520Y0035000D01*
X0214436Y0031084D01*
X0215139Y0030381D01*
X0216058Y0030000D01*
X0233302Y0030000D01*
X0234221Y0030381D01*
X0236721Y0032881D01*
X0236799Y0032958D02*
X0259655Y0032958D01*
X0259655Y0033957D02*
X0237579Y0033957D01*
X0237805Y0034955D02*
X0259655Y0034955D01*
X0259655Y0035954D02*
X0237805Y0035954D01*
X0237805Y0036952D02*
X0259655Y0036952D01*
X0259655Y0037951D02*
X0258844Y0037951D01*
X0259105Y0038212D02*
X0259105Y0049288D01*
X0258344Y0050050D01*
X0252267Y0050050D01*
X0251505Y0049288D01*
X0251505Y0038212D01*
X0252267Y0037450D01*
X0258344Y0037450D01*
X0259105Y0038212D01*
X0259105Y0038949D02*
X0259655Y0038949D01*
X0259655Y0039948D02*
X0259105Y0039948D01*
X0259105Y0040946D02*
X0259655Y0040946D01*
X0259655Y0041945D02*
X0259105Y0041945D01*
X0259105Y0042943D02*
X0259655Y0042943D01*
X0259655Y0043942D02*
X0259105Y0043942D01*
X0259105Y0044940D02*
X0259655Y0044940D01*
X0259655Y0045939D02*
X0259105Y0045939D01*
X0259105Y0046937D02*
X0259655Y0046937D01*
X0259655Y0047936D02*
X0259105Y0047936D01*
X0259105Y0048934D02*
X0259655Y0048934D01*
X0259655Y0049933D02*
X0258461Y0049933D01*
X0259655Y0050932D02*
X0237805Y0050932D01*
X0237805Y0051930D02*
X0259655Y0051930D01*
X0259655Y0052929D02*
X0238713Y0052929D01*
X0239180Y0053927D02*
X0259655Y0053927D01*
X0259655Y0054926D02*
X0239180Y0054926D01*
X0239180Y0055924D02*
X0259655Y0055924D01*
X0259655Y0056923D02*
X0238862Y0056923D01*
X0237864Y0057921D02*
X0259655Y0057921D01*
X0259655Y0058920D02*
X0207148Y0058920D01*
X0206993Y0059075D02*
X0205593Y0059075D01*
X0205593Y0055287D01*
X0209380Y0055287D01*
X0209380Y0056688D01*
X0206993Y0059075D01*
X0205593Y0058920D02*
X0205018Y0058920D01*
X0205018Y0059075D02*
X0203617Y0059075D01*
X0201230Y0056688D01*
X0201230Y0055287D01*
X0205018Y0055287D01*
X0205018Y0054713D01*
X0201230Y0054713D01*
X0201230Y0053312D01*
X0203617Y0050925D01*
X0205018Y0050925D01*
X0205018Y0054713D01*
X0205593Y0054713D01*
X0205593Y0055287D01*
X0205018Y0055287D01*
X0205018Y0059075D01*
X0205018Y0057921D02*
X0205593Y0057921D01*
X0205593Y0056923D02*
X0205018Y0056923D01*
X0205018Y0055924D02*
X0205593Y0055924D01*
X0205593Y0054926D02*
X0211430Y0054926D01*
X0211430Y0055924D02*
X0209380Y0055924D01*
X0209145Y0056923D02*
X0211748Y0056923D01*
X0211430Y0056605D02*
X0211430Y0053395D01*
X0213405Y0051420D01*
X0213405Y0041713D01*
X0214518Y0040600D01*
X0216811Y0038307D01*
X0217560Y0038307D01*
X0218945Y0036922D01*
X0221665Y0036922D01*
X0223589Y0038846D01*
X0223589Y0041567D01*
X0221665Y0043491D01*
X0218945Y0043491D01*
X0217973Y0042519D01*
X0217205Y0043287D01*
X0217205Y0045749D01*
X0218945Y0044009D01*
X0221665Y0044009D01*
X0223050Y0045393D01*
X0224635Y0045393D01*
X0225748Y0046506D01*
X0225748Y0046506D01*
X0226092Y0046850D01*
X0226092Y0046850D01*
X0227205Y0047963D01*
X0227205Y0051420D01*
X0229180Y0053395D01*
X0229180Y0056605D01*
X0226910Y0058875D01*
X0223700Y0058875D01*
X0221430Y0056605D01*
X0221430Y0053395D01*
X0223405Y0051420D01*
X0223405Y0049537D01*
X0223061Y0049193D01*
X0223050Y0049193D01*
X0221665Y0050578D01*
X0218945Y0050578D01*
X0217205Y0048838D01*
X0217205Y0051420D01*
X0219180Y0053395D01*
X0219180Y0056605D01*
X0216910Y0058875D01*
X0213700Y0058875D01*
X0211430Y0056605D01*
X0212746Y0057921D02*
X0208147Y0057921D01*
X0209380Y0054713D02*
X0205593Y0054713D01*
X0205593Y0050925D01*
X0206993Y0050925D01*
X0209380Y0053312D01*
X0209380Y0054713D01*
X0209380Y0053927D02*
X0211430Y0053927D01*
X0211897Y0052929D02*
X0208996Y0052929D01*
X0207998Y0051930D02*
X0212895Y0051930D01*
X0213405Y0050932D02*
X0206999Y0050932D01*
X0205593Y0050932D02*
X0205018Y0050932D01*
X0205018Y0051930D02*
X0205593Y0051930D01*
X0205593Y0052929D02*
X0205018Y0052929D01*
X0205018Y0053927D02*
X0205593Y0053927D01*
X0205018Y0054926D02*
X0197665Y0054926D01*
X0196667Y0055924D02*
X0201230Y0055924D01*
X0201465Y0056923D02*
X0195668Y0056923D01*
X0195471Y0057119D02*
X0194552Y0057500D01*
X0152591Y0057500D01*
X0151555Y0058536D01*
X0151555Y0061888D01*
X0152139Y0062472D01*
X0152139Y0065028D01*
X0150333Y0066834D01*
X0147778Y0066834D01*
X0145971Y0065028D01*
X0145971Y0062472D01*
X0146555Y0061888D01*
X0146555Y0057003D01*
X0146936Y0056084D01*
X0149436Y0053584D01*
X0150139Y0052881D01*
X0151058Y0052500D01*
X0193020Y0052500D01*
X0195305Y0050214D01*
X0195305Y0045612D01*
X0194721Y0045028D01*
X0194721Y0042472D01*
X0196528Y0040666D01*
X0199083Y0040666D01*
X0200889Y0042472D01*
X0200889Y0045028D01*
X0200305Y0045612D01*
X0200305Y0051747D01*
X0199925Y0052666D01*
X0199221Y0053369D01*
X0195471Y0057119D01*
X0198664Y0053927D02*
X0201230Y0053927D01*
X0201614Y0052929D02*
X0199662Y0052929D01*
X0200229Y0051930D02*
X0202612Y0051930D01*
X0203611Y0050932D02*
X0200305Y0050932D01*
X0200305Y0049933D02*
X0213405Y0049933D01*
X0213405Y0048934D02*
X0200305Y0048934D01*
X0200305Y0047936D02*
X0213405Y0047936D01*
X0213405Y0046937D02*
X0200305Y0046937D01*
X0200305Y0045939D02*
X0213405Y0045939D01*
X0213405Y0044940D02*
X0200889Y0044940D01*
X0200889Y0043942D02*
X0213405Y0043942D01*
X0213405Y0042943D02*
X0200889Y0042943D01*
X0200362Y0041945D02*
X0213405Y0041945D01*
X0214172Y0040946D02*
X0199363Y0040946D01*
X0196247Y0040946D02*
X0177940Y0040946D01*
X0177086Y0043200D02*
X0179605Y0045719D01*
X0179605Y0049281D01*
X0177086Y0051800D01*
X0173524Y0051800D01*
X0171005Y0049281D01*
X0171005Y0045719D01*
X0173524Y0043200D01*
X0177086Y0043200D01*
X0177828Y0043942D02*
X0194721Y0043942D01*
X0194721Y0044940D02*
X0178827Y0044940D01*
X0179605Y0045939D02*
X0195305Y0045939D01*
X0195305Y0046937D02*
X0179605Y0046937D01*
X0179605Y0047936D02*
X0195305Y0047936D01*
X0195305Y0048934D02*
X0179605Y0048934D01*
X0178953Y0049933D02*
X0195305Y0049933D01*
X0194588Y0050932D02*
X0177955Y0050932D01*
X0172656Y0050932D02*
X0167955Y0050932D01*
X0167086Y0051800D02*
X0163524Y0051800D01*
X0161005Y0049281D01*
X0161005Y0045719D01*
X0163524Y0043200D01*
X0167086Y0043200D01*
X0169605Y0045719D01*
X0169605Y0049281D01*
X0167086Y0051800D01*
X0168953Y0049933D02*
X0171657Y0049933D01*
X0171005Y0048934D02*
X0169605Y0048934D01*
X0169605Y0047936D02*
X0171005Y0047936D01*
X0171005Y0046937D02*
X0169605Y0046937D01*
X0169605Y0045939D02*
X0171005Y0045939D01*
X0171784Y0044940D02*
X0168827Y0044940D01*
X0167828Y0043942D02*
X0172782Y0043942D01*
X0172670Y0040946D02*
X0167940Y0040946D01*
X0167086Y0041800D02*
X0163524Y0041800D01*
X0161005Y0039281D01*
X0161005Y0035719D01*
X0163524Y0033200D01*
X0167086Y0033200D01*
X0169605Y0035719D01*
X0169605Y0039281D01*
X0167086Y0041800D01*
X0168938Y0039948D02*
X0171672Y0039948D01*
X0171005Y0038949D02*
X0169605Y0038949D01*
X0169605Y0037951D02*
X0171005Y0037951D01*
X0171005Y0036952D02*
X0169605Y0036952D01*
X0169605Y0035954D02*
X0171005Y0035954D01*
X0171769Y0034955D02*
X0168842Y0034955D01*
X0167843Y0033957D02*
X0172767Y0033957D01*
X0173441Y0032000D02*
X0170805Y0029364D01*
X0170805Y0028000D01*
X0174805Y0028000D01*
X0174805Y0027000D01*
X0170805Y0027000D01*
X0170805Y0025636D01*
X0173441Y0023000D01*
X0174805Y0023000D01*
X0174805Y0027000D01*
X0175805Y0027000D01*
X0175805Y0023000D01*
X0177169Y0023000D01*
X0179805Y0025636D01*
X0179805Y0027000D01*
X0175805Y0027000D01*
X0175805Y0028000D01*
X0174805Y0028000D01*
X0174805Y0032000D01*
X0173441Y0032000D01*
X0173401Y0031960D02*
X0167209Y0031960D01*
X0167169Y0032000D02*
X0165805Y0032000D01*
X0165805Y0028000D01*
X0164805Y0028000D01*
X0164805Y0027000D01*
X0160805Y0027000D01*
X0160805Y0025636D01*
X0163441Y0023000D01*
X0164805Y0023000D01*
X0164805Y0027000D01*
X0165805Y0027000D01*
X0165805Y0023000D01*
X0167169Y0023000D01*
X0169805Y0025636D01*
X0169805Y0027000D01*
X0165805Y0027000D01*
X0165805Y0028000D01*
X0169805Y0028000D01*
X0169805Y0029364D01*
X0167169Y0032000D01*
X0165805Y0031960D02*
X0164805Y0031960D01*
X0164805Y0032000D02*
X0163441Y0032000D01*
X0160805Y0029364D01*
X0160805Y0028000D01*
X0164805Y0028000D01*
X0164805Y0032000D01*
X0164805Y0030961D02*
X0165805Y0030961D01*
X0165805Y0029963D02*
X0164805Y0029963D01*
X0164805Y0028964D02*
X0165805Y0028964D01*
X0165805Y0027966D02*
X0174805Y0027966D01*
X0174805Y0028964D02*
X0175805Y0028964D01*
X0175805Y0028000D02*
X0175805Y0032000D01*
X0177169Y0032000D01*
X0179805Y0029364D01*
X0179805Y0028000D01*
X0175805Y0028000D01*
X0175805Y0027966D02*
X0202791Y0027966D01*
X0203700Y0028875D02*
X0201430Y0026605D01*
X0201430Y0023395D01*
X0203700Y0021125D01*
X0206910Y0021125D01*
X0209180Y0023395D01*
X0209180Y0026605D01*
X0206910Y0028875D01*
X0203700Y0028875D01*
X0201793Y0026967D02*
X0179805Y0026967D01*
X0179805Y0025969D02*
X0201430Y0025969D01*
X0201430Y0024970D02*
X0179139Y0024970D01*
X0178141Y0023972D02*
X0201430Y0023972D01*
X0201852Y0022973D02*
X0157805Y0022973D01*
X0157805Y0021975D02*
X0202851Y0021975D01*
X0203537Y0019268D02*
X0201037Y0016768D01*
X0201037Y0013232D01*
X0203537Y0010731D01*
X0207073Y0010731D01*
X0209574Y0013232D01*
X0209574Y0016768D01*
X0207073Y0019268D01*
X0203537Y0019268D01*
X0203248Y0018979D02*
X0187363Y0018979D01*
X0187073Y0019268D02*
X0183537Y0019268D01*
X0181037Y0016768D01*
X0181037Y0013232D01*
X0183537Y0010731D01*
X0187073Y0010731D01*
X0189574Y0013232D01*
X0189574Y0016768D01*
X0187073Y0019268D01*
X0188361Y0017981D02*
X0202249Y0017981D01*
X0201251Y0016982D02*
X0189360Y0016982D01*
X0189574Y0015984D02*
X0201037Y0015984D01*
X0201037Y0014985D02*
X0189574Y0014985D01*
X0189574Y0013987D02*
X0201037Y0013987D01*
X0201280Y0012988D02*
X0189330Y0012988D01*
X0188331Y0011990D02*
X0202279Y0011990D01*
X0203277Y0010991D02*
X0187333Y0010991D01*
X0183277Y0010991D02*
X0177616Y0010991D01*
X0177156Y0010531D02*
X0179774Y0013149D01*
X0179774Y0014516D01*
X0175789Y0014516D01*
X0175789Y0010531D01*
X0177156Y0010531D01*
X0175789Y0010991D02*
X0174821Y0010991D01*
X0174821Y0010531D02*
X0174821Y0014516D01*
X0170837Y0014516D01*
X0170837Y0013149D01*
X0173454Y0010531D01*
X0174821Y0010531D01*
X0174821Y0011990D02*
X0175789Y0011990D01*
X0175789Y0012988D02*
X0174821Y0012988D01*
X0174821Y0013987D02*
X0175789Y0013987D01*
X0175789Y0014516D02*
X0174821Y0014516D01*
X0174821Y0015484D01*
X0170837Y0015484D01*
X0170837Y0016851D01*
X0173454Y0019468D01*
X0174821Y0019468D01*
X0174821Y0015484D01*
X0175789Y0015484D01*
X0175789Y0019468D01*
X0177156Y0019468D01*
X0179774Y0016851D01*
X0179774Y0015484D01*
X0175789Y0015484D01*
X0175789Y0014516D01*
X0175789Y0014985D02*
X0181037Y0014985D01*
X0181037Y0013987D02*
X0179774Y0013987D01*
X0179613Y0012988D02*
X0181280Y0012988D01*
X0182279Y0011990D02*
X0178614Y0011990D01*
X0174821Y0014985D02*
X0165789Y0014985D01*
X0165789Y0014516D02*
X0165789Y0015484D01*
X0164821Y0015484D01*
X0164821Y0014516D01*
X0160837Y0014516D01*
X0160837Y0013149D01*
X0163454Y0010531D01*
X0164821Y0010531D01*
X0164821Y0014516D01*
X0165789Y0014516D01*
X0165789Y0010531D01*
X0167156Y0010531D01*
X0169774Y0013149D01*
X0169774Y0014516D01*
X0165789Y0014516D01*
X0165789Y0013987D02*
X0164821Y0013987D01*
X0164821Y0014985D02*
X0159574Y0014985D01*
X0159574Y0013987D02*
X0160837Y0013987D01*
X0160998Y0012988D02*
X0159330Y0012988D01*
X0158331Y0011990D02*
X0161996Y0011990D01*
X0162995Y0010991D02*
X0157333Y0010991D01*
X0153277Y0010991D02*
X0147333Y0010991D01*
X0148331Y0011990D02*
X0152279Y0011990D01*
X0151280Y0012988D02*
X0149330Y0012988D01*
X0149574Y0013987D02*
X0151037Y0013987D01*
X0151037Y0014985D02*
X0149574Y0014985D01*
X0149574Y0015984D02*
X0151037Y0015984D01*
X0151251Y0016982D02*
X0149360Y0016982D01*
X0148361Y0017981D02*
X0152249Y0017981D01*
X0152805Y0018979D02*
X0147805Y0018979D01*
X0147805Y0019978D02*
X0152805Y0019978D01*
X0152805Y0020976D02*
X0147805Y0020976D01*
X0147805Y0021975D02*
X0152805Y0021975D01*
X0152805Y0022973D02*
X0147805Y0022973D01*
X0147805Y0023972D02*
X0152805Y0023972D01*
X0152805Y0024970D02*
X0147506Y0024970D01*
X0146622Y0025969D02*
X0152805Y0025969D01*
X0152805Y0026967D02*
X0145623Y0026967D01*
X0144625Y0027966D02*
X0152805Y0027966D01*
X0152805Y0028964D02*
X0139755Y0028964D01*
X0139755Y0029963D02*
X0152805Y0029963D01*
X0152805Y0030961D02*
X0139755Y0030961D01*
X0139755Y0031960D02*
X0152805Y0031960D01*
X0152805Y0032958D02*
X0139755Y0032958D01*
X0139755Y0033957D02*
X0152805Y0033957D01*
X0151814Y0034955D02*
X0139755Y0034955D01*
X0139755Y0035954D02*
X0150816Y0035954D01*
X0154891Y0038949D02*
X0161005Y0038949D01*
X0161005Y0037951D02*
X0155890Y0037951D01*
X0156888Y0036952D02*
X0161005Y0036952D01*
X0161005Y0035954D02*
X0157616Y0035954D01*
X0157805Y0034955D02*
X0161769Y0034955D01*
X0162767Y0033957D02*
X0157805Y0033957D01*
X0157805Y0032958D02*
X0212561Y0032958D01*
X0213560Y0031960D02*
X0177209Y0031960D01*
X0175805Y0031960D02*
X0174805Y0031960D01*
X0174805Y0030961D02*
X0175805Y0030961D01*
X0175805Y0029963D02*
X0174805Y0029963D01*
X0172402Y0030961D02*
X0168208Y0030961D01*
X0169206Y0029963D02*
X0171404Y0029963D01*
X0170805Y0028964D02*
X0169805Y0028964D01*
X0169805Y0026967D02*
X0170805Y0026967D01*
X0170805Y0025969D02*
X0169805Y0025969D01*
X0169139Y0024970D02*
X0171471Y0024970D01*
X0172469Y0023972D02*
X0168141Y0023972D01*
X0165805Y0023972D02*
X0164805Y0023972D01*
X0164805Y0024970D02*
X0165805Y0024970D01*
X0165805Y0025969D02*
X0164805Y0025969D01*
X0164805Y0026967D02*
X0165805Y0026967D01*
X0164805Y0027966D02*
X0157805Y0027966D01*
X0157805Y0028964D02*
X0160805Y0028964D01*
X0161404Y0029963D02*
X0157805Y0029963D01*
X0157805Y0030961D02*
X0162402Y0030961D01*
X0163401Y0031960D02*
X0157805Y0031960D01*
X0157805Y0026967D02*
X0160805Y0026967D01*
X0160805Y0025969D02*
X0157805Y0025969D01*
X0157805Y0024970D02*
X0161471Y0024970D01*
X0162469Y0023972D02*
X0157805Y0023972D01*
X0157805Y0020976D02*
X0253405Y0020976D01*
X0253405Y0019978D02*
X0157805Y0019978D01*
X0157805Y0018979D02*
X0162965Y0018979D01*
X0163454Y0019468D02*
X0160837Y0016851D01*
X0160837Y0015484D01*
X0164821Y0015484D01*
X0164821Y0019468D01*
X0163454Y0019468D01*
X0164821Y0018979D02*
X0165789Y0018979D01*
X0165789Y0019468D02*
X0165789Y0015484D01*
X0169774Y0015484D01*
X0169774Y0016851D01*
X0167156Y0019468D01*
X0165789Y0019468D01*
X0165789Y0017981D02*
X0164821Y0017981D01*
X0164821Y0016982D02*
X0165789Y0016982D01*
X0165789Y0015984D02*
X0164821Y0015984D01*
X0161966Y0017981D02*
X0158361Y0017981D01*
X0159360Y0016982D02*
X0160968Y0016982D01*
X0160837Y0015984D02*
X0159574Y0015984D01*
X0164821Y0012988D02*
X0165789Y0012988D01*
X0165789Y0011990D02*
X0164821Y0011990D01*
X0164821Y0010991D02*
X0165789Y0010991D01*
X0167616Y0010991D02*
X0172995Y0010991D01*
X0171996Y0011990D02*
X0168614Y0011990D01*
X0169613Y0012988D02*
X0170998Y0012988D01*
X0170837Y0013987D02*
X0169774Y0013987D01*
X0169774Y0015984D02*
X0170837Y0015984D01*
X0170968Y0016982D02*
X0169642Y0016982D01*
X0168644Y0017981D02*
X0171966Y0017981D01*
X0172965Y0018979D02*
X0167645Y0018979D01*
X0174821Y0018979D02*
X0175789Y0018979D01*
X0175789Y0017981D02*
X0174821Y0017981D01*
X0174821Y0016982D02*
X0175789Y0016982D01*
X0175789Y0015984D02*
X0174821Y0015984D01*
X0177645Y0018979D02*
X0183248Y0018979D01*
X0182249Y0017981D02*
X0178644Y0017981D01*
X0179642Y0016982D02*
X0181251Y0016982D01*
X0181037Y0015984D02*
X0179774Y0015984D01*
X0175805Y0023972D02*
X0174805Y0023972D01*
X0174805Y0024970D02*
X0175805Y0024970D01*
X0175805Y0025969D02*
X0174805Y0025969D01*
X0174805Y0026967D02*
X0175805Y0026967D01*
X0179805Y0028964D02*
X0256582Y0028964D01*
X0255584Y0027966D02*
X0237819Y0027966D01*
X0236910Y0028875D02*
X0233700Y0028875D01*
X0231430Y0026605D01*
X0231430Y0023395D01*
X0233700Y0021125D01*
X0236910Y0021125D01*
X0239180Y0023395D01*
X0239180Y0026605D01*
X0236910Y0028875D01*
X0238818Y0026967D02*
X0254585Y0026967D01*
X0253587Y0025969D02*
X0239180Y0025969D01*
X0239180Y0024970D02*
X0253405Y0024970D01*
X0253405Y0023972D02*
X0239180Y0023972D01*
X0238758Y0022973D02*
X0253405Y0022973D01*
X0253405Y0021975D02*
X0237760Y0021975D01*
X0237073Y0019268D02*
X0233537Y0019268D01*
X0231037Y0016768D01*
X0231037Y0013232D01*
X0233537Y0010731D01*
X0237073Y0010731D01*
X0239574Y0013232D01*
X0239574Y0016768D01*
X0237073Y0019268D01*
X0237363Y0018979D02*
X0243248Y0018979D01*
X0243537Y0019268D02*
X0241037Y0016768D01*
X0241037Y0013232D01*
X0243537Y0010731D01*
X0247073Y0010731D01*
X0249574Y0013232D01*
X0249574Y0016768D01*
X0247073Y0019268D01*
X0243537Y0019268D01*
X0242249Y0017981D02*
X0238361Y0017981D01*
X0239360Y0016982D02*
X0241251Y0016982D01*
X0241037Y0015984D02*
X0239574Y0015984D01*
X0239574Y0014985D02*
X0241037Y0014985D01*
X0241037Y0013987D02*
X0239574Y0013987D01*
X0239330Y0012988D02*
X0241280Y0012988D01*
X0242279Y0011990D02*
X0238331Y0011990D01*
X0237333Y0010991D02*
X0243277Y0010991D01*
X0247333Y0010991D02*
X0253277Y0010991D01*
X0252279Y0011990D02*
X0248331Y0011990D01*
X0249330Y0012988D02*
X0251280Y0012988D01*
X0251037Y0013987D02*
X0249574Y0013987D01*
X0249574Y0014985D02*
X0251037Y0014985D01*
X0251037Y0015984D02*
X0249574Y0015984D01*
X0249360Y0016982D02*
X0251251Y0016982D01*
X0252249Y0017981D02*
X0248361Y0017981D01*
X0247363Y0018979D02*
X0253248Y0018979D01*
X0257363Y0018979D02*
X0262920Y0018979D01*
X0261922Y0017981D02*
X0258361Y0017981D01*
X0259360Y0016982D02*
X0261255Y0016982D01*
X0260842Y0015984D02*
X0259574Y0015984D01*
X0259574Y0014985D02*
X0260805Y0014985D01*
X0260805Y0013987D02*
X0259574Y0013987D01*
X0259330Y0012988D02*
X0260805Y0012988D01*
X0260805Y0011990D02*
X0258331Y0011990D01*
X0257333Y0010991D02*
X0260805Y0010991D01*
X0260805Y0009993D02*
X0096491Y0009993D01*
X0096905Y0010991D02*
X0123277Y0010991D01*
X0122279Y0011990D02*
X0097030Y0011990D01*
X0097030Y0012988D02*
X0121280Y0012988D01*
X0121037Y0013987D02*
X0096914Y0013987D01*
X0096501Y0014985D02*
X0121037Y0014985D01*
X0121037Y0015984D02*
X0096062Y0015984D01*
X0095064Y0016982D02*
X0121251Y0016982D01*
X0122249Y0017981D02*
X0093597Y0017981D01*
X0090889Y0019978D02*
X0122805Y0019978D01*
X0122805Y0020976D02*
X0090889Y0020976D01*
X0090889Y0021975D02*
X0122805Y0021975D01*
X0122805Y0022973D02*
X0090444Y0022973D01*
X0091617Y0023972D02*
X0122805Y0023972D01*
X0122805Y0024970D02*
X0092058Y0024970D01*
X0092058Y0025969D02*
X0122805Y0025969D01*
X0122805Y0026967D02*
X0092058Y0026967D01*
X0092058Y0027966D02*
X0122805Y0027966D01*
X0122805Y0028964D02*
X0092058Y0028964D01*
X0092058Y0029963D02*
X0122805Y0029963D01*
X0122997Y0030961D02*
X0091704Y0030961D01*
X0092058Y0031960D02*
X0123729Y0031960D01*
X0124299Y0032958D02*
X0124728Y0032958D01*
X0125297Y0033957D02*
X0125726Y0033957D01*
X0126296Y0034955D02*
X0127200Y0034955D01*
X0127294Y0035954D02*
X0130855Y0035954D01*
X0125678Y0040946D02*
X0122139Y0040946D01*
X0122115Y0039948D02*
X0124217Y0039948D01*
X0124186Y0039916D02*
X0124186Y0039916D01*
X0123219Y0038949D02*
X0121116Y0038949D01*
X0122220Y0037951D02*
X0092058Y0037951D01*
X0083552Y0037951D02*
X0059558Y0037951D01*
X0051052Y0037951D02*
X0027058Y0037951D01*
X0025305Y0038949D02*
X0116994Y0038949D01*
X0115995Y0039948D02*
X0025305Y0039948D01*
X0025305Y0040946D02*
X0115971Y0040946D01*
X0115673Y0041945D02*
X0025305Y0041945D01*
X0025305Y0042943D02*
X0114675Y0042943D01*
X0113676Y0043942D02*
X0025305Y0043942D01*
X0025305Y0044940D02*
X0112678Y0044940D01*
X0115056Y0047936D02*
X0132805Y0047936D01*
X0132805Y0048934D02*
X0114058Y0048934D01*
X0116055Y0046937D02*
X0132805Y0046937D01*
X0132805Y0045939D02*
X0117053Y0045939D01*
X0118052Y0044940D02*
X0132805Y0044940D01*
X0132805Y0043942D02*
X0120725Y0043942D01*
X0121723Y0042943D02*
X0132805Y0042943D01*
X0131462Y0041945D02*
X0122139Y0041945D01*
X0132805Y0049933D02*
X0049309Y0049933D01*
X0048455Y0050932D02*
X0132805Y0050932D01*
X0132805Y0051930D02*
X0048455Y0051930D01*
X0048455Y0052929D02*
X0132805Y0052929D01*
X0132805Y0053927D02*
X0048455Y0053927D01*
X0048455Y0054926D02*
X0132805Y0054926D01*
X0132805Y0055924D02*
X0048455Y0055924D01*
X0048455Y0056923D02*
X0132805Y0056923D01*
X0132805Y0057921D02*
X0048455Y0057921D01*
X0048455Y0058920D02*
X0132805Y0058920D01*
X0132805Y0059918D02*
X0048455Y0059918D01*
X0048455Y0060917D02*
X0132805Y0060917D01*
X0132805Y0061915D02*
X0048455Y0061915D01*
X0048455Y0062914D02*
X0132805Y0062914D01*
X0132805Y0063912D02*
X0048455Y0063912D01*
X0048455Y0064911D02*
X0132805Y0064911D01*
X0132805Y0065909D02*
X0048455Y0065909D01*
X0048455Y0066908D02*
X0132805Y0066908D01*
X0132805Y0067906D02*
X0048455Y0067906D01*
X0048455Y0068905D02*
X0132805Y0068905D01*
X0132805Y0069903D02*
X0048455Y0069903D01*
X0048455Y0070902D02*
X0132805Y0070902D01*
X0132805Y0071900D02*
X0048455Y0071900D01*
X0048455Y0072899D02*
X0132805Y0072899D01*
X0132805Y0073897D02*
X0048455Y0073897D01*
X0048455Y0074896D02*
X0132805Y0074896D01*
X0132805Y0075894D02*
X0048455Y0075894D01*
X0048455Y0076893D02*
X0132805Y0076893D01*
X0132805Y0077891D02*
X0048455Y0077891D01*
X0048455Y0078890D02*
X0132805Y0078890D01*
X0132805Y0079888D02*
X0048455Y0079888D01*
X0048455Y0080887D02*
X0132805Y0080887D01*
X0132805Y0081885D02*
X0048455Y0081885D01*
X0048455Y0082884D02*
X0132805Y0082884D01*
X0132805Y0083882D02*
X0048455Y0083882D01*
X0048455Y0084881D02*
X0132805Y0084881D01*
X0132805Y0085879D02*
X0048455Y0085879D01*
X0048455Y0086878D02*
X0132805Y0086878D01*
X0132805Y0087876D02*
X0048455Y0087876D01*
X0048455Y0088875D02*
X0068256Y0088875D01*
X0066896Y0089873D02*
X0048455Y0089873D01*
X0048455Y0090872D02*
X0065898Y0090872D01*
X0064899Y0091870D02*
X0048455Y0091870D01*
X0048455Y0092869D02*
X0063901Y0092869D01*
X0062902Y0093868D02*
X0048455Y0093868D01*
X0048455Y0094866D02*
X0061904Y0094866D01*
X0060905Y0095865D02*
X0048455Y0095865D01*
X0048455Y0096863D02*
X0059907Y0096863D01*
X0058908Y0097862D02*
X0048778Y0097862D01*
X0049639Y0098860D02*
X0057910Y0098860D01*
X0056911Y0099859D02*
X0049639Y0099859D01*
X0049639Y0100857D02*
X0055912Y0100857D01*
X0054914Y0101856D02*
X0049061Y0101856D01*
X0055994Y0107847D02*
X0072673Y0107847D01*
X0071674Y0108845D02*
X0054995Y0108845D01*
X0053997Y0109844D02*
X0070682Y0109844D01*
X0070305Y0110842D02*
X0052998Y0110842D01*
X0052000Y0111841D02*
X0070305Y0111841D01*
X0070305Y0112839D02*
X0051001Y0112839D01*
X0050003Y0113838D02*
X0070305Y0113838D01*
X0070305Y0114836D02*
X0049055Y0114836D01*
X0049055Y0115835D02*
X0070305Y0115835D01*
X0070305Y0116833D02*
X0049055Y0116833D01*
X0049055Y0117832D02*
X0070305Y0117832D01*
X0070305Y0118830D02*
X0049055Y0118830D01*
X0049055Y0119829D02*
X0070305Y0119829D01*
X0070305Y0120827D02*
X0049055Y0120827D01*
X0049055Y0121826D02*
X0070305Y0121826D01*
X0070305Y0122824D02*
X0049055Y0122824D01*
X0049055Y0123823D02*
X0070305Y0123823D01*
X0070305Y0124821D02*
X0049055Y0124821D01*
X0049055Y0125820D02*
X0070305Y0125820D01*
X0070305Y0126818D02*
X0049055Y0126818D01*
X0049055Y0127817D02*
X0070305Y0127817D01*
X0070305Y0128815D02*
X0049055Y0128815D01*
X0049055Y0129814D02*
X0070305Y0129814D01*
X0070305Y0130812D02*
X0049055Y0130812D01*
X0049055Y0131811D02*
X0070305Y0131811D01*
X0070305Y0132809D02*
X0049055Y0132809D01*
X0049055Y0133808D02*
X0070305Y0133808D01*
X0070305Y0134806D02*
X0049055Y0134806D01*
X0049055Y0135805D02*
X0070305Y0135805D01*
X0070305Y0136803D02*
X0049055Y0136803D01*
X0049055Y0137802D02*
X0070305Y0137802D01*
X0070305Y0138801D02*
X0049055Y0138801D01*
X0049055Y0139799D02*
X0070305Y0139799D01*
X0070305Y0140798D02*
X0049055Y0140798D01*
X0049055Y0141796D02*
X0070305Y0141796D01*
X0070305Y0142795D02*
X0049055Y0142795D01*
X0049055Y0143793D02*
X0070305Y0143793D01*
X0070305Y0144792D02*
X0049055Y0144792D01*
X0049055Y0145790D02*
X0070305Y0145790D01*
X0070305Y0146789D02*
X0049055Y0146789D01*
X0049055Y0147787D02*
X0070305Y0147787D01*
X0070305Y0148786D02*
X0049055Y0148786D01*
X0049055Y0149784D02*
X0070305Y0149784D01*
X0070305Y0150783D02*
X0049055Y0150783D01*
X0049055Y0151781D02*
X0070305Y0151781D01*
X0070305Y0152780D02*
X0049055Y0152780D01*
X0049055Y0153778D02*
X0070305Y0153778D01*
X0070305Y0154777D02*
X0049055Y0154777D01*
X0049055Y0155775D02*
X0070305Y0155775D01*
X0070305Y0156774D02*
X0049055Y0156774D01*
X0049055Y0157772D02*
X0070305Y0157772D01*
X0070305Y0158771D02*
X0049055Y0158771D01*
X0049055Y0159769D02*
X0070305Y0159769D01*
X0070305Y0160768D02*
X0049055Y0160768D01*
X0049055Y0161766D02*
X0070305Y0161766D01*
X0070305Y0162765D02*
X0049055Y0162765D01*
X0049055Y0163763D02*
X0070305Y0163763D01*
X0070305Y0164762D02*
X0049055Y0164762D01*
X0049055Y0165760D02*
X0070305Y0165760D01*
X0070305Y0166759D02*
X0049055Y0166759D01*
X0049055Y0167757D02*
X0070305Y0167757D01*
X0070305Y0168756D02*
X0049055Y0168756D01*
X0049055Y0169754D02*
X0070305Y0169754D01*
X0070305Y0170753D02*
X0049055Y0170753D01*
X0049055Y0171751D02*
X0070305Y0171751D01*
X0070305Y0172750D02*
X0049055Y0172750D01*
X0049055Y0173748D02*
X0070305Y0173748D01*
X0069946Y0174747D02*
X0049055Y0174747D01*
X0049586Y0175745D02*
X0069721Y0175745D01*
X0069721Y0176744D02*
X0050585Y0176744D01*
X0051583Y0177742D02*
X0069936Y0177742D01*
X0070934Y0178741D02*
X0052582Y0178741D01*
X0044055Y0169754D02*
X0022570Y0169754D01*
X0023568Y0168756D02*
X0044055Y0168756D01*
X0044055Y0167757D02*
X0024401Y0167757D01*
X0024814Y0166759D02*
X0044055Y0166759D01*
X0044055Y0165760D02*
X0025228Y0165760D01*
X0025238Y0164762D02*
X0044055Y0164762D01*
X0044055Y0163763D02*
X0025238Y0163763D01*
X0025041Y0162765D02*
X0044055Y0162765D01*
X0044055Y0161766D02*
X0024627Y0161766D01*
X0024116Y0160768D02*
X0044055Y0160768D01*
X0044055Y0159769D02*
X0023117Y0159769D01*
X0021552Y0158771D02*
X0044055Y0158771D01*
X0044055Y0137802D02*
X0023026Y0137802D01*
X0024025Y0136803D02*
X0044055Y0136803D01*
X0044055Y0135805D02*
X0024590Y0135805D01*
X0025003Y0134806D02*
X0044055Y0134806D01*
X0044055Y0133808D02*
X0025238Y0133808D01*
X0025238Y0132809D02*
X0044055Y0132809D01*
X0044055Y0131811D02*
X0025238Y0131811D01*
X0024852Y0130812D02*
X0044055Y0130812D01*
X0044055Y0129814D02*
X0024438Y0129814D01*
X0023659Y0128815D02*
X0044055Y0128815D01*
X0044055Y0127817D02*
X0022661Y0127817D01*
X0020450Y0126818D02*
X0044055Y0126818D01*
X0056992Y0106848D02*
X0073671Y0106848D01*
X0075750Y0111841D02*
X0132805Y0111841D01*
X0132805Y0112839D02*
X0075305Y0112839D01*
X0075305Y0113838D02*
X0132805Y0113838D01*
X0132805Y0114836D02*
X0075305Y0114836D01*
X0075305Y0115835D02*
X0132805Y0115835D01*
X0132805Y0116833D02*
X0075305Y0116833D01*
X0075305Y0117832D02*
X0132805Y0117832D01*
X0132805Y0118830D02*
X0075305Y0118830D01*
X0075305Y0119829D02*
X0132805Y0119829D01*
X0132805Y0120827D02*
X0075305Y0120827D01*
X0075305Y0121826D02*
X0132805Y0121826D01*
X0132805Y0122824D02*
X0075305Y0122824D01*
X0075305Y0123823D02*
X0132805Y0123823D01*
X0132805Y0124821D02*
X0075305Y0124821D01*
X0075305Y0125820D02*
X0132805Y0125820D01*
X0132805Y0126818D02*
X0075305Y0126818D01*
X0075305Y0127817D02*
X0132805Y0127817D01*
X0132805Y0128815D02*
X0075305Y0128815D01*
X0075305Y0129814D02*
X0132805Y0129814D01*
X0132805Y0130812D02*
X0075305Y0130812D01*
X0075305Y0131811D02*
X0121496Y0131811D01*
X0120387Y0132809D02*
X0075305Y0132809D01*
X0075305Y0133808D02*
X0119388Y0133808D01*
X0118935Y0134806D02*
X0075305Y0134806D01*
X0075305Y0135805D02*
X0118521Y0135805D01*
X0118246Y0136803D02*
X0075305Y0136803D01*
X0075305Y0137802D02*
X0118246Y0137802D01*
X0129114Y0131811D02*
X0132805Y0131811D01*
X0132805Y0132809D02*
X0130224Y0132809D01*
X0131222Y0133808D02*
X0132805Y0133808D01*
X0132805Y0134806D02*
X0131675Y0134806D01*
X0132089Y0135805D02*
X0132805Y0135805D01*
X0132805Y0136803D02*
X0132364Y0136803D01*
X0132364Y0137802D02*
X0132805Y0137802D01*
X0133138Y0138801D02*
X0132364Y0138801D01*
X0132148Y0139799D02*
X0134069Y0139799D01*
X0135067Y0140798D02*
X0131735Y0140798D01*
X0131321Y0141796D02*
X0136066Y0141796D01*
X0137064Y0142795D02*
X0130368Y0142795D01*
X0129369Y0143793D02*
X0160986Y0143793D01*
X0164624Y0143793D02*
X0182430Y0143793D01*
X0182430Y0142795D02*
X0165622Y0142795D01*
X0165889Y0141796D02*
X0182430Y0141796D01*
X0182430Y0140798D02*
X0165889Y0140798D01*
X0165716Y0139799D02*
X0182430Y0139799D01*
X0182430Y0138801D02*
X0164717Y0138801D01*
X0168607Y0150900D02*
X0170005Y0150900D01*
X0170005Y0154700D01*
X0166205Y0154700D01*
X0166205Y0153302D01*
X0168607Y0150900D01*
X0167726Y0151781D02*
X0113455Y0151781D01*
X0113455Y0152780D02*
X0166727Y0152780D01*
X0166205Y0153778D02*
X0113455Y0153778D01*
X0113455Y0154777D02*
X0170005Y0154777D01*
X0170005Y0154700D02*
X0170005Y0155300D01*
X0166205Y0155300D01*
X0166205Y0156698D01*
X0168607Y0159100D01*
X0170005Y0159100D01*
X0170005Y0155300D01*
X0170605Y0155300D01*
X0170605Y0159100D01*
X0172003Y0159100D01*
X0174405Y0156698D01*
X0174405Y0155300D01*
X0170605Y0155300D01*
X0170605Y0154700D01*
X0170605Y0150900D01*
X0172003Y0150900D01*
X0174405Y0153302D01*
X0174405Y0154700D01*
X0170605Y0154700D01*
X0170005Y0154700D01*
X0170605Y0154777D02*
X0176405Y0154777D01*
X0176405Y0155775D02*
X0174405Y0155775D01*
X0174330Y0156774D02*
X0175844Y0156774D01*
X0174846Y0157772D02*
X0173331Y0157772D01*
X0172333Y0158771D02*
X0174655Y0158771D01*
X0174655Y0159769D02*
X0113455Y0159769D01*
X0113455Y0158771D02*
X0168278Y0158771D01*
X0167279Y0157772D02*
X0113455Y0157772D01*
X0113455Y0156774D02*
X0166281Y0156774D01*
X0166205Y0155775D02*
X0113455Y0155775D01*
X0113455Y0160768D02*
X0173447Y0160768D01*
X0172706Y0161766D02*
X0128603Y0161766D01*
X0128969Y0161918D02*
X0130789Y0163737D01*
X0131774Y0166115D01*
X0131774Y0168688D01*
X0130789Y0171066D01*
X0128969Y0172885D01*
X0126592Y0173870D01*
X0124018Y0173870D01*
X0121641Y0172885D01*
X0119821Y0171066D01*
X0118837Y0168688D01*
X0118837Y0166115D01*
X0119821Y0163737D01*
X0121641Y0161918D01*
X0124018Y0160933D01*
X0126592Y0160933D01*
X0128969Y0161918D01*
X0129816Y0162765D02*
X0172706Y0162765D01*
X0172706Y0163763D02*
X0130800Y0163763D01*
X0131213Y0164762D02*
X0172706Y0164762D01*
X0172706Y0165760D02*
X0131627Y0165760D01*
X0131774Y0166759D02*
X0172706Y0166759D01*
X0172706Y0167757D02*
X0131774Y0167757D01*
X0131746Y0168756D02*
X0172971Y0168756D01*
X0174665Y0169754D02*
X0131332Y0169754D01*
X0130918Y0170753D02*
X0173940Y0170753D01*
X0173471Y0171751D02*
X0130103Y0171751D01*
X0129105Y0172750D02*
X0173471Y0172750D01*
X0173471Y0173748D02*
X0126885Y0173748D01*
X0123725Y0173748D02*
X0113455Y0173748D01*
X0113455Y0172750D02*
X0121506Y0172750D01*
X0120507Y0171751D02*
X0113455Y0171751D01*
X0113455Y0170753D02*
X0119692Y0170753D01*
X0119278Y0169754D02*
X0113455Y0169754D01*
X0113455Y0168756D02*
X0118865Y0168756D01*
X0118837Y0167757D02*
X0113455Y0167757D01*
X0113455Y0166759D02*
X0118837Y0166759D01*
X0118983Y0165760D02*
X0113455Y0165760D01*
X0113455Y0164762D02*
X0119397Y0164762D01*
X0119811Y0163763D02*
X0113455Y0163763D01*
X0113455Y0162765D02*
X0120794Y0162765D01*
X0122007Y0161766D02*
X0113455Y0161766D01*
X0113455Y0174747D02*
X0174440Y0174747D01*
X0178670Y0174747D02*
X0214254Y0174747D01*
X0213705Y0174198D02*
X0213705Y0170802D01*
X0216107Y0168400D01*
X0219503Y0168400D01*
X0221905Y0170802D01*
X0221905Y0174198D01*
X0219503Y0176600D01*
X0216107Y0176600D01*
X0213705Y0174198D01*
X0213705Y0173748D02*
X0179639Y0173748D01*
X0179639Y0172750D02*
X0213705Y0172750D01*
X0213705Y0171751D02*
X0179639Y0171751D01*
X0179170Y0170753D02*
X0213754Y0170753D01*
X0214752Y0169754D02*
X0178465Y0169754D01*
X0180159Y0168756D02*
X0180451Y0168756D01*
X0187640Y0168756D02*
X0215751Y0168756D01*
X0219859Y0168756D02*
X0225305Y0168756D01*
X0225305Y0167757D02*
X0187904Y0167757D01*
X0187904Y0161766D02*
X0188352Y0161766D01*
X0188405Y0160768D02*
X0187163Y0160768D01*
X0188405Y0159769D02*
X0178455Y0159769D01*
X0179683Y0160768D02*
X0180927Y0160768D01*
X0182050Y0158771D02*
X0188405Y0158771D01*
X0187562Y0157772D02*
X0183048Y0157772D01*
X0184047Y0156774D02*
X0186563Y0156774D01*
X0186405Y0155775D02*
X0184205Y0155775D01*
X0184205Y0154777D02*
X0186405Y0154777D01*
X0186405Y0153778D02*
X0184205Y0153778D01*
X0183600Y0152780D02*
X0187010Y0152780D01*
X0188009Y0151781D02*
X0182602Y0151781D01*
X0178009Y0151781D02*
X0172885Y0151781D01*
X0173883Y0152780D02*
X0177010Y0152780D01*
X0176405Y0153778D02*
X0174405Y0153778D01*
X0170605Y0153778D02*
X0170005Y0153778D01*
X0170005Y0152780D02*
X0170605Y0152780D01*
X0170605Y0151781D02*
X0170005Y0151781D01*
X0170005Y0155775D02*
X0170605Y0155775D01*
X0170605Y0156774D02*
X0170005Y0156774D01*
X0170005Y0157772D02*
X0170605Y0157772D01*
X0170605Y0158771D02*
X0170005Y0158771D01*
X0182633Y0137802D02*
X0139143Y0137802D01*
X0137805Y0130812D02*
X0143832Y0130812D01*
X0142834Y0129814D02*
X0137805Y0129814D01*
X0137805Y0128815D02*
X0141835Y0128815D01*
X0140836Y0127817D02*
X0137805Y0127817D01*
X0137805Y0126818D02*
X0140335Y0126818D01*
X0140305Y0125820D02*
X0137805Y0125820D01*
X0137805Y0124821D02*
X0140305Y0124821D01*
X0140305Y0123823D02*
X0137805Y0123823D01*
X0137805Y0122824D02*
X0140305Y0122824D01*
X0140305Y0121826D02*
X0137805Y0121826D01*
X0137805Y0120827D02*
X0140305Y0120827D01*
X0140305Y0119829D02*
X0137805Y0119829D01*
X0137805Y0118830D02*
X0140305Y0118830D01*
X0140305Y0117832D02*
X0137805Y0117832D01*
X0137805Y0116833D02*
X0140305Y0116833D01*
X0140305Y0115835D02*
X0137805Y0115835D01*
X0137805Y0114836D02*
X0139721Y0114836D01*
X0139721Y0113838D02*
X0137805Y0113838D01*
X0137805Y0112839D02*
X0139721Y0112839D01*
X0140353Y0111841D02*
X0137805Y0111841D01*
X0137805Y0110842D02*
X0141351Y0110842D01*
X0144259Y0110842D02*
X0153552Y0110842D01*
X0153552Y0109844D02*
X0137805Y0109844D01*
X0137805Y0108845D02*
X0153552Y0108845D01*
X0153552Y0107847D02*
X0137805Y0107847D01*
X0137805Y0106848D02*
X0153552Y0106848D01*
X0153552Y0105850D02*
X0137805Y0105850D01*
X0137805Y0104851D02*
X0154046Y0104851D01*
X0153552Y0103853D02*
X0138182Y0103853D01*
X0139180Y0102854D02*
X0153552Y0102854D01*
X0153552Y0101856D02*
X0139180Y0101856D01*
X0139180Y0100857D02*
X0153552Y0100857D01*
X0153552Y0099859D02*
X0139180Y0099859D01*
X0138395Y0098860D02*
X0153552Y0098860D01*
X0153853Y0097862D02*
X0137805Y0097862D01*
X0137805Y0096863D02*
X0155905Y0096863D01*
X0155905Y0095865D02*
X0137805Y0095865D01*
X0137805Y0094866D02*
X0155905Y0094866D01*
X0155905Y0093868D02*
X0137805Y0093868D01*
X0137805Y0092869D02*
X0155905Y0092869D01*
X0155905Y0091870D02*
X0137805Y0091870D01*
X0137805Y0090872D02*
X0156746Y0090872D01*
X0157745Y0089873D02*
X0137805Y0089873D01*
X0137805Y0088875D02*
X0158743Y0088875D01*
X0168455Y0095787D02*
X0168455Y0097401D01*
X0170046Y0097401D01*
X0170808Y0098162D01*
X0170808Y0104357D01*
X0170165Y0105000D01*
X0170808Y0105643D01*
X0170808Y0111838D01*
X0170046Y0112599D01*
X0168455Y0112599D01*
X0168455Y0112963D01*
X0168592Y0113100D01*
X0178171Y0113100D01*
X0178159Y0113079D01*
X0178057Y0112697D01*
X0178057Y0105000D01*
X0180344Y0105000D01*
X0178057Y0105000D01*
X0178057Y0097303D01*
X0178159Y0096921D01*
X0178357Y0096579D01*
X0178636Y0096300D01*
X0178978Y0096102D01*
X0179360Y0096000D01*
X0180344Y0096000D01*
X0180344Y0105000D01*
X0180344Y0105000D01*
X0180345Y0105000D01*
X0180345Y0096000D01*
X0181329Y0096000D01*
X0181711Y0096102D01*
X0181880Y0096200D01*
X0183956Y0096200D01*
X0183956Y0095650D01*
X0168592Y0095650D01*
X0168455Y0095787D01*
X0168455Y0095865D02*
X0183956Y0095865D01*
X0180345Y0096863D02*
X0180344Y0096863D01*
X0180344Y0097862D02*
X0180345Y0097862D01*
X0180344Y0098860D02*
X0180345Y0098860D01*
X0180344Y0099859D02*
X0180345Y0099859D01*
X0180344Y0100857D02*
X0180345Y0100857D01*
X0180344Y0101856D02*
X0180345Y0101856D01*
X0180344Y0102854D02*
X0180345Y0102854D01*
X0180344Y0103853D02*
X0180345Y0103853D01*
X0180344Y0104851D02*
X0180345Y0104851D01*
X0178057Y0104851D02*
X0170314Y0104851D01*
X0170808Y0103853D02*
X0178057Y0103853D01*
X0178057Y0102854D02*
X0170808Y0102854D01*
X0170808Y0101856D02*
X0178057Y0101856D01*
X0178057Y0100857D02*
X0170808Y0100857D01*
X0170808Y0099859D02*
X0178057Y0099859D01*
X0178057Y0098860D02*
X0170808Y0098860D01*
X0170507Y0097862D02*
X0178057Y0097862D01*
X0178193Y0096863D02*
X0168455Y0096863D01*
X0170808Y0105850D02*
X0178057Y0105850D01*
X0178057Y0106848D02*
X0170808Y0106848D01*
X0170808Y0107847D02*
X0178057Y0107847D01*
X0178057Y0108845D02*
X0170808Y0108845D01*
X0170808Y0109844D02*
X0178057Y0109844D01*
X0178057Y0110842D02*
X0170808Y0110842D01*
X0170805Y0111841D02*
X0178057Y0111841D01*
X0178095Y0112839D02*
X0168455Y0112839D01*
X0158697Y0119829D02*
X0145305Y0119829D01*
X0145305Y0118830D02*
X0157698Y0118830D01*
X0156700Y0117832D02*
X0145305Y0117832D01*
X0145305Y0116833D02*
X0155905Y0116833D01*
X0155905Y0115835D02*
X0145305Y0115835D01*
X0145889Y0114836D02*
X0155905Y0114836D01*
X0155905Y0113838D02*
X0145889Y0113838D01*
X0145889Y0112839D02*
X0155905Y0112839D01*
X0153555Y0111841D02*
X0145258Y0111841D01*
X0132805Y0110842D02*
X0127575Y0110842D01*
X0128389Y0109844D02*
X0132805Y0109844D01*
X0132805Y0108845D02*
X0128389Y0108845D01*
X0128389Y0107847D02*
X0132805Y0107847D01*
X0132805Y0106848D02*
X0127765Y0106848D01*
X0126767Y0105850D02*
X0132805Y0105850D01*
X0132805Y0104851D02*
X0127467Y0104851D01*
X0126993Y0105325D02*
X0129380Y0102938D01*
X0129380Y0101537D01*
X0125593Y0101537D01*
X0125593Y0100963D01*
X0129380Y0100963D01*
X0129380Y0099562D01*
X0126993Y0097175D01*
X0125593Y0097175D01*
X0125593Y0100963D01*
X0125018Y0100963D01*
X0121230Y0100963D01*
X0121230Y0099562D01*
X0123617Y0097175D01*
X0125018Y0097175D01*
X0125018Y0100963D01*
X0125018Y0101537D01*
X0121230Y0101537D01*
X0121230Y0102938D01*
X0123617Y0105325D01*
X0125018Y0105325D01*
X0125018Y0101537D01*
X0125593Y0101537D01*
X0125593Y0105325D01*
X0126993Y0105325D01*
X0125593Y0104851D02*
X0125018Y0104851D01*
X0125018Y0103853D02*
X0125593Y0103853D01*
X0125593Y0102854D02*
X0125018Y0102854D01*
X0125018Y0101856D02*
X0125593Y0101856D01*
X0125593Y0100857D02*
X0125018Y0100857D01*
X0125018Y0099859D02*
X0125593Y0099859D01*
X0125593Y0098860D02*
X0125018Y0098860D01*
X0125018Y0097862D02*
X0125593Y0097862D01*
X0127679Y0097862D02*
X0132805Y0097862D01*
X0132805Y0096863D02*
X0066978Y0096863D01*
X0067976Y0095865D02*
X0132805Y0095865D01*
X0132805Y0094866D02*
X0068975Y0094866D01*
X0069973Y0093868D02*
X0089811Y0093868D01*
X0093299Y0093868D02*
X0127311Y0093868D01*
X0130799Y0093868D02*
X0132805Y0093868D01*
X0132805Y0092869D02*
X0131798Y0092869D01*
X0132139Y0091870D02*
X0132805Y0091870D01*
X0132805Y0090872D02*
X0132139Y0090872D01*
X0132040Y0089873D02*
X0132805Y0089873D01*
X0132805Y0088875D02*
X0131042Y0088875D01*
X0132215Y0098860D02*
X0128678Y0098860D01*
X0129380Y0099859D02*
X0131430Y0099859D01*
X0131430Y0100857D02*
X0129380Y0100857D01*
X0129380Y0101856D02*
X0131430Y0101856D01*
X0131430Y0102854D02*
X0129380Y0102854D01*
X0128465Y0103853D02*
X0132428Y0103853D01*
X0123844Y0105850D02*
X0057991Y0105850D01*
X0058990Y0104851D02*
X0113426Y0104851D01*
X0113700Y0105125D02*
X0111430Y0102855D01*
X0111430Y0099645D01*
X0113700Y0097375D01*
X0116910Y0097375D01*
X0119180Y0099645D01*
X0119180Y0102855D01*
X0116910Y0105125D01*
X0113700Y0105125D01*
X0112428Y0103853D02*
X0059988Y0103853D01*
X0060987Y0102854D02*
X0111430Y0102854D01*
X0111430Y0101856D02*
X0061985Y0101856D01*
X0062984Y0100857D02*
X0111430Y0100857D01*
X0111430Y0099859D02*
X0063982Y0099859D01*
X0064981Y0098860D02*
X0112215Y0098860D01*
X0113214Y0097862D02*
X0065979Y0097862D01*
X0044655Y0077891D02*
X0023495Y0077891D01*
X0024493Y0076893D02*
X0044655Y0076893D01*
X0044655Y0075894D02*
X0024605Y0075894D01*
X0024605Y0074896D02*
X0044655Y0074896D01*
X0044655Y0073897D02*
X0024605Y0073897D01*
X0024285Y0072899D02*
X0044655Y0072899D01*
X0044655Y0071900D02*
X0023286Y0071900D01*
X0022288Y0070902D02*
X0044655Y0070902D01*
X0044655Y0057921D02*
X0023465Y0057921D01*
X0024464Y0056923D02*
X0044655Y0056923D01*
X0044655Y0055924D02*
X0024605Y0055924D01*
X0024605Y0054926D02*
X0044655Y0054926D01*
X0044655Y0053927D02*
X0024605Y0053927D01*
X0024315Y0052929D02*
X0044655Y0052929D01*
X0044655Y0051930D02*
X0023316Y0051930D01*
X0022805Y0050932D02*
X0044655Y0050932D01*
X0044655Y0049933D02*
X0022805Y0049933D01*
X0023656Y0048934D02*
X0044934Y0048934D01*
X0045932Y0047936D02*
X0024655Y0047936D01*
X0025226Y0046937D02*
X0046931Y0046937D01*
X0047929Y0045939D02*
X0025305Y0045939D01*
X0020714Y0018979D02*
X0009805Y0018979D01*
X0089896Y0018979D02*
X0122805Y0018979D01*
X0127805Y0018979D02*
X0133248Y0018979D01*
X0133537Y0019268D02*
X0131037Y0016768D01*
X0131037Y0013232D01*
X0133537Y0010731D01*
X0137073Y0010731D01*
X0139574Y0013232D01*
X0139574Y0016768D01*
X0137073Y0019268D01*
X0133537Y0019268D01*
X0132249Y0017981D02*
X0128361Y0017981D01*
X0129360Y0016982D02*
X0131251Y0016982D01*
X0131037Y0015984D02*
X0129574Y0015984D01*
X0129574Y0014985D02*
X0131037Y0014985D01*
X0131037Y0013987D02*
X0129574Y0013987D01*
X0129330Y0012988D02*
X0131280Y0012988D01*
X0132279Y0011990D02*
X0128331Y0011990D01*
X0127333Y0010991D02*
X0133277Y0010991D01*
X0137333Y0010991D02*
X0143277Y0010991D01*
X0142279Y0011990D02*
X0138331Y0011990D01*
X0139330Y0012988D02*
X0141280Y0012988D01*
X0141037Y0013987D02*
X0139574Y0013987D01*
X0139574Y0014985D02*
X0141037Y0014985D01*
X0141037Y0015984D02*
X0139574Y0015984D01*
X0139360Y0016982D02*
X0141251Y0016982D01*
X0142249Y0017981D02*
X0138361Y0017981D01*
X0137363Y0018979D02*
X0142805Y0018979D01*
X0142805Y0019978D02*
X0127805Y0019978D01*
X0127805Y0020976D02*
X0142805Y0020976D01*
X0142805Y0021975D02*
X0127805Y0021975D01*
X0127805Y0022973D02*
X0131543Y0022973D01*
X0130855Y0023972D02*
X0127805Y0023972D01*
X0127805Y0024970D02*
X0130855Y0024970D01*
X0130855Y0025969D02*
X0127805Y0025969D01*
X0127805Y0026967D02*
X0130855Y0026967D01*
X0130855Y0027966D02*
X0127805Y0027966D01*
X0127805Y0028964D02*
X0128841Y0030000D01*
X0130855Y0030000D01*
X0130855Y0029662D01*
X0131017Y0029500D01*
X0130855Y0029338D01*
X0130855Y0029963D02*
X0128803Y0029963D01*
X0139067Y0022973D02*
X0142546Y0022973D01*
X0153893Y0039948D02*
X0161672Y0039948D01*
X0162670Y0040946D02*
X0152432Y0040946D01*
X0161005Y0045939D02*
X0137805Y0045939D01*
X0137805Y0046937D02*
X0161005Y0046937D01*
X0161005Y0047936D02*
X0137805Y0047936D01*
X0137805Y0048934D02*
X0161005Y0048934D01*
X0161657Y0049933D02*
X0137805Y0049933D01*
X0137805Y0050932D02*
X0162656Y0050932D01*
X0161784Y0044940D02*
X0137805Y0044940D01*
X0137805Y0043942D02*
X0162782Y0043942D01*
X0150091Y0052929D02*
X0137805Y0052929D01*
X0137805Y0053927D02*
X0149093Y0053927D01*
X0148094Y0054926D02*
X0137805Y0054926D01*
X0137805Y0055924D02*
X0147095Y0055924D01*
X0146588Y0056923D02*
X0137805Y0056923D01*
X0137805Y0057921D02*
X0146555Y0057921D01*
X0146555Y0058920D02*
X0137805Y0058920D01*
X0137805Y0059918D02*
X0146555Y0059918D01*
X0146555Y0060917D02*
X0137805Y0060917D01*
X0137805Y0061915D02*
X0146528Y0061915D01*
X0145971Y0062914D02*
X0137805Y0062914D01*
X0137805Y0063912D02*
X0145971Y0063912D01*
X0145971Y0064911D02*
X0137805Y0064911D01*
X0137805Y0065909D02*
X0146853Y0065909D01*
X0151258Y0065909D02*
X0179978Y0065909D01*
X0179978Y0064911D02*
X0152139Y0064911D01*
X0152139Y0063912D02*
X0180157Y0063912D01*
X0180570Y0062914D02*
X0152139Y0062914D01*
X0151582Y0061915D02*
X0181014Y0061915D01*
X0182012Y0060917D02*
X0151555Y0060917D01*
X0151555Y0059918D02*
X0183333Y0059918D01*
X0179978Y0066908D02*
X0137805Y0066908D01*
X0137805Y0067906D02*
X0180388Y0067906D01*
X0180802Y0068905D02*
X0137805Y0068905D01*
X0137805Y0069903D02*
X0181572Y0069903D01*
X0182571Y0070902D02*
X0137805Y0070902D01*
X0137805Y0071900D02*
X0184682Y0071900D01*
X0188212Y0071900D02*
X0188816Y0071900D01*
X0192346Y0071900D02*
X0192950Y0071900D01*
X0196480Y0071900D02*
X0196887Y0071900D01*
X0200417Y0071900D02*
X0200824Y0071900D01*
X0204354Y0071900D02*
X0204761Y0071900D01*
X0208291Y0071900D02*
X0208698Y0071900D01*
X0212228Y0071900D02*
X0212635Y0071900D01*
X0216165Y0071900D02*
X0216572Y0071900D01*
X0220102Y0071900D02*
X0220509Y0071900D01*
X0224039Y0071900D02*
X0224446Y0071900D01*
X0222746Y0057921D02*
X0217864Y0057921D01*
X0218862Y0056923D02*
X0221748Y0056923D01*
X0221430Y0055924D02*
X0219180Y0055924D01*
X0219180Y0054926D02*
X0221430Y0054926D01*
X0221430Y0053927D02*
X0219180Y0053927D01*
X0218713Y0052929D02*
X0221897Y0052929D01*
X0222895Y0051930D02*
X0217715Y0051930D01*
X0217205Y0050932D02*
X0223405Y0050932D01*
X0223405Y0049933D02*
X0222310Y0049933D01*
X0226180Y0046937D02*
X0232805Y0046937D01*
X0232805Y0045939D02*
X0225181Y0045939D01*
X0222597Y0044940D02*
X0232805Y0044940D01*
X0232805Y0043942D02*
X0217205Y0043942D01*
X0217205Y0044940D02*
X0218013Y0044940D01*
X0218397Y0042943D02*
X0217549Y0042943D01*
X0215170Y0039948D02*
X0212178Y0039948D01*
X0213641Y0038949D02*
X0216169Y0038949D01*
X0214640Y0037951D02*
X0217916Y0037951D01*
X0218915Y0036952D02*
X0215638Y0036952D01*
X0216637Y0035954D02*
X0232723Y0035954D01*
X0232805Y0036952D02*
X0221695Y0036952D01*
X0222694Y0037951D02*
X0232805Y0037951D01*
X0232805Y0038949D02*
X0223589Y0038949D01*
X0223589Y0039948D02*
X0232805Y0039948D01*
X0232805Y0040946D02*
X0223589Y0040946D01*
X0223212Y0041945D02*
X0232805Y0041945D01*
X0232805Y0042943D02*
X0222213Y0042943D01*
X0227178Y0047936D02*
X0232805Y0047936D01*
X0232805Y0048934D02*
X0227205Y0048934D01*
X0227205Y0049933D02*
X0232805Y0049933D01*
X0232805Y0050932D02*
X0227205Y0050932D01*
X0227715Y0051930D02*
X0232805Y0051930D01*
X0231897Y0052929D02*
X0228713Y0052929D01*
X0229180Y0053927D02*
X0231430Y0053927D01*
X0231430Y0054926D02*
X0229180Y0054926D01*
X0229180Y0055924D02*
X0231430Y0055924D01*
X0231748Y0056923D02*
X0228862Y0056923D01*
X0227864Y0057921D02*
X0232746Y0057921D01*
X0237805Y0049933D02*
X0252150Y0049933D01*
X0251505Y0048934D02*
X0237805Y0048934D01*
X0237805Y0047936D02*
X0251505Y0047936D01*
X0251505Y0046937D02*
X0237805Y0046937D01*
X0237805Y0045939D02*
X0251505Y0045939D01*
X0251505Y0044940D02*
X0237805Y0044940D01*
X0237805Y0043942D02*
X0251505Y0043942D01*
X0251505Y0042943D02*
X0237805Y0042943D01*
X0237805Y0041945D02*
X0251505Y0041945D01*
X0251505Y0040946D02*
X0237805Y0040946D01*
X0237805Y0039948D02*
X0251505Y0039948D01*
X0251505Y0038949D02*
X0237805Y0038949D01*
X0237805Y0037951D02*
X0251766Y0037951D01*
X0258579Y0030961D02*
X0234802Y0030961D01*
X0232791Y0027966D02*
X0227819Y0027966D01*
X0226910Y0028875D02*
X0229180Y0026605D01*
X0229180Y0023395D01*
X0226910Y0021125D01*
X0223700Y0021125D01*
X0221430Y0023395D01*
X0221430Y0026605D01*
X0223700Y0028875D01*
X0226910Y0028875D01*
X0228818Y0026967D02*
X0231793Y0026967D01*
X0231430Y0025969D02*
X0229180Y0025969D01*
X0229180Y0024970D02*
X0231430Y0024970D01*
X0231430Y0023972D02*
X0229180Y0023972D01*
X0228758Y0022973D02*
X0231852Y0022973D01*
X0232851Y0021975D02*
X0227760Y0021975D01*
X0227073Y0019268D02*
X0223537Y0019268D01*
X0221037Y0016768D01*
X0221037Y0013232D01*
X0223537Y0010731D01*
X0227073Y0010731D01*
X0229574Y0013232D01*
X0229574Y0016768D01*
X0227073Y0019268D01*
X0227363Y0018979D02*
X0233248Y0018979D01*
X0232249Y0017981D02*
X0228361Y0017981D01*
X0229360Y0016982D02*
X0231251Y0016982D01*
X0231037Y0015984D02*
X0229574Y0015984D01*
X0229574Y0014985D02*
X0231037Y0014985D01*
X0231037Y0013987D02*
X0229574Y0013987D01*
X0229330Y0012988D02*
X0231280Y0012988D01*
X0232279Y0011990D02*
X0228331Y0011990D01*
X0227333Y0010991D02*
X0233277Y0010991D01*
X0223277Y0010991D02*
X0217333Y0010991D01*
X0217073Y0010731D02*
X0219574Y0013232D01*
X0219574Y0016768D01*
X0217073Y0019268D01*
X0213537Y0019268D01*
X0211037Y0016768D01*
X0211037Y0013232D01*
X0213537Y0010731D01*
X0217073Y0010731D01*
X0218331Y0011990D02*
X0222279Y0011990D01*
X0221280Y0012988D02*
X0219330Y0012988D01*
X0219574Y0013987D02*
X0221037Y0013987D01*
X0221037Y0014985D02*
X0219574Y0014985D01*
X0219574Y0015984D02*
X0221037Y0015984D01*
X0221251Y0016982D02*
X0219360Y0016982D01*
X0218361Y0017981D02*
X0222249Y0017981D01*
X0223248Y0018979D02*
X0217363Y0018979D01*
X0216910Y0021125D02*
X0213700Y0021125D01*
X0211430Y0023395D01*
X0211430Y0026605D01*
X0213700Y0028875D01*
X0216910Y0028875D01*
X0219180Y0026605D01*
X0219180Y0023395D01*
X0216910Y0021125D01*
X0217760Y0021975D02*
X0222851Y0021975D01*
X0221852Y0022973D02*
X0218758Y0022973D01*
X0219180Y0023972D02*
X0221430Y0023972D01*
X0221430Y0024970D02*
X0219180Y0024970D01*
X0219180Y0025969D02*
X0221430Y0025969D01*
X0221793Y0026967D02*
X0218818Y0026967D01*
X0217819Y0027966D02*
X0222791Y0027966D01*
X0214558Y0030961D02*
X0178208Y0030961D01*
X0179206Y0029963D02*
X0257581Y0029963D01*
X0257277Y0059918D02*
X0259655Y0059918D01*
X0259655Y0060917D02*
X0258598Y0060917D01*
X0259596Y0061915D02*
X0259655Y0061915D01*
X0267205Y0074896D02*
X0270805Y0074896D01*
X0270805Y0075894D02*
X0267205Y0075894D01*
X0267205Y0076893D02*
X0270805Y0076893D01*
X0270805Y0077891D02*
X0267205Y0077891D01*
X0266602Y0078890D02*
X0270805Y0078890D01*
X0270805Y0079888D02*
X0265604Y0079888D01*
X0264605Y0080887D02*
X0270805Y0080887D01*
X0270805Y0081885D02*
X0263607Y0081885D01*
X0218300Y0049933D02*
X0217205Y0049933D01*
X0217205Y0048934D02*
X0217302Y0048934D01*
X0203462Y0058920D02*
X0151555Y0058920D01*
X0152170Y0057921D02*
X0202464Y0057921D01*
X0193590Y0051930D02*
X0137805Y0051930D01*
X0137805Y0042943D02*
X0194721Y0042943D01*
X0195248Y0041945D02*
X0139149Y0041945D01*
X0177843Y0033957D02*
X0211563Y0033957D01*
X0210564Y0034955D02*
X0178842Y0034955D01*
X0207363Y0018979D02*
X0213248Y0018979D01*
X0212249Y0017981D02*
X0208361Y0017981D01*
X0209360Y0016982D02*
X0211251Y0016982D01*
X0211037Y0015984D02*
X0209574Y0015984D01*
X0209574Y0014985D02*
X0211037Y0014985D01*
X0211037Y0013987D02*
X0209574Y0013987D01*
X0209330Y0012988D02*
X0211280Y0012988D01*
X0212279Y0011990D02*
X0208331Y0011990D01*
X0207333Y0010991D02*
X0213277Y0010991D01*
X0212851Y0021975D02*
X0207760Y0021975D01*
X0208758Y0022973D02*
X0211852Y0022973D01*
X0211430Y0023972D02*
X0209180Y0023972D01*
X0209180Y0024970D02*
X0211430Y0024970D01*
X0211430Y0025969D02*
X0209180Y0025969D01*
X0208818Y0026967D02*
X0211793Y0026967D01*
X0212791Y0027966D02*
X0207819Y0027966D01*
X0122931Y0097862D02*
X0117396Y0097862D01*
X0118395Y0098860D02*
X0121932Y0098860D01*
X0121230Y0099859D02*
X0119180Y0099859D01*
X0119180Y0100857D02*
X0121230Y0100857D01*
X0121230Y0101856D02*
X0119180Y0101856D01*
X0119180Y0102854D02*
X0121230Y0102854D01*
X0122145Y0103853D02*
X0118182Y0103853D01*
X0117184Y0104851D02*
X0123144Y0104851D01*
X0188180Y0126818D02*
X0191052Y0126818D01*
X0191052Y0125820D02*
X0188422Y0125820D01*
X0189421Y0124821D02*
X0191516Y0124821D01*
X0191052Y0123823D02*
X0190419Y0123823D01*
X0191052Y0127817D02*
X0188180Y0127817D01*
X0188180Y0128815D02*
X0191052Y0128815D01*
X0191052Y0129814D02*
X0188180Y0129814D01*
X0188180Y0130812D02*
X0191052Y0130812D01*
X0191052Y0131811D02*
X0188180Y0131811D01*
X0220817Y0156774D02*
X0253215Y0156774D01*
X0254805Y0156774D02*
X0255805Y0156774D01*
X0255805Y0155775D02*
X0254805Y0155775D01*
X0254805Y0154777D02*
X0255805Y0154777D01*
X0257395Y0156774D02*
X0267167Y0156774D01*
X0266169Y0157772D02*
X0220305Y0157772D01*
X0229874Y0158771D02*
X0252953Y0158771D01*
X0251955Y0159769D02*
X0230873Y0159769D01*
X0230343Y0165760D02*
X0252484Y0165760D01*
X0253483Y0166759D02*
X0230305Y0166759D01*
X0230305Y0167757D02*
X0260805Y0167757D01*
X0260805Y0166759D02*
X0257127Y0166759D01*
X0258126Y0165760D02*
X0260805Y0165760D01*
X0260805Y0164762D02*
X0259124Y0164762D01*
X0259605Y0163763D02*
X0260947Y0163763D01*
X0261360Y0162765D02*
X0259605Y0162765D01*
X0259605Y0161766D02*
X0262175Y0161766D01*
X0263173Y0160768D02*
X0259605Y0160768D01*
X0258655Y0159769D02*
X0264172Y0159769D01*
X0265170Y0158771D02*
X0257657Y0158771D01*
X0258394Y0155775D02*
X0268166Y0155775D01*
X0269164Y0154777D02*
X0259392Y0154777D01*
X0259805Y0153778D02*
X0270163Y0153778D01*
X0260805Y0168756D02*
X0257642Y0168756D01*
X0258641Y0169754D02*
X0260805Y0169754D01*
X0260805Y0170753D02*
X0259605Y0170753D01*
X0259605Y0171751D02*
X0260805Y0171751D01*
X0260805Y0172750D02*
X0259605Y0172750D01*
X0259605Y0173748D02*
X0260805Y0173748D01*
X0260805Y0174747D02*
X0259139Y0174747D01*
X0258141Y0175745D02*
X0260805Y0175745D01*
X0260805Y0176744D02*
X0257142Y0176744D01*
X0257627Y0178741D02*
X0260805Y0178741D01*
X0260805Y0179739D02*
X0258626Y0179739D01*
X0259605Y0180738D02*
X0260805Y0180738D01*
X0260805Y0181737D02*
X0259605Y0181737D01*
X0259605Y0182735D02*
X0260805Y0182735D01*
X0260805Y0183734D02*
X0259605Y0183734D01*
X0259154Y0184732D02*
X0260805Y0184732D01*
X0260805Y0185731D02*
X0258156Y0185731D01*
X0257157Y0186729D02*
X0260805Y0186729D01*
X0260805Y0187728D02*
X0248455Y0187728D01*
X0248455Y0188726D02*
X0252998Y0188726D01*
X0253524Y0188200D02*
X0257086Y0188200D01*
X0259605Y0190719D01*
X0259605Y0194281D01*
X0257086Y0196800D01*
X0253524Y0196800D01*
X0251005Y0194281D01*
X0251005Y0190719D01*
X0253524Y0188200D01*
X0253453Y0186729D02*
X0248455Y0186729D01*
X0248512Y0185731D02*
X0252455Y0185731D01*
X0251456Y0184732D02*
X0249510Y0184732D01*
X0247132Y0181737D02*
X0244705Y0181737D01*
X0244705Y0182735D02*
X0246133Y0182735D01*
X0245135Y0183734D02*
X0244705Y0183734D01*
X0240905Y0182735D02*
X0113455Y0182735D01*
X0113455Y0181737D02*
X0240905Y0181737D01*
X0240905Y0180738D02*
X0113455Y0180738D01*
X0113455Y0179739D02*
X0240905Y0179739D01*
X0240905Y0178741D02*
X0113455Y0178741D01*
X0113455Y0177742D02*
X0240905Y0177742D01*
X0240905Y0176744D02*
X0113455Y0176744D01*
X0113455Y0175745D02*
X0215252Y0175745D01*
X0220358Y0175745D02*
X0225252Y0175745D01*
X0224254Y0174747D02*
X0221356Y0174747D01*
X0221905Y0173748D02*
X0223705Y0173748D01*
X0223705Y0172750D02*
X0221905Y0172750D01*
X0221905Y0171751D02*
X0223705Y0171751D01*
X0223754Y0170753D02*
X0221856Y0170753D01*
X0220858Y0169754D02*
X0224752Y0169754D01*
X0230305Y0168756D02*
X0252968Y0168756D01*
X0251970Y0169754D02*
X0230858Y0169754D01*
X0231856Y0170753D02*
X0244365Y0170753D01*
X0243367Y0171751D02*
X0231905Y0171751D01*
X0231905Y0172750D02*
X0242368Y0172750D01*
X0241370Y0173748D02*
X0231905Y0173748D01*
X0231356Y0174747D02*
X0240905Y0174747D01*
X0240905Y0175745D02*
X0230358Y0175745D01*
X0244705Y0176744D02*
X0253468Y0176744D01*
X0252469Y0175745D02*
X0244747Y0175745D01*
X0245745Y0174747D02*
X0251471Y0174747D01*
X0252983Y0178741D02*
X0244705Y0178741D01*
X0244705Y0179739D02*
X0251985Y0179739D01*
X0248130Y0180738D02*
X0244705Y0180738D01*
X0244705Y0177742D02*
X0260805Y0177742D01*
X0260805Y0188726D02*
X0257612Y0188726D01*
X0258611Y0189725D02*
X0260805Y0189725D01*
X0260805Y0190723D02*
X0259605Y0190723D01*
X0259605Y0191722D02*
X0260805Y0191722D01*
X0260805Y0192720D02*
X0259605Y0192720D01*
X0259605Y0193719D02*
X0260805Y0193719D01*
X0260805Y0194717D02*
X0259169Y0194717D01*
X0258171Y0195716D02*
X0260805Y0195716D01*
X0260805Y0196714D02*
X0257172Y0196714D01*
X0253438Y0196714D02*
X0249706Y0196714D01*
X0248708Y0195716D02*
X0252440Y0195716D01*
X0251441Y0194717D02*
X0248455Y0194717D01*
X0248455Y0193719D02*
X0251005Y0193719D01*
X0251005Y0192720D02*
X0248455Y0192720D01*
X0248455Y0191722D02*
X0251005Y0191722D01*
X0251005Y0190723D02*
X0248455Y0190723D01*
X0248455Y0189725D02*
X0251999Y0189725D01*
X0250705Y0197713D02*
X0260805Y0197713D01*
X0260805Y0198711D02*
X0251703Y0198711D01*
X0252702Y0199710D02*
X0260805Y0199710D01*
X0260805Y0200708D02*
X0253700Y0200708D01*
X0250323Y0202705D02*
X0249047Y0202705D01*
X0249325Y0201707D02*
X0248048Y0201707D01*
X0248326Y0200708D02*
X0247205Y0200708D01*
X0247205Y0199710D02*
X0247328Y0199710D01*
X0249574Y0203704D02*
X0251037Y0203704D01*
X0251037Y0204702D02*
X0249574Y0204702D01*
X0249574Y0205701D02*
X0251037Y0205701D01*
X0251037Y0206699D02*
X0249574Y0206699D01*
X0248644Y0207698D02*
X0251966Y0207698D01*
X0252965Y0208696D02*
X0247645Y0208696D01*
X0242965Y0208696D02*
X0237645Y0208696D01*
X0238644Y0207698D02*
X0241966Y0207698D01*
X0241037Y0206699D02*
X0239574Y0206699D01*
X0239574Y0205701D02*
X0241037Y0205701D01*
X0241037Y0204702D02*
X0239574Y0204702D01*
X0239574Y0203704D02*
X0241037Y0203704D01*
X0241563Y0202705D02*
X0239047Y0202705D01*
X0238048Y0201707D02*
X0242562Y0201707D01*
X0258048Y0201707D02*
X0260805Y0201707D01*
X0260805Y0202705D02*
X0259047Y0202705D01*
X0259574Y0203704D02*
X0260805Y0203704D01*
X0260805Y0204702D02*
X0259574Y0204702D01*
X0259574Y0205701D02*
X0260805Y0205701D01*
X0260805Y0206699D02*
X0259574Y0206699D01*
X0258644Y0207698D02*
X0260805Y0207698D01*
X0260245Y0208696D02*
X0257645Y0208696D01*
X0259246Y0209695D02*
X0009805Y0209695D01*
X0009805Y0208696D02*
X0077965Y0208696D01*
X0076966Y0207698D02*
X0009805Y0207698D01*
X0009805Y0206699D02*
X0076037Y0206699D01*
X0076037Y0205701D02*
X0009805Y0205701D01*
X0074676Y0178741D02*
X0085855Y0178741D01*
X0114774Y0205701D02*
X0116037Y0205701D01*
X0116037Y0206699D02*
X0114774Y0206699D01*
X0113927Y0207698D02*
X0116966Y0207698D01*
X0117965Y0208696D02*
X0112928Y0208696D01*
X0122645Y0208696D02*
X0127965Y0208696D01*
X0128537Y0209268D02*
X0126037Y0206768D01*
X0126037Y0203232D01*
X0128537Y0200731D01*
X0132073Y0200731D01*
X0134574Y0203232D01*
X0134574Y0206768D01*
X0132073Y0209268D01*
X0128537Y0209268D01*
X0126966Y0207698D02*
X0123644Y0207698D01*
X0124574Y0206699D02*
X0126037Y0206699D01*
X0126037Y0205701D02*
X0124574Y0205701D01*
X0124574Y0204702D02*
X0126037Y0204702D01*
X0126037Y0203704D02*
X0124574Y0203704D01*
X0124047Y0202705D02*
X0126563Y0202705D01*
X0127562Y0201707D02*
X0123048Y0201707D01*
X0132645Y0208696D02*
X0137965Y0208696D01*
X0138537Y0209268D02*
X0136037Y0206768D01*
X0136037Y0203232D01*
X0138537Y0200731D01*
X0142073Y0200731D01*
X0144574Y0203232D01*
X0144574Y0206768D01*
X0142073Y0209268D01*
X0138537Y0209268D01*
X0136966Y0207698D02*
X0133644Y0207698D01*
X0134574Y0206699D02*
X0136037Y0206699D01*
X0136037Y0205701D02*
X0134574Y0205701D01*
X0134574Y0204702D02*
X0136037Y0204702D01*
X0136037Y0203704D02*
X0134574Y0203704D01*
X0134047Y0202705D02*
X0136563Y0202705D01*
X0137562Y0201707D02*
X0133048Y0201707D01*
X0143048Y0201707D02*
X0147562Y0201707D01*
X0148537Y0200731D02*
X0146037Y0203232D01*
X0146037Y0206768D01*
X0148537Y0209268D01*
X0152073Y0209268D01*
X0154574Y0206768D01*
X0154574Y0203232D01*
X0152073Y0200731D01*
X0148537Y0200731D01*
X0146563Y0202705D02*
X0144047Y0202705D01*
X0144574Y0203704D02*
X0146037Y0203704D01*
X0146037Y0204702D02*
X0144574Y0204702D01*
X0144574Y0205701D02*
X0146037Y0205701D01*
X0146037Y0206699D02*
X0144574Y0206699D01*
X0143644Y0207698D02*
X0146966Y0207698D01*
X0147965Y0208696D02*
X0142645Y0208696D01*
X0152645Y0208696D02*
X0157965Y0208696D01*
X0158537Y0209268D02*
X0156037Y0206768D01*
X0156037Y0203232D01*
X0158537Y0200731D01*
X0162073Y0200731D01*
X0164574Y0203232D01*
X0164574Y0206768D01*
X0162073Y0209268D01*
X0158537Y0209268D01*
X0156966Y0207698D02*
X0153644Y0207698D01*
X0154574Y0206699D02*
X0156037Y0206699D01*
X0156037Y0205701D02*
X0154574Y0205701D01*
X0154574Y0204702D02*
X0156037Y0204702D01*
X0156037Y0203704D02*
X0154574Y0203704D01*
X0154047Y0202705D02*
X0156563Y0202705D01*
X0157562Y0201707D02*
X0153048Y0201707D01*
X0163048Y0201707D02*
X0167562Y0201707D01*
X0168537Y0200731D02*
X0166037Y0203232D01*
X0166037Y0206768D01*
X0168537Y0209268D01*
X0172073Y0209268D01*
X0174574Y0206768D01*
X0174574Y0203232D01*
X0172073Y0200731D01*
X0168537Y0200731D01*
X0166563Y0202705D02*
X0164047Y0202705D01*
X0164574Y0203704D02*
X0166037Y0203704D01*
X0166037Y0204702D02*
X0164574Y0204702D01*
X0164574Y0205701D02*
X0166037Y0205701D01*
X0166037Y0206699D02*
X0164574Y0206699D01*
X0163644Y0207698D02*
X0166966Y0207698D01*
X0167965Y0208696D02*
X0162645Y0208696D01*
X0172645Y0208696D02*
X0182965Y0208696D01*
X0183537Y0209268D02*
X0181037Y0206768D01*
X0181037Y0203232D01*
X0183537Y0200731D01*
X0187073Y0200731D01*
X0189574Y0203232D01*
X0189574Y0206768D01*
X0187073Y0209268D01*
X0183537Y0209268D01*
X0181966Y0207698D02*
X0173644Y0207698D01*
X0174574Y0206699D02*
X0181037Y0206699D01*
X0181037Y0205701D02*
X0174574Y0205701D01*
X0174574Y0204702D02*
X0181037Y0204702D01*
X0181037Y0203704D02*
X0174574Y0203704D01*
X0174047Y0202705D02*
X0181563Y0202705D01*
X0182562Y0201707D02*
X0173048Y0201707D01*
X0188048Y0201707D02*
X0192562Y0201707D01*
X0193537Y0200731D02*
X0197073Y0200731D01*
X0199574Y0203232D01*
X0199574Y0206768D01*
X0197073Y0209268D01*
X0193537Y0209268D01*
X0191037Y0206768D01*
X0191037Y0203232D01*
X0193537Y0200731D01*
X0191563Y0202705D02*
X0189047Y0202705D01*
X0189574Y0203704D02*
X0191037Y0203704D01*
X0191037Y0204702D02*
X0189574Y0204702D01*
X0189574Y0205701D02*
X0191037Y0205701D01*
X0191037Y0206699D02*
X0189574Y0206699D01*
X0188644Y0207698D02*
X0191966Y0207698D01*
X0192965Y0208696D02*
X0187645Y0208696D01*
X0197645Y0208696D02*
X0202965Y0208696D01*
X0203537Y0209268D02*
X0201037Y0206768D01*
X0201037Y0203232D01*
X0203537Y0200731D01*
X0207073Y0200731D01*
X0209574Y0203232D01*
X0209574Y0206768D01*
X0207073Y0209268D01*
X0203537Y0209268D01*
X0201966Y0207698D02*
X0198644Y0207698D01*
X0199574Y0206699D02*
X0201037Y0206699D01*
X0201037Y0205701D02*
X0199574Y0205701D01*
X0199574Y0204702D02*
X0201037Y0204702D01*
X0201037Y0203704D02*
X0199574Y0203704D01*
X0199047Y0202705D02*
X0201563Y0202705D01*
X0202562Y0201707D02*
X0198048Y0201707D01*
X0208048Y0201707D02*
X0209655Y0201707D01*
X0209047Y0202705D02*
X0210323Y0202705D01*
X0211037Y0203704D02*
X0209574Y0203704D01*
X0209574Y0204702D02*
X0211037Y0204702D01*
X0211037Y0205701D02*
X0209574Y0205701D01*
X0209574Y0206699D02*
X0211037Y0206699D01*
X0211966Y0207698D02*
X0208644Y0207698D01*
X0207645Y0208696D02*
X0212965Y0208696D01*
M02*
