G75*
%MOIN*%
%OFA0B0*%
%FSLAX25Y25*%
%IPPOS*%
%LPD*%
%AMOC8*
5,1,8,0,0,1.08239X$1,22.5*
%
%ADD10OC8,0.06737*%
%ADD11OC8,0.05950*%
%ADD12OC8,0.04769*%
%ADD13R,0.05800X0.10800*%
%ADD14OC8,0.06800*%
%ADD15C,0.05918*%
%ADD16C,0.04737*%
%ADD17R,0.02375X0.15800*%
%ADD18OC8,0.06400*%
%ADD19R,0.06706X0.05918*%
%ADD20R,0.03950X0.07099*%
%ADD21R,0.05918X0.06706*%
%ADD22C,0.04343*%
%ADD23C,0.03950*%
%ADD24OC8,0.06000*%
%ADD25R,0.07100X0.05400*%
%ADD26OC8,0.04369*%
D10*
X0125305Y0015000D03*
X0135305Y0015000D03*
X0145305Y0015000D03*
X0155305Y0015000D03*
X0165305Y0015000D03*
X0175305Y0015000D03*
X0185305Y0015000D03*
X0205305Y0015000D03*
X0215305Y0015000D03*
X0225305Y0015000D03*
X0235305Y0015000D03*
X0245305Y0015000D03*
X0255305Y0015000D03*
X0255305Y0205000D03*
X0245305Y0205000D03*
X0235305Y0205000D03*
X0225305Y0205000D03*
X0215305Y0205000D03*
X0205305Y0205000D03*
X0195305Y0205000D03*
X0185305Y0205000D03*
X0170305Y0205000D03*
X0160305Y0205000D03*
X0150305Y0205000D03*
X0140305Y0205000D03*
X0130305Y0205000D03*
X0120305Y0205000D03*
X0110305Y0205000D03*
X0100305Y0205000D03*
X0090305Y0205000D03*
X0080305Y0205000D03*
D11*
X0115305Y0101250D03*
X0125305Y0101250D03*
X0135305Y0101250D03*
X0205305Y0055000D03*
X0215305Y0055000D03*
X0225305Y0055000D03*
X0235305Y0055000D03*
X0235305Y0025000D03*
X0225305Y0025000D03*
X0215305Y0025000D03*
X0205305Y0025000D03*
D12*
X0220305Y0040207D03*
X0220305Y0047293D03*
D13*
X0255305Y0043750D03*
D14*
X0175305Y0047500D03*
X0165305Y0047500D03*
X0165305Y0037500D03*
X0165305Y0027500D03*
X0175305Y0027500D03*
X0175305Y0037500D03*
X0255305Y0152500D03*
X0255305Y0162500D03*
X0255305Y0172500D03*
X0255305Y0182500D03*
X0255305Y0192500D03*
X0020305Y0085000D03*
X0020305Y0075000D03*
X0020305Y0065000D03*
X0020305Y0055000D03*
D15*
X0125305Y0137874D03*
D16*
X0125305Y0167402D03*
X0186447Y0065630D03*
X0190581Y0065630D03*
X0194715Y0065630D03*
X0198652Y0065630D03*
X0202589Y0065630D03*
X0206526Y0065630D03*
X0210463Y0065630D03*
X0214400Y0065630D03*
X0218337Y0065630D03*
X0222274Y0065630D03*
X0226211Y0065630D03*
X0230148Y0065630D03*
X0234085Y0065630D03*
X0238022Y0065630D03*
X0241959Y0065630D03*
X0245896Y0065630D03*
X0250030Y0065630D03*
X0254163Y0065630D03*
D17*
X0254754Y0105000D03*
X0257510Y0105000D03*
X0260266Y0105000D03*
X0251998Y0105000D03*
X0249242Y0105000D03*
X0246486Y0105000D03*
X0243730Y0105000D03*
X0240974Y0105000D03*
X0238219Y0105000D03*
X0235463Y0105000D03*
X0232707Y0105000D03*
X0229951Y0105000D03*
X0227195Y0105000D03*
X0224439Y0105000D03*
X0221683Y0105000D03*
X0218927Y0105000D03*
X0216171Y0105000D03*
X0213415Y0105000D03*
X0210659Y0105000D03*
X0207904Y0105000D03*
X0205148Y0105000D03*
X0202392Y0105000D03*
X0199636Y0105000D03*
X0196880Y0105000D03*
X0194124Y0105000D03*
X0191368Y0105000D03*
X0188612Y0105000D03*
X0185856Y0105000D03*
X0183100Y0105000D03*
X0180344Y0105000D03*
D18*
X0217805Y0162500D03*
X0227805Y0162500D03*
X0227805Y0172500D03*
X0217805Y0172500D03*
D19*
X0195305Y0146240D03*
X0195305Y0138760D03*
X0195305Y0128740D03*
X0195305Y0121260D03*
X0215305Y0128760D03*
X0215305Y0136240D03*
X0225305Y0136240D03*
X0225305Y0128760D03*
X0234055Y0128760D03*
X0234055Y0136240D03*
X0242805Y0136240D03*
X0242805Y0128760D03*
X0166555Y0108740D03*
X0157805Y0108740D03*
X0157805Y0101260D03*
X0166555Y0101260D03*
X0087805Y0034990D03*
X0087805Y0027510D03*
X0055305Y0027510D03*
X0055305Y0034990D03*
X0022805Y0034990D03*
X0022805Y0027510D03*
D20*
X0185305Y0128307D03*
X0185305Y0141693D03*
D21*
X0184045Y0165000D03*
X0176565Y0165000D03*
X0261565Y0137500D03*
X0269045Y0137500D03*
X0269045Y0127500D03*
X0261565Y0127500D03*
X0261565Y0117500D03*
X0269045Y0117500D03*
D22*
X0018967Y0132992D03*
X0018967Y0164488D03*
D23*
X0019656Y0012500D03*
X0025955Y0012500D03*
X0052156Y0012500D03*
X0058455Y0012500D03*
X0084656Y0012500D03*
X0090955Y0012500D03*
D24*
X0170305Y0155000D03*
X0180305Y0155000D03*
X0190305Y0155000D03*
D25*
X0090305Y0181500D03*
X0090305Y0187500D03*
X0090305Y0193500D03*
X0135305Y0038500D03*
X0135305Y0032500D03*
X0135305Y0026500D03*
D26*
X0119055Y0041250D03*
X0149055Y0063750D03*
X0129055Y0091250D03*
X0125305Y0108750D03*
X0142805Y0113750D03*
X0170305Y0128750D03*
X0162805Y0141250D03*
X0176555Y0172500D03*
X0211555Y0192500D03*
X0115305Y0192500D03*
X0072805Y0176250D03*
X0065305Y0201250D03*
X0111555Y0141250D03*
X0090305Y0127500D03*
X0091555Y0091250D03*
X0046555Y0100000D03*
X0039055Y0041250D03*
X0022805Y0021250D03*
X0055305Y0021250D03*
X0071555Y0041250D03*
X0087805Y0021250D03*
X0175305Y0103750D03*
X0197805Y0043750D03*
X0261555Y0023750D03*
M02*
