G75*
%MOIN*%
%OFA0B0*%
%FSLAX25Y25*%
%IPPOS*%
%LPD*%
%AMOC8*
5,1,8,0,0,1.08239X$1,22.5*
%
%ADD10R,0.04724X0.04724*%
%ADD11R,0.05118X0.05906*%
%ADD12R,0.05906X0.05118*%
%ADD13R,0.05906X0.05906*%
%ADD14R,0.02362X0.08661*%
%ADD15R,0.06299X0.05512*%
D10*
X0102500Y0018366D03*
X0102500Y0026634D03*
X0215866Y0192500D03*
X0224134Y0192500D03*
D11*
X0236260Y0192500D03*
X0243740Y0192500D03*
X0118740Y0117500D03*
X0111260Y0117500D03*
X0111260Y0105000D03*
X0118740Y0105000D03*
X0053740Y0105000D03*
X0046260Y0105000D03*
X0046260Y0095000D03*
X0053740Y0095000D03*
X0028740Y0185000D03*
X0021260Y0185000D03*
X0021260Y0195000D03*
X0028740Y0195000D03*
X0028740Y0205000D03*
X0021260Y0205000D03*
D12*
X0060000Y0026240D03*
X0060000Y0018760D03*
X0082500Y0018760D03*
X0082500Y0026240D03*
X0092500Y0026240D03*
X0092500Y0018760D03*
D13*
X0034390Y0095000D03*
X0034390Y0105000D03*
X0020610Y0105000D03*
X0020610Y0095000D03*
X0085610Y0105000D03*
X0099390Y0105000D03*
X0099390Y0117500D03*
X0085610Y0117500D03*
X0054390Y0185000D03*
X0054390Y0195000D03*
X0054390Y0205000D03*
X0040610Y0205000D03*
X0040610Y0195000D03*
X0040610Y0185000D03*
D14*
X0212500Y0077736D03*
X0217500Y0077736D03*
X0222500Y0077736D03*
X0227500Y0077736D03*
X0232500Y0077736D03*
X0237500Y0077736D03*
X0242500Y0077736D03*
X0247500Y0077736D03*
X0247500Y0057264D03*
X0242500Y0057264D03*
X0237500Y0057264D03*
X0232500Y0057264D03*
X0227500Y0057264D03*
X0222500Y0057264D03*
X0217500Y0057264D03*
X0212500Y0057264D03*
D15*
X0013465Y0013642D03*
X0013465Y0031358D03*
X0046535Y0031358D03*
X0046535Y0022500D03*
X0046535Y0013642D03*
M02*
