G75*
%MOIN*%
%OFA0B0*%
%FSLAX25Y25*%
%IPPOS*%
%LPD*%
%AMOC8*
5,1,8,0,0,1.08239X$1,22.5*
%
%ADD10OC8,0.06737*%
%ADD11OC8,0.06800*%
%ADD12OC8,0.06000*%
%ADD13OC8,0.05950*%
%ADD14OC8,0.05556*%
%ADD15R,0.05918X0.06706*%
%ADD16R,0.06312X0.04737*%
%ADD17R,0.04737X0.06312*%
%ADD18R,0.06706X0.05918*%
%ADD19R,0.10249X0.10249*%
%ADD20OC8,0.06400*%
%ADD21C,0.04369*%
D10*
X0125000Y0015000D03*
X0135000Y0015000D03*
X0145000Y0015000D03*
X0155000Y0015000D03*
X0165000Y0015000D03*
X0175000Y0015000D03*
X0185000Y0015000D03*
X0205000Y0015000D03*
X0215000Y0015000D03*
X0225000Y0015000D03*
X0235000Y0015000D03*
X0245000Y0015000D03*
X0255000Y0015000D03*
X0250000Y0097500D03*
X0240000Y0097500D03*
X0230000Y0097500D03*
X0220000Y0097500D03*
X0210000Y0097500D03*
X0210000Y0137500D03*
X0220000Y0137500D03*
X0230000Y0137500D03*
X0240000Y0137500D03*
X0250000Y0137500D03*
X0245000Y0205000D03*
X0235000Y0205000D03*
X0225000Y0205000D03*
X0215000Y0205000D03*
X0205000Y0205000D03*
X0195000Y0205000D03*
X0185000Y0205000D03*
X0170000Y0205000D03*
X0160000Y0205000D03*
X0150000Y0205000D03*
X0140000Y0205000D03*
X0130000Y0205000D03*
X0120000Y0205000D03*
X0110000Y0205000D03*
X0100000Y0205000D03*
X0090000Y0205000D03*
X0080000Y0205000D03*
X0162500Y0186752D03*
X0162500Y0156752D03*
X0255000Y0205000D03*
D11*
X0255000Y0192500D03*
X0255000Y0182500D03*
X0255000Y0172500D03*
X0255000Y0162500D03*
X0255000Y0152500D03*
X0165000Y0125000D03*
X0165000Y0115000D03*
X0155000Y0115000D03*
X0145000Y0115000D03*
X0145000Y0125000D03*
X0155000Y0125000D03*
X0155000Y0105000D03*
X0145000Y0105000D03*
X0165000Y0105000D03*
X0235000Y0045000D03*
X0235000Y0035000D03*
X0235000Y0025000D03*
X0051550Y0151100D03*
X0051550Y0168900D03*
X0025950Y0168900D03*
X0025950Y0151100D03*
D12*
X0023750Y0136250D03*
X0023750Y0126250D03*
X0053750Y0126250D03*
X0053750Y0136250D03*
X0187500Y0037500D03*
X0197500Y0037500D03*
X0207500Y0037500D03*
D13*
X0145000Y0045000D03*
X0135000Y0035000D03*
X0125000Y0045000D03*
X0115000Y0127500D03*
X0105000Y0127500D03*
X0095000Y0127500D03*
X0085000Y0127500D03*
D14*
X0062500Y0082500D03*
X0052500Y0082500D03*
X0052500Y0052500D03*
X0062500Y0052500D03*
X0012500Y0052500D03*
X0012500Y0082500D03*
X0162500Y0040000D03*
X0172500Y0040000D03*
D15*
X0171240Y0056250D03*
X0163760Y0056250D03*
X0093740Y0140000D03*
X0086260Y0140000D03*
D16*
X0051831Y0071240D03*
X0043169Y0067500D03*
X0051831Y0063760D03*
D17*
X0148760Y0168169D03*
X0156240Y0168169D03*
X0152500Y0176831D03*
D18*
X0170000Y0176240D03*
X0170000Y0168760D03*
X0063750Y0071240D03*
X0063750Y0063760D03*
X0038750Y0127510D03*
X0038750Y0134990D03*
D19*
X0027500Y0076161D03*
X0027500Y0058839D03*
D20*
X0215000Y0162500D03*
X0225000Y0162500D03*
X0225000Y0172500D03*
X0215000Y0172500D03*
D21*
X0030000Y0022500D03*
X0072500Y0018750D03*
X0038750Y0060000D03*
X0070000Y0126250D03*
X0206250Y0182500D03*
X0206250Y0190000D03*
X0267500Y0106250D03*
X0253750Y0080000D03*
X0253750Y0071250D03*
X0247500Y0067500D03*
X0240000Y0067500D03*
X0226250Y0066250D03*
X0232500Y0086250D03*
X0261250Y0023750D03*
M02*
