%
M48
M72
T01C0.01969
T02C0.02756
T03C0.03150
T04C0.03200
T05C0.03600
T06C0.03937
T07C0.04000
%
T01
X30000Y22500
X72500Y18750
X38750Y60000
X70000Y126250
X206250Y182500
X206250Y190000
X267500Y106250
X253750Y80000
X253750Y71250
X247500Y67500
X240000Y67500
X226250Y66250
X232500Y86250
X261250Y23750
T02
X172500Y40000
X162500Y40000
X62500Y52500
X52500Y52500
X52500Y82500
X62500Y82500
X12500Y82500
X12500Y52500
T03
X85000Y127500
X95000Y127500
X105000Y127500
X115000Y127500
X125000Y45000
X135000Y35000
X145000Y45000
T04
X187500Y37500
X197500Y37500
X207500Y37500
X53750Y126250
X53750Y136250
X23750Y136250
X23750Y126250
T05
X215000Y162500
X225000Y162500
X225000Y172500
X215000Y172500
T06
X215000Y205000
X205000Y205000
X195000Y205000
X185000Y205000
X170000Y205000
X160000Y205000
X150000Y205000
X140000Y205000
X130000Y205000
X120000Y205000
X110000Y205000
X100000Y205000
X90000Y205000
X80000Y205000
X162500Y186752
X162500Y156752
X210000Y137500
X220000Y137500
X230000Y137500
X240000Y137500
X250000Y137500
X250000Y97500
X240000Y97500
X230000Y97500
X220000Y97500
X210000Y97500
X205000Y15000
X215000Y15000
X225000Y15000
X235000Y15000
X245000Y15000
X255000Y15000
X185000Y15000
X175000Y15000
X165000Y15000
X155000Y15000
X145000Y15000
X135000Y15000
X125000Y15000
X225000Y205000
X235000Y205000
X245000Y205000
X255000Y205000
T07
X255000Y192500
X255000Y182500
X255000Y172500
X255000Y162500
X255000Y152500
X165000Y125000
X165000Y115000
X155000Y115000
X145000Y115000
X145000Y125000
X155000Y125000
X155000Y105000
X145000Y105000
X165000Y105000
X235000Y45000
X235000Y35000
X235000Y25000
X51550Y151100
X51550Y168900
X25950Y168900
X25950Y151100
M30
