G75*
%MOIN*%
%OFA0B0*%
%FSLAX25Y25*%
%IPPOS*%
%LPD*%
%AMOC8*
5,1,8,0,0,1.08239X$1,22.5*
%
%ADD10OC8,0.06737*%
%ADD11OC8,0.06800*%
%ADD12OC8,0.06000*%
%ADD13R,0.05524X0.05524*%
%ADD14OC8,0.05950*%
%ADD15OC8,0.05556*%
%ADD16R,0.05918X0.06706*%
%ADD17R,0.06706X0.05918*%
%ADD18R,0.06706X0.06706*%
%ADD19R,0.03162X0.09461*%
%ADD20R,0.07099X0.06312*%
%ADD21OC8,0.06400*%
%ADD22C,0.04369*%
D10*
X0125000Y0015000D03*
X0135000Y0015000D03*
X0145000Y0015000D03*
X0155000Y0015000D03*
X0165000Y0015000D03*
X0175000Y0015000D03*
X0185000Y0015000D03*
X0205000Y0015000D03*
X0215000Y0015000D03*
X0225000Y0015000D03*
X0235000Y0015000D03*
X0245000Y0015000D03*
X0255000Y0015000D03*
X0250000Y0097500D03*
X0240000Y0097500D03*
X0230000Y0097500D03*
X0220000Y0097500D03*
X0210000Y0097500D03*
X0210000Y0137500D03*
X0220000Y0137500D03*
X0230000Y0137500D03*
X0240000Y0137500D03*
X0250000Y0137500D03*
X0245000Y0205000D03*
X0235000Y0205000D03*
X0225000Y0205000D03*
X0215000Y0205000D03*
X0205000Y0205000D03*
X0195000Y0205000D03*
X0185000Y0205000D03*
X0170000Y0205000D03*
X0160000Y0205000D03*
X0150000Y0205000D03*
X0140000Y0205000D03*
X0130000Y0205000D03*
X0120000Y0205000D03*
X0110000Y0205000D03*
X0100000Y0205000D03*
X0090000Y0205000D03*
X0080000Y0205000D03*
X0162500Y0186752D03*
X0162500Y0156752D03*
X0255000Y0205000D03*
D11*
X0255000Y0192500D03*
X0255000Y0182500D03*
X0255000Y0172500D03*
X0255000Y0162500D03*
X0255000Y0152500D03*
X0165000Y0125000D03*
X0165000Y0115000D03*
X0155000Y0115000D03*
X0145000Y0115000D03*
X0145000Y0125000D03*
X0155000Y0125000D03*
X0155000Y0105000D03*
X0145000Y0105000D03*
X0165000Y0105000D03*
X0235000Y0045000D03*
X0235000Y0035000D03*
X0235000Y0025000D03*
X0051550Y0151100D03*
X0051550Y0168900D03*
X0025950Y0168900D03*
X0025950Y0151100D03*
D12*
X0023750Y0136250D03*
X0023750Y0126250D03*
X0053750Y0126250D03*
X0053750Y0136250D03*
X0187500Y0037500D03*
X0197500Y0037500D03*
X0207500Y0037500D03*
D13*
X0102500Y0026634D03*
X0102500Y0018366D03*
X0215866Y0192500D03*
X0224134Y0192500D03*
D14*
X0115000Y0127500D03*
X0105000Y0127500D03*
X0095000Y0127500D03*
X0085000Y0127500D03*
X0125000Y0045000D03*
X0135000Y0035000D03*
X0145000Y0045000D03*
D15*
X0162500Y0040000D03*
X0172500Y0040000D03*
X0062500Y0052500D03*
X0052500Y0052500D03*
X0052500Y0082500D03*
X0062500Y0082500D03*
X0012500Y0082500D03*
X0012500Y0052500D03*
D16*
X0046260Y0095000D03*
X0053740Y0095000D03*
X0053740Y0105000D03*
X0046260Y0105000D03*
X0111260Y0105000D03*
X0118740Y0105000D03*
X0118740Y0117500D03*
X0111260Y0117500D03*
X0028740Y0185000D03*
X0021260Y0185000D03*
X0021260Y0195000D03*
X0028740Y0195000D03*
X0028740Y0205000D03*
X0021260Y0205000D03*
X0236260Y0192500D03*
X0243740Y0192500D03*
D17*
X0092500Y0026240D03*
X0092500Y0018760D03*
X0082500Y0018760D03*
X0082500Y0026240D03*
X0060000Y0026240D03*
X0060000Y0018760D03*
D18*
X0034390Y0095000D03*
X0034390Y0105000D03*
X0020610Y0105000D03*
X0020610Y0095000D03*
X0085610Y0105000D03*
X0099390Y0105000D03*
X0099390Y0117500D03*
X0085610Y0117500D03*
X0054390Y0185000D03*
X0054390Y0195000D03*
X0054390Y0205000D03*
X0040610Y0205000D03*
X0040610Y0195000D03*
X0040610Y0185000D03*
D19*
X0212500Y0077736D03*
X0217500Y0077736D03*
X0222500Y0077736D03*
X0227500Y0077736D03*
X0232500Y0077736D03*
X0237500Y0077736D03*
X0242500Y0077736D03*
X0247500Y0077736D03*
X0247500Y0057264D03*
X0242500Y0057264D03*
X0237500Y0057264D03*
X0232500Y0057264D03*
X0227500Y0057264D03*
X0222500Y0057264D03*
X0217500Y0057264D03*
X0212500Y0057264D03*
D20*
X0013465Y0013642D03*
X0013465Y0031358D03*
X0046535Y0031358D03*
X0046535Y0022500D03*
X0046535Y0013642D03*
D21*
X0215000Y0162500D03*
X0225000Y0162500D03*
X0225000Y0172500D03*
X0215000Y0172500D03*
D22*
X0206250Y0182500D03*
X0206250Y0190000D03*
X0267500Y0106250D03*
X0253750Y0080000D03*
X0253750Y0071250D03*
X0247500Y0067500D03*
X0240000Y0067500D03*
X0226250Y0066250D03*
X0232500Y0086250D03*
X0261250Y0023750D03*
X0072500Y0018750D03*
X0030000Y0022500D03*
X0038750Y0060000D03*
X0070000Y0126250D03*
M02*
