%
M48
M72
T01C0.01969
T02C0.03150
T03C0.03200
T04C0.03937
T05C0.04000
T06C0.05200
%
T01
X47595Y20167
X77595Y32667
X125095Y10167
X127595Y70167
X112595Y102667
X100095Y112667
X180095Y142667
X222595Y157667
X225095Y172667
X242595Y107667
X212595Y40167
X35095Y177667
X37595Y195167
T02
X135095Y145167
X135095Y115167
X197595Y55167
X197595Y45167
X172595Y50167
X162595Y40167
X152595Y50167
X272595Y70167
X272595Y80167
X272595Y90167
T03
X237595Y50167
X227595Y50167
X217595Y50167
X62595Y125167
X52595Y125167
X52595Y140167
X62595Y140167
X62595Y155167
X52595Y155167
T04
X116595Y205167
X126595Y205167
X136595Y205167
X146595Y205167
X156595Y205167
X166595Y205167
X176595Y205167
X186595Y205167
X202595Y205167
X212595Y205167
X222595Y205167
X232595Y205167
X242595Y205167
X252595Y205167
X262595Y205167
X272595Y205167
X247595Y145167
X237595Y145167
X237595Y115167
X247595Y115167
X197595Y115167
X197595Y145167
X97595Y90167
X97595Y80167
X97595Y70167
X97595Y60167
X142595Y15167
X152595Y15167
X162595Y15167
X172595Y15167
X182595Y15167
X192595Y15167
X202595Y15167
X222595Y15167
X232595Y15167
X242595Y15167
X252595Y15167
X262595Y15167
X272595Y15167
T05
X272595Y35167
X282595Y35167
X272595Y50167
X262595Y50167
X252595Y50167
X252595Y35167
X262595Y35167
X207595Y165167
X197595Y165167
X197595Y175167
X207595Y175167
X207595Y185167
X197595Y185167
X187595Y185167
X187595Y175167
X187595Y165167
X242595Y180167
X252595Y180167
X262595Y180167
X272595Y180167
T06
X272595Y149867
X272595Y130167
X272595Y110467
M30
