G75*
%MOIN*%
%OFA0B0*%
%FSLAX25Y25*%
%IPPOS*%
%LPD*%
%AMOC8*
5,1,8,0,0,1.08239X$1,22.5*
%
%ADD10OC8,0.06737*%
%ADD11R,0.05918X0.06706*%
%ADD12OC8,0.05950*%
%ADD13R,0.07099X0.06312*%
%ADD14R,0.06706X0.05918*%
%ADD15R,0.05524X0.05524*%
%ADD16OC8,0.06000*%
%ADD17OC8,0.05556*%
%ADD18OC8,0.08600*%
%ADD19OC8,0.06800*%
%ADD20R,0.06400X0.03600*%
%ADD21C,0.04369*%
D10*
X0142595Y0015167D03*
X0152595Y0015167D03*
X0162595Y0015167D03*
X0172595Y0015167D03*
X0182595Y0015167D03*
X0192595Y0015167D03*
X0202595Y0015167D03*
X0222595Y0015167D03*
X0232595Y0015167D03*
X0242595Y0015167D03*
X0252595Y0015167D03*
X0262595Y0015167D03*
X0272595Y0015167D03*
X0135095Y0115167D03*
X0135095Y0145167D03*
X0136595Y0205167D03*
X0126595Y0205167D03*
X0116595Y0205167D03*
X0146595Y0205167D03*
X0156595Y0205167D03*
X0166595Y0205167D03*
X0176595Y0205167D03*
X0186595Y0205167D03*
X0202595Y0205167D03*
X0212595Y0205167D03*
X0222595Y0205167D03*
X0232595Y0205167D03*
X0242595Y0205167D03*
X0252595Y0205167D03*
X0262595Y0205167D03*
X0272595Y0205167D03*
X0062595Y0155167D03*
X0052595Y0155167D03*
X0052595Y0140167D03*
X0062595Y0140167D03*
X0062595Y0125167D03*
X0052595Y0125167D03*
D11*
X0041335Y0125167D03*
X0033855Y0125167D03*
X0033855Y0140167D03*
X0041335Y0140167D03*
X0041335Y0155167D03*
X0033855Y0155167D03*
X0108855Y0070167D03*
X0116335Y0070167D03*
X0116335Y0060167D03*
X0108855Y0060167D03*
D12*
X0092595Y0060167D03*
X0092595Y0070167D03*
X0092595Y0080167D03*
X0092595Y0090167D03*
X0152595Y0050167D03*
X0162595Y0040167D03*
X0172595Y0050167D03*
X0272595Y0070167D03*
X0272595Y0080167D03*
X0272595Y0090167D03*
D13*
X0031060Y0011308D03*
X0031060Y0020167D03*
X0031060Y0029025D03*
X0064131Y0029025D03*
X0064131Y0011308D03*
D14*
X0075095Y0016427D03*
X0085095Y0016427D03*
X0085095Y0023907D03*
X0075095Y0023907D03*
X0110095Y0023907D03*
X0110095Y0016427D03*
X0120095Y0016427D03*
X0120095Y0023907D03*
D15*
X0130095Y0024301D03*
X0130095Y0016033D03*
D16*
X0217595Y0050167D03*
X0227595Y0050167D03*
X0237595Y0050167D03*
D17*
X0197595Y0055167D03*
X0197595Y0045167D03*
X0197595Y0115167D03*
X0197595Y0145167D03*
X0237595Y0145167D03*
X0247595Y0145167D03*
X0247595Y0115167D03*
X0237595Y0115167D03*
D18*
X0272595Y0110467D03*
X0272595Y0130167D03*
X0272595Y0149867D03*
D19*
X0272595Y0180167D03*
X0262595Y0180167D03*
X0252595Y0180167D03*
X0242595Y0180167D03*
X0207595Y0185167D03*
X0197595Y0185167D03*
X0187595Y0185167D03*
X0187595Y0175167D03*
X0197595Y0175167D03*
X0207595Y0175167D03*
X0207595Y0165167D03*
X0197595Y0165167D03*
X0187595Y0165167D03*
X0252595Y0050167D03*
X0262595Y0050167D03*
X0272595Y0050167D03*
X0272595Y0035167D03*
X0282595Y0035167D03*
X0262595Y0035167D03*
X0252595Y0035167D03*
D20*
X0067595Y0185167D03*
X0067595Y0202667D03*
X0037595Y0202667D03*
X0037595Y0185167D03*
D21*
X0035095Y0177667D03*
X0037595Y0195167D03*
X0100095Y0112667D03*
X0112595Y0102667D03*
X0127595Y0070167D03*
X0077595Y0032667D03*
X0047595Y0020167D03*
X0125095Y0010167D03*
X0212595Y0040167D03*
X0242595Y0107667D03*
X0222595Y0157667D03*
X0225095Y0172667D03*
X0180095Y0142667D03*
M02*
