G75*
%MOIN*%
%OFA0B0*%
%FSLAX25Y25*%
%IPPOS*%
%LPD*%
%AMOC8*
5,1,8,0,0,1.08239X$1,22.5*
%
%ADD10R,0.05118X0.05906*%
%ADD11OC8,0.05937*%
%ADD12OC8,0.05150*%
%ADD13R,0.05512X0.03937*%
%ADD14R,0.05906X0.05118*%
%ADD15R,0.09449X0.09449*%
%ADD16OC8,0.05200*%
%ADD17OC8,0.04756*%
%ADD18R,0.03937X0.05512*%
%ADD19OC8,0.07800*%
%ADD20OC8,0.06000*%
%ADD21C,0.01600*%
%ADD22C,0.03569*%
D10*
X0108855Y0130167D03*
X0116335Y0130167D03*
X0056335Y0185167D03*
X0048855Y0185167D03*
X0048855Y0202667D03*
X0056335Y0202667D03*
X0213855Y0065167D03*
X0221335Y0065167D03*
X0233855Y0065167D03*
X0241335Y0065167D03*
X0253855Y0080167D03*
X0261335Y0080167D03*
D11*
X0262595Y0015167D03*
X0252595Y0015167D03*
X0242595Y0015167D03*
X0232595Y0015167D03*
X0222595Y0015167D03*
X0202595Y0015167D03*
X0192595Y0015167D03*
X0182595Y0015167D03*
X0172595Y0015167D03*
X0162595Y0015167D03*
X0152595Y0015167D03*
X0142595Y0015167D03*
X0135095Y0115167D03*
X0135095Y0145167D03*
X0136595Y0205167D03*
X0126595Y0205167D03*
X0116595Y0205167D03*
X0146595Y0205167D03*
X0156595Y0205167D03*
X0166595Y0205167D03*
X0176595Y0205167D03*
X0186595Y0205167D03*
X0202595Y0205167D03*
X0212595Y0205167D03*
X0222595Y0205167D03*
X0232595Y0205167D03*
X0242595Y0205167D03*
X0252595Y0205167D03*
X0262595Y0205167D03*
X0272595Y0205167D03*
X0062595Y0155167D03*
X0052595Y0155167D03*
X0052595Y0140167D03*
X0062595Y0140167D03*
X0062595Y0125167D03*
X0052595Y0125167D03*
X0272595Y0015167D03*
D12*
X0272595Y0070167D03*
X0272595Y0080167D03*
X0272595Y0090167D03*
X0172595Y0050167D03*
X0162595Y0040167D03*
X0152595Y0050167D03*
X0092595Y0060167D03*
X0092595Y0070167D03*
X0092595Y0080167D03*
X0092595Y0090167D03*
D13*
X0108264Y0141427D03*
X0108264Y0148907D03*
X0116926Y0145167D03*
D14*
X0112595Y0118907D03*
X0112595Y0111427D03*
X0222595Y0141427D03*
X0222595Y0148907D03*
D15*
X0206257Y0130167D03*
X0188934Y0130167D03*
X0152595Y0138828D03*
X0152595Y0121505D03*
D16*
X0217595Y0050167D03*
X0227595Y0050167D03*
X0237595Y0050167D03*
D17*
X0197595Y0055167D03*
X0197595Y0045167D03*
X0197595Y0115167D03*
X0197595Y0145167D03*
X0237595Y0145167D03*
X0247595Y0145167D03*
X0247595Y0115167D03*
X0237595Y0115167D03*
D18*
X0227595Y0123336D03*
X0223855Y0131997D03*
X0231335Y0131997D03*
D19*
X0272595Y0130167D03*
X0272595Y0110467D03*
X0272595Y0149867D03*
D20*
X0272595Y0180167D03*
X0262595Y0180167D03*
X0252595Y0180167D03*
X0242595Y0180167D03*
X0207595Y0185167D03*
X0197595Y0185167D03*
X0187595Y0185167D03*
X0187595Y0175167D03*
X0197595Y0175167D03*
X0207595Y0175167D03*
X0207595Y0165167D03*
X0197595Y0165167D03*
X0187595Y0165167D03*
X0252595Y0050167D03*
X0262595Y0050167D03*
X0272595Y0050167D03*
X0272595Y0035167D03*
X0282595Y0035167D03*
X0262595Y0035167D03*
X0252595Y0035167D03*
D21*
X0027895Y0010467D02*
X0027895Y0209867D01*
X0124551Y0209867D01*
X0121827Y0207142D01*
X0121827Y0205351D01*
X0126411Y0205351D01*
X0126411Y0204982D01*
X0126779Y0204982D01*
X0126779Y0200398D01*
X0128570Y0200398D01*
X0131364Y0203191D01*
X0131364Y0204982D01*
X0126779Y0204982D01*
X0126779Y0205351D01*
X0131364Y0205351D01*
X0131364Y0207142D01*
X0128639Y0209867D01*
X0275400Y0209867D01*
X0277295Y0207971D01*
X0277295Y0182255D01*
X0274583Y0184967D01*
X0272795Y0184967D01*
X0272795Y0180367D01*
X0272395Y0180367D01*
X0272395Y0184967D01*
X0270607Y0184967D01*
X0267795Y0182155D01*
X0267795Y0180367D01*
X0272395Y0180367D01*
X0272395Y0179967D01*
X0267795Y0179967D01*
X0267795Y0178178D01*
X0270607Y0175367D01*
X0272395Y0175367D01*
X0272395Y0179967D01*
X0272795Y0179967D01*
X0272795Y0175367D01*
X0274583Y0175367D01*
X0277295Y0178078D01*
X0277295Y0164112D01*
X0278102Y0162164D01*
X0287295Y0152971D01*
X0287295Y0037255D01*
X0284583Y0039967D01*
X0282795Y0039967D01*
X0282795Y0035367D01*
X0282395Y0035367D01*
X0282395Y0039967D01*
X0280607Y0039967D01*
X0277795Y0037155D01*
X0277795Y0035367D01*
X0282395Y0035367D01*
X0282395Y0034967D01*
X0277795Y0034967D01*
X0277795Y0033178D01*
X0280607Y0030367D01*
X0282395Y0030367D01*
X0282395Y0034967D01*
X0282795Y0034967D01*
X0282795Y0030367D01*
X0284583Y0030367D01*
X0287295Y0033078D01*
X0287295Y0027362D01*
X0279593Y0019660D01*
X0278102Y0018169D01*
X0277295Y0016221D01*
X0277295Y0010467D01*
X0194639Y0010467D01*
X0197364Y0013191D01*
X0197364Y0014982D01*
X0192779Y0014982D01*
X0192779Y0015351D01*
X0192411Y0015351D01*
X0192411Y0019935D01*
X0190620Y0019935D01*
X0187827Y0017142D01*
X0187827Y0015351D01*
X0192411Y0015351D01*
X0192411Y0014982D01*
X0187827Y0014982D01*
X0187827Y0013191D01*
X0190551Y0010467D01*
X0184639Y0010467D01*
X0187364Y0013191D01*
X0187364Y0014982D01*
X0182779Y0014982D01*
X0182779Y0015351D01*
X0182411Y0015351D01*
X0182411Y0019935D01*
X0180620Y0019935D01*
X0177827Y0017142D01*
X0177827Y0015351D01*
X0182411Y0015351D01*
X0182411Y0014982D01*
X0177827Y0014982D01*
X0177827Y0013191D01*
X0180551Y0010467D01*
X0133789Y0010467D01*
X0133955Y0010632D01*
X0134630Y0011307D01*
X0134995Y0012189D01*
X0134995Y0021673D01*
X0136089Y0022767D01*
X0170195Y0022767D01*
X0170195Y0019227D01*
X0168027Y0017059D01*
X0168027Y0013274D01*
X0170703Y0010598D01*
X0174487Y0010598D01*
X0177164Y0013274D01*
X0177164Y0017059D01*
X0174995Y0019227D01*
X0174995Y0046663D01*
X0176770Y0048437D01*
X0176770Y0051896D01*
X0174324Y0054341D01*
X0170866Y0054341D01*
X0168420Y0051896D01*
X0168420Y0048437D01*
X0170195Y0046663D01*
X0170195Y0027567D01*
X0134618Y0027567D01*
X0133736Y0027201D01*
X0133061Y0026526D01*
X0130561Y0024026D01*
X0130195Y0023144D01*
X0130195Y0013661D01*
X0129101Y0012567D01*
X0127481Y0012567D01*
X0127012Y0013036D01*
X0125768Y0013551D01*
X0124422Y0013551D01*
X0123178Y0013036D01*
X0122226Y0012084D01*
X0121711Y0010840D01*
X0121711Y0010467D01*
X0027895Y0010467D01*
X0027895Y0011561D02*
X0122009Y0011561D01*
X0123476Y0013159D02*
X0027895Y0013159D01*
X0027895Y0014758D02*
X0130195Y0014758D01*
X0130195Y0016356D02*
X0027895Y0016356D01*
X0027895Y0017955D02*
X0130195Y0017955D01*
X0130195Y0019553D02*
X0027895Y0019553D01*
X0027895Y0021152D02*
X0130195Y0021152D01*
X0130195Y0022750D02*
X0027895Y0022750D01*
X0027895Y0024349D02*
X0130883Y0024349D01*
X0132482Y0025947D02*
X0027895Y0025947D01*
X0027895Y0027546D02*
X0134567Y0027546D01*
X0135095Y0025167D02*
X0172595Y0025167D01*
X0172595Y0015167D01*
X0168027Y0014758D02*
X0167164Y0014758D01*
X0167164Y0013274D02*
X0164487Y0010598D01*
X0160703Y0010598D01*
X0158027Y0013274D01*
X0158027Y0017059D01*
X0160703Y0019735D01*
X0164487Y0019735D01*
X0167164Y0017059D01*
X0167164Y0013274D01*
X0167049Y0013159D02*
X0168142Y0013159D01*
X0169740Y0011561D02*
X0165450Y0011561D01*
X0167164Y0016356D02*
X0168027Y0016356D01*
X0168922Y0017955D02*
X0166268Y0017955D01*
X0164669Y0019553D02*
X0170195Y0019553D01*
X0170195Y0021152D02*
X0134995Y0021152D01*
X0134995Y0019553D02*
X0140521Y0019553D01*
X0140703Y0019735D02*
X0138027Y0017059D01*
X0138027Y0013274D01*
X0140703Y0010598D01*
X0144487Y0010598D01*
X0147164Y0013274D01*
X0147164Y0017059D01*
X0144487Y0019735D01*
X0140703Y0019735D01*
X0138922Y0017955D02*
X0134995Y0017955D01*
X0134995Y0016356D02*
X0138027Y0016356D01*
X0138027Y0014758D02*
X0134995Y0014758D01*
X0134995Y0013159D02*
X0138142Y0013159D01*
X0139740Y0011561D02*
X0134735Y0011561D01*
X0132595Y0012667D02*
X0132595Y0022667D01*
X0135095Y0025167D01*
X0136073Y0022750D02*
X0170195Y0022750D01*
X0172595Y0025167D02*
X0172595Y0050167D01*
X0169646Y0053122D02*
X0155827Y0053122D01*
X0156970Y0051979D02*
X0154407Y0054541D01*
X0152595Y0054541D01*
X0150783Y0054541D01*
X0148220Y0051979D01*
X0148220Y0050167D01*
X0152595Y0050167D01*
X0152595Y0054541D01*
X0152595Y0050167D01*
X0152595Y0050167D01*
X0152595Y0050167D01*
X0156970Y0050167D01*
X0156970Y0051979D01*
X0156970Y0051523D02*
X0168420Y0051523D01*
X0168420Y0049925D02*
X0156970Y0049925D01*
X0156970Y0050167D02*
X0156970Y0048355D01*
X0154407Y0045792D01*
X0152595Y0045792D01*
X0152595Y0050167D01*
X0152595Y0050167D01*
X0148220Y0050167D01*
X0148220Y0048355D01*
X0150783Y0045792D01*
X0152595Y0045792D01*
X0152595Y0050167D01*
X0156970Y0050167D01*
X0156942Y0048326D02*
X0168531Y0048326D01*
X0170130Y0046728D02*
X0155343Y0046728D01*
X0152595Y0046728D02*
X0152595Y0046728D01*
X0152595Y0048326D02*
X0152595Y0048326D01*
X0152595Y0049925D02*
X0152595Y0049925D01*
X0152595Y0050167D02*
X0152595Y0050167D01*
X0152595Y0051523D02*
X0152595Y0051523D01*
X0152595Y0053122D02*
X0152595Y0053122D01*
X0149364Y0053122D02*
X0027895Y0053122D01*
X0027895Y0051523D02*
X0148220Y0051523D01*
X0148220Y0049925D02*
X0027895Y0049925D01*
X0027895Y0048326D02*
X0148248Y0048326D01*
X0149847Y0046728D02*
X0027895Y0046728D01*
X0027895Y0045129D02*
X0170195Y0045129D01*
X0170195Y0043531D02*
X0165135Y0043531D01*
X0164324Y0044341D02*
X0160866Y0044341D01*
X0158420Y0041896D01*
X0158420Y0038437D01*
X0160866Y0035992D01*
X0164324Y0035992D01*
X0166770Y0038437D01*
X0166770Y0041896D01*
X0164324Y0044341D01*
X0166733Y0041932D02*
X0170195Y0041932D01*
X0170195Y0040334D02*
X0166770Y0040334D01*
X0166770Y0038735D02*
X0170195Y0038735D01*
X0170195Y0037137D02*
X0165469Y0037137D01*
X0170195Y0035538D02*
X0027895Y0035538D01*
X0027895Y0033940D02*
X0170195Y0033940D01*
X0170195Y0032341D02*
X0027895Y0032341D01*
X0027895Y0030743D02*
X0170195Y0030743D01*
X0170195Y0029144D02*
X0027895Y0029144D01*
X0027895Y0037137D02*
X0159721Y0037137D01*
X0158420Y0038735D02*
X0027895Y0038735D01*
X0027895Y0040334D02*
X0158420Y0040334D01*
X0158457Y0041932D02*
X0027895Y0041932D01*
X0027895Y0043531D02*
X0160055Y0043531D01*
X0174995Y0043531D02*
X0193617Y0043531D01*
X0193617Y0043519D02*
X0195947Y0041189D01*
X0199243Y0041189D01*
X0201573Y0043519D01*
X0201573Y0046814D01*
X0199243Y0049145D01*
X0195947Y0049145D01*
X0193617Y0046814D01*
X0193617Y0043519D01*
X0193617Y0045129D02*
X0174995Y0045129D01*
X0175060Y0046728D02*
X0193617Y0046728D01*
X0195129Y0048326D02*
X0176659Y0048326D01*
X0176770Y0049925D02*
X0205195Y0049925D01*
X0205195Y0051523D02*
X0199578Y0051523D01*
X0199243Y0051189D02*
X0200821Y0052767D01*
X0204101Y0052767D01*
X0205195Y0051673D01*
X0205195Y0039689D01*
X0205561Y0038807D01*
X0210561Y0033807D01*
X0211236Y0033132D01*
X0212118Y0032767D01*
X0229101Y0032767D01*
X0230195Y0031673D01*
X0230195Y0019227D01*
X0228027Y0017059D01*
X0228027Y0013274D01*
X0230703Y0010598D01*
X0234487Y0010598D01*
X0237164Y0013274D01*
X0237164Y0017059D01*
X0234995Y0019227D01*
X0234995Y0033144D01*
X0234630Y0034026D01*
X0233955Y0034701D01*
X0231455Y0037201D01*
X0230573Y0037567D01*
X0214781Y0037567D01*
X0214981Y0037767D01*
X0235573Y0037767D01*
X0236455Y0038132D01*
X0238955Y0040632D01*
X0239630Y0041307D01*
X0239995Y0042189D01*
X0239995Y0046627D01*
X0241795Y0048427D01*
X0241795Y0050973D01*
X0243370Y0052547D01*
X0243735Y0053429D01*
X0243735Y0060614D01*
X0244557Y0060614D01*
X0245494Y0061551D01*
X0245494Y0068782D01*
X0244557Y0069719D01*
X0243735Y0069719D01*
X0243735Y0077767D01*
X0249696Y0077767D01*
X0249696Y0076551D01*
X0250633Y0075614D01*
X0257077Y0075614D01*
X0257595Y0076132D01*
X0258113Y0075614D01*
X0264557Y0075614D01*
X0265494Y0076551D01*
X0265494Y0077767D01*
X0269091Y0077767D01*
X0270866Y0075992D01*
X0274324Y0075992D01*
X0276770Y0078437D01*
X0276770Y0081896D01*
X0274324Y0084341D01*
X0270866Y0084341D01*
X0269091Y0082567D01*
X0265494Y0082567D01*
X0265494Y0083782D01*
X0264557Y0084719D01*
X0258113Y0084719D01*
X0257595Y0084201D01*
X0257077Y0084719D01*
X0256255Y0084719D01*
X0256255Y0087767D01*
X0269091Y0087767D01*
X0270866Y0085992D01*
X0274324Y0085992D01*
X0276770Y0088437D01*
X0276770Y0091896D01*
X0274324Y0094341D01*
X0270866Y0094341D01*
X0269091Y0092567D01*
X0254618Y0092567D01*
X0253736Y0092201D01*
X0253061Y0091526D01*
X0251820Y0090286D01*
X0251455Y0089404D01*
X0251455Y0084719D01*
X0250633Y0084719D01*
X0249696Y0083782D01*
X0249696Y0082567D01*
X0242118Y0082567D01*
X0241236Y0082201D01*
X0240561Y0081526D01*
X0239301Y0080266D01*
X0238935Y0079384D01*
X0238935Y0069719D01*
X0238113Y0069719D01*
X0237737Y0069342D01*
X0237519Y0069560D01*
X0237109Y0069797D01*
X0236651Y0069919D01*
X0234335Y0069919D01*
X0234335Y0065646D01*
X0233375Y0065646D01*
X0233375Y0064687D01*
X0229496Y0064687D01*
X0229496Y0061977D01*
X0229619Y0061519D01*
X0229856Y0061109D01*
X0230191Y0060774D01*
X0230601Y0060537D01*
X0231059Y0060414D01*
X0233375Y0060414D01*
X0233375Y0064687D01*
X0234335Y0064687D01*
X0234335Y0060414D01*
X0236651Y0060414D01*
X0237109Y0060537D01*
X0237519Y0060774D01*
X0237737Y0060991D01*
X0238113Y0060614D01*
X0238935Y0060614D01*
X0238935Y0054901D01*
X0238401Y0054367D01*
X0235855Y0054367D01*
X0233395Y0051906D01*
X0233395Y0048427D01*
X0235195Y0046627D01*
X0235195Y0043661D01*
X0234101Y0042567D01*
X0214981Y0042567D01*
X0214512Y0043036D01*
X0213268Y0043551D01*
X0211922Y0043551D01*
X0210678Y0043036D01*
X0209995Y0042353D01*
X0209995Y0053144D01*
X0209630Y0054026D01*
X0208955Y0054701D01*
X0206455Y0057201D01*
X0205573Y0057567D01*
X0200821Y0057567D01*
X0199995Y0058392D01*
X0199995Y0061673D01*
X0201089Y0062767D01*
X0209696Y0062767D01*
X0209696Y0061551D01*
X0210633Y0060614D01*
X0217077Y0060614D01*
X0217454Y0060991D01*
X0217671Y0060774D01*
X0218081Y0060537D01*
X0218539Y0060414D01*
X0220856Y0060414D01*
X0220856Y0064687D01*
X0221815Y0064687D01*
X0221815Y0065646D01*
X0225694Y0065646D01*
X0225694Y0068356D01*
X0225572Y0068814D01*
X0225335Y0069225D01*
X0225000Y0069560D01*
X0224589Y0069797D01*
X0224131Y0069919D01*
X0221815Y0069919D01*
X0221815Y0065646D01*
X0220856Y0065646D01*
X0220856Y0069919D01*
X0218539Y0069919D01*
X0218081Y0069797D01*
X0217671Y0069560D01*
X0217454Y0069342D01*
X0217077Y0069719D01*
X0210633Y0069719D01*
X0209696Y0068782D01*
X0209696Y0067567D01*
X0199618Y0067567D01*
X0198736Y0067201D01*
X0196236Y0064701D01*
X0195561Y0064026D01*
X0195195Y0063144D01*
X0195195Y0058392D01*
X0193617Y0056814D01*
X0193617Y0053519D01*
X0195947Y0051189D01*
X0199243Y0051189D01*
X0200061Y0048326D02*
X0205195Y0048326D01*
X0205195Y0046728D02*
X0201573Y0046728D01*
X0201573Y0045129D02*
X0205195Y0045129D01*
X0205195Y0043531D02*
X0201573Y0043531D01*
X0199987Y0041932D02*
X0205195Y0041932D01*
X0205195Y0040334D02*
X0174995Y0040334D01*
X0174995Y0041932D02*
X0195204Y0041932D01*
X0205632Y0038735D02*
X0174995Y0038735D01*
X0174995Y0037137D02*
X0207231Y0037137D01*
X0208829Y0035538D02*
X0174995Y0035538D01*
X0174995Y0033940D02*
X0210428Y0033940D01*
X0212595Y0035167D02*
X0230095Y0035167D01*
X0232595Y0032667D01*
X0232595Y0015167D01*
X0228027Y0014758D02*
X0227164Y0014758D01*
X0227164Y0013274D02*
X0224487Y0010598D01*
X0220703Y0010598D01*
X0218027Y0013274D01*
X0218027Y0017059D01*
X0220703Y0019735D01*
X0224487Y0019735D01*
X0227164Y0017059D01*
X0227164Y0013274D01*
X0227049Y0013159D02*
X0228142Y0013159D01*
X0229740Y0011561D02*
X0225450Y0011561D01*
X0227164Y0016356D02*
X0228027Y0016356D01*
X0228922Y0017955D02*
X0226268Y0017955D01*
X0224669Y0019553D02*
X0230195Y0019553D01*
X0230195Y0021152D02*
X0174995Y0021152D01*
X0174995Y0022750D02*
X0230195Y0022750D01*
X0230195Y0024349D02*
X0174995Y0024349D01*
X0174995Y0025947D02*
X0230195Y0025947D01*
X0230195Y0027546D02*
X0174995Y0027546D01*
X0174995Y0029144D02*
X0230195Y0029144D01*
X0230195Y0030743D02*
X0174995Y0030743D01*
X0174995Y0032341D02*
X0229526Y0032341D01*
X0233118Y0035538D02*
X0240195Y0035538D01*
X0240195Y0033940D02*
X0234665Y0033940D01*
X0234995Y0032341D02*
X0240195Y0032341D01*
X0240195Y0030743D02*
X0234995Y0030743D01*
X0234995Y0029144D02*
X0240195Y0029144D01*
X0240195Y0027546D02*
X0234995Y0027546D01*
X0234995Y0025947D02*
X0240195Y0025947D01*
X0240195Y0024689D02*
X0240561Y0023807D01*
X0243061Y0021307D01*
X0243736Y0020632D01*
X0244618Y0020267D01*
X0249101Y0020267D01*
X0250168Y0019200D01*
X0248027Y0017059D01*
X0248027Y0013274D01*
X0250703Y0010598D01*
X0254487Y0010598D01*
X0257164Y0013274D01*
X0257164Y0017059D01*
X0254995Y0019227D01*
X0254995Y0020644D01*
X0254630Y0021526D01*
X0253955Y0022201D01*
X0253955Y0022201D01*
X0252130Y0024026D01*
X0252130Y0024026D01*
X0251455Y0024701D01*
X0250573Y0025067D01*
X0246089Y0025067D01*
X0244995Y0026161D01*
X0244995Y0041673D01*
X0249790Y0046467D01*
X0250690Y0045567D01*
X0254501Y0045567D01*
X0257195Y0048261D01*
X0257195Y0052072D01*
X0254501Y0054767D01*
X0250690Y0054767D01*
X0247995Y0052072D01*
X0247995Y0051461D01*
X0241236Y0044701D01*
X0240561Y0044026D01*
X0240195Y0043144D01*
X0240195Y0024689D01*
X0240336Y0024349D02*
X0234995Y0024349D01*
X0234995Y0022750D02*
X0241617Y0022750D01*
X0243216Y0021152D02*
X0234995Y0021152D01*
X0234995Y0019553D02*
X0240521Y0019553D01*
X0240703Y0019735D02*
X0238027Y0017059D01*
X0238027Y0013274D01*
X0240703Y0010598D01*
X0244487Y0010598D01*
X0247164Y0013274D01*
X0247164Y0017059D01*
X0244487Y0019735D01*
X0240703Y0019735D01*
X0238922Y0017955D02*
X0236268Y0017955D01*
X0237164Y0016356D02*
X0238027Y0016356D01*
X0238027Y0014758D02*
X0237164Y0014758D01*
X0237049Y0013159D02*
X0238142Y0013159D01*
X0239740Y0011561D02*
X0235450Y0011561D01*
X0245450Y0011561D02*
X0249740Y0011561D01*
X0248142Y0013159D02*
X0247049Y0013159D01*
X0247164Y0014758D02*
X0248027Y0014758D01*
X0248027Y0016356D02*
X0247164Y0016356D01*
X0246268Y0017955D02*
X0248922Y0017955D01*
X0249814Y0019553D02*
X0244669Y0019553D01*
X0245095Y0022667D02*
X0250095Y0022667D01*
X0252595Y0020167D01*
X0252595Y0015167D01*
X0256268Y0017955D02*
X0258922Y0017955D01*
X0258027Y0017059D02*
X0258027Y0013274D01*
X0260703Y0010598D01*
X0264487Y0010598D01*
X0267164Y0013274D01*
X0267164Y0017059D01*
X0264487Y0019735D01*
X0260703Y0019735D01*
X0258027Y0017059D01*
X0258027Y0016356D02*
X0257164Y0016356D01*
X0257164Y0014758D02*
X0258027Y0014758D01*
X0258142Y0013159D02*
X0257049Y0013159D01*
X0255450Y0011561D02*
X0259740Y0011561D01*
X0265450Y0011561D02*
X0269740Y0011561D01*
X0270703Y0010598D02*
X0274487Y0010598D01*
X0277164Y0013274D01*
X0277164Y0017059D01*
X0274487Y0019735D01*
X0270703Y0019735D01*
X0268027Y0017059D01*
X0268027Y0013274D01*
X0270703Y0010598D01*
X0268142Y0013159D02*
X0267049Y0013159D01*
X0267164Y0014758D02*
X0268027Y0014758D01*
X0268027Y0016356D02*
X0267164Y0016356D01*
X0266268Y0017955D02*
X0268922Y0017955D01*
X0270521Y0019553D02*
X0264669Y0019553D01*
X0260521Y0019553D02*
X0254995Y0019553D01*
X0254785Y0021152D02*
X0281085Y0021152D01*
X0282683Y0022750D02*
X0253406Y0022750D01*
X0251807Y0024349D02*
X0284282Y0024349D01*
X0285880Y0025947D02*
X0245209Y0025947D01*
X0244995Y0027546D02*
X0287295Y0027546D01*
X0287295Y0029144D02*
X0244995Y0029144D01*
X0244995Y0030743D02*
X0250514Y0030743D01*
X0250690Y0030567D02*
X0247995Y0033261D01*
X0247995Y0037072D01*
X0250690Y0039767D01*
X0254501Y0039767D01*
X0257195Y0037072D01*
X0257195Y0033261D01*
X0254501Y0030567D01*
X0250690Y0030567D01*
X0248915Y0032341D02*
X0244995Y0032341D01*
X0244995Y0033940D02*
X0247995Y0033940D01*
X0247995Y0035538D02*
X0244995Y0035538D01*
X0244995Y0037137D02*
X0248060Y0037137D01*
X0249659Y0038735D02*
X0244995Y0038735D01*
X0244995Y0040334D02*
X0287295Y0040334D01*
X0287295Y0041932D02*
X0245255Y0041932D01*
X0246854Y0043531D02*
X0287295Y0043531D01*
X0287295Y0045129D02*
X0248452Y0045129D01*
X0244861Y0048326D02*
X0241695Y0048326D01*
X0241795Y0049925D02*
X0246459Y0049925D01*
X0247995Y0051523D02*
X0242346Y0051523D01*
X0243608Y0053122D02*
X0249045Y0053122D01*
X0250644Y0054721D02*
X0243735Y0054721D01*
X0243735Y0056319D02*
X0287295Y0056319D01*
X0287295Y0054721D02*
X0274829Y0054721D01*
X0274583Y0054967D02*
X0272795Y0054967D01*
X0272795Y0050367D01*
X0272395Y0050367D01*
X0272395Y0054967D01*
X0270607Y0054967D01*
X0267795Y0052155D01*
X0267795Y0050367D01*
X0272395Y0050367D01*
X0272395Y0049967D01*
X0267795Y0049967D01*
X0267795Y0048178D01*
X0270607Y0045367D01*
X0272395Y0045367D01*
X0272395Y0049967D01*
X0272795Y0049967D01*
X0272795Y0050367D01*
X0277395Y0050367D01*
X0277395Y0052155D01*
X0274583Y0054967D01*
X0272795Y0054721D02*
X0272395Y0054721D01*
X0272395Y0053122D02*
X0272795Y0053122D01*
X0272795Y0051523D02*
X0272395Y0051523D01*
X0272395Y0049925D02*
X0272795Y0049925D01*
X0272795Y0049967D02*
X0272795Y0045367D01*
X0274583Y0045367D01*
X0277395Y0048178D01*
X0277395Y0049967D01*
X0272795Y0049967D01*
X0272795Y0048326D02*
X0272395Y0048326D01*
X0272395Y0046728D02*
X0272795Y0046728D01*
X0275945Y0046728D02*
X0287295Y0046728D01*
X0287295Y0048326D02*
X0277395Y0048326D01*
X0277395Y0049925D02*
X0287295Y0049925D01*
X0287295Y0051523D02*
X0277395Y0051523D01*
X0276428Y0053122D02*
X0287295Y0053122D01*
X0287295Y0057918D02*
X0243735Y0057918D01*
X0243735Y0059516D02*
X0287295Y0059516D01*
X0287295Y0061115D02*
X0245058Y0061115D01*
X0245494Y0062713D02*
X0287295Y0062713D01*
X0287295Y0064312D02*
X0245494Y0064312D01*
X0245494Y0065910D02*
X0287295Y0065910D01*
X0287295Y0067509D02*
X0275841Y0067509D01*
X0276770Y0068437D02*
X0274324Y0065992D01*
X0270866Y0065992D01*
X0268420Y0068437D01*
X0268420Y0071896D01*
X0270866Y0074341D01*
X0274324Y0074341D01*
X0276770Y0071896D01*
X0276770Y0068437D01*
X0276770Y0069107D02*
X0287295Y0069107D01*
X0287295Y0070706D02*
X0276770Y0070706D01*
X0276362Y0072304D02*
X0287295Y0072304D01*
X0287295Y0073903D02*
X0274763Y0073903D01*
X0275432Y0077100D02*
X0287295Y0077100D01*
X0287295Y0078698D02*
X0276770Y0078698D01*
X0276770Y0080297D02*
X0287295Y0080297D01*
X0287295Y0081895D02*
X0276770Y0081895D01*
X0275172Y0083494D02*
X0287295Y0083494D01*
X0287295Y0085092D02*
X0256255Y0085092D01*
X0256255Y0086691D02*
X0270167Y0086691D01*
X0270018Y0083494D02*
X0265494Y0083494D01*
X0261335Y0080167D02*
X0272595Y0080167D01*
X0269758Y0077100D02*
X0265494Y0077100D01*
X0268829Y0072304D02*
X0243735Y0072304D01*
X0243735Y0070706D02*
X0268420Y0070706D01*
X0268420Y0069107D02*
X0245169Y0069107D01*
X0245494Y0067509D02*
X0269349Y0067509D01*
X0270427Y0073903D02*
X0243735Y0073903D01*
X0243735Y0075501D02*
X0287295Y0075501D01*
X0287295Y0086691D02*
X0275023Y0086691D01*
X0276622Y0088289D02*
X0287295Y0088289D01*
X0287295Y0089888D02*
X0276770Y0089888D01*
X0276770Y0091486D02*
X0287295Y0091486D01*
X0287295Y0093085D02*
X0275581Y0093085D01*
X0272595Y0090167D02*
X0255095Y0090167D01*
X0253855Y0088927D01*
X0253855Y0080167D01*
X0242595Y0080167D01*
X0241335Y0078907D01*
X0241335Y0065167D01*
X0241335Y0053907D01*
X0237595Y0050167D01*
X0237595Y0042667D01*
X0235095Y0040167D01*
X0212595Y0040167D01*
X0211874Y0043531D02*
X0209995Y0043531D01*
X0209995Y0045129D02*
X0235195Y0045129D01*
X0235094Y0046728D02*
X0230096Y0046728D01*
X0229335Y0045967D02*
X0231795Y0048427D01*
X0231795Y0051906D01*
X0229335Y0054367D01*
X0225855Y0054367D01*
X0223395Y0051906D01*
X0223395Y0048427D01*
X0225855Y0045967D01*
X0229335Y0045967D01*
X0231695Y0048326D02*
X0233496Y0048326D01*
X0233395Y0049925D02*
X0231795Y0049925D01*
X0231795Y0051523D02*
X0233395Y0051523D01*
X0234611Y0053122D02*
X0230579Y0053122D01*
X0224611Y0053122D02*
X0220862Y0053122D01*
X0221995Y0051989D02*
X0219418Y0054567D01*
X0217595Y0054567D01*
X0215773Y0054567D01*
X0213195Y0051989D01*
X0213195Y0050167D01*
X0217595Y0050167D01*
X0217595Y0054567D01*
X0217595Y0050167D01*
X0217595Y0050167D01*
X0217595Y0050167D01*
X0221995Y0050167D01*
X0221995Y0051989D01*
X0221995Y0051523D02*
X0223395Y0051523D01*
X0223395Y0049925D02*
X0221995Y0049925D01*
X0221995Y0050167D02*
X0221995Y0048344D01*
X0219418Y0045767D01*
X0217595Y0045767D01*
X0217595Y0050167D01*
X0217595Y0050167D01*
X0213195Y0050167D01*
X0213195Y0048344D01*
X0215773Y0045767D01*
X0217595Y0045767D01*
X0217595Y0050167D01*
X0221995Y0050167D01*
X0221977Y0048326D02*
X0223496Y0048326D01*
X0225094Y0046728D02*
X0220379Y0046728D01*
X0217595Y0046728D02*
X0217595Y0046728D01*
X0217595Y0048326D02*
X0217595Y0048326D01*
X0217595Y0049925D02*
X0217595Y0049925D01*
X0217595Y0050167D02*
X0217595Y0050167D01*
X0217595Y0051523D02*
X0217595Y0051523D01*
X0217595Y0053122D02*
X0217595Y0053122D01*
X0214328Y0053122D02*
X0209995Y0053122D01*
X0209995Y0051523D02*
X0213195Y0051523D01*
X0213195Y0049925D02*
X0209995Y0049925D01*
X0209995Y0048326D02*
X0213213Y0048326D01*
X0214811Y0046728D02*
X0209995Y0046728D01*
X0213317Y0043531D02*
X0235065Y0043531D01*
X0238656Y0040334D02*
X0240195Y0040334D01*
X0240195Y0041932D02*
X0239889Y0041932D01*
X0239995Y0043531D02*
X0240355Y0043531D01*
X0239995Y0045129D02*
X0241664Y0045129D01*
X0240096Y0046728D02*
X0243262Y0046728D01*
X0242595Y0042667D02*
X0242595Y0025167D01*
X0245095Y0022667D01*
X0254677Y0030743D02*
X0260514Y0030743D01*
X0260690Y0030567D02*
X0264501Y0030567D01*
X0267195Y0033261D01*
X0267195Y0037072D01*
X0264501Y0039767D01*
X0260690Y0039767D01*
X0257995Y0037072D01*
X0257995Y0033261D01*
X0260690Y0030567D01*
X0258915Y0032341D02*
X0256275Y0032341D01*
X0257195Y0033940D02*
X0257995Y0033940D01*
X0257995Y0035538D02*
X0257195Y0035538D01*
X0257130Y0037137D02*
X0258060Y0037137D01*
X0259659Y0038735D02*
X0255532Y0038735D01*
X0255662Y0046728D02*
X0259528Y0046728D01*
X0260690Y0045567D02*
X0257995Y0048261D01*
X0257995Y0052072D01*
X0260690Y0054767D01*
X0264501Y0054767D01*
X0267195Y0052072D01*
X0267195Y0048261D01*
X0264501Y0045567D01*
X0260690Y0045567D01*
X0257995Y0048326D02*
X0257195Y0048326D01*
X0257195Y0049925D02*
X0257995Y0049925D01*
X0257995Y0051523D02*
X0257195Y0051523D01*
X0256145Y0053122D02*
X0259045Y0053122D01*
X0260644Y0054721D02*
X0254547Y0054721D01*
X0252595Y0050167D02*
X0250095Y0050167D01*
X0242595Y0042667D01*
X0240195Y0038735D02*
X0237058Y0038735D01*
X0240195Y0037137D02*
X0231519Y0037137D01*
X0212595Y0035167D02*
X0207595Y0040167D01*
X0207595Y0052667D01*
X0205095Y0055167D01*
X0197595Y0055167D01*
X0197595Y0062667D01*
X0200095Y0065167D01*
X0213855Y0065167D01*
X0209696Y0062713D02*
X0201036Y0062713D01*
X0199995Y0061115D02*
X0210133Y0061115D01*
X0207337Y0056319D02*
X0238935Y0056319D01*
X0238935Y0057918D02*
X0200470Y0057918D01*
X0199995Y0059516D02*
X0238935Y0059516D01*
X0238755Y0054721D02*
X0208935Y0054721D01*
X0220856Y0061115D02*
X0221815Y0061115D01*
X0221815Y0060414D02*
X0224131Y0060414D01*
X0224589Y0060537D01*
X0225000Y0060774D01*
X0225335Y0061109D01*
X0225572Y0061519D01*
X0225694Y0061977D01*
X0225694Y0064687D01*
X0221815Y0064687D01*
X0221815Y0060414D01*
X0221815Y0062713D02*
X0220856Y0062713D01*
X0220856Y0064312D02*
X0221815Y0064312D01*
X0221335Y0065167D02*
X0233855Y0065167D01*
X0233375Y0065646D02*
X0229496Y0065646D01*
X0229496Y0068356D01*
X0229619Y0068814D01*
X0229856Y0069225D01*
X0230191Y0069560D01*
X0230601Y0069797D01*
X0231059Y0069919D01*
X0233375Y0069919D01*
X0233375Y0065646D01*
X0233375Y0065910D02*
X0234335Y0065910D01*
X0234335Y0064312D02*
X0233375Y0064312D01*
X0233375Y0062713D02*
X0234335Y0062713D01*
X0234335Y0061115D02*
X0233375Y0061115D01*
X0229852Y0061115D02*
X0225338Y0061115D01*
X0225694Y0062713D02*
X0229496Y0062713D01*
X0229496Y0064312D02*
X0225694Y0064312D01*
X0225694Y0065910D02*
X0229496Y0065910D01*
X0229496Y0067509D02*
X0225694Y0067509D01*
X0225403Y0069107D02*
X0229788Y0069107D01*
X0233375Y0069107D02*
X0234335Y0069107D01*
X0234335Y0067509D02*
X0233375Y0067509D01*
X0238935Y0070706D02*
X0130979Y0070706D01*
X0130979Y0070840D02*
X0130464Y0072084D01*
X0129512Y0073036D01*
X0128268Y0073551D01*
X0126922Y0073551D01*
X0125678Y0073036D01*
X0125209Y0072567D01*
X0096099Y0072567D01*
X0094324Y0074341D01*
X0090866Y0074341D01*
X0088420Y0071896D01*
X0088420Y0068437D01*
X0090866Y0065992D01*
X0094324Y0065992D01*
X0096099Y0067767D01*
X0125209Y0067767D01*
X0125678Y0067298D01*
X0126922Y0066782D01*
X0128268Y0066782D01*
X0129512Y0067298D01*
X0130464Y0068250D01*
X0130979Y0069493D01*
X0130979Y0070840D01*
X0130244Y0072304D02*
X0238935Y0072304D01*
X0238935Y0073903D02*
X0094763Y0073903D01*
X0094324Y0075992D02*
X0096770Y0078437D01*
X0096770Y0081896D01*
X0094324Y0084341D01*
X0090866Y0084341D01*
X0088420Y0081896D01*
X0088420Y0078437D01*
X0090866Y0075992D01*
X0094324Y0075992D01*
X0095432Y0077100D02*
X0238935Y0077100D01*
X0238935Y0078698D02*
X0096770Y0078698D01*
X0096770Y0080297D02*
X0239331Y0080297D01*
X0240930Y0081895D02*
X0096770Y0081895D01*
X0095172Y0083494D02*
X0249696Y0083494D01*
X0251455Y0085092D02*
X0027895Y0085092D01*
X0027895Y0083494D02*
X0090018Y0083494D01*
X0088420Y0081895D02*
X0027895Y0081895D01*
X0027895Y0080297D02*
X0088420Y0080297D01*
X0088420Y0078698D02*
X0027895Y0078698D01*
X0027895Y0077100D02*
X0089758Y0077100D01*
X0090427Y0073903D02*
X0027895Y0073903D01*
X0027895Y0075501D02*
X0238935Y0075501D01*
X0243735Y0077100D02*
X0249696Y0077100D01*
X0251455Y0086691D02*
X0095306Y0086691D01*
X0094407Y0085792D02*
X0096970Y0088355D01*
X0096970Y0090167D01*
X0096970Y0091979D01*
X0094407Y0094541D01*
X0092595Y0094541D01*
X0090783Y0094541D01*
X0088220Y0091979D01*
X0088220Y0090167D01*
X0092595Y0090167D01*
X0092595Y0094541D01*
X0092595Y0090167D01*
X0092595Y0090167D01*
X0092595Y0090167D01*
X0096970Y0090167D01*
X0092595Y0090167D01*
X0092595Y0090167D01*
X0088220Y0090167D01*
X0088220Y0088355D01*
X0090783Y0085792D01*
X0092595Y0085792D01*
X0092595Y0090167D01*
X0092595Y0090167D01*
X0092595Y0085792D01*
X0094407Y0085792D01*
X0092595Y0086691D02*
X0092595Y0086691D01*
X0092595Y0088289D02*
X0092595Y0088289D01*
X0092595Y0089888D02*
X0092595Y0089888D01*
X0092595Y0091486D02*
X0092595Y0091486D01*
X0092595Y0093085D02*
X0092595Y0093085D01*
X0095864Y0093085D02*
X0269609Y0093085D01*
X0270317Y0104967D02*
X0274873Y0104967D01*
X0278095Y0108188D01*
X0278095Y0112745D01*
X0274873Y0115967D01*
X0270317Y0115967D01*
X0267217Y0112867D01*
X0253289Y0112867D01*
X0251573Y0114583D01*
X0251573Y0116814D01*
X0249243Y0119145D01*
X0245947Y0119145D01*
X0243617Y0116814D01*
X0243617Y0113519D01*
X0245947Y0111189D01*
X0248179Y0111189D01*
X0250261Y0109107D01*
X0250936Y0108432D01*
X0251818Y0108067D01*
X0267217Y0108067D01*
X0270317Y0104967D01*
X0269411Y0105873D02*
X0245515Y0105873D01*
X0245464Y0105750D02*
X0245979Y0106993D01*
X0245979Y0108340D01*
X0245464Y0109584D01*
X0244512Y0110536D01*
X0243268Y0111051D01*
X0241922Y0111051D01*
X0240678Y0110536D01*
X0240209Y0110067D01*
X0201089Y0110067D01*
X0199995Y0111161D01*
X0199995Y0111941D01*
X0201573Y0113519D01*
X0201573Y0116814D01*
X0199243Y0119145D01*
X0195947Y0119145D01*
X0193617Y0116814D01*
X0193617Y0113519D01*
X0195195Y0111941D01*
X0195195Y0109689D01*
X0195561Y0108807D01*
X0196236Y0108132D01*
X0198736Y0105632D01*
X0199618Y0105267D01*
X0240209Y0105267D01*
X0240678Y0104798D01*
X0241922Y0104282D01*
X0243268Y0104282D01*
X0244512Y0104798D01*
X0245464Y0105750D01*
X0245979Y0107471D02*
X0267812Y0107471D01*
X0272595Y0110467D02*
X0252295Y0110467D01*
X0247595Y0115167D01*
X0244869Y0112267D02*
X0240321Y0112267D01*
X0239243Y0111189D02*
X0241573Y0113519D01*
X0241573Y0116814D01*
X0239995Y0118392D01*
X0239995Y0120644D01*
X0239630Y0121526D01*
X0238955Y0122201D01*
X0235785Y0125371D01*
X0234903Y0125736D01*
X0231164Y0125736D01*
X0231164Y0126755D01*
X0230477Y0127441D01*
X0231151Y0127441D01*
X0231151Y0131813D01*
X0231520Y0131813D01*
X0231520Y0132182D01*
X0235104Y0132182D01*
X0235104Y0134990D01*
X0234981Y0135448D01*
X0234744Y0135858D01*
X0234409Y0136194D01*
X0233999Y0136431D01*
X0233541Y0136553D01*
X0231520Y0136553D01*
X0231520Y0132182D01*
X0231151Y0132182D01*
X0231151Y0136553D01*
X0229130Y0136553D01*
X0228672Y0136431D01*
X0228262Y0136194D01*
X0227926Y0135858D01*
X0227689Y0135448D01*
X0227567Y0134990D01*
X0227567Y0132182D01*
X0231151Y0132182D01*
X0231151Y0131813D01*
X0227567Y0131813D01*
X0227567Y0129004D01*
X0227689Y0128547D01*
X0227926Y0128136D01*
X0228262Y0127801D01*
X0228451Y0127692D01*
X0226537Y0127692D01*
X0227423Y0128579D01*
X0227423Y0135416D01*
X0226486Y0136353D01*
X0226255Y0136353D01*
X0226255Y0137312D01*
X0227148Y0138205D01*
X0227148Y0144648D01*
X0226630Y0145167D01*
X0227148Y0145685D01*
X0227148Y0152129D01*
X0226211Y0153066D01*
X0218980Y0153066D01*
X0218042Y0152129D01*
X0218042Y0151307D01*
X0214995Y0151307D01*
X0214995Y0156673D01*
X0219630Y0161307D01*
X0219995Y0162189D01*
X0219995Y0174173D01*
X0222130Y0176307D01*
X0222495Y0177189D01*
X0222495Y0191673D01*
X0224630Y0193807D01*
X0224995Y0194689D01*
X0224995Y0201106D01*
X0227164Y0203274D01*
X0227164Y0207059D01*
X0224487Y0209735D01*
X0220703Y0209735D01*
X0218027Y0207059D01*
X0218027Y0203274D01*
X0220195Y0201106D01*
X0220195Y0196161D01*
X0218736Y0194701D01*
X0218061Y0194026D01*
X0217695Y0193144D01*
X0217695Y0178661D01*
X0216236Y0177201D01*
X0215561Y0176526D01*
X0215195Y0175644D01*
X0215195Y0163661D01*
X0211236Y0159701D01*
X0210561Y0159026D01*
X0210195Y0158144D01*
X0210195Y0149689D01*
X0210561Y0148807D01*
X0212495Y0146872D01*
X0213378Y0146507D01*
X0218042Y0146507D01*
X0218042Y0145685D01*
X0218561Y0145167D01*
X0218042Y0144648D01*
X0218042Y0138205D01*
X0218980Y0137267D01*
X0221455Y0137267D01*
X0221455Y0136353D01*
X0221224Y0136353D01*
X0220286Y0135416D01*
X0220286Y0128579D01*
X0221224Y0127641D01*
X0224914Y0127641D01*
X0224027Y0126755D01*
X0224027Y0125736D01*
X0214081Y0125736D01*
X0212581Y0127236D01*
X0212581Y0135554D01*
X0211644Y0136491D01*
X0200869Y0136491D01*
X0199932Y0135554D01*
X0199932Y0124780D01*
X0200869Y0123842D01*
X0209187Y0123842D01*
X0211728Y0121301D01*
X0212610Y0120936D01*
X0224027Y0120936D01*
X0224027Y0119917D01*
X0224964Y0118980D01*
X0230226Y0118980D01*
X0231164Y0119917D01*
X0231164Y0120936D01*
X0233432Y0120936D01*
X0235195Y0119173D01*
X0235195Y0118392D01*
X0233617Y0116814D01*
X0233617Y0113519D01*
X0235947Y0111189D01*
X0239243Y0111189D01*
X0240999Y0110668D02*
X0200487Y0110668D01*
X0200321Y0112267D02*
X0234869Y0112267D01*
X0233617Y0113865D02*
X0201573Y0113865D01*
X0201573Y0115464D02*
X0233617Y0115464D01*
X0233865Y0117062D02*
X0201325Y0117062D01*
X0199726Y0118661D02*
X0235195Y0118661D01*
X0234108Y0120259D02*
X0231164Y0120259D01*
X0234426Y0123336D02*
X0227595Y0123336D01*
X0213087Y0123336D01*
X0206257Y0130167D01*
X0212581Y0129851D02*
X0220286Y0129851D01*
X0220286Y0131449D02*
X0212581Y0131449D01*
X0212581Y0133048D02*
X0220286Y0133048D01*
X0220286Y0134646D02*
X0212581Y0134646D01*
X0211890Y0136245D02*
X0221115Y0136245D01*
X0218404Y0137843D02*
X0191334Y0137843D01*
X0191334Y0136491D02*
X0191334Y0144305D01*
X0190968Y0145188D01*
X0179995Y0156161D01*
X0179995Y0171673D01*
X0181089Y0172767D01*
X0183490Y0172767D01*
X0185690Y0170567D01*
X0189501Y0170567D01*
X0192195Y0173261D01*
X0192195Y0177072D01*
X0189501Y0179767D01*
X0185690Y0179767D01*
X0183490Y0177567D01*
X0179618Y0177567D01*
X0178736Y0177201D01*
X0176236Y0174701D01*
X0175561Y0174026D01*
X0175195Y0173144D01*
X0175195Y0154689D01*
X0175561Y0153807D01*
X0176236Y0153132D01*
X0186534Y0142834D01*
X0186534Y0136491D01*
X0183547Y0136491D01*
X0182609Y0135554D01*
X0182609Y0124780D01*
X0183484Y0123905D01*
X0158920Y0123905D01*
X0158920Y0126892D01*
X0158045Y0127767D01*
X0178073Y0127767D01*
X0178955Y0128132D01*
X0179630Y0128807D01*
X0182130Y0131307D01*
X0182495Y0132189D01*
X0182495Y0140281D01*
X0182964Y0140750D01*
X0183479Y0141993D01*
X0183479Y0143340D01*
X0182964Y0144584D01*
X0182012Y0145536D01*
X0180768Y0146051D01*
X0179422Y0146051D01*
X0178178Y0145536D01*
X0177226Y0144584D01*
X0176711Y0143340D01*
X0176711Y0141993D01*
X0177226Y0140750D01*
X0177695Y0140281D01*
X0177695Y0133661D01*
X0176601Y0132567D01*
X0158045Y0132567D01*
X0158920Y0133441D01*
X0158920Y0144215D01*
X0157982Y0145152D01*
X0149665Y0145152D01*
X0148291Y0146526D01*
X0148291Y0146526D01*
X0147616Y0147201D01*
X0146734Y0147567D01*
X0139156Y0147567D01*
X0136987Y0149735D01*
X0133203Y0149735D01*
X0131034Y0147567D01*
X0121282Y0147567D01*
X0121282Y0147798D01*
X0120344Y0148735D01*
X0113507Y0148735D01*
X0112820Y0148048D01*
X0112820Y0148723D01*
X0108449Y0148723D01*
X0108449Y0149091D01*
X0112820Y0149091D01*
X0112820Y0151112D01*
X0112698Y0151570D01*
X0112461Y0151981D01*
X0112126Y0152316D01*
X0111715Y0152553D01*
X0111257Y0152675D01*
X0108449Y0152675D01*
X0108449Y0149091D01*
X0108080Y0149091D01*
X0108080Y0148723D01*
X0103709Y0148723D01*
X0103709Y0146701D01*
X0103831Y0146244D01*
X0104068Y0145833D01*
X0104403Y0145498D01*
X0104814Y0145261D01*
X0105272Y0145138D01*
X0108080Y0145138D01*
X0108080Y0148722D01*
X0108449Y0148722D01*
X0108449Y0145138D01*
X0111257Y0145138D01*
X0111715Y0145261D01*
X0112126Y0145498D01*
X0112461Y0145833D01*
X0112570Y0146022D01*
X0112570Y0144108D01*
X0111683Y0144995D01*
X0104846Y0144995D01*
X0103909Y0144058D01*
X0103909Y0138795D01*
X0104846Y0137858D01*
X0105864Y0137858D01*
X0105864Y0134719D01*
X0105633Y0134719D01*
X0104696Y0133782D01*
X0104696Y0126551D01*
X0105633Y0125614D01*
X0112077Y0125614D01*
X0112595Y0126132D01*
X0113113Y0125614D01*
X0119557Y0125614D01*
X0120494Y0126551D01*
X0120494Y0127767D01*
X0147145Y0127767D01*
X0146271Y0126892D01*
X0146271Y0118575D01*
X0145262Y0117567D01*
X0139156Y0117567D01*
X0136987Y0119735D01*
X0133203Y0119735D01*
X0130527Y0117059D01*
X0130527Y0113992D01*
X0130361Y0113826D01*
X0117148Y0113826D01*
X0117148Y0114648D01*
X0116771Y0115025D01*
X0116988Y0115243D01*
X0117225Y0115653D01*
X0117348Y0116111D01*
X0117348Y0118427D01*
X0113075Y0118427D01*
X0113075Y0119386D01*
X0117348Y0119386D01*
X0117348Y0121703D01*
X0117225Y0122161D01*
X0116988Y0122571D01*
X0116653Y0122906D01*
X0116243Y0123143D01*
X0115785Y0123266D01*
X0113075Y0123266D01*
X0113075Y0119386D01*
X0112116Y0119386D01*
X0112116Y0118427D01*
X0107842Y0118427D01*
X0107842Y0116111D01*
X0107965Y0115653D01*
X0108202Y0115243D01*
X0108378Y0115067D01*
X0102481Y0115067D01*
X0102012Y0115536D01*
X0100768Y0116051D01*
X0099422Y0116051D01*
X0098178Y0115536D01*
X0097226Y0114584D01*
X0096711Y0113340D01*
X0096711Y0111993D01*
X0097226Y0110750D01*
X0098178Y0109798D01*
X0099422Y0109282D01*
X0100768Y0109282D01*
X0102012Y0109798D01*
X0102481Y0110267D01*
X0108042Y0110267D01*
X0108042Y0108205D01*
X0108980Y0107267D01*
X0110195Y0107267D01*
X0110195Y0105053D01*
X0109726Y0104584D01*
X0109211Y0103340D01*
X0109211Y0101993D01*
X0109726Y0100750D01*
X0110678Y0099798D01*
X0111922Y0099282D01*
X0113268Y0099282D01*
X0114512Y0099798D01*
X0115464Y0100750D01*
X0115979Y0101993D01*
X0115979Y0103340D01*
X0115464Y0104584D01*
X0114995Y0105053D01*
X0114995Y0107267D01*
X0116211Y0107267D01*
X0117148Y0108205D01*
X0117148Y0109027D01*
X0131832Y0109027D01*
X0132714Y0109392D01*
X0133921Y0110598D01*
X0136987Y0110598D01*
X0139156Y0112767D01*
X0146734Y0112767D01*
X0147616Y0113132D01*
X0148291Y0113807D01*
X0149665Y0115181D01*
X0157982Y0115181D01*
X0158920Y0116118D01*
X0158920Y0119105D01*
X0186911Y0119105D01*
X0187793Y0119471D01*
X0190968Y0122646D01*
X0191334Y0123528D01*
X0191334Y0123842D01*
X0194321Y0123842D01*
X0195258Y0124780D01*
X0195258Y0135554D01*
X0194321Y0136491D01*
X0191334Y0136491D01*
X0191334Y0139442D02*
X0218042Y0139442D01*
X0218042Y0141040D02*
X0191334Y0141040D01*
X0191334Y0142639D02*
X0194497Y0142639D01*
X0193617Y0143519D02*
X0195947Y0141189D01*
X0199243Y0141189D01*
X0201573Y0143519D01*
X0201573Y0146814D01*
X0199243Y0149145D01*
X0195947Y0149145D01*
X0193617Y0146814D01*
X0193617Y0143519D01*
X0193617Y0144237D02*
X0191334Y0144237D01*
X0190320Y0145836D02*
X0193617Y0145836D01*
X0194237Y0147434D02*
X0188722Y0147434D01*
X0187123Y0149033D02*
X0195835Y0149033D01*
X0199355Y0149033D02*
X0210467Y0149033D01*
X0210195Y0150631D02*
X0185525Y0150631D01*
X0183926Y0152230D02*
X0210195Y0152230D01*
X0210195Y0153828D02*
X0182328Y0153828D01*
X0180729Y0155427D02*
X0210195Y0155427D01*
X0210195Y0157025D02*
X0179995Y0157025D01*
X0179995Y0158624D02*
X0210394Y0158624D01*
X0209583Y0160367D02*
X0207795Y0160367D01*
X0207795Y0164967D01*
X0207795Y0165367D01*
X0207395Y0165367D01*
X0207395Y0169967D01*
X0205607Y0169967D01*
X0202795Y0167155D01*
X0202795Y0165367D01*
X0207395Y0165367D01*
X0207395Y0164967D01*
X0202795Y0164967D01*
X0202795Y0163178D01*
X0205607Y0160367D01*
X0207395Y0160367D01*
X0207395Y0164967D01*
X0207795Y0164967D01*
X0212395Y0164967D01*
X0212395Y0163178D01*
X0209583Y0160367D01*
X0211037Y0161821D02*
X0213355Y0161821D01*
X0212395Y0163419D02*
X0214954Y0163419D01*
X0215195Y0165018D02*
X0207795Y0165018D01*
X0207795Y0165367D02*
X0212395Y0165367D01*
X0212395Y0167155D01*
X0209583Y0169967D01*
X0207795Y0169967D01*
X0207795Y0165367D01*
X0207395Y0165018D02*
X0197795Y0165018D01*
X0197795Y0164967D02*
X0197795Y0165367D01*
X0197395Y0165367D01*
X0197395Y0169967D01*
X0195607Y0169967D01*
X0192795Y0167155D01*
X0192795Y0165367D01*
X0197395Y0165367D01*
X0197395Y0164967D01*
X0192795Y0164967D01*
X0192795Y0163178D01*
X0195607Y0160367D01*
X0197395Y0160367D01*
X0197395Y0164967D01*
X0197795Y0164967D01*
X0202395Y0164967D01*
X0202395Y0163178D01*
X0199583Y0160367D01*
X0197795Y0160367D01*
X0197795Y0164967D01*
X0197795Y0165367D02*
X0202395Y0165367D01*
X0202395Y0167155D01*
X0199583Y0169967D01*
X0197795Y0169967D01*
X0197795Y0165367D01*
X0197395Y0165018D02*
X0187795Y0165018D01*
X0187795Y0164967D02*
X0187795Y0165367D01*
X0187395Y0165367D01*
X0187395Y0169967D01*
X0185607Y0169967D01*
X0182795Y0167155D01*
X0182795Y0165367D01*
X0187395Y0165367D01*
X0187395Y0164967D01*
X0182795Y0164967D01*
X0182795Y0163178D01*
X0185607Y0160367D01*
X0187395Y0160367D01*
X0187395Y0164967D01*
X0187795Y0164967D01*
X0192395Y0164967D01*
X0192395Y0163178D01*
X0189583Y0160367D01*
X0187795Y0160367D01*
X0187795Y0164967D01*
X0187795Y0165367D02*
X0192395Y0165367D01*
X0192395Y0167155D01*
X0189583Y0169967D01*
X0187795Y0169967D01*
X0187795Y0165367D01*
X0187395Y0165018D02*
X0179995Y0165018D01*
X0179995Y0166616D02*
X0182795Y0166616D01*
X0183855Y0168215D02*
X0179995Y0168215D01*
X0179995Y0169813D02*
X0185454Y0169813D01*
X0184845Y0171412D02*
X0179995Y0171412D01*
X0177595Y0172667D02*
X0180095Y0175167D01*
X0187595Y0175167D01*
X0190346Y0171412D02*
X0194845Y0171412D01*
X0195690Y0170567D02*
X0199501Y0170567D01*
X0202195Y0173261D01*
X0202195Y0177072D01*
X0199501Y0179767D01*
X0195690Y0179767D01*
X0192995Y0177072D01*
X0192995Y0173261D01*
X0195690Y0170567D01*
X0195454Y0169813D02*
X0189737Y0169813D01*
X0187795Y0169813D02*
X0187395Y0169813D01*
X0187395Y0168215D02*
X0187795Y0168215D01*
X0187795Y0166616D02*
X0187395Y0166616D01*
X0187395Y0163419D02*
X0187795Y0163419D01*
X0187795Y0161821D02*
X0187395Y0161821D01*
X0184153Y0161821D02*
X0179995Y0161821D01*
X0179995Y0163419D02*
X0182795Y0163419D01*
X0179995Y0160222D02*
X0211757Y0160222D01*
X0212595Y0157667D02*
X0212595Y0150167D01*
X0213855Y0148907D01*
X0222595Y0148907D01*
X0218042Y0145836D02*
X0201573Y0145836D01*
X0201573Y0144237D02*
X0218042Y0144237D01*
X0218042Y0142639D02*
X0200693Y0142639D01*
X0200623Y0136245D02*
X0194567Y0136245D01*
X0195258Y0134646D02*
X0199932Y0134646D01*
X0199932Y0133048D02*
X0195258Y0133048D01*
X0195258Y0131449D02*
X0199932Y0131449D01*
X0199932Y0129851D02*
X0195258Y0129851D01*
X0195258Y0128252D02*
X0199932Y0128252D01*
X0199932Y0126654D02*
X0195258Y0126654D01*
X0195258Y0125055D02*
X0199932Y0125055D01*
X0191304Y0123456D02*
X0209573Y0123456D01*
X0211171Y0121858D02*
X0190181Y0121858D01*
X0188582Y0120259D02*
X0224027Y0120259D01*
X0224027Y0126654D02*
X0213164Y0126654D01*
X0212581Y0128252D02*
X0220613Y0128252D01*
X0223855Y0131997D02*
X0223855Y0140167D01*
X0222595Y0141427D01*
X0227148Y0141040D02*
X0287295Y0141040D01*
X0287295Y0139442D02*
X0227148Y0139442D01*
X0226786Y0137843D02*
X0287295Y0137843D01*
X0287295Y0136245D02*
X0234321Y0136245D01*
X0235104Y0134646D02*
X0269296Y0134646D01*
X0270317Y0135667D02*
X0267095Y0132445D01*
X0267095Y0127888D01*
X0270317Y0124667D01*
X0274873Y0124667D01*
X0278095Y0127888D01*
X0278095Y0132445D01*
X0274873Y0135667D01*
X0270317Y0135667D01*
X0267698Y0133048D02*
X0235104Y0133048D01*
X0235104Y0131813D02*
X0231520Y0131813D01*
X0231520Y0127441D01*
X0233541Y0127441D01*
X0233999Y0127564D01*
X0234409Y0127801D01*
X0234744Y0128136D01*
X0234981Y0128547D01*
X0235104Y0129004D01*
X0235104Y0131813D01*
X0235104Y0131449D02*
X0267095Y0131449D01*
X0267095Y0129851D02*
X0235104Y0129851D01*
X0234811Y0128252D02*
X0267095Y0128252D01*
X0268330Y0126654D02*
X0231164Y0126654D01*
X0231151Y0128252D02*
X0231520Y0128252D01*
X0231520Y0129851D02*
X0231151Y0129851D01*
X0231151Y0131449D02*
X0231520Y0131449D01*
X0231520Y0133048D02*
X0231151Y0133048D01*
X0231151Y0134646D02*
X0231520Y0134646D01*
X0231520Y0136245D02*
X0231151Y0136245D01*
X0228350Y0136245D02*
X0226595Y0136245D01*
X0227423Y0134646D02*
X0227567Y0134646D01*
X0227567Y0133048D02*
X0227423Y0133048D01*
X0227423Y0131449D02*
X0227567Y0131449D01*
X0227567Y0129851D02*
X0227423Y0129851D01*
X0227097Y0128252D02*
X0227860Y0128252D01*
X0234426Y0123336D02*
X0237595Y0120167D01*
X0237595Y0115167D01*
X0241573Y0115464D02*
X0243617Y0115464D01*
X0243617Y0113865D02*
X0241573Y0113865D01*
X0244192Y0110668D02*
X0248699Y0110668D01*
X0250298Y0109070D02*
X0245677Y0109070D01*
X0242595Y0107667D02*
X0200095Y0107667D01*
X0197595Y0110167D01*
X0197595Y0115167D01*
X0194869Y0112267D02*
X0138656Y0112267D01*
X0137058Y0110668D02*
X0195195Y0110668D01*
X0195452Y0109070D02*
X0131937Y0109070D01*
X0131355Y0111427D02*
X0135095Y0115167D01*
X0146257Y0115167D01*
X0152595Y0121505D01*
X0186434Y0121505D01*
X0188934Y0124005D01*
X0188934Y0130167D01*
X0188934Y0143828D01*
X0177595Y0155167D01*
X0177595Y0172667D01*
X0175195Y0173010D02*
X0027895Y0173010D01*
X0027895Y0171412D02*
X0175195Y0171412D01*
X0175195Y0169813D02*
X0027895Y0169813D01*
X0027895Y0168215D02*
X0175195Y0168215D01*
X0175195Y0166616D02*
X0027895Y0166616D01*
X0027895Y0165018D02*
X0175195Y0165018D01*
X0175195Y0163419D02*
X0027895Y0163419D01*
X0027895Y0161821D02*
X0175195Y0161821D01*
X0175195Y0160222D02*
X0027895Y0160222D01*
X0027895Y0158624D02*
X0049591Y0158624D01*
X0050703Y0159735D02*
X0048027Y0157059D01*
X0048027Y0153274D01*
X0050703Y0150598D01*
X0054487Y0150598D01*
X0057164Y0153274D01*
X0057164Y0157059D01*
X0054487Y0159735D01*
X0050703Y0159735D01*
X0048027Y0157025D02*
X0027895Y0157025D01*
X0027895Y0155427D02*
X0048027Y0155427D01*
X0048027Y0153828D02*
X0027895Y0153828D01*
X0027895Y0152230D02*
X0049071Y0152230D01*
X0050670Y0150631D02*
X0027895Y0150631D01*
X0027895Y0149033D02*
X0108080Y0149033D01*
X0108080Y0149091D02*
X0103709Y0149091D01*
X0103709Y0151112D01*
X0103831Y0151570D01*
X0104068Y0151981D01*
X0104403Y0152316D01*
X0104814Y0152553D01*
X0105272Y0152675D01*
X0108080Y0152675D01*
X0108080Y0149091D01*
X0108264Y0148907D02*
X0103835Y0148907D01*
X0102595Y0147667D01*
X0102595Y0122667D01*
X0106355Y0118907D01*
X0112595Y0118907D01*
X0112116Y0118661D02*
X0027895Y0118661D01*
X0027895Y0120259D02*
X0107842Y0120259D01*
X0107842Y0119386D02*
X0112116Y0119386D01*
X0112116Y0123266D01*
X0109405Y0123266D01*
X0108948Y0123143D01*
X0108537Y0122906D01*
X0108202Y0122571D01*
X0107965Y0122161D01*
X0107842Y0121703D01*
X0107842Y0119386D01*
X0107842Y0117062D02*
X0027895Y0117062D01*
X0027895Y0115464D02*
X0098106Y0115464D01*
X0096929Y0113865D02*
X0027895Y0113865D01*
X0027895Y0112267D02*
X0096711Y0112267D01*
X0097307Y0110668D02*
X0027895Y0110668D01*
X0027895Y0109070D02*
X0108042Y0109070D01*
X0108776Y0107471D02*
X0027895Y0107471D01*
X0027895Y0105873D02*
X0110195Y0105873D01*
X0109598Y0104274D02*
X0027895Y0104274D01*
X0027895Y0102676D02*
X0109211Y0102676D01*
X0109590Y0101077D02*
X0027895Y0101077D01*
X0027895Y0099479D02*
X0111448Y0099479D01*
X0113742Y0099479D02*
X0287295Y0099479D01*
X0287295Y0101077D02*
X0115600Y0101077D01*
X0115979Y0102676D02*
X0287295Y0102676D01*
X0287295Y0104274D02*
X0115592Y0104274D01*
X0114995Y0105873D02*
X0198495Y0105873D01*
X0196896Y0107471D02*
X0116415Y0107471D01*
X0112595Y0111427D02*
X0112595Y0102667D01*
X0112595Y0111427D02*
X0111355Y0112667D01*
X0100095Y0112667D01*
X0102084Y0115464D02*
X0108074Y0115464D01*
X0113075Y0118661D02*
X0132129Y0118661D01*
X0130530Y0117062D02*
X0117348Y0117062D01*
X0117116Y0115464D02*
X0130527Y0115464D01*
X0130400Y0113865D02*
X0117148Y0113865D01*
X0112595Y0111427D02*
X0131355Y0111427D01*
X0138062Y0118661D02*
X0146271Y0118661D01*
X0146271Y0120259D02*
X0117348Y0120259D01*
X0117306Y0121858D02*
X0146271Y0121858D01*
X0146271Y0123456D02*
X0067164Y0123456D01*
X0067164Y0123274D02*
X0064487Y0120598D01*
X0060703Y0120598D01*
X0058027Y0123274D01*
X0058027Y0127059D01*
X0060703Y0129735D01*
X0064487Y0129735D01*
X0067164Y0127059D01*
X0067164Y0123274D01*
X0067164Y0125055D02*
X0146271Y0125055D01*
X0146271Y0126654D02*
X0120494Y0126654D01*
X0116335Y0130167D02*
X0177595Y0130167D01*
X0180095Y0132667D01*
X0180095Y0142667D01*
X0176711Y0142639D02*
X0158920Y0142639D01*
X0158898Y0144237D02*
X0177083Y0144237D01*
X0178902Y0145836D02*
X0148982Y0145836D01*
X0147054Y0147434D02*
X0181934Y0147434D01*
X0181288Y0145836D02*
X0183532Y0145836D01*
X0183108Y0144237D02*
X0185131Y0144237D01*
X0186534Y0142639D02*
X0183479Y0142639D01*
X0183084Y0141040D02*
X0186534Y0141040D01*
X0186534Y0139442D02*
X0182495Y0139442D01*
X0182495Y0137843D02*
X0186534Y0137843D01*
X0183300Y0136245D02*
X0182495Y0136245D01*
X0182495Y0134646D02*
X0182609Y0134646D01*
X0182609Y0133048D02*
X0182495Y0133048D01*
X0182609Y0131449D02*
X0182189Y0131449D01*
X0182609Y0129851D02*
X0180673Y0129851D01*
X0179075Y0128252D02*
X0182609Y0128252D01*
X0182609Y0126654D02*
X0158920Y0126654D01*
X0158920Y0125055D02*
X0182609Y0125055D01*
X0177082Y0133048D02*
X0158526Y0133048D01*
X0158920Y0134646D02*
X0177695Y0134646D01*
X0177695Y0136245D02*
X0158920Y0136245D01*
X0158920Y0137843D02*
X0177695Y0137843D01*
X0177695Y0139442D02*
X0158920Y0139442D01*
X0158920Y0141040D02*
X0177106Y0141040D01*
X0180335Y0149033D02*
X0137690Y0149033D01*
X0135095Y0145167D02*
X0146257Y0145167D01*
X0152595Y0138828D01*
X0135095Y0145167D02*
X0116926Y0145167D01*
X0112570Y0145836D02*
X0112462Y0145836D01*
X0112441Y0144237D02*
X0112570Y0144237D01*
X0108449Y0145836D02*
X0108080Y0145836D01*
X0108080Y0147434D02*
X0108449Y0147434D01*
X0108449Y0149033D02*
X0132500Y0149033D01*
X0112820Y0150631D02*
X0178736Y0150631D01*
X0177138Y0152230D02*
X0112212Y0152230D01*
X0108449Y0152230D02*
X0108080Y0152230D01*
X0108080Y0150631D02*
X0108449Y0150631D01*
X0104317Y0152230D02*
X0066119Y0152230D01*
X0067164Y0153274D02*
X0064487Y0150598D01*
X0060703Y0150598D01*
X0058027Y0153274D01*
X0058027Y0157059D01*
X0060703Y0159735D01*
X0064487Y0159735D01*
X0067164Y0157059D01*
X0067164Y0153274D01*
X0067164Y0153828D02*
X0175552Y0153828D01*
X0176236Y0153132D02*
X0176236Y0153132D01*
X0175195Y0155427D02*
X0067164Y0155427D01*
X0067164Y0157025D02*
X0175195Y0157025D01*
X0175195Y0158624D02*
X0065599Y0158624D01*
X0059591Y0158624D02*
X0055599Y0158624D01*
X0057164Y0157025D02*
X0058027Y0157025D01*
X0058027Y0155427D02*
X0057164Y0155427D01*
X0057164Y0153828D02*
X0058027Y0153828D01*
X0059071Y0152230D02*
X0056119Y0152230D01*
X0054520Y0150631D02*
X0060670Y0150631D01*
X0064520Y0150631D02*
X0103709Y0150631D01*
X0103709Y0147434D02*
X0027895Y0147434D01*
X0027895Y0145836D02*
X0104067Y0145836D01*
X0104088Y0144237D02*
X0064985Y0144237D01*
X0064487Y0144735D02*
X0060703Y0144735D01*
X0058027Y0142059D01*
X0058027Y0138274D01*
X0060703Y0135598D01*
X0064487Y0135598D01*
X0067164Y0138274D01*
X0067164Y0142059D01*
X0064487Y0144735D01*
X0066584Y0142639D02*
X0103909Y0142639D01*
X0103909Y0141040D02*
X0067164Y0141040D01*
X0067164Y0139442D02*
X0103909Y0139442D01*
X0105864Y0137843D02*
X0066732Y0137843D01*
X0065134Y0136245D02*
X0105864Y0136245D01*
X0105560Y0134646D02*
X0027895Y0134646D01*
X0027895Y0133048D02*
X0104696Y0133048D01*
X0104696Y0131449D02*
X0027895Y0131449D01*
X0027895Y0129851D02*
X0104696Y0129851D01*
X0104696Y0128252D02*
X0065971Y0128252D01*
X0067164Y0126654D02*
X0104696Y0126654D01*
X0108264Y0130757D02*
X0108855Y0130167D01*
X0108264Y0130757D02*
X0108264Y0141427D01*
X0107884Y0121858D02*
X0065747Y0121858D01*
X0059443Y0121858D02*
X0055747Y0121858D01*
X0054487Y0120598D02*
X0057164Y0123274D01*
X0057164Y0127059D01*
X0054487Y0129735D01*
X0050703Y0129735D01*
X0048027Y0127059D01*
X0048027Y0123274D01*
X0050703Y0120598D01*
X0054487Y0120598D01*
X0057164Y0123456D02*
X0058027Y0123456D01*
X0058027Y0125055D02*
X0057164Y0125055D01*
X0057164Y0126654D02*
X0058027Y0126654D01*
X0059220Y0128252D02*
X0055971Y0128252D01*
X0049220Y0128252D02*
X0027895Y0128252D01*
X0027895Y0126654D02*
X0048027Y0126654D01*
X0048027Y0125055D02*
X0027895Y0125055D01*
X0027895Y0123456D02*
X0048027Y0123456D01*
X0049443Y0121858D02*
X0027895Y0121858D01*
X0027895Y0136245D02*
X0050056Y0136245D01*
X0050703Y0135598D02*
X0054487Y0135598D01*
X0057164Y0138274D01*
X0057164Y0142059D01*
X0054487Y0144735D01*
X0050703Y0144735D01*
X0048027Y0142059D01*
X0048027Y0138274D01*
X0050703Y0135598D01*
X0048458Y0137843D02*
X0027895Y0137843D01*
X0027895Y0139442D02*
X0048027Y0139442D01*
X0048027Y0141040D02*
X0027895Y0141040D01*
X0027895Y0142639D02*
X0048606Y0142639D01*
X0050205Y0144237D02*
X0027895Y0144237D01*
X0054985Y0144237D02*
X0060205Y0144237D01*
X0058606Y0142639D02*
X0056584Y0142639D01*
X0057164Y0141040D02*
X0058027Y0141040D01*
X0058027Y0139442D02*
X0057164Y0139442D01*
X0056732Y0137843D02*
X0058458Y0137843D01*
X0060056Y0136245D02*
X0055134Y0136245D01*
X0041832Y0175267D02*
X0037481Y0175267D01*
X0037012Y0174798D01*
X0035768Y0174282D01*
X0034422Y0174282D01*
X0033178Y0174798D01*
X0032226Y0175750D01*
X0031711Y0176993D01*
X0031711Y0178340D01*
X0032226Y0179584D01*
X0033178Y0180536D01*
X0034422Y0181051D01*
X0035768Y0181051D01*
X0037012Y0180536D01*
X0037481Y0180067D01*
X0040361Y0180067D01*
X0044696Y0184402D01*
X0044696Y0188782D01*
X0045633Y0189719D01*
X0046455Y0189719D01*
X0046455Y0190413D01*
X0045351Y0191517D01*
X0038368Y0191517D01*
X0037726Y0191782D01*
X0036922Y0191782D01*
X0035678Y0192298D01*
X0034726Y0193250D01*
X0034211Y0194493D01*
X0034211Y0195840D01*
X0034726Y0197084D01*
X0035678Y0198036D01*
X0036922Y0198551D01*
X0038268Y0198551D01*
X0039512Y0198036D01*
X0040464Y0197084D01*
X0040782Y0196317D01*
X0046823Y0196317D01*
X0047705Y0195951D01*
X0048380Y0195276D01*
X0050890Y0192766D01*
X0051255Y0191884D01*
X0051255Y0189719D01*
X0052077Y0189719D01*
X0052595Y0189201D01*
X0053113Y0189719D01*
X0055195Y0189719D01*
X0055195Y0193144D01*
X0055561Y0194026D01*
X0060561Y0199026D01*
X0061236Y0199701D01*
X0062118Y0200067D01*
X0105573Y0200067D01*
X0106455Y0199701D01*
X0111089Y0195067D01*
X0143101Y0195067D01*
X0144195Y0196161D01*
X0144195Y0201106D01*
X0142027Y0203274D01*
X0142027Y0207059D01*
X0144703Y0209735D01*
X0148487Y0209735D01*
X0151164Y0207059D01*
X0151164Y0203274D01*
X0148995Y0201106D01*
X0148995Y0194689D01*
X0148630Y0193807D01*
X0147955Y0193132D01*
X0147955Y0193132D01*
X0146130Y0191307D01*
X0146130Y0191307D01*
X0145455Y0190632D01*
X0144573Y0190267D01*
X0109618Y0190267D01*
X0108736Y0190632D01*
X0108061Y0191307D01*
X0104101Y0195267D01*
X0063589Y0195267D01*
X0059995Y0191673D01*
X0059995Y0189281D01*
X0060494Y0188782D01*
X0060494Y0181551D01*
X0059557Y0180614D01*
X0053113Y0180614D01*
X0052595Y0181132D01*
X0052077Y0180614D01*
X0047696Y0180614D01*
X0042714Y0175632D01*
X0041832Y0175267D01*
X0043290Y0176207D02*
X0177742Y0176207D01*
X0176143Y0174609D02*
X0036556Y0174609D01*
X0033634Y0174609D02*
X0027895Y0174609D01*
X0027895Y0176207D02*
X0032037Y0176207D01*
X0031711Y0177806D02*
X0027895Y0177806D01*
X0027895Y0179404D02*
X0032152Y0179404D01*
X0034306Y0181003D02*
X0027895Y0181003D01*
X0027895Y0182601D02*
X0042896Y0182601D01*
X0041297Y0181003D02*
X0035884Y0181003D01*
X0035095Y0177667D02*
X0041355Y0177667D01*
X0048855Y0185167D01*
X0048855Y0191407D01*
X0046345Y0193917D01*
X0038845Y0193917D01*
X0037595Y0195167D01*
X0034502Y0193791D02*
X0027895Y0193791D01*
X0027895Y0192192D02*
X0035932Y0192192D01*
X0034211Y0195390D02*
X0027895Y0195390D01*
X0027895Y0196988D02*
X0034686Y0196988D01*
X0040504Y0196988D02*
X0058522Y0196988D01*
X0059557Y0198114D02*
X0060494Y0199051D01*
X0060494Y0200267D01*
X0106601Y0200267D01*
X0110561Y0196307D01*
X0111236Y0195632D01*
X0112118Y0195267D01*
X0134573Y0195267D01*
X0135455Y0195632D01*
X0137955Y0198132D01*
X0138630Y0198807D01*
X0138995Y0199689D01*
X0138995Y0201106D01*
X0141164Y0203274D01*
X0141164Y0207059D01*
X0138487Y0209735D01*
X0134703Y0209735D01*
X0132027Y0207059D01*
X0132027Y0203274D01*
X0134168Y0201133D01*
X0133101Y0200067D01*
X0113589Y0200067D01*
X0108955Y0204701D01*
X0108073Y0205067D01*
X0060494Y0205067D01*
X0060494Y0206282D01*
X0059557Y0207219D01*
X0053113Y0207219D01*
X0052737Y0206842D01*
X0052519Y0207060D01*
X0052109Y0207297D01*
X0051651Y0207419D01*
X0049335Y0207419D01*
X0049335Y0203146D01*
X0048375Y0203146D01*
X0048375Y0202187D01*
X0044496Y0202187D01*
X0044496Y0199477D01*
X0044619Y0199019D01*
X0044856Y0198609D01*
X0045191Y0198274D01*
X0045601Y0198037D01*
X0046059Y0197914D01*
X0048375Y0197914D01*
X0048375Y0202187D01*
X0049335Y0202187D01*
X0049335Y0197914D01*
X0051651Y0197914D01*
X0052109Y0198037D01*
X0052519Y0198274D01*
X0052737Y0198491D01*
X0053113Y0198114D01*
X0059557Y0198114D01*
X0060030Y0198587D02*
X0060121Y0198587D01*
X0060494Y0200185D02*
X0106683Y0200185D01*
X0107569Y0198587D02*
X0108281Y0198587D01*
X0109168Y0196988D02*
X0109880Y0196988D01*
X0110766Y0195390D02*
X0111821Y0195390D01*
X0112595Y0197667D02*
X0134095Y0197667D01*
X0136595Y0200167D01*
X0136595Y0205167D01*
X0132027Y0204981D02*
X0131364Y0204981D01*
X0131364Y0206579D02*
X0132027Y0206579D01*
X0133145Y0208178D02*
X0130328Y0208178D01*
X0128729Y0209776D02*
X0275490Y0209776D01*
X0274487Y0209735D02*
X0277164Y0207059D01*
X0277164Y0203274D01*
X0274487Y0200598D01*
X0270703Y0200598D01*
X0268027Y0203274D01*
X0268027Y0207059D01*
X0270703Y0209735D01*
X0274487Y0209735D01*
X0276045Y0208178D02*
X0277089Y0208178D01*
X0277164Y0206579D02*
X0277295Y0206579D01*
X0277295Y0204981D02*
X0277164Y0204981D01*
X0277164Y0203382D02*
X0277295Y0203382D01*
X0277295Y0201784D02*
X0275673Y0201784D01*
X0277295Y0200185D02*
X0254995Y0200185D01*
X0254995Y0201106D02*
X0257164Y0203274D01*
X0257164Y0207059D01*
X0254487Y0209735D01*
X0250703Y0209735D01*
X0248027Y0207059D01*
X0248027Y0203274D01*
X0250195Y0201106D01*
X0250195Y0198661D01*
X0249101Y0197567D01*
X0237118Y0197567D01*
X0236236Y0197201D01*
X0231236Y0192201D01*
X0230561Y0191526D01*
X0230195Y0190644D01*
X0230195Y0161161D01*
X0229101Y0160067D01*
X0224981Y0160067D01*
X0224512Y0160536D01*
X0223268Y0161051D01*
X0221922Y0161051D01*
X0220678Y0160536D01*
X0219726Y0159584D01*
X0219211Y0158340D01*
X0219211Y0156993D01*
X0219726Y0155750D01*
X0220678Y0154798D01*
X0221922Y0154282D01*
X0223268Y0154282D01*
X0224512Y0154798D01*
X0224981Y0155267D01*
X0230573Y0155267D01*
X0231455Y0155632D01*
X0232130Y0156307D01*
X0234630Y0158807D01*
X0234995Y0159689D01*
X0234995Y0189173D01*
X0238589Y0192767D01*
X0250573Y0192767D01*
X0251455Y0193132D01*
X0252130Y0193807D01*
X0254630Y0196307D01*
X0254995Y0197189D01*
X0254995Y0201106D01*
X0255673Y0201784D02*
X0259517Y0201784D01*
X0260703Y0200598D02*
X0258027Y0203274D01*
X0258027Y0207059D01*
X0260703Y0209735D01*
X0264487Y0209735D01*
X0267164Y0207059D01*
X0267164Y0203274D01*
X0264487Y0200598D01*
X0260703Y0200598D01*
X0258027Y0203382D02*
X0257164Y0203382D01*
X0257164Y0204981D02*
X0258027Y0204981D01*
X0258027Y0206579D02*
X0257164Y0206579D01*
X0256045Y0208178D02*
X0259145Y0208178D01*
X0252595Y0205167D02*
X0252595Y0197667D01*
X0250095Y0195167D01*
X0237595Y0195167D01*
X0232595Y0190167D01*
X0232595Y0160167D01*
X0230095Y0157667D01*
X0222595Y0157667D01*
X0220049Y0155427D02*
X0214995Y0155427D01*
X0214995Y0153828D02*
X0268779Y0153828D01*
X0270317Y0155367D02*
X0267095Y0152145D01*
X0267095Y0147588D01*
X0270317Y0144367D01*
X0274873Y0144367D01*
X0278095Y0147588D01*
X0278095Y0152145D01*
X0274873Y0155367D01*
X0270317Y0155367D01*
X0267180Y0152230D02*
X0227047Y0152230D01*
X0227148Y0150631D02*
X0267095Y0150631D01*
X0267095Y0149033D02*
X0249355Y0149033D01*
X0249243Y0149145D02*
X0245947Y0149145D01*
X0243617Y0146814D01*
X0243617Y0143519D01*
X0245947Y0141189D01*
X0249243Y0141189D01*
X0251573Y0143519D01*
X0251573Y0146814D01*
X0249243Y0149145D01*
X0250953Y0147434D02*
X0267249Y0147434D01*
X0268848Y0145836D02*
X0251573Y0145836D01*
X0251573Y0144237D02*
X0287295Y0144237D01*
X0287295Y0142639D02*
X0250693Y0142639D01*
X0244497Y0142639D02*
X0240693Y0142639D01*
X0241573Y0143519D02*
X0239243Y0141189D01*
X0235947Y0141189D01*
X0233617Y0143519D01*
X0233617Y0146814D01*
X0235947Y0149145D01*
X0239243Y0149145D01*
X0241573Y0146814D01*
X0241573Y0143519D01*
X0241573Y0144237D02*
X0243617Y0144237D01*
X0243617Y0145836D02*
X0241573Y0145836D01*
X0240953Y0147434D02*
X0244237Y0147434D01*
X0245835Y0149033D02*
X0239355Y0149033D01*
X0235835Y0149033D02*
X0227148Y0149033D01*
X0227148Y0147434D02*
X0234237Y0147434D01*
X0233617Y0145836D02*
X0227148Y0145836D01*
X0227148Y0144237D02*
X0233617Y0144237D01*
X0234497Y0142639D02*
X0227148Y0142639D01*
X0218143Y0152230D02*
X0214995Y0152230D01*
X0215348Y0157025D02*
X0219211Y0157025D01*
X0219328Y0158624D02*
X0216946Y0158624D01*
X0218545Y0160222D02*
X0220365Y0160222D01*
X0219842Y0161821D02*
X0230195Y0161821D01*
X0230195Y0163419D02*
X0219995Y0163419D01*
X0219995Y0165018D02*
X0230195Y0165018D01*
X0230195Y0166616D02*
X0219995Y0166616D01*
X0219995Y0168215D02*
X0230195Y0168215D01*
X0230195Y0169813D02*
X0227028Y0169813D01*
X0227012Y0169798D02*
X0227964Y0170750D01*
X0228479Y0171993D01*
X0228479Y0173340D01*
X0227964Y0174584D01*
X0227495Y0175053D01*
X0227495Y0189173D01*
X0234630Y0196307D01*
X0234995Y0197189D01*
X0234995Y0201106D01*
X0237164Y0203274D01*
X0237164Y0207059D01*
X0234487Y0209735D01*
X0230703Y0209735D01*
X0228027Y0207059D01*
X0228027Y0203274D01*
X0230195Y0201106D01*
X0230195Y0198661D01*
X0223736Y0192201D01*
X0223061Y0191526D01*
X0222695Y0190644D01*
X0222695Y0175053D01*
X0222226Y0174584D01*
X0221711Y0173340D01*
X0221711Y0171993D01*
X0222226Y0170750D01*
X0223178Y0169798D01*
X0224422Y0169282D01*
X0225768Y0169282D01*
X0227012Y0169798D01*
X0228238Y0171412D02*
X0230195Y0171412D01*
X0230195Y0173010D02*
X0228479Y0173010D01*
X0227939Y0174609D02*
X0230195Y0174609D01*
X0230195Y0176207D02*
X0227495Y0176207D01*
X0227495Y0177806D02*
X0230195Y0177806D01*
X0230195Y0179404D02*
X0227495Y0179404D01*
X0227495Y0181003D02*
X0230195Y0181003D01*
X0230195Y0182601D02*
X0227495Y0182601D01*
X0227495Y0184200D02*
X0230195Y0184200D01*
X0230195Y0185798D02*
X0227495Y0185798D01*
X0227495Y0187397D02*
X0230195Y0187397D01*
X0230195Y0188995D02*
X0227495Y0188995D01*
X0228917Y0190594D02*
X0230195Y0190594D01*
X0230515Y0192192D02*
X0231227Y0192192D01*
X0232114Y0193791D02*
X0232825Y0193791D01*
X0233712Y0195390D02*
X0234424Y0195390D01*
X0234912Y0196988D02*
X0236022Y0196988D01*
X0234995Y0198587D02*
X0250121Y0198587D01*
X0250195Y0200185D02*
X0234995Y0200185D01*
X0235673Y0201784D02*
X0239517Y0201784D01*
X0240703Y0200598D02*
X0244487Y0200598D01*
X0247164Y0203274D01*
X0247164Y0207059D01*
X0244487Y0209735D01*
X0240703Y0209735D01*
X0238027Y0207059D01*
X0238027Y0203274D01*
X0240703Y0200598D01*
X0238027Y0203382D02*
X0237164Y0203382D01*
X0237164Y0204981D02*
X0238027Y0204981D01*
X0238027Y0206579D02*
X0237164Y0206579D01*
X0236045Y0208178D02*
X0239145Y0208178D01*
X0246045Y0208178D02*
X0249145Y0208178D01*
X0248027Y0206579D02*
X0247164Y0206579D01*
X0247164Y0204981D02*
X0248027Y0204981D01*
X0248027Y0203382D02*
X0247164Y0203382D01*
X0245673Y0201784D02*
X0249517Y0201784D01*
X0254995Y0198587D02*
X0277295Y0198587D01*
X0277295Y0196988D02*
X0254912Y0196988D01*
X0253712Y0195390D02*
X0277295Y0195390D01*
X0277295Y0193791D02*
X0252114Y0193791D01*
X0250690Y0184767D02*
X0247995Y0182072D01*
X0247995Y0178261D01*
X0250690Y0175567D01*
X0254501Y0175567D01*
X0257195Y0178261D01*
X0257195Y0182072D01*
X0254501Y0184767D01*
X0250690Y0184767D01*
X0250123Y0184200D02*
X0245067Y0184200D01*
X0244501Y0184767D02*
X0247195Y0182072D01*
X0247195Y0178261D01*
X0244501Y0175567D01*
X0240690Y0175567D01*
X0237995Y0178261D01*
X0237995Y0182072D01*
X0240690Y0184767D01*
X0244501Y0184767D01*
X0246666Y0182601D02*
X0248525Y0182601D01*
X0247995Y0181003D02*
X0247195Y0181003D01*
X0247195Y0179404D02*
X0247995Y0179404D01*
X0248451Y0177806D02*
X0246740Y0177806D01*
X0245141Y0176207D02*
X0250049Y0176207D01*
X0255141Y0176207D02*
X0260049Y0176207D01*
X0260690Y0175567D02*
X0264501Y0175567D01*
X0267195Y0178261D01*
X0267195Y0182072D01*
X0264501Y0184767D01*
X0260690Y0184767D01*
X0257995Y0182072D01*
X0257995Y0178261D01*
X0260690Y0175567D01*
X0258451Y0177806D02*
X0256740Y0177806D01*
X0257195Y0179404D02*
X0257995Y0179404D01*
X0257995Y0181003D02*
X0257195Y0181003D01*
X0256666Y0182601D02*
X0258525Y0182601D01*
X0260123Y0184200D02*
X0255067Y0184200D01*
X0265067Y0184200D02*
X0269840Y0184200D01*
X0268242Y0182601D02*
X0266666Y0182601D01*
X0267195Y0181003D02*
X0267795Y0181003D01*
X0267795Y0179404D02*
X0267195Y0179404D01*
X0266740Y0177806D02*
X0268168Y0177806D01*
X0269766Y0176207D02*
X0265141Y0176207D01*
X0272395Y0176207D02*
X0272795Y0176207D01*
X0272795Y0177806D02*
X0272395Y0177806D01*
X0272395Y0179404D02*
X0272795Y0179404D01*
X0272795Y0181003D02*
X0272395Y0181003D01*
X0272395Y0182601D02*
X0272795Y0182601D01*
X0272795Y0184200D02*
X0272395Y0184200D01*
X0275350Y0184200D02*
X0277295Y0184200D01*
X0277295Y0185798D02*
X0234995Y0185798D01*
X0234995Y0184200D02*
X0240123Y0184200D01*
X0238525Y0182601D02*
X0234995Y0182601D01*
X0234995Y0181003D02*
X0237995Y0181003D01*
X0237995Y0179404D02*
X0234995Y0179404D01*
X0234995Y0177806D02*
X0238451Y0177806D01*
X0240049Y0176207D02*
X0234995Y0176207D01*
X0234995Y0174609D02*
X0277295Y0174609D01*
X0277295Y0176207D02*
X0275424Y0176207D01*
X0277023Y0177806D02*
X0277295Y0177806D01*
X0277295Y0182601D02*
X0276949Y0182601D01*
X0277295Y0187397D02*
X0234995Y0187397D01*
X0234995Y0188995D02*
X0277295Y0188995D01*
X0277295Y0190594D02*
X0236417Y0190594D01*
X0238015Y0192192D02*
X0277295Y0192192D01*
X0269517Y0201784D02*
X0265673Y0201784D01*
X0267164Y0203382D02*
X0268027Y0203382D01*
X0268027Y0204981D02*
X0267164Y0204981D01*
X0267164Y0206579D02*
X0268027Y0206579D01*
X0269145Y0208178D02*
X0266045Y0208178D01*
X0232595Y0205167D02*
X0232595Y0197667D01*
X0225095Y0190167D01*
X0225095Y0172667D01*
X0221952Y0171412D02*
X0219995Y0171412D01*
X0219995Y0173010D02*
X0221711Y0173010D01*
X0222251Y0174609D02*
X0220431Y0174609D01*
X0222030Y0176207D02*
X0222695Y0176207D01*
X0222695Y0177806D02*
X0222495Y0177806D01*
X0222495Y0179404D02*
X0222695Y0179404D01*
X0222695Y0181003D02*
X0222495Y0181003D01*
X0222495Y0182601D02*
X0222695Y0182601D01*
X0222695Y0184200D02*
X0222495Y0184200D01*
X0222495Y0185798D02*
X0222695Y0185798D01*
X0222695Y0187397D02*
X0222495Y0187397D01*
X0222495Y0188995D02*
X0222695Y0188995D01*
X0222695Y0190594D02*
X0222495Y0190594D01*
X0223015Y0192192D02*
X0223727Y0192192D01*
X0224614Y0193791D02*
X0225325Y0193791D01*
X0224995Y0195390D02*
X0226924Y0195390D01*
X0228522Y0196988D02*
X0224995Y0196988D01*
X0224995Y0198587D02*
X0230121Y0198587D01*
X0230195Y0200185D02*
X0224995Y0200185D01*
X0225673Y0201784D02*
X0229517Y0201784D01*
X0228027Y0203382D02*
X0227164Y0203382D01*
X0227164Y0204981D02*
X0228027Y0204981D01*
X0228027Y0206579D02*
X0227164Y0206579D01*
X0226045Y0208178D02*
X0229145Y0208178D01*
X0222595Y0205167D02*
X0222595Y0195167D01*
X0220095Y0192667D01*
X0220095Y0177667D01*
X0217595Y0175167D01*
X0217595Y0162667D01*
X0212595Y0157667D01*
X0207795Y0161821D02*
X0207395Y0161821D01*
X0207395Y0163419D02*
X0207795Y0163419D01*
X0204153Y0161821D02*
X0201037Y0161821D01*
X0202395Y0163419D02*
X0202795Y0163419D01*
X0197795Y0163419D02*
X0197395Y0163419D01*
X0197395Y0161821D02*
X0197795Y0161821D01*
X0194153Y0161821D02*
X0191037Y0161821D01*
X0192395Y0163419D02*
X0192795Y0163419D01*
X0192795Y0166616D02*
X0192395Y0166616D01*
X0191335Y0168215D02*
X0193855Y0168215D01*
X0197395Y0168215D02*
X0197795Y0168215D01*
X0197795Y0169813D02*
X0197395Y0169813D01*
X0199737Y0169813D02*
X0205454Y0169813D01*
X0205690Y0170567D02*
X0209501Y0170567D01*
X0212195Y0173261D01*
X0212195Y0177072D01*
X0209501Y0179767D01*
X0205690Y0179767D01*
X0202995Y0177072D01*
X0202995Y0173261D01*
X0205690Y0170567D01*
X0204845Y0171412D02*
X0200346Y0171412D01*
X0201944Y0173010D02*
X0203246Y0173010D01*
X0202995Y0174609D02*
X0202195Y0174609D01*
X0202195Y0176207D02*
X0202995Y0176207D01*
X0203729Y0177806D02*
X0201461Y0177806D01*
X0199863Y0179404D02*
X0205327Y0179404D01*
X0205690Y0180567D02*
X0209501Y0180567D01*
X0212195Y0183261D01*
X0212195Y0186373D01*
X0214630Y0188807D01*
X0214995Y0189689D01*
X0214995Y0201106D01*
X0217164Y0203274D01*
X0217164Y0207059D01*
X0214487Y0209735D01*
X0210703Y0209735D01*
X0208027Y0207059D01*
X0208027Y0203274D01*
X0210195Y0201106D01*
X0210195Y0191161D01*
X0208801Y0189767D01*
X0205690Y0189767D01*
X0202995Y0187072D01*
X0202995Y0183261D01*
X0205690Y0180567D01*
X0205254Y0181003D02*
X0199937Y0181003D01*
X0199501Y0180567D02*
X0195690Y0180567D01*
X0192995Y0183261D01*
X0192995Y0187072D01*
X0195195Y0189272D01*
X0195195Y0200644D01*
X0195561Y0201526D01*
X0196236Y0202201D01*
X0198027Y0203992D01*
X0198027Y0207059D01*
X0200703Y0209735D01*
X0204487Y0209735D01*
X0207164Y0207059D01*
X0207164Y0203274D01*
X0204487Y0200598D01*
X0201421Y0200598D01*
X0199995Y0199173D01*
X0199995Y0189272D01*
X0202195Y0187072D01*
X0202195Y0183261D01*
X0199501Y0180567D01*
X0201535Y0182601D02*
X0203655Y0182601D01*
X0202995Y0184200D02*
X0202195Y0184200D01*
X0202195Y0185798D02*
X0202995Y0185798D01*
X0203320Y0187397D02*
X0201870Y0187397D01*
X0200272Y0188995D02*
X0204919Y0188995D01*
X0209628Y0190594D02*
X0199995Y0190594D01*
X0199995Y0192192D02*
X0210195Y0192192D01*
X0210195Y0193791D02*
X0199995Y0193791D01*
X0199995Y0195390D02*
X0210195Y0195390D01*
X0210195Y0196988D02*
X0199995Y0196988D01*
X0199995Y0198587D02*
X0210195Y0198587D01*
X0210195Y0200185D02*
X0201008Y0200185D01*
X0197595Y0200167D02*
X0197595Y0185167D01*
X0195254Y0181003D02*
X0189937Y0181003D01*
X0189501Y0180567D02*
X0185690Y0180567D01*
X0182995Y0183261D01*
X0182995Y0187072D01*
X0184195Y0188272D01*
X0184195Y0201106D01*
X0182027Y0203274D01*
X0182027Y0207059D01*
X0184703Y0209735D01*
X0188487Y0209735D01*
X0191164Y0207059D01*
X0191164Y0203274D01*
X0188995Y0201106D01*
X0188995Y0189767D01*
X0189501Y0189767D01*
X0192195Y0187072D01*
X0192195Y0183261D01*
X0189501Y0180567D01*
X0189863Y0179404D02*
X0195327Y0179404D01*
X0193729Y0177806D02*
X0191461Y0177806D01*
X0192195Y0176207D02*
X0192995Y0176207D01*
X0192995Y0174609D02*
X0192195Y0174609D01*
X0191944Y0173010D02*
X0193246Y0173010D01*
X0197395Y0166616D02*
X0197795Y0166616D01*
X0201335Y0168215D02*
X0203855Y0168215D01*
X0202795Y0166616D02*
X0202395Y0166616D01*
X0207395Y0166616D02*
X0207795Y0166616D01*
X0207795Y0168215D02*
X0207395Y0168215D01*
X0207395Y0169813D02*
X0207795Y0169813D01*
X0209737Y0169813D02*
X0215195Y0169813D01*
X0215195Y0168215D02*
X0211335Y0168215D01*
X0212395Y0166616D02*
X0215195Y0166616D01*
X0219995Y0169813D02*
X0223162Y0169813D01*
X0215195Y0171412D02*
X0210346Y0171412D01*
X0211944Y0173010D02*
X0215195Y0173010D01*
X0215195Y0174609D02*
X0212195Y0174609D01*
X0212195Y0176207D02*
X0215428Y0176207D01*
X0216840Y0177806D02*
X0211461Y0177806D01*
X0209863Y0179404D02*
X0217695Y0179404D01*
X0217695Y0181003D02*
X0209937Y0181003D01*
X0211535Y0182601D02*
X0217695Y0182601D01*
X0217695Y0184200D02*
X0212195Y0184200D01*
X0212195Y0185798D02*
X0217695Y0185798D01*
X0217695Y0187397D02*
X0213220Y0187397D01*
X0214708Y0188995D02*
X0217695Y0188995D01*
X0217695Y0190594D02*
X0214995Y0190594D01*
X0214995Y0192192D02*
X0217695Y0192192D01*
X0217963Y0193791D02*
X0214995Y0193791D01*
X0214995Y0195390D02*
X0219424Y0195390D01*
X0220195Y0196988D02*
X0214995Y0196988D01*
X0214995Y0198587D02*
X0220195Y0198587D01*
X0220195Y0200185D02*
X0214995Y0200185D01*
X0215673Y0201784D02*
X0219517Y0201784D01*
X0218027Y0203382D02*
X0217164Y0203382D01*
X0217164Y0204981D02*
X0218027Y0204981D01*
X0218027Y0206579D02*
X0217164Y0206579D01*
X0216045Y0208178D02*
X0219145Y0208178D01*
X0212595Y0205167D02*
X0212595Y0190167D01*
X0207595Y0185167D01*
X0194919Y0188995D02*
X0190272Y0188995D01*
X0188995Y0190594D02*
X0195195Y0190594D01*
X0195195Y0192192D02*
X0188995Y0192192D01*
X0188995Y0193791D02*
X0195195Y0193791D01*
X0195195Y0195390D02*
X0188995Y0195390D01*
X0188995Y0196988D02*
X0195195Y0196988D01*
X0195195Y0198587D02*
X0188995Y0198587D01*
X0188995Y0200185D02*
X0195195Y0200185D01*
X0195818Y0201784D02*
X0189673Y0201784D01*
X0191164Y0203382D02*
X0197416Y0203382D01*
X0198027Y0204981D02*
X0191164Y0204981D01*
X0191164Y0206579D02*
X0198027Y0206579D01*
X0199145Y0208178D02*
X0190045Y0208178D01*
X0186595Y0205167D02*
X0186595Y0186167D01*
X0187595Y0185167D01*
X0182995Y0185798D02*
X0060494Y0185798D01*
X0060494Y0184200D02*
X0182995Y0184200D01*
X0183655Y0182601D02*
X0060494Y0182601D01*
X0059946Y0181003D02*
X0185254Y0181003D01*
X0185328Y0179404D02*
X0046487Y0179404D01*
X0044888Y0177806D02*
X0183729Y0177806D01*
X0191535Y0182601D02*
X0193655Y0182601D01*
X0192995Y0184200D02*
X0192195Y0184200D01*
X0192195Y0185798D02*
X0192995Y0185798D01*
X0193320Y0187397D02*
X0191870Y0187397D01*
X0184195Y0188995D02*
X0060281Y0188995D01*
X0060494Y0187397D02*
X0183320Y0187397D01*
X0184195Y0190594D02*
X0145363Y0190594D01*
X0147015Y0192192D02*
X0184195Y0192192D01*
X0184195Y0193791D02*
X0148614Y0193791D01*
X0148995Y0195390D02*
X0184195Y0195390D01*
X0184195Y0196988D02*
X0148995Y0196988D01*
X0148995Y0198587D02*
X0184195Y0198587D01*
X0184195Y0200185D02*
X0148995Y0200185D01*
X0149673Y0201784D02*
X0153517Y0201784D01*
X0154703Y0200598D02*
X0158487Y0200598D01*
X0161164Y0203274D01*
X0161164Y0207059D01*
X0158487Y0209735D01*
X0154703Y0209735D01*
X0152027Y0207059D01*
X0152027Y0203274D01*
X0154703Y0200598D01*
X0152027Y0203382D02*
X0151164Y0203382D01*
X0151164Y0204981D02*
X0152027Y0204981D01*
X0152027Y0206579D02*
X0151164Y0206579D01*
X0150045Y0208178D02*
X0153145Y0208178D01*
X0160045Y0208178D02*
X0163145Y0208178D01*
X0162027Y0207059D02*
X0162027Y0203274D01*
X0164703Y0200598D01*
X0168487Y0200598D01*
X0171164Y0203274D01*
X0171164Y0207059D01*
X0168487Y0209735D01*
X0164703Y0209735D01*
X0162027Y0207059D01*
X0162027Y0206579D02*
X0161164Y0206579D01*
X0161164Y0204981D02*
X0162027Y0204981D01*
X0162027Y0203382D02*
X0161164Y0203382D01*
X0159673Y0201784D02*
X0163517Y0201784D01*
X0169673Y0201784D02*
X0173517Y0201784D01*
X0174703Y0200598D02*
X0178487Y0200598D01*
X0181164Y0203274D01*
X0181164Y0207059D01*
X0178487Y0209735D01*
X0174703Y0209735D01*
X0172027Y0207059D01*
X0172027Y0203274D01*
X0174703Y0200598D01*
X0172027Y0203382D02*
X0171164Y0203382D01*
X0171164Y0204981D02*
X0172027Y0204981D01*
X0172027Y0206579D02*
X0171164Y0206579D01*
X0170045Y0208178D02*
X0173145Y0208178D01*
X0180045Y0208178D02*
X0183145Y0208178D01*
X0182027Y0206579D02*
X0181164Y0206579D01*
X0181164Y0204981D02*
X0182027Y0204981D01*
X0182027Y0203382D02*
X0181164Y0203382D01*
X0179673Y0201784D02*
X0183517Y0201784D01*
X0197595Y0200167D02*
X0202595Y0205167D01*
X0207164Y0204981D02*
X0208027Y0204981D01*
X0208027Y0206579D02*
X0207164Y0206579D01*
X0206045Y0208178D02*
X0209145Y0208178D01*
X0208027Y0203382D02*
X0207164Y0203382D01*
X0205673Y0201784D02*
X0209517Y0201784D01*
X0234995Y0173010D02*
X0277295Y0173010D01*
X0277295Y0171412D02*
X0234995Y0171412D01*
X0234995Y0169813D02*
X0277295Y0169813D01*
X0277295Y0168215D02*
X0234995Y0168215D01*
X0234995Y0166616D02*
X0277295Y0166616D01*
X0277295Y0165018D02*
X0234995Y0165018D01*
X0234995Y0163419D02*
X0277582Y0163419D01*
X0278446Y0161821D02*
X0234995Y0161821D01*
X0234995Y0160222D02*
X0280044Y0160222D01*
X0281643Y0158624D02*
X0234446Y0158624D01*
X0232848Y0157025D02*
X0283241Y0157025D01*
X0284840Y0155427D02*
X0230959Y0155427D01*
X0229257Y0160222D02*
X0224826Y0160222D01*
X0211934Y0147434D02*
X0200953Y0147434D01*
X0236101Y0125055D02*
X0269929Y0125055D01*
X0275262Y0125055D02*
X0287295Y0125055D01*
X0287295Y0123456D02*
X0237699Y0123456D01*
X0239298Y0121858D02*
X0287295Y0121858D01*
X0287295Y0120259D02*
X0239995Y0120259D01*
X0239995Y0118661D02*
X0245464Y0118661D01*
X0243865Y0117062D02*
X0241325Y0117062D01*
X0249726Y0118661D02*
X0287295Y0118661D01*
X0287295Y0117062D02*
X0251325Y0117062D01*
X0251573Y0115464D02*
X0269814Y0115464D01*
X0268216Y0113865D02*
X0252290Y0113865D01*
X0275376Y0115464D02*
X0287295Y0115464D01*
X0287295Y0113865D02*
X0276975Y0113865D01*
X0278095Y0112267D02*
X0287295Y0112267D01*
X0287295Y0110668D02*
X0278095Y0110668D01*
X0278095Y0109070D02*
X0287295Y0109070D01*
X0287295Y0107471D02*
X0277378Y0107471D01*
X0275780Y0105873D02*
X0287295Y0105873D01*
X0287295Y0097880D02*
X0027895Y0097880D01*
X0027895Y0096282D02*
X0287295Y0096282D01*
X0287295Y0094683D02*
X0027895Y0094683D01*
X0027895Y0093085D02*
X0089326Y0093085D01*
X0088220Y0091486D02*
X0027895Y0091486D01*
X0027895Y0089888D02*
X0088220Y0089888D01*
X0088286Y0088289D02*
X0027895Y0088289D01*
X0027895Y0086691D02*
X0089884Y0086691D01*
X0096905Y0088289D02*
X0251455Y0088289D01*
X0251655Y0089888D02*
X0096970Y0089888D01*
X0096970Y0091486D02*
X0253021Y0091486D01*
X0221815Y0069107D02*
X0220856Y0069107D01*
X0220856Y0067509D02*
X0221815Y0067509D01*
X0221815Y0065910D02*
X0220856Y0065910D01*
X0210021Y0069107D02*
X0130819Y0069107D01*
X0129723Y0067509D02*
X0199478Y0067509D01*
X0197444Y0065910D02*
X0027895Y0065910D01*
X0027895Y0064312D02*
X0090836Y0064312D01*
X0090866Y0064341D02*
X0088420Y0061896D01*
X0088420Y0058437D01*
X0090866Y0055992D01*
X0094324Y0055992D01*
X0096770Y0058437D01*
X0096770Y0061896D01*
X0094324Y0064341D01*
X0090866Y0064341D01*
X0089237Y0062713D02*
X0027895Y0062713D01*
X0027895Y0061115D02*
X0088420Y0061115D01*
X0088420Y0059516D02*
X0027895Y0059516D01*
X0027895Y0057918D02*
X0088940Y0057918D01*
X0090539Y0056319D02*
X0027895Y0056319D01*
X0027895Y0054721D02*
X0193617Y0054721D01*
X0193617Y0056319D02*
X0094652Y0056319D01*
X0096250Y0057918D02*
X0194720Y0057918D01*
X0195195Y0059516D02*
X0096770Y0059516D01*
X0096770Y0061115D02*
X0195195Y0061115D01*
X0195195Y0062713D02*
X0095953Y0062713D01*
X0094354Y0064312D02*
X0195846Y0064312D01*
X0194014Y0053122D02*
X0175544Y0053122D01*
X0176770Y0051523D02*
X0195613Y0051523D01*
X0194570Y0019935D02*
X0192779Y0019935D01*
X0192779Y0015351D01*
X0197364Y0015351D01*
X0197364Y0017142D01*
X0194570Y0019935D01*
X0194952Y0019553D02*
X0200521Y0019553D01*
X0200703Y0019735D02*
X0198027Y0017059D01*
X0198027Y0013274D01*
X0200703Y0010598D01*
X0204487Y0010598D01*
X0207164Y0013274D01*
X0207164Y0017059D01*
X0204487Y0019735D01*
X0200703Y0019735D01*
X0198922Y0017955D02*
X0196551Y0017955D01*
X0197364Y0016356D02*
X0198027Y0016356D01*
X0198027Y0014758D02*
X0197364Y0014758D01*
X0197331Y0013159D02*
X0198142Y0013159D01*
X0199740Y0011561D02*
X0195733Y0011561D01*
X0192779Y0016356D02*
X0192411Y0016356D01*
X0192411Y0017955D02*
X0192779Y0017955D01*
X0192779Y0019553D02*
X0192411Y0019553D01*
X0190238Y0019553D02*
X0184952Y0019553D01*
X0184570Y0019935D02*
X0182779Y0019935D01*
X0182779Y0015351D01*
X0187364Y0015351D01*
X0187364Y0017142D01*
X0184570Y0019935D01*
X0182779Y0019553D02*
X0182411Y0019553D01*
X0182411Y0017955D02*
X0182779Y0017955D01*
X0182779Y0016356D02*
X0182411Y0016356D01*
X0186551Y0017955D02*
X0188640Y0017955D01*
X0187827Y0016356D02*
X0187364Y0016356D01*
X0187364Y0014758D02*
X0187827Y0014758D01*
X0187859Y0013159D02*
X0187331Y0013159D01*
X0185733Y0011561D02*
X0189457Y0011561D01*
X0179457Y0011561D02*
X0175450Y0011561D01*
X0177049Y0013159D02*
X0177859Y0013159D01*
X0177827Y0014758D02*
X0177164Y0014758D01*
X0177164Y0016356D02*
X0177827Y0016356D01*
X0178640Y0017955D02*
X0176268Y0017955D01*
X0174995Y0019553D02*
X0180238Y0019553D01*
X0160521Y0019553D02*
X0154669Y0019553D01*
X0154487Y0019735D02*
X0150703Y0019735D01*
X0148027Y0017059D01*
X0148027Y0013274D01*
X0150703Y0010598D01*
X0154487Y0010598D01*
X0157164Y0013274D01*
X0157164Y0017059D01*
X0154487Y0019735D01*
X0156268Y0017955D02*
X0158922Y0017955D01*
X0158027Y0016356D02*
X0157164Y0016356D01*
X0157164Y0014758D02*
X0158027Y0014758D01*
X0158142Y0013159D02*
X0157049Y0013159D01*
X0155450Y0011561D02*
X0159740Y0011561D01*
X0149740Y0011561D02*
X0145450Y0011561D01*
X0147049Y0013159D02*
X0148142Y0013159D01*
X0148027Y0014758D02*
X0147164Y0014758D01*
X0147164Y0016356D02*
X0148027Y0016356D01*
X0148922Y0017955D02*
X0146268Y0017955D01*
X0144669Y0019553D02*
X0150521Y0019553D01*
X0132595Y0012667D02*
X0130095Y0010167D01*
X0125095Y0010167D01*
X0126714Y0013159D02*
X0129694Y0013159D01*
X0125467Y0067509D02*
X0095841Y0067509D01*
X0092595Y0070167D02*
X0127595Y0070167D01*
X0089349Y0067509D02*
X0027895Y0067509D01*
X0027895Y0069107D02*
X0088420Y0069107D01*
X0088420Y0070706D02*
X0027895Y0070706D01*
X0027895Y0072304D02*
X0088829Y0072304D01*
X0112116Y0120259D02*
X0113075Y0120259D01*
X0113075Y0121858D02*
X0112116Y0121858D01*
X0148349Y0113865D02*
X0193617Y0113865D01*
X0193617Y0115464D02*
X0158265Y0115464D01*
X0158920Y0117062D02*
X0193865Y0117062D01*
X0195464Y0118661D02*
X0158920Y0118661D01*
X0108828Y0190594D02*
X0059995Y0190594D01*
X0060515Y0192192D02*
X0107175Y0192192D01*
X0105577Y0193791D02*
X0062114Y0193791D01*
X0062595Y0197667D02*
X0057595Y0192667D01*
X0057595Y0185167D01*
X0056335Y0185167D01*
X0052724Y0181003D02*
X0052466Y0181003D01*
X0044494Y0184200D02*
X0027895Y0184200D01*
X0027895Y0185798D02*
X0044696Y0185798D01*
X0044696Y0187397D02*
X0027895Y0187397D01*
X0027895Y0188995D02*
X0044909Y0188995D01*
X0046274Y0190594D02*
X0027895Y0190594D01*
X0027895Y0198587D02*
X0044878Y0198587D01*
X0044496Y0200185D02*
X0027895Y0200185D01*
X0027895Y0201784D02*
X0044496Y0201784D01*
X0044496Y0203146D02*
X0048375Y0203146D01*
X0048375Y0207419D01*
X0046059Y0207419D01*
X0045601Y0207297D01*
X0045191Y0207060D01*
X0044856Y0206725D01*
X0044619Y0206314D01*
X0044496Y0205856D01*
X0044496Y0203146D01*
X0044496Y0203382D02*
X0027895Y0203382D01*
X0027895Y0204981D02*
X0044496Y0204981D01*
X0044772Y0206579D02*
X0027895Y0206579D01*
X0027895Y0208178D02*
X0113145Y0208178D01*
X0112027Y0207059D02*
X0112027Y0203274D01*
X0114703Y0200598D01*
X0118487Y0200598D01*
X0121164Y0203274D01*
X0121164Y0207059D01*
X0118487Y0209735D01*
X0114703Y0209735D01*
X0112027Y0207059D01*
X0112027Y0206579D02*
X0060197Y0206579D01*
X0056335Y0202667D02*
X0107595Y0202667D01*
X0112595Y0197667D01*
X0113471Y0200185D02*
X0133219Y0200185D01*
X0133517Y0201784D02*
X0129956Y0201784D01*
X0131364Y0203382D02*
X0132027Y0203382D01*
X0126779Y0203382D02*
X0126411Y0203382D01*
X0126411Y0201784D02*
X0126779Y0201784D01*
X0126411Y0200398D02*
X0126411Y0204982D01*
X0121827Y0204982D01*
X0121827Y0203191D01*
X0124620Y0200398D01*
X0126411Y0200398D01*
X0123235Y0201784D02*
X0119673Y0201784D01*
X0121164Y0203382D02*
X0121827Y0203382D01*
X0121827Y0204981D02*
X0121164Y0204981D01*
X0121164Y0206579D02*
X0121827Y0206579D01*
X0122862Y0208178D02*
X0120045Y0208178D01*
X0124461Y0209776D02*
X0027895Y0209776D01*
X0048375Y0206579D02*
X0049335Y0206579D01*
X0049335Y0204981D02*
X0048375Y0204981D01*
X0048375Y0203382D02*
X0049335Y0203382D01*
X0049335Y0201784D02*
X0048375Y0201784D01*
X0048375Y0200185D02*
X0049335Y0200185D01*
X0049335Y0198587D02*
X0048375Y0198587D01*
X0048266Y0195390D02*
X0056924Y0195390D01*
X0055463Y0193791D02*
X0049865Y0193791D01*
X0051127Y0192192D02*
X0055195Y0192192D01*
X0055195Y0190594D02*
X0051255Y0190594D01*
X0062595Y0197667D02*
X0105095Y0197667D01*
X0110095Y0192667D01*
X0144095Y0192667D01*
X0146595Y0195167D01*
X0146595Y0205167D01*
X0142027Y0204981D02*
X0141164Y0204981D01*
X0141164Y0206579D02*
X0142027Y0206579D01*
X0143145Y0208178D02*
X0140045Y0208178D01*
X0141164Y0203382D02*
X0142027Y0203382D01*
X0143517Y0201784D02*
X0139673Y0201784D01*
X0138995Y0200185D02*
X0144195Y0200185D01*
X0144195Y0198587D02*
X0138409Y0198587D01*
X0136811Y0196988D02*
X0144195Y0196988D01*
X0143424Y0195390D02*
X0134869Y0195390D01*
X0126779Y0204981D02*
X0126411Y0204981D01*
X0113517Y0201784D02*
X0111872Y0201784D01*
X0112027Y0203382D02*
X0110274Y0203382D01*
X0112027Y0204981D02*
X0108280Y0204981D01*
X0276412Y0153828D02*
X0286438Y0153828D01*
X0287295Y0152230D02*
X0278010Y0152230D01*
X0278095Y0150631D02*
X0287295Y0150631D01*
X0287295Y0149033D02*
X0278095Y0149033D01*
X0277941Y0147434D02*
X0287295Y0147434D01*
X0287295Y0145836D02*
X0276342Y0145836D01*
X0275894Y0134646D02*
X0287295Y0134646D01*
X0287295Y0133048D02*
X0277492Y0133048D01*
X0278095Y0131449D02*
X0287295Y0131449D01*
X0287295Y0129851D02*
X0278095Y0129851D01*
X0278095Y0128252D02*
X0287295Y0128252D01*
X0287295Y0126654D02*
X0276860Y0126654D01*
X0270361Y0054721D02*
X0264547Y0054721D01*
X0266145Y0053122D02*
X0268762Y0053122D01*
X0267795Y0051523D02*
X0267195Y0051523D01*
X0267195Y0049925D02*
X0267795Y0049925D01*
X0267795Y0048326D02*
X0267195Y0048326D01*
X0265662Y0046728D02*
X0269246Y0046728D01*
X0270690Y0039767D02*
X0267995Y0037072D01*
X0267995Y0033261D01*
X0270690Y0030567D01*
X0274501Y0030567D01*
X0277195Y0033261D01*
X0277195Y0037072D01*
X0274501Y0039767D01*
X0270690Y0039767D01*
X0269659Y0038735D02*
X0265532Y0038735D01*
X0267130Y0037137D02*
X0268060Y0037137D01*
X0267995Y0035538D02*
X0267195Y0035538D01*
X0267195Y0033940D02*
X0267995Y0033940D01*
X0268915Y0032341D02*
X0266275Y0032341D01*
X0264677Y0030743D02*
X0270514Y0030743D01*
X0274677Y0030743D02*
X0280231Y0030743D01*
X0282395Y0030743D02*
X0282795Y0030743D01*
X0282795Y0032341D02*
X0282395Y0032341D01*
X0282395Y0033940D02*
X0282795Y0033940D01*
X0282795Y0035538D02*
X0282395Y0035538D01*
X0282395Y0037137D02*
X0282795Y0037137D01*
X0282795Y0038735D02*
X0282395Y0038735D01*
X0279376Y0038735D02*
X0275532Y0038735D01*
X0277130Y0037137D02*
X0277795Y0037137D01*
X0277795Y0035538D02*
X0277195Y0035538D01*
X0277195Y0033940D02*
X0277795Y0033940D01*
X0278632Y0032341D02*
X0276275Y0032341D01*
X0284960Y0030743D02*
X0287295Y0030743D01*
X0287295Y0032341D02*
X0286558Y0032341D01*
X0287295Y0038735D02*
X0285815Y0038735D01*
X0279486Y0019553D02*
X0274669Y0019553D01*
X0276268Y0017955D02*
X0278013Y0017955D01*
X0277351Y0016356D02*
X0277164Y0016356D01*
X0277164Y0014758D02*
X0277295Y0014758D01*
X0277295Y0013159D02*
X0277049Y0013159D01*
X0277295Y0011561D02*
X0275450Y0011561D01*
X0220521Y0019553D02*
X0204669Y0019553D01*
X0206268Y0017955D02*
X0218922Y0017955D01*
X0218027Y0016356D02*
X0207164Y0016356D01*
X0207164Y0014758D02*
X0218027Y0014758D01*
X0218142Y0013159D02*
X0207049Y0013159D01*
X0205450Y0011561D02*
X0219740Y0011561D01*
D22*
X0212595Y0040167D03*
X0242595Y0107667D03*
X0222595Y0157667D03*
X0225095Y0172667D03*
X0180095Y0142667D03*
X0112595Y0102667D03*
X0100095Y0112667D03*
X0127595Y0070167D03*
X0077595Y0032667D03*
X0047595Y0020167D03*
X0125095Y0010167D03*
X0035095Y0177667D03*
X0037595Y0195167D03*
M02*
