G75*
%MOIN*%
%OFA0B0*%
%FSLAX25Y25*%
%IPPOS*%
%LPD*%
%AMOC8*
5,1,8,0,0,1.08239X$1,22.5*
%
%ADD10C,0.00400*%
%ADD11C,0.00300*%
%ADD12C,0.00800*%
%ADD13C,0.03482*%
%ADD14R,0.00787X0.00787*%
%ADD15C,0.01000*%
%ADD16C,0.00600*%
D10*
X0042200Y0015067D02*
X0042967Y0014300D01*
X0044502Y0014300D01*
X0045269Y0015067D01*
X0045269Y0018904D01*
X0046804Y0018137D02*
X0046804Y0017369D01*
X0047571Y0016602D01*
X0049106Y0016602D01*
X0049873Y0015835D01*
X0049873Y0015067D01*
X0049106Y0014300D01*
X0047571Y0014300D01*
X0046804Y0015067D01*
X0042200Y0015067D02*
X0042200Y0018904D01*
X0046804Y0018137D02*
X0047571Y0018904D01*
X0049106Y0018904D01*
X0049873Y0018137D01*
X0051408Y0018904D02*
X0053710Y0018904D01*
X0054477Y0018137D01*
X0054477Y0017369D01*
X0053710Y0016602D01*
X0051408Y0016602D01*
X0053710Y0016602D02*
X0054477Y0015835D01*
X0054477Y0015067D01*
X0053710Y0014300D01*
X0051408Y0014300D01*
X0051408Y0018904D01*
X0026543Y0035046D02*
X0026543Y0035659D01*
X0026544Y0035659D02*
X0026546Y0035715D01*
X0026552Y0035770D01*
X0026561Y0035825D01*
X0026574Y0035879D01*
X0026591Y0035933D01*
X0026612Y0035984D01*
X0026636Y0036035D01*
X0026663Y0036084D01*
X0026694Y0036130D01*
X0026727Y0036175D01*
X0026764Y0036217D01*
X0026803Y0036256D01*
X0026845Y0036293D01*
X0026890Y0036326D01*
X0026936Y0036357D01*
X0026985Y0036384D01*
X0027036Y0036408D01*
X0027087Y0036429D01*
X0027141Y0036446D01*
X0027195Y0036459D01*
X0027250Y0036468D01*
X0027305Y0036474D01*
X0027361Y0036476D01*
X0018269Y0036476D01*
X0017346Y0039951D02*
X0017346Y0040769D01*
X0007944Y0041790D01*
X0007944Y0043834D01*
X0017346Y0044856D01*
X0017346Y0045674D01*
X0006514Y0044652D01*
X0006514Y0044651D02*
X0006448Y0044644D01*
X0006383Y0044633D01*
X0006318Y0044619D01*
X0006255Y0044601D01*
X0006192Y0044579D01*
X0006131Y0044554D01*
X0006071Y0044526D01*
X0006013Y0044494D01*
X0005957Y0044458D01*
X0005903Y0044420D01*
X0005852Y0044379D01*
X0005803Y0044335D01*
X0005756Y0044288D01*
X0005712Y0044238D01*
X0005671Y0044186D01*
X0005633Y0044132D01*
X0005598Y0044076D01*
X0005567Y0044018D01*
X0005539Y0043958D01*
X0005514Y0043896D01*
X0005493Y0043834D01*
X0005459Y0043719D01*
X0005429Y0043602D01*
X0005403Y0043485D01*
X0005381Y0043367D01*
X0005362Y0043249D01*
X0005347Y0043129D01*
X0005336Y0043010D01*
X0005328Y0042890D01*
X0005324Y0042770D01*
X0005324Y0042650D01*
X0005328Y0042530D01*
X0005336Y0042410D01*
X0005347Y0042291D01*
X0005362Y0042171D01*
X0005381Y0042053D01*
X0005403Y0041935D01*
X0005429Y0041818D01*
X0005459Y0041701D01*
X0005493Y0041586D01*
X0005514Y0041524D01*
X0005539Y0041462D01*
X0005567Y0041402D01*
X0005598Y0041344D01*
X0005633Y0041288D01*
X0005671Y0041234D01*
X0005712Y0041182D01*
X0005756Y0041132D01*
X0005803Y0041085D01*
X0005852Y0041041D01*
X0005903Y0041000D01*
X0005957Y0040962D01*
X0006013Y0040926D01*
X0006071Y0040894D01*
X0006131Y0040866D01*
X0006192Y0040841D01*
X0006255Y0040819D01*
X0006318Y0040801D01*
X0006383Y0040787D01*
X0006448Y0040776D01*
X0006514Y0040769D01*
X0017346Y0039951D01*
X0007120Y0036476D02*
X0001200Y0036476D01*
X0001200Y0036476D01*
X0001200Y0066724D01*
X0007119Y0066724D01*
X0006514Y0062432D02*
X0017346Y0063250D01*
X0017346Y0062432D01*
X0007944Y0061411D01*
X0007944Y0059367D01*
X0017346Y0058345D01*
X0017346Y0057527D01*
X0006514Y0058549D01*
X0006448Y0058556D01*
X0006383Y0058567D01*
X0006318Y0058581D01*
X0006255Y0058599D01*
X0006192Y0058621D01*
X0006131Y0058646D01*
X0006071Y0058674D01*
X0006013Y0058706D01*
X0005957Y0058742D01*
X0005903Y0058780D01*
X0005852Y0058821D01*
X0005803Y0058865D01*
X0005756Y0058912D01*
X0005712Y0058962D01*
X0005671Y0059014D01*
X0005633Y0059068D01*
X0005598Y0059124D01*
X0005567Y0059182D01*
X0005539Y0059242D01*
X0005514Y0059304D01*
X0005493Y0059366D01*
X0005493Y0059367D02*
X0005459Y0059482D01*
X0005429Y0059599D01*
X0005403Y0059716D01*
X0005381Y0059834D01*
X0005362Y0059952D01*
X0005347Y0060072D01*
X0005336Y0060191D01*
X0005328Y0060311D01*
X0005324Y0060431D01*
X0005324Y0060551D01*
X0005328Y0060671D01*
X0005336Y0060791D01*
X0005347Y0060910D01*
X0005362Y0061030D01*
X0005381Y0061148D01*
X0005403Y0061266D01*
X0005429Y0061383D01*
X0005459Y0061500D01*
X0005493Y0061615D01*
X0005514Y0061677D01*
X0005539Y0061739D01*
X0005567Y0061799D01*
X0005598Y0061857D01*
X0005633Y0061913D01*
X0005671Y0061967D01*
X0005712Y0062019D01*
X0005756Y0062069D01*
X0005803Y0062116D01*
X0005852Y0062160D01*
X0005903Y0062201D01*
X0005957Y0062239D01*
X0006013Y0062275D01*
X0006071Y0062307D01*
X0006131Y0062335D01*
X0006192Y0062360D01*
X0006255Y0062382D01*
X0006318Y0062400D01*
X0006383Y0062414D01*
X0006448Y0062425D01*
X0006514Y0062432D01*
X0018270Y0066724D02*
X0027361Y0066724D01*
X0027361Y0066725D02*
X0027305Y0066727D01*
X0027250Y0066733D01*
X0027195Y0066742D01*
X0027141Y0066755D01*
X0027087Y0066772D01*
X0027036Y0066793D01*
X0026985Y0066817D01*
X0026936Y0066844D01*
X0026890Y0066875D01*
X0026845Y0066908D01*
X0026803Y0066945D01*
X0026764Y0066984D01*
X0026727Y0067026D01*
X0026694Y0067071D01*
X0026663Y0067117D01*
X0026636Y0067166D01*
X0026612Y0067217D01*
X0026591Y0067268D01*
X0026574Y0067322D01*
X0026561Y0067376D01*
X0026552Y0067431D01*
X0026546Y0067486D01*
X0026544Y0067542D01*
X0026543Y0067542D02*
X0026543Y0068155D01*
X0036558Y0063454D02*
X0037989Y0063454D01*
X0038194Y0063454D02*
X0038194Y0059571D01*
X0037989Y0059572D02*
X0030631Y0059572D01*
X0028587Y0058754D02*
X0028587Y0044447D01*
X0028585Y0044392D01*
X0028579Y0044336D01*
X0028570Y0044281D01*
X0028557Y0044227D01*
X0028540Y0044174D01*
X0028519Y0044122D01*
X0028495Y0044071D01*
X0028468Y0044023D01*
X0028438Y0043976D01*
X0028404Y0043931D01*
X0028367Y0043889D01*
X0028328Y0043850D01*
X0028286Y0043813D01*
X0028241Y0043779D01*
X0028194Y0043749D01*
X0028146Y0043722D01*
X0028095Y0043698D01*
X0028043Y0043677D01*
X0027990Y0043660D01*
X0027936Y0043647D01*
X0027881Y0043638D01*
X0027825Y0043632D01*
X0027770Y0043630D01*
X0027769Y0043630D02*
X0027707Y0043632D01*
X0027646Y0043638D01*
X0027585Y0043647D01*
X0027524Y0043660D01*
X0027465Y0043677D01*
X0027407Y0043697D01*
X0027350Y0043720D01*
X0027294Y0043747D01*
X0027240Y0043778D01*
X0027189Y0043811D01*
X0027139Y0043848D01*
X0027092Y0043887D01*
X0027047Y0043930D01*
X0027004Y0043975D01*
X0026965Y0044022D01*
X0026928Y0044072D01*
X0026895Y0044123D01*
X0026864Y0044177D01*
X0026837Y0044233D01*
X0026814Y0044290D01*
X0026794Y0044348D01*
X0026777Y0044407D01*
X0026764Y0044468D01*
X0026755Y0044529D01*
X0026749Y0044590D01*
X0026747Y0044652D01*
X0026748Y0044651D02*
X0026748Y0058549D01*
X0026750Y0058611D01*
X0026755Y0058673D01*
X0026765Y0058734D01*
X0026778Y0058794D01*
X0026794Y0058853D01*
X0026814Y0058912D01*
X0026838Y0058969D01*
X0026865Y0059024D01*
X0026895Y0059078D01*
X0026929Y0059130D01*
X0026966Y0059179D01*
X0027005Y0059227D01*
X0027047Y0059272D01*
X0027092Y0059314D01*
X0027140Y0059353D01*
X0027189Y0059390D01*
X0027241Y0059424D01*
X0027295Y0059454D01*
X0027350Y0059481D01*
X0027407Y0059505D01*
X0027466Y0059525D01*
X0027525Y0059541D01*
X0027585Y0059554D01*
X0027646Y0059564D01*
X0027708Y0059569D01*
X0027770Y0059571D01*
X0027769Y0059571D01*
X0027770Y0059571D02*
X0027825Y0059569D01*
X0027881Y0059563D01*
X0027936Y0059554D01*
X0027990Y0059541D01*
X0028043Y0059524D01*
X0028095Y0059503D01*
X0028146Y0059479D01*
X0028194Y0059452D01*
X0028241Y0059422D01*
X0028286Y0059388D01*
X0028328Y0059351D01*
X0028367Y0059312D01*
X0028404Y0059270D01*
X0028438Y0059225D01*
X0028468Y0059178D01*
X0028495Y0059130D01*
X0028519Y0059079D01*
X0028540Y0059027D01*
X0028557Y0058974D01*
X0028570Y0058920D01*
X0028579Y0058865D01*
X0028585Y0058809D01*
X0028587Y0058754D01*
X0023273Y0054870D02*
X0023273Y0048331D01*
X0023268Y0048274D01*
X0023259Y0048217D01*
X0023246Y0048161D01*
X0023230Y0048105D01*
X0023210Y0048051D01*
X0023187Y0047999D01*
X0023160Y0047948D01*
X0023130Y0047899D01*
X0023096Y0047852D01*
X0023060Y0047808D01*
X0023021Y0047766D01*
X0022979Y0047726D01*
X0022934Y0047690D01*
X0022887Y0047657D01*
X0022838Y0047626D01*
X0022787Y0047600D01*
X0022735Y0047576D01*
X0022681Y0047556D01*
X0022626Y0047540D01*
X0022570Y0047527D01*
X0022513Y0047518D01*
X0022456Y0047513D01*
X0006514Y0046696D01*
X0006458Y0046698D01*
X0006403Y0046704D01*
X0006348Y0046713D01*
X0006294Y0046726D01*
X0006240Y0046743D01*
X0006189Y0046764D01*
X0006138Y0046788D01*
X0006089Y0046815D01*
X0006043Y0046846D01*
X0005998Y0046879D01*
X0005956Y0046916D01*
X0005917Y0046955D01*
X0005880Y0046997D01*
X0005847Y0047042D01*
X0005816Y0047088D01*
X0005789Y0047137D01*
X0005765Y0047188D01*
X0005744Y0047239D01*
X0005727Y0047293D01*
X0005714Y0047347D01*
X0005705Y0047402D01*
X0005699Y0047457D01*
X0005697Y0047513D01*
X0005699Y0047569D01*
X0005705Y0047624D01*
X0005714Y0047679D01*
X0005727Y0047733D01*
X0005744Y0047787D01*
X0005765Y0047838D01*
X0005789Y0047889D01*
X0005816Y0047938D01*
X0005847Y0047984D01*
X0005880Y0048029D01*
X0005917Y0048071D01*
X0005956Y0048110D01*
X0005998Y0048147D01*
X0006043Y0048180D01*
X0006089Y0048211D01*
X0006138Y0048238D01*
X0006189Y0048262D01*
X0006240Y0048283D01*
X0006294Y0048300D01*
X0006348Y0048313D01*
X0006403Y0048322D01*
X0006458Y0048328D01*
X0006514Y0048330D01*
X0006514Y0048331D02*
X0020003Y0049148D01*
X0020003Y0054054D01*
X0020003Y0054053D02*
X0006514Y0054870D01*
X0006458Y0054872D01*
X0006403Y0054878D01*
X0006348Y0054887D01*
X0006294Y0054900D01*
X0006240Y0054917D01*
X0006189Y0054938D01*
X0006138Y0054962D01*
X0006089Y0054989D01*
X0006043Y0055020D01*
X0005998Y0055053D01*
X0005956Y0055090D01*
X0005917Y0055129D01*
X0005880Y0055171D01*
X0005847Y0055216D01*
X0005816Y0055262D01*
X0005789Y0055311D01*
X0005765Y0055362D01*
X0005744Y0055413D01*
X0005727Y0055467D01*
X0005714Y0055521D01*
X0005705Y0055576D01*
X0005699Y0055631D01*
X0005697Y0055687D01*
X0005696Y0055688D02*
X0005696Y0055687D01*
X0005697Y0055688D02*
X0005699Y0055744D01*
X0005705Y0055799D01*
X0005714Y0055854D01*
X0005727Y0055908D01*
X0005744Y0055962D01*
X0005765Y0056013D01*
X0005789Y0056064D01*
X0005816Y0056113D01*
X0005847Y0056159D01*
X0005880Y0056204D01*
X0005917Y0056246D01*
X0005956Y0056285D01*
X0005998Y0056322D01*
X0006043Y0056355D01*
X0006089Y0056386D01*
X0006138Y0056413D01*
X0006189Y0056437D01*
X0006240Y0056458D01*
X0006294Y0056475D01*
X0006348Y0056488D01*
X0006403Y0056497D01*
X0006458Y0056503D01*
X0006514Y0056505D01*
X0022456Y0055688D01*
X0022514Y0055683D01*
X0022570Y0055674D01*
X0022627Y0055661D01*
X0022682Y0055645D01*
X0022736Y0055625D01*
X0022788Y0055602D01*
X0022839Y0055575D01*
X0022888Y0055544D01*
X0022935Y0055511D01*
X0022979Y0055475D01*
X0023022Y0055435D01*
X0023061Y0055393D01*
X0023097Y0055349D01*
X0023131Y0055302D01*
X0023161Y0055253D01*
X0023188Y0055202D01*
X0023211Y0055149D01*
X0023231Y0055095D01*
X0023247Y0055040D01*
X0023260Y0054984D01*
X0023269Y0054927D01*
X0023274Y0054870D01*
X0030631Y0043629D02*
X0037989Y0043629D01*
X0038193Y0043630D02*
X0038193Y0039746D01*
X0037989Y0039746D02*
X0036558Y0039746D01*
X0060600Y0044100D02*
X0078400Y0044100D01*
X0078400Y0059100D02*
X0060600Y0059100D01*
X0053710Y0084300D02*
X0052175Y0084300D01*
X0051408Y0085067D01*
X0054477Y0088137D01*
X0054477Y0085067D01*
X0053710Y0084300D01*
X0051408Y0085067D02*
X0051408Y0088137D01*
X0052175Y0088904D01*
X0053710Y0088904D01*
X0054477Y0088137D01*
X0049873Y0088904D02*
X0049873Y0085835D01*
X0048339Y0084300D01*
X0046804Y0085835D01*
X0046804Y0088904D01*
X0045269Y0088904D02*
X0042200Y0088904D01*
X0042200Y0086602D01*
X0043735Y0087369D01*
X0044502Y0087369D01*
X0045269Y0086602D01*
X0045269Y0085067D01*
X0044502Y0084300D01*
X0042967Y0084300D01*
X0042200Y0085067D01*
X0143450Y0078904D02*
X0146519Y0078904D01*
X0144985Y0078904D02*
X0144985Y0074300D01*
X0148054Y0074300D02*
X0151123Y0078904D01*
X0152658Y0078904D02*
X0154960Y0078904D01*
X0155727Y0078137D01*
X0155727Y0075067D01*
X0154960Y0074300D01*
X0152658Y0074300D01*
X0152658Y0078904D01*
X0148054Y0078904D02*
X0151123Y0074300D01*
X0163450Y0074300D02*
X0163450Y0078904D01*
X0165752Y0078904D01*
X0166519Y0078137D01*
X0166519Y0076602D01*
X0165752Y0075835D01*
X0163450Y0075835D01*
X0164985Y0075835D02*
X0166519Y0074300D01*
X0168054Y0074300D02*
X0171123Y0078904D01*
X0168054Y0078904D02*
X0171123Y0074300D01*
X0170356Y0068904D02*
X0168821Y0068904D01*
X0168054Y0068137D01*
X0168054Y0067369D01*
X0168821Y0066602D01*
X0170356Y0066602D01*
X0171123Y0065835D01*
X0171123Y0065067D01*
X0170356Y0064300D01*
X0168821Y0064300D01*
X0168054Y0065067D01*
X0166519Y0064300D02*
X0164985Y0065835D01*
X0165752Y0065835D02*
X0163450Y0065835D01*
X0163450Y0064300D02*
X0163450Y0068904D01*
X0165752Y0068904D01*
X0166519Y0068137D01*
X0166519Y0066602D01*
X0165752Y0065835D01*
X0170356Y0068904D02*
X0171123Y0068137D01*
X0172658Y0068904D02*
X0175727Y0068904D01*
X0174192Y0068904D02*
X0174192Y0064300D01*
X0173425Y0058904D02*
X0174960Y0058904D01*
X0175727Y0058137D01*
X0175727Y0057369D01*
X0174960Y0056602D01*
X0175727Y0055835D01*
X0175727Y0055067D01*
X0174960Y0054300D01*
X0173425Y0054300D01*
X0172658Y0055067D01*
X0171123Y0055835D02*
X0169589Y0054300D01*
X0168054Y0055835D01*
X0168054Y0058904D01*
X0166519Y0058137D02*
X0166519Y0057369D01*
X0165752Y0056602D01*
X0166519Y0055835D01*
X0166519Y0055067D01*
X0165752Y0054300D01*
X0164217Y0054300D01*
X0163450Y0055067D01*
X0164985Y0056602D02*
X0165752Y0056602D01*
X0166519Y0058137D02*
X0165752Y0058904D01*
X0164217Y0058904D01*
X0163450Y0058137D01*
X0171123Y0058904D02*
X0171123Y0055835D01*
X0174192Y0056602D02*
X0174960Y0056602D01*
X0172658Y0058137D02*
X0173425Y0058904D01*
X0193450Y0057654D02*
X0193450Y0053050D01*
X0193450Y0054585D02*
X0195752Y0054585D01*
X0196519Y0055352D01*
X0196519Y0056887D01*
X0195752Y0057654D01*
X0193450Y0057654D01*
X0198054Y0057654D02*
X0201123Y0053050D01*
X0202658Y0053050D02*
X0204960Y0053050D01*
X0205727Y0053817D01*
X0205727Y0056887D01*
X0204960Y0057654D01*
X0202658Y0057654D01*
X0202658Y0053050D01*
X0198054Y0053050D02*
X0201123Y0057654D01*
X0196519Y0053050D02*
X0194985Y0054585D01*
X0194985Y0050154D02*
X0194985Y0045550D01*
X0198054Y0045550D02*
X0201123Y0050154D01*
X0202658Y0050154D02*
X0204960Y0050154D01*
X0205727Y0049387D01*
X0205727Y0046317D01*
X0204960Y0045550D01*
X0202658Y0045550D01*
X0202658Y0050154D01*
X0198054Y0050154D02*
X0201123Y0045550D01*
X0196519Y0050154D02*
X0193450Y0050154D01*
X0175727Y0048137D02*
X0175727Y0045067D01*
X0174960Y0044300D01*
X0173425Y0044300D01*
X0172658Y0045067D01*
X0175727Y0048137D01*
X0174960Y0048904D01*
X0173425Y0048904D01*
X0172658Y0048137D01*
X0172658Y0045067D01*
X0171123Y0045835D02*
X0169589Y0044300D01*
X0168054Y0045835D01*
X0168054Y0048904D01*
X0166519Y0048904D02*
X0163450Y0048904D01*
X0163450Y0046602D01*
X0164985Y0047369D01*
X0165752Y0047369D01*
X0166519Y0046602D01*
X0166519Y0045067D01*
X0165752Y0044300D01*
X0164217Y0044300D01*
X0163450Y0045067D01*
X0171123Y0045835D02*
X0171123Y0048904D01*
X0193450Y0039387D02*
X0193450Y0036317D01*
X0194217Y0035550D01*
X0195752Y0035550D01*
X0196519Y0036317D01*
X0196519Y0037852D01*
X0194985Y0037852D01*
X0196519Y0039387D02*
X0195752Y0040154D01*
X0194217Y0040154D01*
X0193450Y0039387D01*
X0198054Y0040154D02*
X0201123Y0035550D01*
X0201123Y0040154D01*
X0202658Y0040154D02*
X0204960Y0040154D01*
X0205727Y0039387D01*
X0205727Y0036317D01*
X0204960Y0035550D01*
X0202658Y0035550D01*
X0202658Y0040154D01*
X0198054Y0040154D02*
X0198054Y0035550D01*
X0175727Y0035067D02*
X0175727Y0038137D01*
X0174960Y0038904D01*
X0172658Y0038904D01*
X0172658Y0034300D01*
X0174960Y0034300D01*
X0175727Y0035067D01*
X0171123Y0034300D02*
X0168054Y0038904D01*
X0166519Y0038137D02*
X0166519Y0036602D01*
X0165752Y0035835D01*
X0163450Y0035835D01*
X0164985Y0035835D02*
X0166519Y0034300D01*
X0168054Y0034300D02*
X0171123Y0038904D01*
X0166519Y0038137D02*
X0165752Y0038904D01*
X0163450Y0038904D01*
X0163450Y0034300D01*
X0163450Y0028904D02*
X0166519Y0028904D01*
X0164985Y0028904D02*
X0164985Y0024300D01*
X0168054Y0024300D02*
X0171123Y0028904D01*
X0172658Y0028904D02*
X0174960Y0028904D01*
X0175727Y0028137D01*
X0175727Y0025067D01*
X0174960Y0024300D01*
X0172658Y0024300D01*
X0172658Y0028904D01*
X0168054Y0028904D02*
X0171123Y0024300D01*
X0171123Y0018904D02*
X0171123Y0014300D01*
X0168054Y0018904D01*
X0168054Y0014300D01*
X0166519Y0015067D02*
X0166519Y0016602D01*
X0164985Y0016602D01*
X0166519Y0018137D02*
X0165752Y0018904D01*
X0164217Y0018904D01*
X0163450Y0018137D01*
X0163450Y0015067D01*
X0164217Y0014300D01*
X0165752Y0014300D01*
X0166519Y0015067D01*
X0172658Y0014300D02*
X0174960Y0014300D01*
X0175727Y0015067D01*
X0175727Y0018137D01*
X0174960Y0018904D01*
X0172658Y0018904D01*
X0172658Y0014300D01*
X0155727Y0025067D02*
X0154960Y0024300D01*
X0152658Y0024300D01*
X0152658Y0028904D01*
X0154960Y0028904D01*
X0155727Y0028137D01*
X0155727Y0025067D01*
X0151123Y0024300D02*
X0148054Y0028904D01*
X0146519Y0028137D02*
X0146519Y0026602D01*
X0145752Y0025835D01*
X0143450Y0025835D01*
X0144985Y0025835D02*
X0146519Y0024300D01*
X0148054Y0024300D02*
X0151123Y0028904D01*
X0146519Y0028137D02*
X0145752Y0028904D01*
X0143450Y0028904D01*
X0143450Y0024300D01*
X0193450Y0063817D02*
X0194217Y0063050D01*
X0195752Y0063050D01*
X0196519Y0063817D01*
X0196519Y0065352D01*
X0195752Y0066119D01*
X0194985Y0066119D01*
X0193450Y0065352D01*
X0193450Y0067654D01*
X0196519Y0067654D01*
X0198054Y0067654D02*
X0198054Y0064585D01*
X0199589Y0063050D01*
X0201123Y0064585D01*
X0201123Y0067654D01*
X0202658Y0066887D02*
X0203425Y0067654D01*
X0204960Y0067654D01*
X0205727Y0066887D01*
X0202658Y0063817D01*
X0203425Y0063050D01*
X0204960Y0063050D01*
X0205727Y0063817D01*
X0205727Y0066887D01*
X0202658Y0066887D02*
X0202658Y0063817D01*
X0171123Y0084300D02*
X0168054Y0088904D01*
X0166519Y0088904D02*
X0163450Y0088904D01*
X0164985Y0088904D02*
X0164985Y0084300D01*
X0168054Y0084300D02*
X0171123Y0088904D01*
D11*
X0232647Y0072017D02*
X0232647Y0070783D01*
X0233264Y0070166D01*
X0235733Y0070166D01*
X0236350Y0070783D01*
X0236350Y0072017D01*
X0235733Y0072634D01*
X0233264Y0072634D02*
X0232647Y0072017D01*
X0236350Y0068951D02*
X0236350Y0066483D01*
X0232647Y0066483D01*
X0232647Y0065268D02*
X0232647Y0064034D01*
X0232647Y0064651D02*
X0235733Y0064651D01*
X0236350Y0064034D01*
X0236350Y0063417D01*
X0235733Y0062799D01*
X0235733Y0061585D02*
X0236350Y0060968D01*
X0236350Y0059733D01*
X0235733Y0059116D01*
X0233264Y0059116D01*
X0232647Y0059733D01*
X0232647Y0060968D01*
X0233264Y0061585D01*
X0236350Y0057902D02*
X0236350Y0055433D01*
X0232647Y0055433D01*
X0232647Y0054219D02*
X0232647Y0052984D01*
X0232647Y0053602D02*
X0235733Y0053602D01*
X0236350Y0052984D01*
X0236350Y0052367D01*
X0235733Y0051750D01*
X0235733Y0050536D02*
X0236350Y0049918D01*
X0236350Y0048684D01*
X0235733Y0048067D01*
X0233264Y0048067D01*
X0232647Y0048684D01*
X0232647Y0049918D01*
X0233264Y0050536D01*
X0236350Y0046852D02*
X0236350Y0044384D01*
X0232647Y0044384D01*
X0232647Y0043169D02*
X0232647Y0041935D01*
X0232647Y0042552D02*
X0235733Y0042552D01*
X0236350Y0041935D01*
X0236350Y0041318D01*
X0235733Y0040701D01*
X0235733Y0039486D02*
X0236350Y0038869D01*
X0236350Y0037635D01*
X0235733Y0037017D01*
X0233264Y0037017D01*
X0232647Y0037635D01*
X0232647Y0038869D01*
X0233264Y0039486D01*
X0236350Y0035803D02*
X0236350Y0033334D01*
X0232647Y0033334D01*
X0232647Y0032120D02*
X0232647Y0030886D01*
X0232647Y0031503D02*
X0235733Y0031503D01*
X0236350Y0030886D01*
X0236350Y0030268D01*
X0235733Y0029651D01*
D12*
X0134579Y0041364D02*
X0134579Y0061836D01*
X0094421Y0061836D01*
X0094421Y0041364D01*
X0134579Y0041364D01*
X0072374Y0047663D02*
X0072374Y0055537D01*
X0072374Y0051600D02*
X0066969Y0055537D01*
X0066969Y0047663D01*
X0072374Y0051600D01*
D13*
X0097965Y0045202D03*
D14*
X0149894Y0036600D03*
X0149894Y0066600D03*
X0064894Y0086600D03*
X0064894Y0016600D03*
D15*
X0209569Y0022466D02*
X0265868Y0022466D01*
X0265868Y0080734D01*
X0209569Y0080734D01*
X0209569Y0022466D01*
D16*
X0189500Y0024100D02*
X0189500Y0029100D01*
X0187000Y0031600D01*
X0189500Y0034100D01*
X0189500Y0039100D01*
X0187000Y0041600D01*
X0189500Y0044100D01*
X0189500Y0049100D01*
X0187000Y0051600D01*
X0189500Y0054100D01*
X0189500Y0059100D01*
X0187000Y0061600D01*
X0189500Y0064100D01*
X0189500Y0069100D01*
X0187000Y0071600D01*
X0189500Y0074100D01*
X0189500Y0079100D01*
X0187000Y0081600D01*
X0189500Y0084100D01*
X0189500Y0089100D01*
X0187000Y0091600D01*
X0182000Y0091600D01*
X0179500Y0089100D01*
X0179500Y0084100D01*
X0182000Y0081600D01*
X0179500Y0079100D01*
X0179500Y0074100D01*
X0182000Y0071600D01*
X0179500Y0069100D01*
X0179500Y0064100D01*
X0182000Y0061600D01*
X0179500Y0059100D01*
X0179500Y0054100D01*
X0182000Y0051600D01*
X0179500Y0049100D01*
X0179500Y0044100D01*
X0182000Y0041600D01*
X0179500Y0039100D01*
X0179500Y0034100D01*
X0182000Y0031600D01*
X0179500Y0029100D01*
X0179500Y0024100D01*
X0182000Y0021600D01*
X0179500Y0019100D01*
X0179500Y0014100D01*
X0182000Y0011600D01*
X0187000Y0011600D01*
X0189500Y0014100D01*
X0189500Y0019100D01*
X0187000Y0021600D01*
X0189500Y0024100D01*
X0237049Y0031600D02*
X0260081Y0036600D01*
X0260081Y0041600D01*
X0237049Y0046600D01*
X0237049Y0056600D02*
X0260081Y0061600D01*
X0260081Y0066600D01*
X0237049Y0071600D01*
M02*
