G75*
%MOIN*%
%OFA0B0*%
%FSLAX25Y25*%
%IPPOS*%
%LPD*%
%AMOC8*
5,1,8,0,0,1.08239X$1,22.5*
%
%ADD10C,0.13398*%
%ADD11R,0.02375X0.06706*%
%ADD12R,0.05524X0.05524*%
%ADD13R,0.05918X0.06706*%
%ADD14R,0.10249X0.10249*%
%ADD15R,0.10643X0.08674*%
%ADD16R,0.13792X0.08674*%
%ADD17R,0.13005X0.02769*%
%ADD18C,0.04343*%
%ADD19C,0.06540*%
%ADD20C,0.13855*%
%ADD21R,0.06800X0.06800*%
%ADD22C,0.06800*%
D10*
X0029428Y0022513D03*
X0214428Y0022513D03*
X0214428Y0102513D03*
X0029428Y0102513D03*
D11*
X0112795Y0076784D03*
X0115354Y0076784D03*
X0117913Y0076784D03*
X0120472Y0076784D03*
X0123031Y0076784D03*
X0125590Y0076784D03*
X0128149Y0076784D03*
X0130708Y0076784D03*
X0133267Y0076784D03*
X0135826Y0076784D03*
X0138385Y0076784D03*
X0140944Y0076784D03*
X0143503Y0076784D03*
X0146062Y0076784D03*
X0146062Y0048241D03*
X0143503Y0048241D03*
X0140944Y0048241D03*
X0138385Y0048241D03*
X0135826Y0048241D03*
X0133267Y0048241D03*
X0130708Y0048241D03*
X0128149Y0048241D03*
X0125590Y0048241D03*
X0123031Y0048241D03*
X0120472Y0048241D03*
X0117913Y0048241D03*
X0115354Y0048241D03*
X0112795Y0048241D03*
D12*
X0160295Y0047513D03*
X0168562Y0047513D03*
X0168562Y0077513D03*
X0160295Y0077513D03*
X0083562Y0097513D03*
X0075295Y0097513D03*
X0075295Y0027513D03*
X0083562Y0027513D03*
D13*
X0083169Y0037513D03*
X0075688Y0037513D03*
X0095688Y0037513D03*
X0103169Y0037513D03*
X0125688Y0037513D03*
X0133169Y0037513D03*
X0083169Y0047513D03*
X0075688Y0047513D03*
X0075688Y0077513D03*
X0083169Y0077513D03*
X0083169Y0087513D03*
X0075688Y0087513D03*
X0095688Y0087513D03*
X0103169Y0087513D03*
X0125688Y0087513D03*
X0133169Y0087513D03*
X0160688Y0067513D03*
X0168169Y0067513D03*
X0168169Y0057513D03*
X0160688Y0057513D03*
D14*
X0093090Y0062513D03*
X0075767Y0062513D03*
D15*
X0027617Y0080032D03*
X0027617Y0044993D03*
D16*
X0050846Y0044993D03*
X0050846Y0080032D03*
D17*
X0051239Y0068812D03*
X0051239Y0065662D03*
X0051239Y0062513D03*
X0051239Y0059363D03*
X0051239Y0056214D03*
D18*
X0039428Y0053851D03*
X0039428Y0071174D03*
D19*
X0227139Y0066450D02*
X0232879Y0066450D01*
X0232879Y0058576D02*
X0227139Y0058576D01*
X0227139Y0048733D02*
X0232879Y0048733D01*
X0232879Y0076292D02*
X0227139Y0076292D01*
D20*
X0240678Y0088379D03*
X0240678Y0036647D03*
D21*
X0199428Y0027513D03*
D22*
X0199428Y0037513D03*
X0199428Y0047513D03*
X0199428Y0057513D03*
X0199428Y0067513D03*
X0199428Y0077513D03*
X0199428Y0087513D03*
X0199428Y0097513D03*
M02*
