%
M48
M72
T01C0.01969
T02C0.03543
T03C0.03740
T04C0.04000
T05C0.11024
T06C0.12598
%
T01
X78250Y41600
X87000Y51600
X104500Y51600
X118250Y55350
X118339Y55439
X128250Y56600
X138250Y65350
X165750Y76600
X134500Y79100
X128250Y86600
X97000Y74100
X92000Y67850
X48250Y54100
X48250Y49100
X127000Y44100
X138250Y37850
X167000Y31600
X167000Y22850
X160750Y51600
T02
X24500Y42939
X24500Y60261
T03
X215081Y55537
X215081Y47663
X215081Y37820
X215081Y65380
T04
X184500Y66600
X184500Y56600
X184500Y46600
X184500Y36600
X184500Y26600
X184500Y16600
X184500Y76600
X184500Y86600
T05
X225750Y77466
X225750Y25734
T06
X14500Y11600
X199500Y11600
X199500Y91600
X14500Y91600
M30
