G75*
%MOIN*%
%OFA0B0*%
%FSLAX25Y25*%
%IPPOS*%
%LPD*%
%AMOC8*
5,1,8,0,0,1.08239X$1,22.5*
%
%ADD10C,0.01000*%
%ADD11C,0.00000*%
%ADD12R,0.01575X0.05906*%
%ADD13R,0.04724X0.04724*%
%ADD14R,0.05118X0.05906*%
%ADD15R,0.09449X0.09449*%
%ADD16R,0.09843X0.07874*%
%ADD17R,0.12992X0.07874*%
%ADD18R,0.12205X0.01969*%
%ADD19OC8,0.05740*%
%ADD20C,0.15024*%
%ADD21OC8,0.06000*%
%ADD22C,0.03569*%
%ADD23C,0.01200*%
%ADD24C,0.01600*%
%ADD25C,0.03200*%
D10*
X0009500Y0001600D02*
X0234500Y0001600D01*
X0234640Y0001602D01*
X0234780Y0001608D01*
X0234920Y0001618D01*
X0235060Y0001631D01*
X0235199Y0001649D01*
X0235338Y0001671D01*
X0235475Y0001696D01*
X0235613Y0001725D01*
X0235749Y0001758D01*
X0235884Y0001795D01*
X0236018Y0001836D01*
X0236151Y0001881D01*
X0236283Y0001929D01*
X0236413Y0001981D01*
X0236542Y0002036D01*
X0236669Y0002095D01*
X0236795Y0002158D01*
X0236919Y0002224D01*
X0237040Y0002293D01*
X0237160Y0002366D01*
X0237278Y0002443D01*
X0237393Y0002522D01*
X0237507Y0002605D01*
X0237617Y0002691D01*
X0237726Y0002780D01*
X0237832Y0002872D01*
X0237935Y0002967D01*
X0238036Y0003064D01*
X0238133Y0003165D01*
X0238228Y0003268D01*
X0238320Y0003374D01*
X0238409Y0003483D01*
X0238495Y0003593D01*
X0238578Y0003707D01*
X0238657Y0003822D01*
X0238734Y0003940D01*
X0238807Y0004060D01*
X0238876Y0004181D01*
X0238942Y0004305D01*
X0239005Y0004431D01*
X0239064Y0004558D01*
X0239119Y0004687D01*
X0239171Y0004817D01*
X0239219Y0004949D01*
X0239264Y0005082D01*
X0239305Y0005216D01*
X0239342Y0005351D01*
X0239375Y0005487D01*
X0239404Y0005625D01*
X0239429Y0005762D01*
X0239451Y0005901D01*
X0239469Y0006040D01*
X0239482Y0006180D01*
X0239492Y0006320D01*
X0239498Y0006460D01*
X0239500Y0006600D01*
X0239500Y0096600D01*
X0239498Y0096740D01*
X0239492Y0096880D01*
X0239482Y0097020D01*
X0239469Y0097160D01*
X0239451Y0097299D01*
X0239429Y0097438D01*
X0239404Y0097575D01*
X0239375Y0097713D01*
X0239342Y0097849D01*
X0239305Y0097984D01*
X0239264Y0098118D01*
X0239219Y0098251D01*
X0239171Y0098383D01*
X0239119Y0098513D01*
X0239064Y0098642D01*
X0239005Y0098769D01*
X0238942Y0098895D01*
X0238876Y0099019D01*
X0238807Y0099140D01*
X0238734Y0099260D01*
X0238657Y0099378D01*
X0238578Y0099493D01*
X0238495Y0099607D01*
X0238409Y0099717D01*
X0238320Y0099826D01*
X0238228Y0099932D01*
X0238133Y0100035D01*
X0238036Y0100136D01*
X0237935Y0100233D01*
X0237832Y0100328D01*
X0237726Y0100420D01*
X0237617Y0100509D01*
X0237507Y0100595D01*
X0237393Y0100678D01*
X0237278Y0100757D01*
X0237160Y0100834D01*
X0237040Y0100907D01*
X0236919Y0100976D01*
X0236795Y0101042D01*
X0236669Y0101105D01*
X0236542Y0101164D01*
X0236413Y0101219D01*
X0236283Y0101271D01*
X0236151Y0101319D01*
X0236018Y0101364D01*
X0235884Y0101405D01*
X0235749Y0101442D01*
X0235613Y0101475D01*
X0235475Y0101504D01*
X0235338Y0101529D01*
X0235199Y0101551D01*
X0235060Y0101569D01*
X0234920Y0101582D01*
X0234780Y0101592D01*
X0234640Y0101598D01*
X0234500Y0101600D01*
X0009500Y0101600D01*
X0009360Y0101598D01*
X0009220Y0101592D01*
X0009080Y0101582D01*
X0008940Y0101569D01*
X0008801Y0101551D01*
X0008662Y0101529D01*
X0008525Y0101504D01*
X0008387Y0101475D01*
X0008251Y0101442D01*
X0008116Y0101405D01*
X0007982Y0101364D01*
X0007849Y0101319D01*
X0007717Y0101271D01*
X0007587Y0101219D01*
X0007458Y0101164D01*
X0007331Y0101105D01*
X0007205Y0101042D01*
X0007081Y0100976D01*
X0006960Y0100907D01*
X0006840Y0100834D01*
X0006722Y0100757D01*
X0006607Y0100678D01*
X0006493Y0100595D01*
X0006383Y0100509D01*
X0006274Y0100420D01*
X0006168Y0100328D01*
X0006065Y0100233D01*
X0005964Y0100136D01*
X0005867Y0100035D01*
X0005772Y0099932D01*
X0005680Y0099826D01*
X0005591Y0099717D01*
X0005505Y0099607D01*
X0005422Y0099493D01*
X0005343Y0099378D01*
X0005266Y0099260D01*
X0005193Y0099140D01*
X0005124Y0099019D01*
X0005058Y0098895D01*
X0004995Y0098769D01*
X0004936Y0098642D01*
X0004881Y0098513D01*
X0004829Y0098383D01*
X0004781Y0098251D01*
X0004736Y0098118D01*
X0004695Y0097984D01*
X0004658Y0097849D01*
X0004625Y0097713D01*
X0004596Y0097575D01*
X0004571Y0097438D01*
X0004549Y0097299D01*
X0004531Y0097160D01*
X0004518Y0097020D01*
X0004508Y0096880D01*
X0004502Y0096740D01*
X0004500Y0096600D01*
X0004500Y0006600D01*
X0004502Y0006460D01*
X0004508Y0006320D01*
X0004518Y0006180D01*
X0004531Y0006040D01*
X0004549Y0005901D01*
X0004571Y0005762D01*
X0004596Y0005625D01*
X0004625Y0005487D01*
X0004658Y0005351D01*
X0004695Y0005216D01*
X0004736Y0005082D01*
X0004781Y0004949D01*
X0004829Y0004817D01*
X0004881Y0004687D01*
X0004936Y0004558D01*
X0004995Y0004431D01*
X0005058Y0004305D01*
X0005124Y0004181D01*
X0005193Y0004060D01*
X0005266Y0003940D01*
X0005343Y0003822D01*
X0005422Y0003707D01*
X0005505Y0003593D01*
X0005591Y0003483D01*
X0005680Y0003374D01*
X0005772Y0003268D01*
X0005867Y0003165D01*
X0005964Y0003064D01*
X0006065Y0002967D01*
X0006168Y0002872D01*
X0006274Y0002780D01*
X0006383Y0002691D01*
X0006493Y0002605D01*
X0006607Y0002522D01*
X0006722Y0002443D01*
X0006840Y0002366D01*
X0006960Y0002293D01*
X0007081Y0002224D01*
X0007205Y0002158D01*
X0007331Y0002095D01*
X0007458Y0002036D01*
X0007587Y0001981D01*
X0007717Y0001929D01*
X0007849Y0001881D01*
X0007982Y0001836D01*
X0008116Y0001795D01*
X0008251Y0001758D01*
X0008387Y0001725D01*
X0008525Y0001696D01*
X0008662Y0001671D01*
X0008801Y0001649D01*
X0008940Y0001631D01*
X0009080Y0001618D01*
X0009220Y0001608D01*
X0009360Y0001602D01*
X0009500Y0001600D01*
D11*
X0008201Y0011600D02*
X0008203Y0011758D01*
X0008209Y0011916D01*
X0008219Y0012074D01*
X0008233Y0012232D01*
X0008251Y0012389D01*
X0008272Y0012546D01*
X0008298Y0012702D01*
X0008328Y0012858D01*
X0008361Y0013013D01*
X0008399Y0013166D01*
X0008440Y0013319D01*
X0008485Y0013471D01*
X0008534Y0013622D01*
X0008587Y0013771D01*
X0008643Y0013919D01*
X0008703Y0014065D01*
X0008767Y0014210D01*
X0008835Y0014353D01*
X0008906Y0014495D01*
X0008980Y0014635D01*
X0009058Y0014772D01*
X0009140Y0014908D01*
X0009224Y0015042D01*
X0009313Y0015173D01*
X0009404Y0015302D01*
X0009499Y0015429D01*
X0009596Y0015554D01*
X0009697Y0015676D01*
X0009801Y0015795D01*
X0009908Y0015912D01*
X0010018Y0016026D01*
X0010131Y0016137D01*
X0010246Y0016246D01*
X0010364Y0016351D01*
X0010485Y0016453D01*
X0010608Y0016553D01*
X0010734Y0016649D01*
X0010862Y0016742D01*
X0010992Y0016832D01*
X0011125Y0016918D01*
X0011260Y0017002D01*
X0011396Y0017081D01*
X0011535Y0017158D01*
X0011676Y0017230D01*
X0011818Y0017300D01*
X0011962Y0017365D01*
X0012108Y0017427D01*
X0012255Y0017485D01*
X0012404Y0017540D01*
X0012554Y0017591D01*
X0012705Y0017638D01*
X0012857Y0017681D01*
X0013010Y0017720D01*
X0013165Y0017756D01*
X0013320Y0017787D01*
X0013476Y0017815D01*
X0013632Y0017839D01*
X0013789Y0017859D01*
X0013947Y0017875D01*
X0014104Y0017887D01*
X0014263Y0017895D01*
X0014421Y0017899D01*
X0014579Y0017899D01*
X0014737Y0017895D01*
X0014896Y0017887D01*
X0015053Y0017875D01*
X0015211Y0017859D01*
X0015368Y0017839D01*
X0015524Y0017815D01*
X0015680Y0017787D01*
X0015835Y0017756D01*
X0015990Y0017720D01*
X0016143Y0017681D01*
X0016295Y0017638D01*
X0016446Y0017591D01*
X0016596Y0017540D01*
X0016745Y0017485D01*
X0016892Y0017427D01*
X0017038Y0017365D01*
X0017182Y0017300D01*
X0017324Y0017230D01*
X0017465Y0017158D01*
X0017604Y0017081D01*
X0017740Y0017002D01*
X0017875Y0016918D01*
X0018008Y0016832D01*
X0018138Y0016742D01*
X0018266Y0016649D01*
X0018392Y0016553D01*
X0018515Y0016453D01*
X0018636Y0016351D01*
X0018754Y0016246D01*
X0018869Y0016137D01*
X0018982Y0016026D01*
X0019092Y0015912D01*
X0019199Y0015795D01*
X0019303Y0015676D01*
X0019404Y0015554D01*
X0019501Y0015429D01*
X0019596Y0015302D01*
X0019687Y0015173D01*
X0019776Y0015042D01*
X0019860Y0014908D01*
X0019942Y0014772D01*
X0020020Y0014635D01*
X0020094Y0014495D01*
X0020165Y0014353D01*
X0020233Y0014210D01*
X0020297Y0014065D01*
X0020357Y0013919D01*
X0020413Y0013771D01*
X0020466Y0013622D01*
X0020515Y0013471D01*
X0020560Y0013319D01*
X0020601Y0013166D01*
X0020639Y0013013D01*
X0020672Y0012858D01*
X0020702Y0012702D01*
X0020728Y0012546D01*
X0020749Y0012389D01*
X0020767Y0012232D01*
X0020781Y0012074D01*
X0020791Y0011916D01*
X0020797Y0011758D01*
X0020799Y0011600D01*
X0020797Y0011442D01*
X0020791Y0011284D01*
X0020781Y0011126D01*
X0020767Y0010968D01*
X0020749Y0010811D01*
X0020728Y0010654D01*
X0020702Y0010498D01*
X0020672Y0010342D01*
X0020639Y0010187D01*
X0020601Y0010034D01*
X0020560Y0009881D01*
X0020515Y0009729D01*
X0020466Y0009578D01*
X0020413Y0009429D01*
X0020357Y0009281D01*
X0020297Y0009135D01*
X0020233Y0008990D01*
X0020165Y0008847D01*
X0020094Y0008705D01*
X0020020Y0008565D01*
X0019942Y0008428D01*
X0019860Y0008292D01*
X0019776Y0008158D01*
X0019687Y0008027D01*
X0019596Y0007898D01*
X0019501Y0007771D01*
X0019404Y0007646D01*
X0019303Y0007524D01*
X0019199Y0007405D01*
X0019092Y0007288D01*
X0018982Y0007174D01*
X0018869Y0007063D01*
X0018754Y0006954D01*
X0018636Y0006849D01*
X0018515Y0006747D01*
X0018392Y0006647D01*
X0018266Y0006551D01*
X0018138Y0006458D01*
X0018008Y0006368D01*
X0017875Y0006282D01*
X0017740Y0006198D01*
X0017604Y0006119D01*
X0017465Y0006042D01*
X0017324Y0005970D01*
X0017182Y0005900D01*
X0017038Y0005835D01*
X0016892Y0005773D01*
X0016745Y0005715D01*
X0016596Y0005660D01*
X0016446Y0005609D01*
X0016295Y0005562D01*
X0016143Y0005519D01*
X0015990Y0005480D01*
X0015835Y0005444D01*
X0015680Y0005413D01*
X0015524Y0005385D01*
X0015368Y0005361D01*
X0015211Y0005341D01*
X0015053Y0005325D01*
X0014896Y0005313D01*
X0014737Y0005305D01*
X0014579Y0005301D01*
X0014421Y0005301D01*
X0014263Y0005305D01*
X0014104Y0005313D01*
X0013947Y0005325D01*
X0013789Y0005341D01*
X0013632Y0005361D01*
X0013476Y0005385D01*
X0013320Y0005413D01*
X0013165Y0005444D01*
X0013010Y0005480D01*
X0012857Y0005519D01*
X0012705Y0005562D01*
X0012554Y0005609D01*
X0012404Y0005660D01*
X0012255Y0005715D01*
X0012108Y0005773D01*
X0011962Y0005835D01*
X0011818Y0005900D01*
X0011676Y0005970D01*
X0011535Y0006042D01*
X0011396Y0006119D01*
X0011260Y0006198D01*
X0011125Y0006282D01*
X0010992Y0006368D01*
X0010862Y0006458D01*
X0010734Y0006551D01*
X0010608Y0006647D01*
X0010485Y0006747D01*
X0010364Y0006849D01*
X0010246Y0006954D01*
X0010131Y0007063D01*
X0010018Y0007174D01*
X0009908Y0007288D01*
X0009801Y0007405D01*
X0009697Y0007524D01*
X0009596Y0007646D01*
X0009499Y0007771D01*
X0009404Y0007898D01*
X0009313Y0008027D01*
X0009224Y0008158D01*
X0009140Y0008292D01*
X0009058Y0008428D01*
X0008980Y0008565D01*
X0008906Y0008705D01*
X0008835Y0008847D01*
X0008767Y0008990D01*
X0008703Y0009135D01*
X0008643Y0009281D01*
X0008587Y0009429D01*
X0008534Y0009578D01*
X0008485Y0009729D01*
X0008440Y0009881D01*
X0008399Y0010034D01*
X0008361Y0010187D01*
X0008328Y0010342D01*
X0008298Y0010498D01*
X0008272Y0010654D01*
X0008251Y0010811D01*
X0008233Y0010968D01*
X0008219Y0011126D01*
X0008209Y0011284D01*
X0008203Y0011442D01*
X0008201Y0011600D01*
X0022728Y0042939D02*
X0022730Y0043023D01*
X0022736Y0043106D01*
X0022746Y0043189D01*
X0022760Y0043272D01*
X0022777Y0043354D01*
X0022799Y0043435D01*
X0022824Y0043514D01*
X0022853Y0043593D01*
X0022886Y0043670D01*
X0022922Y0043745D01*
X0022962Y0043819D01*
X0023005Y0043891D01*
X0023052Y0043960D01*
X0023102Y0044027D01*
X0023155Y0044092D01*
X0023211Y0044154D01*
X0023269Y0044214D01*
X0023331Y0044271D01*
X0023395Y0044324D01*
X0023462Y0044375D01*
X0023531Y0044422D01*
X0023602Y0044467D01*
X0023675Y0044507D01*
X0023750Y0044544D01*
X0023827Y0044578D01*
X0023905Y0044608D01*
X0023984Y0044634D01*
X0024065Y0044657D01*
X0024147Y0044675D01*
X0024229Y0044690D01*
X0024312Y0044701D01*
X0024395Y0044708D01*
X0024479Y0044711D01*
X0024563Y0044710D01*
X0024646Y0044705D01*
X0024730Y0044696D01*
X0024812Y0044683D01*
X0024894Y0044667D01*
X0024975Y0044646D01*
X0025056Y0044622D01*
X0025134Y0044594D01*
X0025212Y0044562D01*
X0025288Y0044526D01*
X0025362Y0044487D01*
X0025434Y0044445D01*
X0025504Y0044399D01*
X0025572Y0044350D01*
X0025637Y0044298D01*
X0025700Y0044243D01*
X0025760Y0044185D01*
X0025818Y0044124D01*
X0025872Y0044060D01*
X0025924Y0043994D01*
X0025972Y0043926D01*
X0026017Y0043855D01*
X0026058Y0043782D01*
X0026097Y0043708D01*
X0026131Y0043632D01*
X0026162Y0043554D01*
X0026189Y0043475D01*
X0026213Y0043394D01*
X0026232Y0043313D01*
X0026248Y0043231D01*
X0026260Y0043148D01*
X0026268Y0043064D01*
X0026272Y0042981D01*
X0026272Y0042897D01*
X0026268Y0042814D01*
X0026260Y0042730D01*
X0026248Y0042647D01*
X0026232Y0042565D01*
X0026213Y0042484D01*
X0026189Y0042403D01*
X0026162Y0042324D01*
X0026131Y0042246D01*
X0026097Y0042170D01*
X0026058Y0042096D01*
X0026017Y0042023D01*
X0025972Y0041952D01*
X0025924Y0041884D01*
X0025872Y0041818D01*
X0025818Y0041754D01*
X0025760Y0041693D01*
X0025700Y0041635D01*
X0025637Y0041580D01*
X0025572Y0041528D01*
X0025504Y0041479D01*
X0025434Y0041433D01*
X0025362Y0041391D01*
X0025288Y0041352D01*
X0025212Y0041316D01*
X0025134Y0041284D01*
X0025056Y0041256D01*
X0024975Y0041232D01*
X0024894Y0041211D01*
X0024812Y0041195D01*
X0024730Y0041182D01*
X0024646Y0041173D01*
X0024563Y0041168D01*
X0024479Y0041167D01*
X0024395Y0041170D01*
X0024312Y0041177D01*
X0024229Y0041188D01*
X0024147Y0041203D01*
X0024065Y0041221D01*
X0023984Y0041244D01*
X0023905Y0041270D01*
X0023827Y0041300D01*
X0023750Y0041334D01*
X0023675Y0041371D01*
X0023602Y0041411D01*
X0023531Y0041456D01*
X0023462Y0041503D01*
X0023395Y0041554D01*
X0023331Y0041607D01*
X0023269Y0041664D01*
X0023211Y0041724D01*
X0023155Y0041786D01*
X0023102Y0041851D01*
X0023052Y0041918D01*
X0023005Y0041987D01*
X0022962Y0042059D01*
X0022922Y0042133D01*
X0022886Y0042208D01*
X0022853Y0042285D01*
X0022824Y0042364D01*
X0022799Y0042443D01*
X0022777Y0042524D01*
X0022760Y0042606D01*
X0022746Y0042689D01*
X0022736Y0042772D01*
X0022730Y0042855D01*
X0022728Y0042939D01*
X0022728Y0060261D02*
X0022730Y0060345D01*
X0022736Y0060428D01*
X0022746Y0060511D01*
X0022760Y0060594D01*
X0022777Y0060676D01*
X0022799Y0060757D01*
X0022824Y0060836D01*
X0022853Y0060915D01*
X0022886Y0060992D01*
X0022922Y0061067D01*
X0022962Y0061141D01*
X0023005Y0061213D01*
X0023052Y0061282D01*
X0023102Y0061349D01*
X0023155Y0061414D01*
X0023211Y0061476D01*
X0023269Y0061536D01*
X0023331Y0061593D01*
X0023395Y0061646D01*
X0023462Y0061697D01*
X0023531Y0061744D01*
X0023602Y0061789D01*
X0023675Y0061829D01*
X0023750Y0061866D01*
X0023827Y0061900D01*
X0023905Y0061930D01*
X0023984Y0061956D01*
X0024065Y0061979D01*
X0024147Y0061997D01*
X0024229Y0062012D01*
X0024312Y0062023D01*
X0024395Y0062030D01*
X0024479Y0062033D01*
X0024563Y0062032D01*
X0024646Y0062027D01*
X0024730Y0062018D01*
X0024812Y0062005D01*
X0024894Y0061989D01*
X0024975Y0061968D01*
X0025056Y0061944D01*
X0025134Y0061916D01*
X0025212Y0061884D01*
X0025288Y0061848D01*
X0025362Y0061809D01*
X0025434Y0061767D01*
X0025504Y0061721D01*
X0025572Y0061672D01*
X0025637Y0061620D01*
X0025700Y0061565D01*
X0025760Y0061507D01*
X0025818Y0061446D01*
X0025872Y0061382D01*
X0025924Y0061316D01*
X0025972Y0061248D01*
X0026017Y0061177D01*
X0026058Y0061104D01*
X0026097Y0061030D01*
X0026131Y0060954D01*
X0026162Y0060876D01*
X0026189Y0060797D01*
X0026213Y0060716D01*
X0026232Y0060635D01*
X0026248Y0060553D01*
X0026260Y0060470D01*
X0026268Y0060386D01*
X0026272Y0060303D01*
X0026272Y0060219D01*
X0026268Y0060136D01*
X0026260Y0060052D01*
X0026248Y0059969D01*
X0026232Y0059887D01*
X0026213Y0059806D01*
X0026189Y0059725D01*
X0026162Y0059646D01*
X0026131Y0059568D01*
X0026097Y0059492D01*
X0026058Y0059418D01*
X0026017Y0059345D01*
X0025972Y0059274D01*
X0025924Y0059206D01*
X0025872Y0059140D01*
X0025818Y0059076D01*
X0025760Y0059015D01*
X0025700Y0058957D01*
X0025637Y0058902D01*
X0025572Y0058850D01*
X0025504Y0058801D01*
X0025434Y0058755D01*
X0025362Y0058713D01*
X0025288Y0058674D01*
X0025212Y0058638D01*
X0025134Y0058606D01*
X0025056Y0058578D01*
X0024975Y0058554D01*
X0024894Y0058533D01*
X0024812Y0058517D01*
X0024730Y0058504D01*
X0024646Y0058495D01*
X0024563Y0058490D01*
X0024479Y0058489D01*
X0024395Y0058492D01*
X0024312Y0058499D01*
X0024229Y0058510D01*
X0024147Y0058525D01*
X0024065Y0058543D01*
X0023984Y0058566D01*
X0023905Y0058592D01*
X0023827Y0058622D01*
X0023750Y0058656D01*
X0023675Y0058693D01*
X0023602Y0058733D01*
X0023531Y0058778D01*
X0023462Y0058825D01*
X0023395Y0058876D01*
X0023331Y0058929D01*
X0023269Y0058986D01*
X0023211Y0059046D01*
X0023155Y0059108D01*
X0023102Y0059173D01*
X0023052Y0059240D01*
X0023005Y0059309D01*
X0022962Y0059381D01*
X0022922Y0059455D01*
X0022886Y0059530D01*
X0022853Y0059607D01*
X0022824Y0059686D01*
X0022799Y0059765D01*
X0022777Y0059846D01*
X0022760Y0059928D01*
X0022746Y0060011D01*
X0022736Y0060094D01*
X0022730Y0060177D01*
X0022728Y0060261D01*
X0008201Y0091600D02*
X0008203Y0091758D01*
X0008209Y0091916D01*
X0008219Y0092074D01*
X0008233Y0092232D01*
X0008251Y0092389D01*
X0008272Y0092546D01*
X0008298Y0092702D01*
X0008328Y0092858D01*
X0008361Y0093013D01*
X0008399Y0093166D01*
X0008440Y0093319D01*
X0008485Y0093471D01*
X0008534Y0093622D01*
X0008587Y0093771D01*
X0008643Y0093919D01*
X0008703Y0094065D01*
X0008767Y0094210D01*
X0008835Y0094353D01*
X0008906Y0094495D01*
X0008980Y0094635D01*
X0009058Y0094772D01*
X0009140Y0094908D01*
X0009224Y0095042D01*
X0009313Y0095173D01*
X0009404Y0095302D01*
X0009499Y0095429D01*
X0009596Y0095554D01*
X0009697Y0095676D01*
X0009801Y0095795D01*
X0009908Y0095912D01*
X0010018Y0096026D01*
X0010131Y0096137D01*
X0010246Y0096246D01*
X0010364Y0096351D01*
X0010485Y0096453D01*
X0010608Y0096553D01*
X0010734Y0096649D01*
X0010862Y0096742D01*
X0010992Y0096832D01*
X0011125Y0096918D01*
X0011260Y0097002D01*
X0011396Y0097081D01*
X0011535Y0097158D01*
X0011676Y0097230D01*
X0011818Y0097300D01*
X0011962Y0097365D01*
X0012108Y0097427D01*
X0012255Y0097485D01*
X0012404Y0097540D01*
X0012554Y0097591D01*
X0012705Y0097638D01*
X0012857Y0097681D01*
X0013010Y0097720D01*
X0013165Y0097756D01*
X0013320Y0097787D01*
X0013476Y0097815D01*
X0013632Y0097839D01*
X0013789Y0097859D01*
X0013947Y0097875D01*
X0014104Y0097887D01*
X0014263Y0097895D01*
X0014421Y0097899D01*
X0014579Y0097899D01*
X0014737Y0097895D01*
X0014896Y0097887D01*
X0015053Y0097875D01*
X0015211Y0097859D01*
X0015368Y0097839D01*
X0015524Y0097815D01*
X0015680Y0097787D01*
X0015835Y0097756D01*
X0015990Y0097720D01*
X0016143Y0097681D01*
X0016295Y0097638D01*
X0016446Y0097591D01*
X0016596Y0097540D01*
X0016745Y0097485D01*
X0016892Y0097427D01*
X0017038Y0097365D01*
X0017182Y0097300D01*
X0017324Y0097230D01*
X0017465Y0097158D01*
X0017604Y0097081D01*
X0017740Y0097002D01*
X0017875Y0096918D01*
X0018008Y0096832D01*
X0018138Y0096742D01*
X0018266Y0096649D01*
X0018392Y0096553D01*
X0018515Y0096453D01*
X0018636Y0096351D01*
X0018754Y0096246D01*
X0018869Y0096137D01*
X0018982Y0096026D01*
X0019092Y0095912D01*
X0019199Y0095795D01*
X0019303Y0095676D01*
X0019404Y0095554D01*
X0019501Y0095429D01*
X0019596Y0095302D01*
X0019687Y0095173D01*
X0019776Y0095042D01*
X0019860Y0094908D01*
X0019942Y0094772D01*
X0020020Y0094635D01*
X0020094Y0094495D01*
X0020165Y0094353D01*
X0020233Y0094210D01*
X0020297Y0094065D01*
X0020357Y0093919D01*
X0020413Y0093771D01*
X0020466Y0093622D01*
X0020515Y0093471D01*
X0020560Y0093319D01*
X0020601Y0093166D01*
X0020639Y0093013D01*
X0020672Y0092858D01*
X0020702Y0092702D01*
X0020728Y0092546D01*
X0020749Y0092389D01*
X0020767Y0092232D01*
X0020781Y0092074D01*
X0020791Y0091916D01*
X0020797Y0091758D01*
X0020799Y0091600D01*
X0020797Y0091442D01*
X0020791Y0091284D01*
X0020781Y0091126D01*
X0020767Y0090968D01*
X0020749Y0090811D01*
X0020728Y0090654D01*
X0020702Y0090498D01*
X0020672Y0090342D01*
X0020639Y0090187D01*
X0020601Y0090034D01*
X0020560Y0089881D01*
X0020515Y0089729D01*
X0020466Y0089578D01*
X0020413Y0089429D01*
X0020357Y0089281D01*
X0020297Y0089135D01*
X0020233Y0088990D01*
X0020165Y0088847D01*
X0020094Y0088705D01*
X0020020Y0088565D01*
X0019942Y0088428D01*
X0019860Y0088292D01*
X0019776Y0088158D01*
X0019687Y0088027D01*
X0019596Y0087898D01*
X0019501Y0087771D01*
X0019404Y0087646D01*
X0019303Y0087524D01*
X0019199Y0087405D01*
X0019092Y0087288D01*
X0018982Y0087174D01*
X0018869Y0087063D01*
X0018754Y0086954D01*
X0018636Y0086849D01*
X0018515Y0086747D01*
X0018392Y0086647D01*
X0018266Y0086551D01*
X0018138Y0086458D01*
X0018008Y0086368D01*
X0017875Y0086282D01*
X0017740Y0086198D01*
X0017604Y0086119D01*
X0017465Y0086042D01*
X0017324Y0085970D01*
X0017182Y0085900D01*
X0017038Y0085835D01*
X0016892Y0085773D01*
X0016745Y0085715D01*
X0016596Y0085660D01*
X0016446Y0085609D01*
X0016295Y0085562D01*
X0016143Y0085519D01*
X0015990Y0085480D01*
X0015835Y0085444D01*
X0015680Y0085413D01*
X0015524Y0085385D01*
X0015368Y0085361D01*
X0015211Y0085341D01*
X0015053Y0085325D01*
X0014896Y0085313D01*
X0014737Y0085305D01*
X0014579Y0085301D01*
X0014421Y0085301D01*
X0014263Y0085305D01*
X0014104Y0085313D01*
X0013947Y0085325D01*
X0013789Y0085341D01*
X0013632Y0085361D01*
X0013476Y0085385D01*
X0013320Y0085413D01*
X0013165Y0085444D01*
X0013010Y0085480D01*
X0012857Y0085519D01*
X0012705Y0085562D01*
X0012554Y0085609D01*
X0012404Y0085660D01*
X0012255Y0085715D01*
X0012108Y0085773D01*
X0011962Y0085835D01*
X0011818Y0085900D01*
X0011676Y0085970D01*
X0011535Y0086042D01*
X0011396Y0086119D01*
X0011260Y0086198D01*
X0011125Y0086282D01*
X0010992Y0086368D01*
X0010862Y0086458D01*
X0010734Y0086551D01*
X0010608Y0086647D01*
X0010485Y0086747D01*
X0010364Y0086849D01*
X0010246Y0086954D01*
X0010131Y0087063D01*
X0010018Y0087174D01*
X0009908Y0087288D01*
X0009801Y0087405D01*
X0009697Y0087524D01*
X0009596Y0087646D01*
X0009499Y0087771D01*
X0009404Y0087898D01*
X0009313Y0088027D01*
X0009224Y0088158D01*
X0009140Y0088292D01*
X0009058Y0088428D01*
X0008980Y0088565D01*
X0008906Y0088705D01*
X0008835Y0088847D01*
X0008767Y0088990D01*
X0008703Y0089135D01*
X0008643Y0089281D01*
X0008587Y0089429D01*
X0008534Y0089578D01*
X0008485Y0089729D01*
X0008440Y0089881D01*
X0008399Y0090034D01*
X0008361Y0090187D01*
X0008328Y0090342D01*
X0008298Y0090498D01*
X0008272Y0090654D01*
X0008251Y0090811D01*
X0008233Y0090968D01*
X0008219Y0091126D01*
X0008209Y0091284D01*
X0008203Y0091442D01*
X0008201Y0091600D01*
X0193201Y0091600D02*
X0193203Y0091758D01*
X0193209Y0091916D01*
X0193219Y0092074D01*
X0193233Y0092232D01*
X0193251Y0092389D01*
X0193272Y0092546D01*
X0193298Y0092702D01*
X0193328Y0092858D01*
X0193361Y0093013D01*
X0193399Y0093166D01*
X0193440Y0093319D01*
X0193485Y0093471D01*
X0193534Y0093622D01*
X0193587Y0093771D01*
X0193643Y0093919D01*
X0193703Y0094065D01*
X0193767Y0094210D01*
X0193835Y0094353D01*
X0193906Y0094495D01*
X0193980Y0094635D01*
X0194058Y0094772D01*
X0194140Y0094908D01*
X0194224Y0095042D01*
X0194313Y0095173D01*
X0194404Y0095302D01*
X0194499Y0095429D01*
X0194596Y0095554D01*
X0194697Y0095676D01*
X0194801Y0095795D01*
X0194908Y0095912D01*
X0195018Y0096026D01*
X0195131Y0096137D01*
X0195246Y0096246D01*
X0195364Y0096351D01*
X0195485Y0096453D01*
X0195608Y0096553D01*
X0195734Y0096649D01*
X0195862Y0096742D01*
X0195992Y0096832D01*
X0196125Y0096918D01*
X0196260Y0097002D01*
X0196396Y0097081D01*
X0196535Y0097158D01*
X0196676Y0097230D01*
X0196818Y0097300D01*
X0196962Y0097365D01*
X0197108Y0097427D01*
X0197255Y0097485D01*
X0197404Y0097540D01*
X0197554Y0097591D01*
X0197705Y0097638D01*
X0197857Y0097681D01*
X0198010Y0097720D01*
X0198165Y0097756D01*
X0198320Y0097787D01*
X0198476Y0097815D01*
X0198632Y0097839D01*
X0198789Y0097859D01*
X0198947Y0097875D01*
X0199104Y0097887D01*
X0199263Y0097895D01*
X0199421Y0097899D01*
X0199579Y0097899D01*
X0199737Y0097895D01*
X0199896Y0097887D01*
X0200053Y0097875D01*
X0200211Y0097859D01*
X0200368Y0097839D01*
X0200524Y0097815D01*
X0200680Y0097787D01*
X0200835Y0097756D01*
X0200990Y0097720D01*
X0201143Y0097681D01*
X0201295Y0097638D01*
X0201446Y0097591D01*
X0201596Y0097540D01*
X0201745Y0097485D01*
X0201892Y0097427D01*
X0202038Y0097365D01*
X0202182Y0097300D01*
X0202324Y0097230D01*
X0202465Y0097158D01*
X0202604Y0097081D01*
X0202740Y0097002D01*
X0202875Y0096918D01*
X0203008Y0096832D01*
X0203138Y0096742D01*
X0203266Y0096649D01*
X0203392Y0096553D01*
X0203515Y0096453D01*
X0203636Y0096351D01*
X0203754Y0096246D01*
X0203869Y0096137D01*
X0203982Y0096026D01*
X0204092Y0095912D01*
X0204199Y0095795D01*
X0204303Y0095676D01*
X0204404Y0095554D01*
X0204501Y0095429D01*
X0204596Y0095302D01*
X0204687Y0095173D01*
X0204776Y0095042D01*
X0204860Y0094908D01*
X0204942Y0094772D01*
X0205020Y0094635D01*
X0205094Y0094495D01*
X0205165Y0094353D01*
X0205233Y0094210D01*
X0205297Y0094065D01*
X0205357Y0093919D01*
X0205413Y0093771D01*
X0205466Y0093622D01*
X0205515Y0093471D01*
X0205560Y0093319D01*
X0205601Y0093166D01*
X0205639Y0093013D01*
X0205672Y0092858D01*
X0205702Y0092702D01*
X0205728Y0092546D01*
X0205749Y0092389D01*
X0205767Y0092232D01*
X0205781Y0092074D01*
X0205791Y0091916D01*
X0205797Y0091758D01*
X0205799Y0091600D01*
X0205797Y0091442D01*
X0205791Y0091284D01*
X0205781Y0091126D01*
X0205767Y0090968D01*
X0205749Y0090811D01*
X0205728Y0090654D01*
X0205702Y0090498D01*
X0205672Y0090342D01*
X0205639Y0090187D01*
X0205601Y0090034D01*
X0205560Y0089881D01*
X0205515Y0089729D01*
X0205466Y0089578D01*
X0205413Y0089429D01*
X0205357Y0089281D01*
X0205297Y0089135D01*
X0205233Y0088990D01*
X0205165Y0088847D01*
X0205094Y0088705D01*
X0205020Y0088565D01*
X0204942Y0088428D01*
X0204860Y0088292D01*
X0204776Y0088158D01*
X0204687Y0088027D01*
X0204596Y0087898D01*
X0204501Y0087771D01*
X0204404Y0087646D01*
X0204303Y0087524D01*
X0204199Y0087405D01*
X0204092Y0087288D01*
X0203982Y0087174D01*
X0203869Y0087063D01*
X0203754Y0086954D01*
X0203636Y0086849D01*
X0203515Y0086747D01*
X0203392Y0086647D01*
X0203266Y0086551D01*
X0203138Y0086458D01*
X0203008Y0086368D01*
X0202875Y0086282D01*
X0202740Y0086198D01*
X0202604Y0086119D01*
X0202465Y0086042D01*
X0202324Y0085970D01*
X0202182Y0085900D01*
X0202038Y0085835D01*
X0201892Y0085773D01*
X0201745Y0085715D01*
X0201596Y0085660D01*
X0201446Y0085609D01*
X0201295Y0085562D01*
X0201143Y0085519D01*
X0200990Y0085480D01*
X0200835Y0085444D01*
X0200680Y0085413D01*
X0200524Y0085385D01*
X0200368Y0085361D01*
X0200211Y0085341D01*
X0200053Y0085325D01*
X0199896Y0085313D01*
X0199737Y0085305D01*
X0199579Y0085301D01*
X0199421Y0085301D01*
X0199263Y0085305D01*
X0199104Y0085313D01*
X0198947Y0085325D01*
X0198789Y0085341D01*
X0198632Y0085361D01*
X0198476Y0085385D01*
X0198320Y0085413D01*
X0198165Y0085444D01*
X0198010Y0085480D01*
X0197857Y0085519D01*
X0197705Y0085562D01*
X0197554Y0085609D01*
X0197404Y0085660D01*
X0197255Y0085715D01*
X0197108Y0085773D01*
X0196962Y0085835D01*
X0196818Y0085900D01*
X0196676Y0085970D01*
X0196535Y0086042D01*
X0196396Y0086119D01*
X0196260Y0086198D01*
X0196125Y0086282D01*
X0195992Y0086368D01*
X0195862Y0086458D01*
X0195734Y0086551D01*
X0195608Y0086647D01*
X0195485Y0086747D01*
X0195364Y0086849D01*
X0195246Y0086954D01*
X0195131Y0087063D01*
X0195018Y0087174D01*
X0194908Y0087288D01*
X0194801Y0087405D01*
X0194697Y0087524D01*
X0194596Y0087646D01*
X0194499Y0087771D01*
X0194404Y0087898D01*
X0194313Y0088027D01*
X0194224Y0088158D01*
X0194140Y0088292D01*
X0194058Y0088428D01*
X0193980Y0088565D01*
X0193906Y0088705D01*
X0193835Y0088847D01*
X0193767Y0088990D01*
X0193703Y0089135D01*
X0193643Y0089281D01*
X0193587Y0089429D01*
X0193534Y0089578D01*
X0193485Y0089729D01*
X0193440Y0089881D01*
X0193399Y0090034D01*
X0193361Y0090187D01*
X0193328Y0090342D01*
X0193298Y0090498D01*
X0193272Y0090654D01*
X0193251Y0090811D01*
X0193233Y0090968D01*
X0193219Y0091126D01*
X0193209Y0091284D01*
X0193203Y0091442D01*
X0193201Y0091600D01*
X0193201Y0011600D02*
X0193203Y0011758D01*
X0193209Y0011916D01*
X0193219Y0012074D01*
X0193233Y0012232D01*
X0193251Y0012389D01*
X0193272Y0012546D01*
X0193298Y0012702D01*
X0193328Y0012858D01*
X0193361Y0013013D01*
X0193399Y0013166D01*
X0193440Y0013319D01*
X0193485Y0013471D01*
X0193534Y0013622D01*
X0193587Y0013771D01*
X0193643Y0013919D01*
X0193703Y0014065D01*
X0193767Y0014210D01*
X0193835Y0014353D01*
X0193906Y0014495D01*
X0193980Y0014635D01*
X0194058Y0014772D01*
X0194140Y0014908D01*
X0194224Y0015042D01*
X0194313Y0015173D01*
X0194404Y0015302D01*
X0194499Y0015429D01*
X0194596Y0015554D01*
X0194697Y0015676D01*
X0194801Y0015795D01*
X0194908Y0015912D01*
X0195018Y0016026D01*
X0195131Y0016137D01*
X0195246Y0016246D01*
X0195364Y0016351D01*
X0195485Y0016453D01*
X0195608Y0016553D01*
X0195734Y0016649D01*
X0195862Y0016742D01*
X0195992Y0016832D01*
X0196125Y0016918D01*
X0196260Y0017002D01*
X0196396Y0017081D01*
X0196535Y0017158D01*
X0196676Y0017230D01*
X0196818Y0017300D01*
X0196962Y0017365D01*
X0197108Y0017427D01*
X0197255Y0017485D01*
X0197404Y0017540D01*
X0197554Y0017591D01*
X0197705Y0017638D01*
X0197857Y0017681D01*
X0198010Y0017720D01*
X0198165Y0017756D01*
X0198320Y0017787D01*
X0198476Y0017815D01*
X0198632Y0017839D01*
X0198789Y0017859D01*
X0198947Y0017875D01*
X0199104Y0017887D01*
X0199263Y0017895D01*
X0199421Y0017899D01*
X0199579Y0017899D01*
X0199737Y0017895D01*
X0199896Y0017887D01*
X0200053Y0017875D01*
X0200211Y0017859D01*
X0200368Y0017839D01*
X0200524Y0017815D01*
X0200680Y0017787D01*
X0200835Y0017756D01*
X0200990Y0017720D01*
X0201143Y0017681D01*
X0201295Y0017638D01*
X0201446Y0017591D01*
X0201596Y0017540D01*
X0201745Y0017485D01*
X0201892Y0017427D01*
X0202038Y0017365D01*
X0202182Y0017300D01*
X0202324Y0017230D01*
X0202465Y0017158D01*
X0202604Y0017081D01*
X0202740Y0017002D01*
X0202875Y0016918D01*
X0203008Y0016832D01*
X0203138Y0016742D01*
X0203266Y0016649D01*
X0203392Y0016553D01*
X0203515Y0016453D01*
X0203636Y0016351D01*
X0203754Y0016246D01*
X0203869Y0016137D01*
X0203982Y0016026D01*
X0204092Y0015912D01*
X0204199Y0015795D01*
X0204303Y0015676D01*
X0204404Y0015554D01*
X0204501Y0015429D01*
X0204596Y0015302D01*
X0204687Y0015173D01*
X0204776Y0015042D01*
X0204860Y0014908D01*
X0204942Y0014772D01*
X0205020Y0014635D01*
X0205094Y0014495D01*
X0205165Y0014353D01*
X0205233Y0014210D01*
X0205297Y0014065D01*
X0205357Y0013919D01*
X0205413Y0013771D01*
X0205466Y0013622D01*
X0205515Y0013471D01*
X0205560Y0013319D01*
X0205601Y0013166D01*
X0205639Y0013013D01*
X0205672Y0012858D01*
X0205702Y0012702D01*
X0205728Y0012546D01*
X0205749Y0012389D01*
X0205767Y0012232D01*
X0205781Y0012074D01*
X0205791Y0011916D01*
X0205797Y0011758D01*
X0205799Y0011600D01*
X0205797Y0011442D01*
X0205791Y0011284D01*
X0205781Y0011126D01*
X0205767Y0010968D01*
X0205749Y0010811D01*
X0205728Y0010654D01*
X0205702Y0010498D01*
X0205672Y0010342D01*
X0205639Y0010187D01*
X0205601Y0010034D01*
X0205560Y0009881D01*
X0205515Y0009729D01*
X0205466Y0009578D01*
X0205413Y0009429D01*
X0205357Y0009281D01*
X0205297Y0009135D01*
X0205233Y0008990D01*
X0205165Y0008847D01*
X0205094Y0008705D01*
X0205020Y0008565D01*
X0204942Y0008428D01*
X0204860Y0008292D01*
X0204776Y0008158D01*
X0204687Y0008027D01*
X0204596Y0007898D01*
X0204501Y0007771D01*
X0204404Y0007646D01*
X0204303Y0007524D01*
X0204199Y0007405D01*
X0204092Y0007288D01*
X0203982Y0007174D01*
X0203869Y0007063D01*
X0203754Y0006954D01*
X0203636Y0006849D01*
X0203515Y0006747D01*
X0203392Y0006647D01*
X0203266Y0006551D01*
X0203138Y0006458D01*
X0203008Y0006368D01*
X0202875Y0006282D01*
X0202740Y0006198D01*
X0202604Y0006119D01*
X0202465Y0006042D01*
X0202324Y0005970D01*
X0202182Y0005900D01*
X0202038Y0005835D01*
X0201892Y0005773D01*
X0201745Y0005715D01*
X0201596Y0005660D01*
X0201446Y0005609D01*
X0201295Y0005562D01*
X0201143Y0005519D01*
X0200990Y0005480D01*
X0200835Y0005444D01*
X0200680Y0005413D01*
X0200524Y0005385D01*
X0200368Y0005361D01*
X0200211Y0005341D01*
X0200053Y0005325D01*
X0199896Y0005313D01*
X0199737Y0005305D01*
X0199579Y0005301D01*
X0199421Y0005301D01*
X0199263Y0005305D01*
X0199104Y0005313D01*
X0198947Y0005325D01*
X0198789Y0005341D01*
X0198632Y0005361D01*
X0198476Y0005385D01*
X0198320Y0005413D01*
X0198165Y0005444D01*
X0198010Y0005480D01*
X0197857Y0005519D01*
X0197705Y0005562D01*
X0197554Y0005609D01*
X0197404Y0005660D01*
X0197255Y0005715D01*
X0197108Y0005773D01*
X0196962Y0005835D01*
X0196818Y0005900D01*
X0196676Y0005970D01*
X0196535Y0006042D01*
X0196396Y0006119D01*
X0196260Y0006198D01*
X0196125Y0006282D01*
X0195992Y0006368D01*
X0195862Y0006458D01*
X0195734Y0006551D01*
X0195608Y0006647D01*
X0195485Y0006747D01*
X0195364Y0006849D01*
X0195246Y0006954D01*
X0195131Y0007063D01*
X0195018Y0007174D01*
X0194908Y0007288D01*
X0194801Y0007405D01*
X0194697Y0007524D01*
X0194596Y0007646D01*
X0194499Y0007771D01*
X0194404Y0007898D01*
X0194313Y0008027D01*
X0194224Y0008158D01*
X0194140Y0008292D01*
X0194058Y0008428D01*
X0193980Y0008565D01*
X0193906Y0008705D01*
X0193835Y0008847D01*
X0193767Y0008990D01*
X0193703Y0009135D01*
X0193643Y0009281D01*
X0193587Y0009429D01*
X0193534Y0009578D01*
X0193485Y0009729D01*
X0193440Y0009881D01*
X0193399Y0010034D01*
X0193361Y0010187D01*
X0193328Y0010342D01*
X0193298Y0010498D01*
X0193272Y0010654D01*
X0193251Y0010811D01*
X0193233Y0010968D01*
X0193219Y0011126D01*
X0193209Y0011284D01*
X0193203Y0011442D01*
X0193201Y0011600D01*
D12*
X0131134Y0037328D03*
X0128575Y0037328D03*
X0126016Y0037328D03*
X0123457Y0037328D03*
X0120898Y0037328D03*
X0118339Y0037328D03*
X0115780Y0037328D03*
X0113220Y0037328D03*
X0110661Y0037328D03*
X0108102Y0037328D03*
X0105543Y0037328D03*
X0102984Y0037328D03*
X0100425Y0037328D03*
X0097866Y0037328D03*
X0097866Y0065872D03*
X0100425Y0065872D03*
X0102984Y0065872D03*
X0105543Y0065872D03*
X0108102Y0065872D03*
X0110661Y0065872D03*
X0113220Y0065872D03*
X0115780Y0065872D03*
X0118339Y0065872D03*
X0120898Y0065872D03*
X0123457Y0065872D03*
X0126016Y0065872D03*
X0128575Y0065872D03*
X0131134Y0065872D03*
D13*
X0145366Y0066600D03*
X0153634Y0066600D03*
X0153634Y0036600D03*
X0145366Y0036600D03*
X0068634Y0016600D03*
X0060366Y0016600D03*
X0060366Y0086600D03*
X0068634Y0086600D03*
D14*
X0068240Y0076600D03*
X0060760Y0076600D03*
X0080760Y0076600D03*
X0088240Y0076600D03*
X0110760Y0076600D03*
X0118240Y0076600D03*
X0068240Y0066600D03*
X0060760Y0066600D03*
X0060760Y0037850D03*
X0068240Y0037850D03*
X0068240Y0026600D03*
X0060760Y0026600D03*
X0080760Y0026600D03*
X0088240Y0026600D03*
X0110760Y0026600D03*
X0118240Y0026600D03*
X0145760Y0046600D03*
X0153240Y0046600D03*
X0153240Y0056600D03*
X0145760Y0056600D03*
D15*
X0078161Y0051600D03*
X0060839Y0051600D03*
D16*
X0012689Y0034080D03*
X0012689Y0069120D03*
D17*
X0035917Y0069120D03*
X0035917Y0034080D03*
D18*
X0036311Y0045301D03*
X0036311Y0048450D03*
X0036311Y0051600D03*
X0036311Y0054750D03*
X0036311Y0057899D03*
D19*
X0215081Y0055537D03*
X0215081Y0047663D03*
X0215081Y0037820D03*
X0215081Y0065380D03*
D20*
X0225750Y0077466D03*
X0225750Y0025734D03*
D21*
X0184500Y0026600D03*
X0184500Y0016600D03*
X0184500Y0036600D03*
X0184500Y0046600D03*
X0184500Y0056600D03*
X0184500Y0066600D03*
X0184500Y0076600D03*
X0184500Y0086600D03*
D22*
X0165750Y0076600D03*
X0138250Y0065350D03*
X0128250Y0056600D03*
X0118339Y0055439D03*
X0118250Y0055350D03*
X0104500Y0051600D03*
X0087000Y0051600D03*
X0078250Y0041600D03*
X0048250Y0049100D03*
X0048250Y0054100D03*
X0092000Y0067850D03*
X0097000Y0074100D03*
X0128250Y0086600D03*
X0134500Y0079100D03*
X0160750Y0051600D03*
X0127000Y0044100D03*
X0138250Y0037850D03*
X0167000Y0031600D03*
X0167000Y0022850D03*
D23*
X0167000Y0021600D01*
X0165750Y0020350D01*
X0099500Y0020350D01*
X0097866Y0021984D01*
X0097866Y0037328D01*
X0081478Y0037328D01*
X0080750Y0036600D01*
X0080750Y0026610D01*
X0080760Y0026600D01*
X0076801Y0026769D02*
X0072199Y0026769D01*
X0072199Y0025570D02*
X0076801Y0025570D01*
X0076801Y0024372D02*
X0072199Y0024372D01*
X0072199Y0023173D02*
X0076801Y0023173D01*
X0076801Y0023067D02*
X0077621Y0022247D01*
X0083899Y0022247D01*
X0084500Y0022848D01*
X0085101Y0022247D01*
X0086240Y0022247D01*
X0086240Y0018281D01*
X0087500Y0017022D01*
X0088672Y0015850D01*
X0096172Y0015850D01*
X0096250Y0015772D01*
X0097422Y0014600D01*
X0170328Y0014600D01*
X0180303Y0024575D01*
X0182677Y0022200D01*
X0186323Y0022200D01*
X0188723Y0024600D01*
X0194846Y0024600D01*
X0213639Y0043393D01*
X0216849Y0043393D01*
X0219351Y0045894D01*
X0219351Y0049432D01*
X0217182Y0051600D01*
X0219351Y0053768D01*
X0219351Y0057306D01*
X0216849Y0059807D01*
X0213312Y0059807D01*
X0210811Y0057306D01*
X0210811Y0054095D01*
X0195315Y0038600D01*
X0188723Y0038600D01*
X0186323Y0041000D01*
X0182677Y0041000D01*
X0180100Y0038423D01*
X0180100Y0035028D01*
X0173672Y0028600D01*
X0168078Y0028600D01*
X0168804Y0028901D01*
X0169699Y0029796D01*
X0170184Y0030967D01*
X0170184Y0032233D01*
X0169699Y0033404D01*
X0169000Y0034103D01*
X0169000Y0035772D01*
X0174078Y0040850D01*
X0175250Y0042022D01*
X0175250Y0084522D01*
X0175328Y0084600D01*
X0180277Y0084600D01*
X0182677Y0082200D01*
X0186323Y0082200D01*
X0188900Y0084777D01*
X0188900Y0088423D01*
X0186323Y0091000D01*
X0182677Y0091000D01*
X0180277Y0088600D01*
X0173672Y0088600D01*
X0172500Y0087428D01*
X0171250Y0086178D01*
X0171250Y0043678D01*
X0166172Y0038600D01*
X0165000Y0037428D01*
X0165000Y0034103D01*
X0164301Y0033404D01*
X0163816Y0032233D01*
X0163816Y0030967D01*
X0164301Y0029796D01*
X0165196Y0028901D01*
X0165922Y0028600D01*
X0122199Y0028600D01*
X0122199Y0030133D01*
X0121379Y0030953D01*
X0115101Y0030953D01*
X0114500Y0030352D01*
X0113899Y0030953D01*
X0112750Y0030953D01*
X0112750Y0031178D01*
X0111578Y0032350D01*
X0110953Y0032976D01*
X0111658Y0032976D01*
X0111815Y0032885D01*
X0112222Y0032776D01*
X0113220Y0032776D01*
X0113220Y0037328D01*
X0113221Y0037328D01*
X0113221Y0032776D01*
X0114219Y0032776D01*
X0114625Y0032885D01*
X0114783Y0032976D01*
X0132501Y0032976D01*
X0133321Y0033796D01*
X0133321Y0040861D01*
X0132501Y0041681D01*
X0129084Y0041681D01*
X0129699Y0042296D01*
X0130184Y0043467D01*
X0130184Y0044733D01*
X0129699Y0045904D01*
X0128804Y0046799D01*
X0128078Y0047100D01*
X0141801Y0047100D01*
X0141801Y0043067D01*
X0142621Y0042247D01*
X0148899Y0042247D01*
X0149500Y0042848D01*
X0150101Y0042247D01*
X0151434Y0042247D01*
X0151434Y0040362D01*
X0150692Y0040362D01*
X0149872Y0039542D01*
X0149872Y0033658D01*
X0150692Y0032838D01*
X0156576Y0032838D01*
X0157396Y0033658D01*
X0157396Y0039542D01*
X0156576Y0040362D01*
X0155834Y0040362D01*
X0155834Y0042247D01*
X0156379Y0042247D01*
X0157199Y0043067D01*
X0157199Y0050133D01*
X0156379Y0050953D01*
X0150101Y0050953D01*
X0149500Y0050352D01*
X0148899Y0050953D01*
X0144235Y0050953D01*
X0144088Y0051100D01*
X0131828Y0051100D01*
X0135328Y0054600D01*
X0141801Y0054600D01*
X0141801Y0053067D01*
X0142621Y0052247D01*
X0148899Y0052247D01*
X0149500Y0052848D01*
X0150101Y0052247D01*
X0156379Y0052247D01*
X0157199Y0053067D01*
X0157199Y0060133D01*
X0156379Y0060953D01*
X0155834Y0060953D01*
X0155834Y0062838D01*
X0156576Y0062838D01*
X0157396Y0063658D01*
X0157396Y0069542D01*
X0156576Y0070362D01*
X0150692Y0070362D01*
X0149872Y0069542D01*
X0149872Y0063658D01*
X0150692Y0062838D01*
X0151434Y0062838D01*
X0151434Y0060953D01*
X0150101Y0060953D01*
X0149500Y0060352D01*
X0148899Y0060953D01*
X0142621Y0060953D01*
X0141801Y0060133D01*
X0141801Y0058600D01*
X0133672Y0058600D01*
X0132500Y0057428D01*
X0131434Y0056363D01*
X0131434Y0057233D01*
X0130949Y0058404D01*
X0130054Y0059299D01*
X0128883Y0059784D01*
X0128016Y0059784D01*
X0128016Y0061519D01*
X0132501Y0061519D01*
X0133321Y0062339D01*
X0133321Y0069404D01*
X0133134Y0069592D01*
X0133134Y0069905D01*
X0136500Y0073272D01*
X0136500Y0076597D01*
X0137199Y0077296D01*
X0137684Y0078467D01*
X0137684Y0079733D01*
X0137199Y0080904D01*
X0136304Y0081799D01*
X0135133Y0082284D01*
X0133867Y0082284D01*
X0132696Y0081799D01*
X0131801Y0080904D01*
X0131316Y0079733D01*
X0131316Y0078467D01*
X0131801Y0077296D01*
X0132500Y0076597D01*
X0132500Y0074928D01*
X0130575Y0073003D01*
X0130575Y0084422D01*
X0130949Y0084796D01*
X0131434Y0085967D01*
X0131434Y0087233D01*
X0130949Y0088404D01*
X0130054Y0089299D01*
X0128883Y0089784D01*
X0127617Y0089784D01*
X0126446Y0089299D01*
X0125551Y0088404D01*
X0125066Y0087233D01*
X0125066Y0085967D01*
X0125551Y0084796D01*
X0126446Y0083901D01*
X0126575Y0083847D01*
X0126575Y0077354D01*
X0126500Y0077428D01*
X0125328Y0078600D01*
X0122199Y0078600D01*
X0122199Y0080133D01*
X0121379Y0080953D01*
X0115101Y0080953D01*
X0114630Y0080482D01*
X0114599Y0080535D01*
X0114301Y0080833D01*
X0113936Y0081044D01*
X0113530Y0081153D01*
X0111360Y0081153D01*
X0111360Y0077200D01*
X0110160Y0077200D01*
X0110160Y0081153D01*
X0107990Y0081153D01*
X0107583Y0081044D01*
X0107218Y0080833D01*
X0106920Y0080535D01*
X0106710Y0080170D01*
X0106601Y0079763D01*
X0106601Y0077200D01*
X0110160Y0077200D01*
X0110160Y0076000D01*
X0111360Y0076000D01*
X0111360Y0072047D01*
X0113530Y0072047D01*
X0113936Y0072156D01*
X0114301Y0072367D01*
X0114599Y0072665D01*
X0114630Y0072718D01*
X0115101Y0072247D01*
X0121379Y0072247D01*
X0122199Y0073067D01*
X0122199Y0074600D01*
X0123672Y0074600D01*
X0124016Y0074256D01*
X0124016Y0070424D01*
X0123457Y0070424D01*
X0123457Y0065872D01*
X0123457Y0065872D01*
X0123457Y0070424D01*
X0122459Y0070424D01*
X0122052Y0070315D01*
X0121894Y0070224D01*
X0117342Y0070224D01*
X0117184Y0070315D01*
X0116778Y0070424D01*
X0115780Y0070424D01*
X0115780Y0065872D01*
X0115779Y0065872D01*
X0115779Y0070424D01*
X0114781Y0070424D01*
X0114375Y0070315D01*
X0114217Y0070224D01*
X0107106Y0070224D01*
X0106948Y0070315D01*
X0106541Y0070424D01*
X0105543Y0070424D01*
X0104545Y0070424D01*
X0104264Y0070349D01*
X0103982Y0070424D01*
X0102984Y0070424D01*
X0101986Y0070424D01*
X0101579Y0070315D01*
X0101422Y0070224D01*
X0096499Y0070224D01*
X0095679Y0069404D01*
X0095679Y0062339D01*
X0096499Y0061519D01*
X0101422Y0061519D01*
X0101579Y0061428D01*
X0101986Y0061319D01*
X0102984Y0061319D01*
X0102984Y0065872D01*
X0102984Y0070424D01*
X0102984Y0065872D01*
X0102984Y0065872D01*
X0105372Y0065872D01*
X0105543Y0065872D01*
X0105543Y0070424D01*
X0105543Y0065872D01*
X0105543Y0065872D01*
X0105543Y0065872D01*
X0102984Y0065872D01*
X0102984Y0065872D01*
X0102984Y0065872D01*
X0102984Y0061319D01*
X0103982Y0061319D01*
X0104264Y0061394D01*
X0104545Y0061319D01*
X0105543Y0061319D01*
X0105543Y0065872D01*
X0105543Y0065872D01*
X0105543Y0061319D01*
X0106541Y0061319D01*
X0106948Y0061428D01*
X0107106Y0061519D01*
X0108661Y0061519D01*
X0108661Y0049610D01*
X0110000Y0048272D01*
X0110922Y0047350D01*
X0108672Y0047350D01*
X0107543Y0046222D01*
X0107543Y0050626D01*
X0107684Y0050967D01*
X0107684Y0052233D01*
X0107199Y0053404D01*
X0106304Y0054299D01*
X0105133Y0054784D01*
X0103867Y0054784D01*
X0102696Y0054299D01*
X0102425Y0054028D01*
X0102425Y0057753D01*
X0101500Y0058678D01*
X0100328Y0059850D01*
X0087828Y0059850D01*
X0087750Y0059928D01*
X0087750Y0067428D01*
X0082931Y0072247D01*
X0083899Y0072247D01*
X0084500Y0072848D01*
X0085101Y0072247D01*
X0091379Y0072247D01*
X0092199Y0073067D01*
X0092199Y0074600D01*
X0093672Y0074600D01*
X0093816Y0074456D01*
X0093816Y0073467D01*
X0094301Y0072296D01*
X0095196Y0071401D01*
X0096367Y0070916D01*
X0097633Y0070916D01*
X0098804Y0071401D01*
X0099699Y0072296D01*
X0100184Y0073467D01*
X0100184Y0074733D01*
X0099699Y0075904D01*
X0098804Y0076799D01*
X0097633Y0077284D01*
X0096644Y0077284D01*
X0095328Y0078600D01*
X0092199Y0078600D01*
X0092199Y0080133D01*
X0091379Y0080953D01*
X0085101Y0080953D01*
X0084500Y0080352D01*
X0083899Y0080953D01*
X0077621Y0080953D01*
X0076801Y0080133D01*
X0076801Y0073067D01*
X0077621Y0072247D01*
X0078750Y0072247D01*
X0078750Y0070772D01*
X0079922Y0069600D01*
X0083750Y0065772D01*
X0083750Y0058272D01*
X0084922Y0057100D01*
X0086172Y0055850D01*
X0098425Y0055850D01*
X0098425Y0041681D01*
X0096499Y0041681D01*
X0095679Y0040861D01*
X0095679Y0039328D01*
X0080650Y0039328D01*
X0079922Y0038600D01*
X0078750Y0037428D01*
X0078750Y0030953D01*
X0077621Y0030953D01*
X0076801Y0030133D01*
X0076801Y0023067D01*
X0072199Y0023067D02*
X0071379Y0022247D01*
X0065101Y0022247D01*
X0064500Y0022848D01*
X0063899Y0022247D01*
X0063366Y0022247D01*
X0063366Y0020304D01*
X0064128Y0019542D01*
X0064128Y0013658D01*
X0063308Y0012838D01*
X0057424Y0012838D01*
X0056604Y0013658D01*
X0056604Y0019542D01*
X0057366Y0020304D01*
X0057366Y0022502D01*
X0056801Y0023067D01*
X0056801Y0030133D01*
X0057621Y0030953D01*
X0063899Y0030953D01*
X0064500Y0030352D01*
X0065101Y0030953D01*
X0065240Y0030953D01*
X0065240Y0033497D01*
X0065101Y0033497D01*
X0064500Y0034098D01*
X0063899Y0033497D01*
X0057621Y0033497D01*
X0056801Y0034317D01*
X0056801Y0035650D01*
X0054839Y0035650D01*
X0053550Y0036939D01*
X0051050Y0039439D01*
X0051050Y0047539D01*
X0050949Y0047296D01*
X0050054Y0046401D01*
X0048883Y0045916D01*
X0047617Y0045916D01*
X0046446Y0046401D01*
X0045551Y0047296D01*
X0045066Y0048467D01*
X0045066Y0049456D01*
X0044922Y0049600D01*
X0043813Y0049600D01*
X0043813Y0047060D01*
X0043904Y0046903D01*
X0044013Y0046496D01*
X0044013Y0045301D01*
X0036311Y0045301D01*
X0036311Y0045301D01*
X0044013Y0045301D01*
X0044013Y0044106D01*
X0043904Y0043699D01*
X0043694Y0043334D01*
X0043396Y0043036D01*
X0043031Y0042826D01*
X0042624Y0042717D01*
X0036311Y0042717D01*
X0036311Y0045301D01*
X0036311Y0045301D01*
X0036311Y0042717D01*
X0030872Y0042717D01*
X0030872Y0041671D01*
X0029938Y0039417D01*
X0042993Y0039417D01*
X0043813Y0038597D01*
X0043813Y0029563D01*
X0042993Y0028743D01*
X0028841Y0028743D01*
X0028021Y0029563D01*
X0028021Y0037501D01*
X0025767Y0036567D01*
X0023233Y0036567D01*
X0020891Y0037537D01*
X0019098Y0039329D01*
X0018128Y0041671D01*
X0018128Y0044206D01*
X0019098Y0046548D01*
X0020891Y0048340D01*
X0023233Y0049310D01*
X0025767Y0049310D01*
X0028109Y0048340D01*
X0028809Y0047641D01*
X0028809Y0050015D01*
X0028819Y0050025D01*
X0028809Y0050036D01*
X0028809Y0053164D01*
X0028819Y0053175D01*
X0028809Y0053185D01*
X0028809Y0055559D01*
X0028109Y0054860D01*
X0025767Y0053890D01*
X0023233Y0053890D01*
X0020891Y0054860D01*
X0019098Y0056652D01*
X0018128Y0058994D01*
X0018128Y0061529D01*
X0019098Y0063871D01*
X0020891Y0065663D01*
X0023233Y0066633D01*
X0025767Y0066633D01*
X0028021Y0065699D01*
X0028021Y0073637D01*
X0028841Y0074457D01*
X0042993Y0074457D01*
X0043813Y0073637D01*
X0043813Y0064603D01*
X0042993Y0063783D01*
X0029938Y0063783D01*
X0030872Y0061529D01*
X0030872Y0060283D01*
X0042993Y0060283D01*
X0043178Y0060099D01*
X0052862Y0060099D01*
X0054161Y0058800D01*
X0055386Y0057576D01*
X0055534Y0057724D01*
X0062720Y0057724D01*
X0065240Y0060244D01*
X0065240Y0062247D01*
X0065101Y0062247D01*
X0064630Y0062718D01*
X0064599Y0062665D01*
X0064301Y0062367D01*
X0063936Y0062156D01*
X0063530Y0062047D01*
X0061360Y0062047D01*
X0061360Y0066000D01*
X0060160Y0066000D01*
X0060160Y0062047D01*
X0057990Y0062047D01*
X0057583Y0062156D01*
X0057218Y0062367D01*
X0056920Y0062665D01*
X0056710Y0063030D01*
X0056601Y0063437D01*
X0056601Y0066000D01*
X0060160Y0066000D01*
X0060160Y0067200D01*
X0060160Y0071153D01*
X0057990Y0071153D01*
X0057583Y0071044D01*
X0057218Y0070833D01*
X0056920Y0070535D01*
X0056710Y0070170D01*
X0056601Y0069763D01*
X0056601Y0067200D01*
X0060160Y0067200D01*
X0061360Y0067200D01*
X0061360Y0071153D01*
X0063530Y0071153D01*
X0063936Y0071044D01*
X0064301Y0070833D01*
X0064599Y0070535D01*
X0064630Y0070482D01*
X0065101Y0070953D01*
X0071379Y0070953D01*
X0072199Y0070133D01*
X0072199Y0063067D01*
X0071379Y0062247D01*
X0071240Y0062247D01*
X0071240Y0058405D01*
X0070783Y0057302D01*
X0066963Y0053482D01*
X0066963Y0049718D01*
X0070783Y0045898D01*
X0071240Y0044795D01*
X0071240Y0042203D01*
X0071379Y0042203D01*
X0072199Y0041383D01*
X0072199Y0034317D01*
X0071379Y0033497D01*
X0071240Y0033497D01*
X0071240Y0030953D01*
X0071379Y0030953D01*
X0072199Y0030133D01*
X0072199Y0023067D01*
X0071614Y0020453D02*
X0071207Y0020562D01*
X0069215Y0020562D01*
X0069215Y0017181D01*
X0072596Y0017181D01*
X0072596Y0019173D01*
X0072487Y0019580D01*
X0072276Y0019945D01*
X0071978Y0020243D01*
X0071614Y0020453D01*
X0072488Y0019578D02*
X0086240Y0019578D01*
X0086240Y0018379D02*
X0072596Y0018379D01*
X0072596Y0016019D02*
X0069215Y0016019D01*
X0069215Y0017181D01*
X0068053Y0017181D01*
X0068053Y0020562D01*
X0066061Y0020562D01*
X0065654Y0020453D01*
X0065289Y0020243D01*
X0064991Y0019945D01*
X0064781Y0019580D01*
X0064672Y0019173D01*
X0064672Y0017181D01*
X0068053Y0017181D01*
X0068053Y0016019D01*
X0069215Y0016019D01*
X0069215Y0012638D01*
X0071207Y0012638D01*
X0071614Y0012747D01*
X0071978Y0012957D01*
X0072276Y0013255D01*
X0072487Y0013620D01*
X0072596Y0014027D01*
X0072596Y0016019D01*
X0072596Y0015982D02*
X0088539Y0015982D01*
X0087341Y0017181D02*
X0069215Y0017181D01*
X0068053Y0017181D02*
X0064128Y0017181D01*
X0064128Y0018379D02*
X0064672Y0018379D01*
X0064780Y0019578D02*
X0064093Y0019578D01*
X0063366Y0020776D02*
X0086240Y0020776D01*
X0086240Y0021975D02*
X0063366Y0021975D01*
X0057366Y0021975D02*
X0017892Y0021975D01*
X0018707Y0021756D02*
X0015935Y0022499D01*
X0013065Y0022499D01*
X0010293Y0021756D01*
X0009600Y0021356D01*
X0009600Y0028743D01*
X0018190Y0028743D01*
X0019010Y0029563D01*
X0019010Y0038597D01*
X0018190Y0039417D01*
X0009600Y0039417D01*
X0009600Y0063783D01*
X0018190Y0063783D01*
X0019010Y0064603D01*
X0019010Y0073637D01*
X0018190Y0074457D01*
X0009600Y0074457D01*
X0009600Y0081844D01*
X0010293Y0081444D01*
X0013065Y0080701D01*
X0015935Y0080701D01*
X0018707Y0081444D01*
X0021192Y0082878D01*
X0023222Y0084908D01*
X0024656Y0087393D01*
X0025399Y0090165D01*
X0025399Y0093035D01*
X0024656Y0095807D01*
X0024256Y0096500D01*
X0189744Y0096500D01*
X0189344Y0095807D01*
X0188601Y0093035D01*
X0188601Y0090165D01*
X0189344Y0087393D01*
X0190778Y0084908D01*
X0192808Y0082878D01*
X0195293Y0081444D01*
X0198065Y0080701D01*
X0200935Y0080701D01*
X0203707Y0081444D01*
X0206192Y0082878D01*
X0208222Y0084908D01*
X0209656Y0087393D01*
X0210399Y0090165D01*
X0210399Y0093035D01*
X0209656Y0095807D01*
X0209256Y0096500D01*
X0234400Y0096500D01*
X0234400Y0080389D01*
X0234397Y0080401D01*
X0233940Y0081505D01*
X0233342Y0082539D01*
X0232615Y0083487D01*
X0231771Y0084331D01*
X0230823Y0085059D01*
X0229789Y0085656D01*
X0228685Y0086113D01*
X0227531Y0086422D01*
X0226350Y0086578D01*
X0226350Y0078066D01*
X0225150Y0078066D01*
X0225150Y0076866D01*
X0226350Y0076866D01*
X0226350Y0068355D01*
X0227531Y0068510D01*
X0228685Y0068819D01*
X0229789Y0069276D01*
X0230823Y0069874D01*
X0231771Y0070601D01*
X0232615Y0071445D01*
X0233342Y0072393D01*
X0233940Y0073427D01*
X0234397Y0074531D01*
X0234400Y0074543D01*
X0234400Y0028657D01*
X0234397Y0028669D01*
X0233940Y0029773D01*
X0233342Y0030807D01*
X0232615Y0031755D01*
X0231771Y0032599D01*
X0230823Y0033326D01*
X0229789Y0033924D01*
X0228685Y0034381D01*
X0227531Y0034690D01*
X0226350Y0034845D01*
X0226350Y0026334D01*
X0225150Y0026334D01*
X0225150Y0034845D01*
X0223969Y0034690D01*
X0222815Y0034381D01*
X0221711Y0033924D01*
X0220677Y0033326D01*
X0219729Y0032599D01*
X0218885Y0031755D01*
X0218158Y0030807D01*
X0217560Y0029773D01*
X0217103Y0028669D01*
X0216794Y0027515D01*
X0216639Y0026334D01*
X0225150Y0026334D01*
X0225150Y0025134D01*
X0216639Y0025134D01*
X0216794Y0023952D01*
X0217103Y0022799D01*
X0217560Y0021695D01*
X0218158Y0020661D01*
X0218885Y0019713D01*
X0219729Y0018869D01*
X0220677Y0018141D01*
X0221711Y0017544D01*
X0222815Y0017087D01*
X0223969Y0016778D01*
X0225150Y0016622D01*
X0225150Y0025134D01*
X0226350Y0025134D01*
X0226350Y0016622D01*
X0227531Y0016778D01*
X0228685Y0017087D01*
X0229789Y0017544D01*
X0230823Y0018141D01*
X0231771Y0018869D01*
X0232615Y0019713D01*
X0233342Y0020661D01*
X0233940Y0021695D01*
X0234397Y0022799D01*
X0234400Y0022811D01*
X0234400Y0006700D01*
X0209256Y0006700D01*
X0209656Y0007393D01*
X0210399Y0010165D01*
X0210399Y0013035D01*
X0209656Y0015807D01*
X0208222Y0018292D01*
X0206192Y0020322D01*
X0203707Y0021756D01*
X0200935Y0022499D01*
X0198065Y0022499D01*
X0195293Y0021756D01*
X0192808Y0020322D01*
X0190778Y0018292D01*
X0189344Y0015807D01*
X0189100Y0014898D01*
X0189100Y0016200D01*
X0184900Y0016200D01*
X0184900Y0017000D01*
X0189100Y0017000D01*
X0189100Y0018505D01*
X0186405Y0021200D01*
X0184900Y0021200D01*
X0184900Y0017000D01*
X0184100Y0017000D01*
X0184100Y0021200D01*
X0182595Y0021200D01*
X0179900Y0018505D01*
X0179900Y0017000D01*
X0184100Y0017000D01*
X0184100Y0016200D01*
X0184900Y0016200D01*
X0184900Y0012000D01*
X0186405Y0012000D01*
X0189026Y0014620D01*
X0188601Y0013035D01*
X0188601Y0010165D01*
X0189344Y0007393D01*
X0189744Y0006700D01*
X0024256Y0006700D01*
X0024656Y0007393D01*
X0025399Y0010165D01*
X0025399Y0013035D01*
X0024656Y0015807D01*
X0023222Y0018292D01*
X0021192Y0020322D01*
X0018707Y0021756D01*
X0020405Y0020776D02*
X0057366Y0020776D01*
X0056640Y0019578D02*
X0021936Y0019578D01*
X0023135Y0018379D02*
X0056604Y0018379D01*
X0056604Y0017181D02*
X0023863Y0017181D01*
X0024555Y0015982D02*
X0056604Y0015982D01*
X0056604Y0014784D02*
X0024931Y0014784D01*
X0025252Y0013585D02*
X0056677Y0013585D01*
X0064056Y0013585D02*
X0064801Y0013585D01*
X0064781Y0013620D02*
X0064991Y0013255D01*
X0065289Y0012957D01*
X0065654Y0012747D01*
X0066061Y0012638D01*
X0068053Y0012638D01*
X0068053Y0016019D01*
X0064672Y0016019D01*
X0064672Y0014027D01*
X0064781Y0013620D01*
X0064672Y0014784D02*
X0064128Y0014784D01*
X0064128Y0015982D02*
X0064672Y0015982D01*
X0068053Y0015982D02*
X0069215Y0015982D01*
X0069215Y0014784D02*
X0068053Y0014784D01*
X0068053Y0013585D02*
X0069215Y0013585D01*
X0072467Y0013585D02*
X0181009Y0013585D01*
X0179900Y0014695D02*
X0182595Y0012000D01*
X0184100Y0012000D01*
X0184100Y0016200D01*
X0179900Y0016200D01*
X0179900Y0014695D01*
X0179900Y0014784D02*
X0170512Y0014784D01*
X0171711Y0015982D02*
X0179900Y0015982D01*
X0179900Y0017181D02*
X0172909Y0017181D01*
X0174108Y0018379D02*
X0179900Y0018379D01*
X0180972Y0019578D02*
X0175306Y0019578D01*
X0176505Y0020776D02*
X0182171Y0020776D01*
X0184100Y0020776D02*
X0184900Y0020776D01*
X0186829Y0020776D02*
X0193595Y0020776D01*
X0196108Y0021975D02*
X0177703Y0021975D01*
X0178902Y0023173D02*
X0181704Y0023173D01*
X0180506Y0024372D02*
X0180100Y0024372D01*
X0179500Y0026600D02*
X0184500Y0026600D01*
X0194018Y0026600D01*
X0215081Y0047663D01*
X0219351Y0047143D02*
X0234400Y0047143D01*
X0234400Y0045945D02*
X0219351Y0045945D01*
X0218203Y0044746D02*
X0234400Y0044746D01*
X0234400Y0043548D02*
X0217004Y0043548D01*
X0212596Y0042349D02*
X0234400Y0042349D01*
X0234400Y0041151D02*
X0218072Y0041151D01*
X0216932Y0042291D02*
X0215416Y0042291D01*
X0215416Y0038156D01*
X0214746Y0038156D01*
X0214746Y0042291D01*
X0213229Y0042291D01*
X0210611Y0039672D01*
X0210611Y0038156D01*
X0214746Y0038156D01*
X0214746Y0037485D01*
X0215416Y0037485D01*
X0215416Y0033350D01*
X0216932Y0033350D01*
X0219551Y0035969D01*
X0219551Y0037485D01*
X0215416Y0037485D01*
X0215416Y0038156D01*
X0219551Y0038156D01*
X0219551Y0039672D01*
X0216932Y0042291D01*
X0215416Y0041151D02*
X0214746Y0041151D01*
X0214746Y0039952D02*
X0215416Y0039952D01*
X0215416Y0038754D02*
X0214746Y0038754D01*
X0214746Y0037555D02*
X0207801Y0037555D01*
X0206603Y0036357D02*
X0210611Y0036357D01*
X0210611Y0035969D02*
X0213229Y0033350D01*
X0214746Y0033350D01*
X0214746Y0037485D01*
X0210611Y0037485D01*
X0210611Y0035969D01*
X0211421Y0035158D02*
X0205404Y0035158D01*
X0204206Y0033960D02*
X0212620Y0033960D01*
X0214746Y0033960D02*
X0215416Y0033960D01*
X0217542Y0033960D02*
X0221799Y0033960D01*
X0219941Y0032761D02*
X0203007Y0032761D01*
X0201809Y0031563D02*
X0218738Y0031563D01*
X0217902Y0030364D02*
X0200610Y0030364D01*
X0199412Y0029166D02*
X0217309Y0029166D01*
X0216915Y0027967D02*
X0198213Y0027967D01*
X0197015Y0026769D02*
X0216696Y0026769D01*
X0216739Y0024372D02*
X0188494Y0024372D01*
X0187296Y0023173D02*
X0217003Y0023173D01*
X0217445Y0021975D02*
X0202892Y0021975D01*
X0205405Y0020776D02*
X0218091Y0020776D01*
X0219020Y0019578D02*
X0206936Y0019578D01*
X0208135Y0018379D02*
X0220367Y0018379D01*
X0222589Y0017181D02*
X0208863Y0017181D01*
X0209555Y0015982D02*
X0234400Y0015982D01*
X0234400Y0014784D02*
X0209931Y0014784D01*
X0210252Y0013585D02*
X0234400Y0013585D01*
X0234400Y0012387D02*
X0210399Y0012387D01*
X0210399Y0011188D02*
X0234400Y0011188D01*
X0234400Y0009990D02*
X0210352Y0009990D01*
X0210031Y0008791D02*
X0234400Y0008791D01*
X0234400Y0007593D02*
X0209710Y0007593D01*
X0189290Y0007593D02*
X0024710Y0007593D01*
X0025031Y0008791D02*
X0188969Y0008791D01*
X0188648Y0009990D02*
X0025352Y0009990D01*
X0025399Y0011188D02*
X0188601Y0011188D01*
X0188601Y0012387D02*
X0186792Y0012387D01*
X0187990Y0013585D02*
X0188748Y0013585D01*
X0189100Y0015982D02*
X0189445Y0015982D01*
X0189100Y0017181D02*
X0190137Y0017181D01*
X0190865Y0018379D02*
X0189100Y0018379D01*
X0188028Y0019578D02*
X0192064Y0019578D01*
X0184900Y0019578D02*
X0184100Y0019578D01*
X0184100Y0018379D02*
X0184900Y0018379D01*
X0184900Y0017181D02*
X0184100Y0017181D01*
X0184100Y0015982D02*
X0184900Y0015982D01*
X0184900Y0014784D02*
X0184100Y0014784D01*
X0184100Y0013585D02*
X0184900Y0013585D01*
X0184900Y0012387D02*
X0184100Y0012387D01*
X0182208Y0012387D02*
X0025399Y0012387D01*
X0011108Y0021975D02*
X0009600Y0021975D01*
X0009600Y0023173D02*
X0056801Y0023173D01*
X0056801Y0024372D02*
X0009600Y0024372D01*
X0009600Y0025570D02*
X0056801Y0025570D01*
X0056801Y0026769D02*
X0009600Y0026769D01*
X0009600Y0027967D02*
X0056801Y0027967D01*
X0056801Y0029166D02*
X0043416Y0029166D01*
X0043813Y0030364D02*
X0057032Y0030364D01*
X0064487Y0030364D02*
X0064513Y0030364D01*
X0065240Y0031563D02*
X0043813Y0031563D01*
X0043813Y0032761D02*
X0065240Y0032761D01*
X0064639Y0033960D02*
X0064361Y0033960D01*
X0057158Y0033960D02*
X0043813Y0033960D01*
X0043813Y0035158D02*
X0056801Y0035158D01*
X0054132Y0036357D02*
X0043813Y0036357D01*
X0043813Y0037555D02*
X0052933Y0037555D01*
X0051735Y0038754D02*
X0043657Y0038754D01*
X0051050Y0039952D02*
X0030160Y0039952D01*
X0030656Y0041151D02*
X0051050Y0041151D01*
X0051050Y0042349D02*
X0030872Y0042349D01*
X0036311Y0043548D02*
X0036311Y0043548D01*
X0036311Y0044746D02*
X0036311Y0044746D01*
X0043817Y0043548D02*
X0051050Y0043548D01*
X0051050Y0044746D02*
X0044013Y0044746D01*
X0044013Y0045945D02*
X0047546Y0045945D01*
X0048954Y0045945D02*
X0051050Y0045945D01*
X0051050Y0047143D02*
X0050797Y0047143D01*
X0045703Y0047143D02*
X0043813Y0047143D01*
X0043813Y0048342D02*
X0045117Y0048342D01*
X0048250Y0049100D02*
X0045750Y0051600D01*
X0036311Y0051600D01*
X0036311Y0054750D02*
X0047600Y0054750D01*
X0048250Y0054100D01*
X0044981Y0049540D02*
X0043813Y0049540D01*
X0028809Y0049540D02*
X0009600Y0049540D01*
X0009600Y0050739D02*
X0028809Y0050739D01*
X0028809Y0051937D02*
X0009600Y0051937D01*
X0009600Y0053136D02*
X0028809Y0053136D01*
X0028809Y0054334D02*
X0026841Y0054334D01*
X0028782Y0055533D02*
X0028809Y0055533D01*
X0022159Y0054334D02*
X0009600Y0054334D01*
X0009600Y0055533D02*
X0020218Y0055533D01*
X0019066Y0056732D02*
X0009600Y0056732D01*
X0009600Y0057930D02*
X0018569Y0057930D01*
X0018128Y0059129D02*
X0009600Y0059129D01*
X0009600Y0060327D02*
X0018128Y0060327D01*
X0018128Y0061526D02*
X0009600Y0061526D01*
X0009600Y0062724D02*
X0018623Y0062724D01*
X0018330Y0063923D02*
X0019150Y0063923D01*
X0019010Y0065121D02*
X0020349Y0065121D01*
X0019010Y0066320D02*
X0022476Y0066320D01*
X0019010Y0067518D02*
X0028021Y0067518D01*
X0028021Y0066320D02*
X0026524Y0066320D01*
X0028021Y0068717D02*
X0019010Y0068717D01*
X0019010Y0069915D02*
X0028021Y0069915D01*
X0028021Y0071114D02*
X0019010Y0071114D01*
X0019010Y0072312D02*
X0028021Y0072312D01*
X0028021Y0073511D02*
X0019010Y0073511D01*
X0009600Y0074709D02*
X0056801Y0074709D01*
X0056801Y0073511D02*
X0043813Y0073511D01*
X0043813Y0072312D02*
X0057556Y0072312D01*
X0057621Y0072247D02*
X0063899Y0072247D01*
X0064500Y0072848D01*
X0065101Y0072247D01*
X0070741Y0072247D01*
X0075961Y0067027D01*
X0075961Y0057724D01*
X0072857Y0057724D01*
X0072037Y0056904D01*
X0072037Y0046296D01*
X0072857Y0045476D01*
X0076050Y0045476D01*
X0076050Y0043903D01*
X0075551Y0043404D01*
X0075066Y0042233D01*
X0075066Y0040967D01*
X0075551Y0039796D01*
X0076446Y0038901D01*
X0077617Y0038416D01*
X0078883Y0038416D01*
X0080054Y0038901D01*
X0080949Y0039796D01*
X0081434Y0040967D01*
X0081434Y0042233D01*
X0080949Y0043404D01*
X0080450Y0043903D01*
X0080450Y0045476D01*
X0083466Y0045476D01*
X0084286Y0046296D01*
X0084286Y0049600D01*
X0084497Y0049600D01*
X0085196Y0048901D01*
X0086367Y0048416D01*
X0087633Y0048416D01*
X0088804Y0048901D01*
X0089699Y0049796D01*
X0090184Y0050967D01*
X0090184Y0052233D01*
X0089699Y0053404D01*
X0088804Y0054299D01*
X0087633Y0054784D01*
X0086367Y0054784D01*
X0085196Y0054299D01*
X0084497Y0053600D01*
X0084286Y0053600D01*
X0084286Y0056904D01*
X0083466Y0057724D01*
X0080361Y0057724D01*
X0080361Y0068850D01*
X0072199Y0077012D01*
X0072199Y0080133D01*
X0071379Y0080953D01*
X0065101Y0080953D01*
X0064500Y0080352D01*
X0063899Y0080953D01*
X0063366Y0080953D01*
X0063366Y0082896D01*
X0064128Y0083658D01*
X0064128Y0089542D01*
X0063308Y0090362D01*
X0057424Y0090362D01*
X0056604Y0089542D01*
X0056604Y0083658D01*
X0057366Y0082896D01*
X0057366Y0080698D01*
X0056801Y0080133D01*
X0056801Y0073067D01*
X0057621Y0072247D01*
X0057844Y0071114D02*
X0043813Y0071114D01*
X0043813Y0069915D02*
X0056641Y0069915D01*
X0056601Y0068717D02*
X0043813Y0068717D01*
X0043813Y0067518D02*
X0056601Y0067518D01*
X0060160Y0067518D02*
X0061360Y0067518D01*
X0061360Y0068717D02*
X0060160Y0068717D01*
X0060160Y0069915D02*
X0061360Y0069915D01*
X0061360Y0071114D02*
X0060160Y0071114D01*
X0063675Y0071114D02*
X0071875Y0071114D01*
X0072199Y0069915D02*
X0073074Y0069915D01*
X0072199Y0068717D02*
X0074272Y0068717D01*
X0075471Y0067518D02*
X0072199Y0067518D01*
X0072199Y0066320D02*
X0075961Y0066320D01*
X0075961Y0065121D02*
X0072199Y0065121D01*
X0072199Y0063923D02*
X0075961Y0063923D01*
X0075961Y0062724D02*
X0071856Y0062724D01*
X0071240Y0061526D02*
X0075961Y0061526D01*
X0075961Y0060327D02*
X0071240Y0060327D01*
X0071240Y0059129D02*
X0075961Y0059129D01*
X0075961Y0057930D02*
X0071043Y0057930D01*
X0070213Y0056732D02*
X0072037Y0056732D01*
X0072037Y0055533D02*
X0069014Y0055533D01*
X0067816Y0054334D02*
X0072037Y0054334D01*
X0072037Y0053136D02*
X0066963Y0053136D01*
X0066963Y0051937D02*
X0072037Y0051937D01*
X0072037Y0050739D02*
X0066963Y0050739D01*
X0067141Y0049540D02*
X0072037Y0049540D01*
X0072037Y0048342D02*
X0068339Y0048342D01*
X0069538Y0047143D02*
X0072037Y0047143D01*
X0072388Y0045945D02*
X0070736Y0045945D01*
X0071240Y0044746D02*
X0076050Y0044746D01*
X0075695Y0043548D02*
X0071240Y0043548D01*
X0071240Y0042349D02*
X0075114Y0042349D01*
X0075066Y0041151D02*
X0072199Y0041151D01*
X0072199Y0039952D02*
X0075486Y0039952D01*
X0076800Y0038754D02*
X0072199Y0038754D01*
X0072199Y0037555D02*
X0078877Y0037555D01*
X0078750Y0036357D02*
X0072199Y0036357D01*
X0072199Y0035158D02*
X0078750Y0035158D01*
X0078750Y0033960D02*
X0071842Y0033960D01*
X0071240Y0032761D02*
X0078750Y0032761D01*
X0078750Y0031563D02*
X0071240Y0031563D01*
X0071968Y0030364D02*
X0077032Y0030364D01*
X0076801Y0029166D02*
X0072199Y0029166D01*
X0072199Y0027967D02*
X0076801Y0027967D01*
X0088240Y0026600D02*
X0088240Y0019110D01*
X0089500Y0017850D01*
X0097000Y0017850D01*
X0098250Y0016600D01*
X0169500Y0016600D01*
X0179500Y0026600D01*
X0174500Y0026600D02*
X0184500Y0036600D01*
X0196144Y0036600D01*
X0215081Y0055537D01*
X0219351Y0055533D02*
X0234400Y0055533D01*
X0234400Y0054334D02*
X0219351Y0054334D01*
X0218718Y0053136D02*
X0234400Y0053136D01*
X0234400Y0051937D02*
X0217520Y0051937D01*
X0218044Y0050739D02*
X0234400Y0050739D01*
X0234400Y0049540D02*
X0219242Y0049540D01*
X0219351Y0048342D02*
X0234400Y0048342D01*
X0234400Y0056732D02*
X0219351Y0056732D01*
X0218726Y0057930D02*
X0234400Y0057930D01*
X0234400Y0059129D02*
X0217528Y0059129D01*
X0213140Y0060327D02*
X0234400Y0060327D01*
X0234400Y0061526D02*
X0217266Y0061526D01*
X0216849Y0061109D02*
X0219351Y0063611D01*
X0219351Y0067148D01*
X0216849Y0069650D01*
X0213312Y0069650D01*
X0210811Y0067148D01*
X0210811Y0064221D01*
X0195390Y0048800D01*
X0188523Y0048800D01*
X0186323Y0051000D01*
X0182677Y0051000D01*
X0180100Y0048423D01*
X0180100Y0044777D01*
X0182677Y0042200D01*
X0186323Y0042200D01*
X0188523Y0044400D01*
X0197212Y0044400D01*
X0213922Y0061109D01*
X0216849Y0061109D01*
X0218464Y0062724D02*
X0234400Y0062724D01*
X0234400Y0063923D02*
X0219351Y0063923D01*
X0219351Y0065121D02*
X0234400Y0065121D01*
X0234400Y0066320D02*
X0219351Y0066320D01*
X0218981Y0067518D02*
X0234400Y0067518D01*
X0234400Y0068717D02*
X0228302Y0068717D01*
X0226350Y0068717D02*
X0225150Y0068717D01*
X0225150Y0068355D02*
X0225150Y0076866D01*
X0216639Y0076866D01*
X0216794Y0075685D01*
X0217103Y0074531D01*
X0217560Y0073427D01*
X0218158Y0072393D01*
X0218885Y0071445D01*
X0219729Y0070601D01*
X0220677Y0069874D01*
X0221711Y0069276D01*
X0222815Y0068819D01*
X0223969Y0068510D01*
X0225150Y0068355D01*
X0225150Y0069915D02*
X0226350Y0069915D01*
X0226350Y0071114D02*
X0225150Y0071114D01*
X0220623Y0069915D02*
X0187407Y0069915D01*
X0186323Y0071000D02*
X0182677Y0071000D01*
X0180100Y0068423D01*
X0180100Y0064777D01*
X0182677Y0062200D01*
X0186323Y0062200D01*
X0188900Y0064777D01*
X0188900Y0068423D01*
X0186323Y0071000D01*
X0186323Y0072200D02*
X0188900Y0074777D01*
X0188900Y0078423D01*
X0186323Y0081000D01*
X0182677Y0081000D01*
X0180100Y0078423D01*
X0180100Y0074777D01*
X0182677Y0072200D01*
X0186323Y0072200D01*
X0186435Y0072312D02*
X0218220Y0072312D01*
X0217526Y0073511D02*
X0187633Y0073511D01*
X0188832Y0074709D02*
X0217055Y0074709D01*
X0216765Y0075908D02*
X0188900Y0075908D01*
X0188900Y0077106D02*
X0225150Y0077106D01*
X0225150Y0078066D02*
X0216639Y0078066D01*
X0216794Y0079248D01*
X0217103Y0080401D01*
X0217560Y0081505D01*
X0218158Y0082539D01*
X0218885Y0083487D01*
X0219729Y0084331D01*
X0220677Y0085059D01*
X0221711Y0085656D01*
X0222815Y0086113D01*
X0223969Y0086422D01*
X0225150Y0086578D01*
X0225150Y0078066D01*
X0225150Y0078305D02*
X0226350Y0078305D01*
X0226350Y0079503D02*
X0225150Y0079503D01*
X0225150Y0080702D02*
X0226350Y0080702D01*
X0226350Y0081900D02*
X0225150Y0081900D01*
X0225150Y0083099D02*
X0226350Y0083099D01*
X0226350Y0084297D02*
X0225150Y0084297D01*
X0225150Y0085496D02*
X0226350Y0085496D01*
X0230066Y0085496D02*
X0234400Y0085496D01*
X0234400Y0084297D02*
X0231805Y0084297D01*
X0232913Y0083099D02*
X0234400Y0083099D01*
X0234400Y0081900D02*
X0233711Y0081900D01*
X0234272Y0080702D02*
X0234400Y0080702D01*
X0226350Y0075908D02*
X0225150Y0075908D01*
X0225150Y0074709D02*
X0226350Y0074709D01*
X0226350Y0073511D02*
X0225150Y0073511D01*
X0225150Y0072312D02*
X0226350Y0072312D01*
X0232284Y0071114D02*
X0234400Y0071114D01*
X0234400Y0069915D02*
X0230877Y0069915D01*
X0223198Y0068717D02*
X0217782Y0068717D01*
X0219216Y0071114D02*
X0175250Y0071114D01*
X0175250Y0069915D02*
X0181593Y0069915D01*
X0180394Y0068717D02*
X0175250Y0068717D01*
X0175250Y0067518D02*
X0180100Y0067518D01*
X0180100Y0066320D02*
X0175250Y0066320D01*
X0175250Y0065121D02*
X0180100Y0065121D01*
X0180955Y0063923D02*
X0175250Y0063923D01*
X0175250Y0062724D02*
X0182153Y0062724D01*
X0182677Y0061000D02*
X0180100Y0058423D01*
X0180100Y0054777D01*
X0182677Y0052200D01*
X0186323Y0052200D01*
X0188900Y0054777D01*
X0188900Y0058423D01*
X0186323Y0061000D01*
X0182677Y0061000D01*
X0182005Y0060327D02*
X0175250Y0060327D01*
X0175250Y0059129D02*
X0180806Y0059129D01*
X0180100Y0057930D02*
X0175250Y0057930D01*
X0175250Y0056732D02*
X0180100Y0056732D01*
X0180100Y0055533D02*
X0175250Y0055533D01*
X0175250Y0054334D02*
X0180543Y0054334D01*
X0181741Y0053136D02*
X0175250Y0053136D01*
X0175250Y0051937D02*
X0198527Y0051937D01*
X0197329Y0050739D02*
X0186584Y0050739D01*
X0187782Y0049540D02*
X0196130Y0049540D01*
X0201154Y0048342D02*
X0205057Y0048342D01*
X0203859Y0047143D02*
X0199956Y0047143D01*
X0198757Y0045945D02*
X0202660Y0045945D01*
X0201462Y0044746D02*
X0197559Y0044746D01*
X0200263Y0043548D02*
X0187670Y0043548D01*
X0186472Y0042349D02*
X0199065Y0042349D01*
X0197866Y0041151D02*
X0174379Y0041151D01*
X0173181Y0039952D02*
X0181630Y0039952D01*
X0180431Y0038754D02*
X0171982Y0038754D01*
X0170784Y0037555D02*
X0180100Y0037555D01*
X0180100Y0036357D02*
X0169585Y0036357D01*
X0169000Y0035158D02*
X0180100Y0035158D01*
X0179031Y0033960D02*
X0169143Y0033960D01*
X0169966Y0032761D02*
X0177833Y0032761D01*
X0176634Y0031563D02*
X0170184Y0031563D01*
X0169935Y0030364D02*
X0175436Y0030364D01*
X0174237Y0029166D02*
X0169069Y0029166D01*
X0164931Y0029166D02*
X0122199Y0029166D01*
X0121968Y0030364D02*
X0164065Y0030364D01*
X0163816Y0031563D02*
X0112366Y0031563D01*
X0111167Y0032761D02*
X0164034Y0032761D01*
X0164857Y0033960D02*
X0157396Y0033960D01*
X0157396Y0035158D02*
X0165000Y0035158D01*
X0165000Y0036357D02*
X0157396Y0036357D01*
X0157396Y0037555D02*
X0165127Y0037555D01*
X0166325Y0038754D02*
X0157396Y0038754D01*
X0156986Y0039952D02*
X0167524Y0039952D01*
X0168722Y0041151D02*
X0155834Y0041151D01*
X0151434Y0041151D02*
X0133031Y0041151D01*
X0133321Y0039952D02*
X0135849Y0039952D01*
X0135551Y0039654D02*
X0135066Y0038483D01*
X0135066Y0037217D01*
X0135551Y0036046D01*
X0136446Y0035151D01*
X0137617Y0034666D01*
X0138606Y0034666D01*
X0138672Y0034600D01*
X0141604Y0034600D01*
X0141604Y0033658D01*
X0142424Y0032838D01*
X0148308Y0032838D01*
X0149128Y0033658D01*
X0149128Y0039542D01*
X0148308Y0040362D01*
X0142424Y0040362D01*
X0141604Y0039542D01*
X0141604Y0038600D01*
X0141386Y0038600D01*
X0140949Y0039654D01*
X0140054Y0040549D01*
X0138883Y0041034D01*
X0137617Y0041034D01*
X0136446Y0040549D01*
X0135551Y0039654D01*
X0135178Y0038754D02*
X0133321Y0038754D01*
X0133321Y0037555D02*
X0135066Y0037555D01*
X0135422Y0036357D02*
X0133321Y0036357D01*
X0133321Y0035158D02*
X0136438Y0035158D01*
X0138250Y0037850D02*
X0139500Y0036600D01*
X0145366Y0036600D01*
X0149128Y0036357D02*
X0149872Y0036357D01*
X0149872Y0037555D02*
X0149128Y0037555D01*
X0149128Y0038754D02*
X0149872Y0038754D01*
X0150282Y0039952D02*
X0148718Y0039952D01*
X0149001Y0042349D02*
X0149999Y0042349D01*
X0142519Y0042349D02*
X0129721Y0042349D01*
X0130184Y0043548D02*
X0141801Y0043548D01*
X0141801Y0044746D02*
X0130179Y0044746D01*
X0129658Y0045945D02*
X0141801Y0045945D01*
X0143260Y0049100D02*
X0145760Y0046600D01*
X0143260Y0049100D02*
X0112000Y0049100D01*
X0110661Y0050439D01*
X0110661Y0065872D01*
X0113220Y0065872D02*
X0113220Y0052880D01*
X0114500Y0051600D01*
X0129500Y0051600D01*
X0134500Y0056600D01*
X0145760Y0056600D01*
X0141801Y0054334D02*
X0135063Y0054334D01*
X0133864Y0053136D02*
X0141801Y0053136D01*
X0149113Y0050739D02*
X0149887Y0050739D01*
X0156593Y0050739D02*
X0157660Y0050739D01*
X0157566Y0050967D02*
X0158051Y0049796D01*
X0158946Y0048901D01*
X0160117Y0048416D01*
X0161383Y0048416D01*
X0162554Y0048901D01*
X0163449Y0049796D01*
X0163934Y0050967D01*
X0163934Y0052233D01*
X0163449Y0053404D01*
X0162750Y0054103D01*
X0162750Y0073272D01*
X0163663Y0074184D01*
X0163946Y0073901D01*
X0165117Y0073416D01*
X0166383Y0073416D01*
X0167554Y0073901D01*
X0168449Y0074796D01*
X0168934Y0075967D01*
X0168934Y0077233D01*
X0168449Y0078404D01*
X0167554Y0079299D01*
X0166383Y0079784D01*
X0165117Y0079784D01*
X0163946Y0079299D01*
X0163247Y0078600D01*
X0162422Y0078600D01*
X0161250Y0077428D01*
X0158750Y0074928D01*
X0158750Y0054103D01*
X0158051Y0053404D01*
X0157566Y0052233D01*
X0157566Y0050967D01*
X0157566Y0051937D02*
X0132666Y0051937D01*
X0127172Y0053600D02*
X0126446Y0053901D01*
X0125551Y0054796D01*
X0125066Y0055967D01*
X0125066Y0056956D01*
X0124016Y0058006D01*
X0124016Y0061319D01*
X0123457Y0061319D01*
X0123457Y0065872D01*
X0123457Y0065872D01*
X0123457Y0061319D01*
X0122459Y0061319D01*
X0122052Y0061428D01*
X0121894Y0061519D01*
X0120339Y0061519D01*
X0120339Y0057942D01*
X0121038Y0057242D01*
X0121523Y0056072D01*
X0121523Y0054805D01*
X0121038Y0053635D01*
X0121003Y0053600D01*
X0127172Y0053600D01*
X0126012Y0054334D02*
X0121328Y0054334D01*
X0121523Y0055533D02*
X0125245Y0055533D01*
X0125066Y0056732D02*
X0121250Y0056732D01*
X0118339Y0055439D02*
X0118339Y0065872D01*
X0115780Y0065872D02*
X0115780Y0061319D01*
X0116339Y0061319D01*
X0116339Y0057942D01*
X0115639Y0057242D01*
X0115551Y0057154D01*
X0115220Y0056357D01*
X0115220Y0061319D01*
X0115779Y0061319D01*
X0115779Y0065872D01*
X0115780Y0065872D01*
X0115779Y0066320D02*
X0115780Y0066320D01*
X0115779Y0067518D02*
X0115780Y0067518D01*
X0115779Y0068717D02*
X0115780Y0068717D01*
X0115779Y0069915D02*
X0115780Y0069915D01*
X0123457Y0069915D02*
X0123457Y0069915D01*
X0123457Y0068717D02*
X0123457Y0068717D01*
X0123457Y0067518D02*
X0123457Y0067518D01*
X0123457Y0066320D02*
X0123457Y0066320D01*
X0123457Y0065121D02*
X0123457Y0065121D01*
X0126016Y0065872D02*
X0126016Y0058834D01*
X0128250Y0056600D01*
X0131434Y0056732D02*
X0131803Y0056732D01*
X0131146Y0057930D02*
X0133002Y0057930D01*
X0130225Y0059129D02*
X0141801Y0059129D01*
X0141995Y0060327D02*
X0128016Y0060327D01*
X0124016Y0060327D02*
X0120339Y0060327D01*
X0120339Y0059129D02*
X0124016Y0059129D01*
X0124092Y0057930D02*
X0120350Y0057930D01*
X0116327Y0057930D02*
X0115220Y0057930D01*
X0115639Y0057242D02*
X0115639Y0057242D01*
X0115376Y0056732D02*
X0115220Y0056732D01*
X0108661Y0056732D02*
X0102425Y0056732D01*
X0102425Y0055533D02*
X0108661Y0055533D01*
X0108661Y0054334D02*
X0106219Y0054334D01*
X0107310Y0053136D02*
X0108661Y0053136D01*
X0108661Y0051937D02*
X0107684Y0051937D01*
X0107590Y0050739D02*
X0108661Y0050739D01*
X0108731Y0049540D02*
X0107543Y0049540D01*
X0105543Y0050557D02*
X0104500Y0051600D01*
X0105543Y0050557D02*
X0105543Y0037328D01*
X0108102Y0037328D02*
X0108102Y0043952D01*
X0109500Y0045350D01*
X0125750Y0045350D01*
X0127000Y0044100D01*
X0123864Y0043350D02*
X0124301Y0042296D01*
X0124916Y0041681D01*
X0124648Y0041681D01*
X0114783Y0041681D01*
X0114625Y0041772D01*
X0114219Y0041881D01*
X0113221Y0041881D01*
X0113221Y0037328D01*
X0113220Y0037328D01*
X0113220Y0041881D01*
X0112222Y0041881D01*
X0111815Y0041772D01*
X0111658Y0041681D01*
X0110102Y0041681D01*
X0110102Y0043124D01*
X0110328Y0043350D01*
X0123864Y0043350D01*
X0124279Y0042349D02*
X0110102Y0042349D01*
X0113220Y0041151D02*
X0113221Y0041151D01*
X0113220Y0039952D02*
X0113221Y0039952D01*
X0113220Y0038754D02*
X0113221Y0038754D01*
X0113220Y0037555D02*
X0113221Y0037555D01*
X0113220Y0036357D02*
X0113221Y0036357D01*
X0113220Y0035158D02*
X0113221Y0035158D01*
X0113220Y0033960D02*
X0113221Y0033960D01*
X0110750Y0030350D02*
X0108102Y0032998D01*
X0108102Y0037328D01*
X0100425Y0037328D02*
X0100425Y0056925D01*
X0099500Y0057850D01*
X0087000Y0057850D01*
X0085750Y0059100D01*
X0085750Y0066600D01*
X0080750Y0071600D01*
X0080750Y0076590D01*
X0080760Y0076600D01*
X0076801Y0077106D02*
X0072199Y0077106D01*
X0072199Y0078305D02*
X0076801Y0078305D01*
X0076801Y0079503D02*
X0072199Y0079503D01*
X0071630Y0080702D02*
X0077370Y0080702D01*
X0072487Y0083620D02*
X0072276Y0083255D01*
X0071978Y0082957D01*
X0071614Y0082747D01*
X0071207Y0082638D01*
X0069215Y0082638D01*
X0069215Y0086019D01*
X0069215Y0087181D01*
X0072596Y0087181D01*
X0072596Y0089173D01*
X0072487Y0089580D01*
X0072276Y0089945D01*
X0071978Y0090243D01*
X0071614Y0090453D01*
X0071207Y0090562D01*
X0069215Y0090562D01*
X0069215Y0087181D01*
X0068053Y0087181D01*
X0068053Y0090562D01*
X0066061Y0090562D01*
X0065654Y0090453D01*
X0065289Y0090243D01*
X0064991Y0089945D01*
X0064781Y0089580D01*
X0064672Y0089173D01*
X0064672Y0087181D01*
X0068053Y0087181D01*
X0068053Y0086019D01*
X0069215Y0086019D01*
X0072596Y0086019D01*
X0072596Y0084027D01*
X0072487Y0083620D01*
X0072120Y0083099D02*
X0126575Y0083099D01*
X0126575Y0081900D02*
X0063366Y0081900D01*
X0063569Y0083099D02*
X0065148Y0083099D01*
X0065289Y0082957D02*
X0065654Y0082747D01*
X0066061Y0082638D01*
X0068053Y0082638D01*
X0068053Y0086019D01*
X0064672Y0086019D01*
X0064672Y0084027D01*
X0064781Y0083620D01*
X0064991Y0083255D01*
X0065289Y0082957D01*
X0064672Y0084297D02*
X0064128Y0084297D01*
X0064128Y0085496D02*
X0064672Y0085496D01*
X0068053Y0085496D02*
X0069215Y0085496D01*
X0069215Y0084297D02*
X0068053Y0084297D01*
X0068053Y0083099D02*
X0069215Y0083099D01*
X0072596Y0084297D02*
X0126049Y0084297D01*
X0125261Y0085496D02*
X0072596Y0085496D01*
X0069215Y0086694D02*
X0125066Y0086694D01*
X0125339Y0087893D02*
X0072596Y0087893D01*
X0072596Y0089091D02*
X0126238Y0089091D01*
X0130262Y0089091D02*
X0180769Y0089091D01*
X0181967Y0090290D02*
X0071897Y0090290D01*
X0069215Y0090290D02*
X0068053Y0090290D01*
X0068053Y0089091D02*
X0069215Y0089091D01*
X0069215Y0087893D02*
X0068053Y0087893D01*
X0068053Y0086694D02*
X0064128Y0086694D01*
X0064128Y0087893D02*
X0064672Y0087893D01*
X0064672Y0089091D02*
X0064128Y0089091D01*
X0063381Y0090290D02*
X0065371Y0090290D01*
X0057352Y0090290D02*
X0025399Y0090290D01*
X0025399Y0091488D02*
X0188601Y0091488D01*
X0188601Y0090290D02*
X0187033Y0090290D01*
X0188231Y0089091D02*
X0188888Y0089091D01*
X0188900Y0087893D02*
X0189210Y0087893D01*
X0188900Y0086694D02*
X0189747Y0086694D01*
X0190439Y0085496D02*
X0188900Y0085496D01*
X0188420Y0084297D02*
X0191389Y0084297D01*
X0192587Y0083099D02*
X0187221Y0083099D01*
X0186621Y0080702D02*
X0198061Y0080702D01*
X0200938Y0080702D02*
X0217228Y0080702D01*
X0216863Y0079503D02*
X0187819Y0079503D01*
X0188900Y0078305D02*
X0216670Y0078305D01*
X0217789Y0081900D02*
X0204498Y0081900D01*
X0206413Y0083099D02*
X0218587Y0083099D01*
X0219695Y0084297D02*
X0207611Y0084297D01*
X0208561Y0085496D02*
X0221434Y0085496D01*
X0210111Y0089091D02*
X0234400Y0089091D01*
X0234400Y0087893D02*
X0209790Y0087893D01*
X0209253Y0086694D02*
X0234400Y0086694D01*
X0234400Y0090290D02*
X0210399Y0090290D01*
X0210399Y0091488D02*
X0234400Y0091488D01*
X0234400Y0092687D02*
X0210399Y0092687D01*
X0210171Y0093885D02*
X0234400Y0093885D01*
X0234400Y0095084D02*
X0209850Y0095084D01*
X0209382Y0096282D02*
X0234400Y0096282D01*
X0194502Y0081900D02*
X0175250Y0081900D01*
X0175250Y0080702D02*
X0182379Y0080702D01*
X0181181Y0079503D02*
X0175250Y0079503D01*
X0175250Y0078305D02*
X0180100Y0078305D01*
X0180100Y0077106D02*
X0175250Y0077106D01*
X0175250Y0075908D02*
X0180100Y0075908D01*
X0180168Y0074709D02*
X0175250Y0074709D01*
X0175250Y0073511D02*
X0181367Y0073511D01*
X0182565Y0072312D02*
X0175250Y0072312D01*
X0171250Y0072312D02*
X0162750Y0072312D01*
X0162989Y0073511D02*
X0164887Y0073511D01*
X0166613Y0073511D02*
X0171250Y0073511D01*
X0171250Y0074709D02*
X0168362Y0074709D01*
X0168910Y0075908D02*
X0171250Y0075908D01*
X0171250Y0077106D02*
X0168934Y0077106D01*
X0168490Y0078305D02*
X0171250Y0078305D01*
X0171250Y0079503D02*
X0167062Y0079503D01*
X0164438Y0079503D02*
X0137684Y0079503D01*
X0137283Y0080702D02*
X0171250Y0080702D01*
X0171250Y0081900D02*
X0136060Y0081900D01*
X0132940Y0081900D02*
X0130575Y0081900D01*
X0130575Y0080702D02*
X0131717Y0080702D01*
X0131316Y0079503D02*
X0130575Y0079503D01*
X0126575Y0079503D02*
X0122199Y0079503D01*
X0121630Y0080702D02*
X0126575Y0080702D01*
X0130575Y0083099D02*
X0171250Y0083099D01*
X0171250Y0084297D02*
X0130575Y0084297D01*
X0131239Y0085496D02*
X0171250Y0085496D01*
X0173250Y0085350D02*
X0174500Y0086600D01*
X0184500Y0086600D01*
X0180580Y0084297D02*
X0175250Y0084297D01*
X0175250Y0083099D02*
X0181779Y0083099D01*
X0173250Y0085350D02*
X0173250Y0042850D01*
X0167000Y0036600D01*
X0167000Y0031600D01*
X0174500Y0026600D02*
X0118240Y0026600D01*
X0110760Y0026600D02*
X0110750Y0026610D01*
X0110750Y0030350D01*
X0114487Y0030364D02*
X0114513Y0030364D01*
X0133321Y0033960D02*
X0141604Y0033960D01*
X0149128Y0033960D02*
X0149872Y0033960D01*
X0149872Y0035158D02*
X0149128Y0035158D01*
X0141604Y0038754D02*
X0141322Y0038754D01*
X0140651Y0039952D02*
X0142014Y0039952D01*
X0156481Y0042349D02*
X0169921Y0042349D01*
X0171119Y0043548D02*
X0157199Y0043548D01*
X0157199Y0044746D02*
X0171250Y0044746D01*
X0171250Y0045945D02*
X0157199Y0045945D01*
X0157199Y0047143D02*
X0171250Y0047143D01*
X0171250Y0048342D02*
X0157199Y0048342D01*
X0157199Y0049540D02*
X0158306Y0049540D01*
X0160750Y0051600D02*
X0160750Y0074100D01*
X0163250Y0076600D01*
X0165750Y0076600D01*
X0162126Y0078305D02*
X0137617Y0078305D01*
X0137009Y0077106D02*
X0160928Y0077106D01*
X0159729Y0075908D02*
X0136500Y0075908D01*
X0136500Y0074709D02*
X0158750Y0074709D01*
X0158750Y0073511D02*
X0136500Y0073511D01*
X0135541Y0072312D02*
X0158750Y0072312D01*
X0158750Y0071114D02*
X0134342Y0071114D01*
X0133144Y0069915D02*
X0141977Y0069915D01*
X0141604Y0069542D02*
X0141604Y0068600D01*
X0138672Y0068600D01*
X0138606Y0068534D01*
X0137617Y0068534D01*
X0136446Y0068049D01*
X0135551Y0067154D01*
X0135066Y0065983D01*
X0135066Y0064717D01*
X0135551Y0063546D01*
X0136446Y0062651D01*
X0137617Y0062166D01*
X0138883Y0062166D01*
X0140054Y0062651D01*
X0140949Y0063546D01*
X0141386Y0064600D01*
X0141604Y0064600D01*
X0141604Y0063658D01*
X0142424Y0062838D01*
X0148308Y0062838D01*
X0149128Y0063658D01*
X0149128Y0069542D01*
X0148308Y0070362D01*
X0142424Y0070362D01*
X0141604Y0069542D01*
X0141604Y0068717D02*
X0133321Y0068717D01*
X0133321Y0067518D02*
X0135915Y0067518D01*
X0135205Y0066320D02*
X0133321Y0066320D01*
X0133321Y0065121D02*
X0135066Y0065121D01*
X0138250Y0065350D02*
X0139500Y0066600D01*
X0145366Y0066600D01*
X0149128Y0066320D02*
X0149872Y0066320D01*
X0149872Y0067518D02*
X0149128Y0067518D01*
X0149128Y0068717D02*
X0149872Y0068717D01*
X0150245Y0069915D02*
X0148755Y0069915D01*
X0157023Y0069915D02*
X0158750Y0069915D01*
X0158750Y0068717D02*
X0157396Y0068717D01*
X0157396Y0067518D02*
X0158750Y0067518D01*
X0158750Y0066320D02*
X0157396Y0066320D01*
X0157396Y0065121D02*
X0158750Y0065121D01*
X0162750Y0065121D02*
X0171250Y0065121D01*
X0171250Y0066320D02*
X0162750Y0066320D01*
X0162750Y0067518D02*
X0171250Y0067518D01*
X0171250Y0068717D02*
X0162750Y0068717D01*
X0162750Y0069915D02*
X0171250Y0069915D01*
X0171250Y0071114D02*
X0162750Y0071114D01*
X0149872Y0065121D02*
X0149128Y0065121D01*
X0149128Y0063923D02*
X0149872Y0063923D01*
X0151434Y0062724D02*
X0140127Y0062724D01*
X0141105Y0063923D02*
X0141604Y0063923D01*
X0136373Y0062724D02*
X0133321Y0062724D01*
X0133321Y0063923D02*
X0135395Y0063923D01*
X0132508Y0061526D02*
X0151434Y0061526D01*
X0155834Y0061526D02*
X0158750Y0061526D01*
X0158750Y0062724D02*
X0155834Y0062724D01*
X0157396Y0063923D02*
X0158750Y0063923D01*
X0162750Y0063923D02*
X0171250Y0063923D01*
X0171250Y0062724D02*
X0162750Y0062724D01*
X0162750Y0061526D02*
X0171250Y0061526D01*
X0171250Y0060327D02*
X0162750Y0060327D01*
X0162750Y0059129D02*
X0171250Y0059129D01*
X0171250Y0057930D02*
X0162750Y0057930D01*
X0158750Y0057930D02*
X0157199Y0057930D01*
X0157199Y0059129D02*
X0158750Y0059129D01*
X0158750Y0060327D02*
X0157005Y0060327D01*
X0157199Y0056732D02*
X0158750Y0056732D01*
X0158750Y0055533D02*
X0157199Y0055533D01*
X0157199Y0054334D02*
X0158750Y0054334D01*
X0157940Y0053136D02*
X0157199Y0053136D01*
X0162750Y0054334D02*
X0171250Y0054334D01*
X0171250Y0053136D02*
X0163560Y0053136D01*
X0163934Y0051937D02*
X0171250Y0051937D01*
X0171250Y0050739D02*
X0163840Y0050739D01*
X0163194Y0049540D02*
X0171250Y0049540D01*
X0175250Y0049540D02*
X0181218Y0049540D01*
X0182416Y0050739D02*
X0175250Y0050739D01*
X0175250Y0048342D02*
X0180100Y0048342D01*
X0180100Y0047143D02*
X0175250Y0047143D01*
X0175250Y0045945D02*
X0180100Y0045945D01*
X0180131Y0044746D02*
X0175250Y0044746D01*
X0175250Y0043548D02*
X0181330Y0043548D01*
X0182528Y0042349D02*
X0175250Y0042349D01*
X0187370Y0039952D02*
X0196668Y0039952D01*
X0195469Y0038754D02*
X0188569Y0038754D01*
X0209000Y0038754D02*
X0210611Y0038754D01*
X0210891Y0039952D02*
X0210198Y0039952D01*
X0211397Y0041151D02*
X0212089Y0041151D01*
X0215416Y0037555D02*
X0234400Y0037555D01*
X0234400Y0036357D02*
X0219551Y0036357D01*
X0218740Y0035158D02*
X0234400Y0035158D01*
X0234400Y0033960D02*
X0229701Y0033960D01*
X0231559Y0032761D02*
X0234400Y0032761D01*
X0234400Y0031563D02*
X0232762Y0031563D01*
X0233598Y0030364D02*
X0234400Y0030364D01*
X0234400Y0029166D02*
X0234191Y0029166D01*
X0226350Y0029166D02*
X0225150Y0029166D01*
X0225150Y0030364D02*
X0226350Y0030364D01*
X0226350Y0031563D02*
X0225150Y0031563D01*
X0225150Y0032761D02*
X0226350Y0032761D01*
X0226350Y0033960D02*
X0225150Y0033960D01*
X0215416Y0035158D02*
X0214746Y0035158D01*
X0214746Y0036357D02*
X0215416Y0036357D01*
X0219551Y0038754D02*
X0234400Y0038754D01*
X0234400Y0039952D02*
X0219270Y0039952D01*
X0206256Y0049540D02*
X0202353Y0049540D01*
X0203551Y0050739D02*
X0207454Y0050739D01*
X0208653Y0051937D02*
X0204750Y0051937D01*
X0205948Y0053136D02*
X0209851Y0053136D01*
X0210811Y0054334D02*
X0207147Y0054334D01*
X0208345Y0055533D02*
X0210811Y0055533D01*
X0210811Y0056732D02*
X0209544Y0056732D01*
X0210742Y0057930D02*
X0211435Y0057930D01*
X0211941Y0059129D02*
X0212633Y0059129D01*
X0208115Y0061526D02*
X0175250Y0061526D01*
X0186847Y0062724D02*
X0209314Y0062724D01*
X0210512Y0063923D02*
X0188045Y0063923D01*
X0188900Y0065121D02*
X0210811Y0065121D01*
X0210811Y0066320D02*
X0188900Y0066320D01*
X0188900Y0067518D02*
X0211181Y0067518D01*
X0212379Y0068717D02*
X0188606Y0068717D01*
X0186995Y0060327D02*
X0206917Y0060327D01*
X0205718Y0059129D02*
X0188194Y0059129D01*
X0188900Y0057930D02*
X0204520Y0057930D01*
X0203321Y0056732D02*
X0188900Y0056732D01*
X0188900Y0055533D02*
X0202123Y0055533D01*
X0200924Y0054334D02*
X0188457Y0054334D01*
X0187259Y0053136D02*
X0199726Y0053136D01*
X0171250Y0055533D02*
X0162750Y0055533D01*
X0162750Y0056732D02*
X0171250Y0056732D01*
X0134500Y0074100D02*
X0131134Y0070734D01*
X0131134Y0065872D01*
X0128575Y0065872D02*
X0128575Y0086275D01*
X0128250Y0086600D01*
X0131434Y0086694D02*
X0171766Y0086694D01*
X0172964Y0087893D02*
X0131161Y0087893D01*
X0114850Y0080702D02*
X0114433Y0080702D01*
X0111360Y0080702D02*
X0110160Y0080702D01*
X0110160Y0079503D02*
X0111360Y0079503D01*
X0111360Y0078305D02*
X0110160Y0078305D01*
X0110160Y0077106D02*
X0098063Y0077106D01*
X0099695Y0075908D02*
X0106601Y0075908D01*
X0106601Y0076000D02*
X0106601Y0073437D01*
X0106710Y0073030D01*
X0106920Y0072665D01*
X0107218Y0072367D01*
X0107583Y0072156D01*
X0107990Y0072047D01*
X0110160Y0072047D01*
X0110160Y0076000D01*
X0106601Y0076000D01*
X0106601Y0074709D02*
X0100184Y0074709D01*
X0100184Y0073511D02*
X0106601Y0073511D01*
X0107313Y0072312D02*
X0099706Y0072312D01*
X0097000Y0074100D02*
X0094500Y0076600D01*
X0088240Y0076600D01*
X0092199Y0079503D02*
X0106601Y0079503D01*
X0107087Y0080702D02*
X0091630Y0080702D01*
X0095624Y0078305D02*
X0106601Y0078305D01*
X0110160Y0075908D02*
X0111360Y0075908D01*
X0111360Y0074709D02*
X0110160Y0074709D01*
X0110160Y0073511D02*
X0111360Y0073511D01*
X0111360Y0072312D02*
X0110160Y0072312D01*
X0114206Y0072312D02*
X0115036Y0072312D01*
X0121444Y0072312D02*
X0124016Y0072312D01*
X0124016Y0073511D02*
X0122199Y0073511D01*
X0124500Y0076600D02*
X0126016Y0075084D01*
X0126016Y0065872D01*
X0123457Y0063923D02*
X0123457Y0063923D01*
X0123457Y0062724D02*
X0123457Y0062724D01*
X0123457Y0061526D02*
X0123457Y0061526D01*
X0116339Y0060327D02*
X0115220Y0060327D01*
X0115220Y0059129D02*
X0116339Y0059129D01*
X0115779Y0061526D02*
X0115780Y0061526D01*
X0115779Y0062724D02*
X0115780Y0062724D01*
X0115779Y0063923D02*
X0115780Y0063923D01*
X0115779Y0065121D02*
X0115780Y0065121D01*
X0105543Y0065121D02*
X0105543Y0065121D01*
X0105543Y0066320D02*
X0105543Y0066320D01*
X0105543Y0067518D02*
X0105543Y0067518D01*
X0105543Y0068717D02*
X0105543Y0068717D01*
X0105543Y0069915D02*
X0105543Y0069915D01*
X0102984Y0069915D02*
X0102984Y0069915D01*
X0102984Y0068717D02*
X0102984Y0068717D01*
X0102984Y0067518D02*
X0102984Y0067518D01*
X0102984Y0066320D02*
X0102984Y0066320D01*
X0102984Y0065121D02*
X0102984Y0065121D01*
X0102984Y0063923D02*
X0102984Y0063923D01*
X0102984Y0062724D02*
X0102984Y0062724D01*
X0102984Y0061526D02*
X0102984Y0061526D01*
X0105543Y0061526D02*
X0105543Y0061526D01*
X0105543Y0062724D02*
X0105543Y0062724D01*
X0105543Y0063923D02*
X0105543Y0063923D01*
X0108661Y0060327D02*
X0087750Y0060327D01*
X0087750Y0061526D02*
X0096492Y0061526D01*
X0095679Y0062724D02*
X0087750Y0062724D01*
X0087750Y0063923D02*
X0095679Y0063923D01*
X0095679Y0065121D02*
X0087750Y0065121D01*
X0087750Y0066320D02*
X0095679Y0066320D01*
X0095679Y0067518D02*
X0087660Y0067518D01*
X0086462Y0068717D02*
X0095679Y0068717D01*
X0096190Y0069915D02*
X0085263Y0069915D01*
X0084065Y0071114D02*
X0095889Y0071114D01*
X0098111Y0071114D02*
X0124016Y0071114D01*
X0130575Y0073511D02*
X0131082Y0073511D01*
X0130575Y0074709D02*
X0132281Y0074709D01*
X0132500Y0075908D02*
X0130575Y0075908D01*
X0130575Y0077106D02*
X0131991Y0077106D01*
X0131383Y0078305D02*
X0130575Y0078305D01*
X0126575Y0078305D02*
X0125624Y0078305D01*
X0124500Y0076600D02*
X0118240Y0076600D01*
X0134500Y0079100D02*
X0134500Y0074100D01*
X0108661Y0059129D02*
X0101050Y0059129D01*
X0102248Y0057930D02*
X0108661Y0057930D01*
X0102781Y0054334D02*
X0102425Y0054334D01*
X0098425Y0054334D02*
X0088719Y0054334D01*
X0089810Y0053136D02*
X0098425Y0053136D01*
X0098425Y0051937D02*
X0090184Y0051937D01*
X0090090Y0050739D02*
X0098425Y0050739D01*
X0098425Y0049540D02*
X0089444Y0049540D01*
X0087000Y0051600D02*
X0078161Y0051600D01*
X0078250Y0051511D01*
X0084286Y0049540D02*
X0084556Y0049540D01*
X0084286Y0048342D02*
X0098425Y0048342D01*
X0098425Y0047143D02*
X0084286Y0047143D01*
X0083935Y0045945D02*
X0098425Y0045945D01*
X0098425Y0044746D02*
X0080450Y0044746D01*
X0080805Y0043548D02*
X0098425Y0043548D01*
X0098425Y0042349D02*
X0081386Y0042349D01*
X0081434Y0041151D02*
X0095969Y0041151D01*
X0095679Y0039952D02*
X0081014Y0039952D01*
X0080075Y0038754D02*
X0079700Y0038754D01*
X0107543Y0047143D02*
X0108465Y0047143D01*
X0107543Y0048342D02*
X0109930Y0048342D01*
X0098425Y0055533D02*
X0084286Y0055533D01*
X0084286Y0054334D02*
X0085281Y0054334D01*
X0085290Y0056732D02*
X0084286Y0056732D01*
X0084092Y0057930D02*
X0080361Y0057930D01*
X0080361Y0059129D02*
X0083750Y0059129D01*
X0083750Y0060327D02*
X0080361Y0060327D01*
X0080361Y0061526D02*
X0083750Y0061526D01*
X0083750Y0062724D02*
X0080361Y0062724D01*
X0080361Y0063923D02*
X0083750Y0063923D01*
X0083750Y0065121D02*
X0080361Y0065121D01*
X0080361Y0066320D02*
X0083202Y0066320D01*
X0082003Y0067518D02*
X0080361Y0067518D01*
X0080361Y0068717D02*
X0080805Y0068717D01*
X0079606Y0069915D02*
X0079296Y0069915D01*
X0078750Y0071114D02*
X0078098Y0071114D01*
X0077556Y0072312D02*
X0076899Y0072312D01*
X0076801Y0073511D02*
X0075701Y0073511D01*
X0076801Y0074709D02*
X0074502Y0074709D01*
X0073304Y0075908D02*
X0076801Y0075908D01*
X0083964Y0072312D02*
X0085036Y0072312D01*
X0091444Y0072312D02*
X0094294Y0072312D01*
X0093816Y0073511D02*
X0092199Y0073511D01*
X0084850Y0080702D02*
X0084150Y0080702D01*
X0064850Y0080702D02*
X0064150Y0080702D01*
X0057366Y0080702D02*
X0015938Y0080702D01*
X0013061Y0080702D02*
X0009600Y0080702D01*
X0009600Y0079503D02*
X0056801Y0079503D01*
X0056801Y0078305D02*
X0009600Y0078305D01*
X0009600Y0077106D02*
X0056801Y0077106D01*
X0056801Y0075908D02*
X0009600Y0075908D01*
X0019498Y0081900D02*
X0057366Y0081900D01*
X0057163Y0083099D02*
X0021413Y0083099D01*
X0022611Y0084297D02*
X0056604Y0084297D01*
X0056604Y0085496D02*
X0023561Y0085496D01*
X0024253Y0086694D02*
X0056604Y0086694D01*
X0056604Y0087893D02*
X0024790Y0087893D01*
X0025111Y0089091D02*
X0056604Y0089091D01*
X0025399Y0092687D02*
X0188601Y0092687D01*
X0188829Y0093885D02*
X0025171Y0093885D01*
X0024850Y0095084D02*
X0189150Y0095084D01*
X0189618Y0096282D02*
X0024382Y0096282D01*
X0063964Y0072312D02*
X0065036Y0072312D01*
X0060160Y0066320D02*
X0043813Y0066320D01*
X0043813Y0065121D02*
X0056601Y0065121D01*
X0060160Y0065121D02*
X0061360Y0065121D01*
X0061360Y0063923D02*
X0060160Y0063923D01*
X0060160Y0062724D02*
X0061360Y0062724D01*
X0056886Y0062724D02*
X0030377Y0062724D01*
X0030872Y0061526D02*
X0065240Y0061526D01*
X0065240Y0060327D02*
X0030872Y0060327D01*
X0043133Y0063923D02*
X0056601Y0063923D01*
X0053833Y0059129D02*
X0064124Y0059129D01*
X0062926Y0057930D02*
X0055031Y0057930D01*
X0028809Y0048342D02*
X0028105Y0048342D01*
X0020895Y0048342D02*
X0009600Y0048342D01*
X0009600Y0047143D02*
X0019694Y0047143D01*
X0018849Y0045945D02*
X0009600Y0045945D01*
X0009600Y0044746D02*
X0018352Y0044746D01*
X0018128Y0043548D02*
X0009600Y0043548D01*
X0009600Y0042349D02*
X0018128Y0042349D01*
X0018344Y0041151D02*
X0009600Y0041151D01*
X0009600Y0039952D02*
X0018840Y0039952D01*
X0018854Y0038754D02*
X0019674Y0038754D01*
X0019010Y0037555D02*
X0020872Y0037555D01*
X0019010Y0036357D02*
X0028021Y0036357D01*
X0028021Y0035158D02*
X0019010Y0035158D01*
X0019010Y0033960D02*
X0028021Y0033960D01*
X0028021Y0032761D02*
X0019010Y0032761D01*
X0019010Y0031563D02*
X0028021Y0031563D01*
X0028021Y0030364D02*
X0019010Y0030364D01*
X0018613Y0029166D02*
X0028419Y0029166D01*
X0068053Y0019578D02*
X0069215Y0019578D01*
X0069215Y0018379D02*
X0068053Y0018379D01*
X0072596Y0014784D02*
X0097238Y0014784D01*
X0195816Y0025570D02*
X0225150Y0025570D01*
X0225150Y0024372D02*
X0226350Y0024372D01*
X0226350Y0023173D02*
X0225150Y0023173D01*
X0225150Y0021975D02*
X0226350Y0021975D01*
X0226350Y0020776D02*
X0225150Y0020776D01*
X0225150Y0019578D02*
X0226350Y0019578D01*
X0226350Y0018379D02*
X0225150Y0018379D01*
X0225150Y0017181D02*
X0226350Y0017181D01*
X0228911Y0017181D02*
X0234400Y0017181D01*
X0234400Y0018379D02*
X0231133Y0018379D01*
X0232480Y0019578D02*
X0234400Y0019578D01*
X0234400Y0020776D02*
X0233409Y0020776D01*
X0234055Y0021975D02*
X0234400Y0021975D01*
X0226350Y0026769D02*
X0225150Y0026769D01*
X0225150Y0027967D02*
X0226350Y0027967D01*
X0233280Y0072312D02*
X0234400Y0072312D01*
X0234400Y0073511D02*
X0233974Y0073511D01*
D24*
X0215081Y0065380D02*
X0196301Y0046600D01*
X0184500Y0046600D01*
X0153634Y0046206D02*
X0153634Y0036600D01*
X0153634Y0046206D02*
X0153240Y0046600D01*
X0153240Y0056600D02*
X0153634Y0056994D01*
X0153634Y0066600D01*
X0078161Y0067939D02*
X0078161Y0051600D01*
X0078250Y0051511D02*
X0078250Y0041600D01*
X0060760Y0037850D02*
X0055750Y0037850D01*
X0053250Y0040350D01*
X0053250Y0056600D01*
X0051951Y0057899D01*
X0036311Y0057899D01*
X0069500Y0076600D02*
X0078161Y0067939D01*
X0069500Y0076600D02*
X0068240Y0076600D01*
D25*
X0060760Y0076600D02*
X0060366Y0076994D01*
X0060366Y0086600D01*
X0068240Y0066600D02*
X0068240Y0059002D01*
X0060839Y0051600D01*
X0068240Y0044198D01*
X0068240Y0037850D01*
X0068240Y0026600D01*
X0060760Y0026600D02*
X0060366Y0026206D01*
X0060366Y0016600D01*
M02*
