%
M48
M72
T01C0.01969
T02C0.03543
T03C0.03740
T04C0.04000
T05C0.09055
T06C0.12598
%
T01
X93178Y52513
X101928Y62513
X119428Y62513
X133178Y66263
X133267Y66351
X143178Y67513
X153178Y76263
X180678Y87513
X175678Y62513
X141928Y55013
X153178Y48763
X183178Y47513
X181928Y33763
X106928Y78763
X111928Y85013
T02
X39428Y71174
X39428Y53851
T03
X230009Y58576
X230009Y66450
X230009Y76292
X230009Y48733
T04
X199428Y47513
X199428Y57513
X199428Y67513
X199428Y77513
X199428Y87513
X199428Y97513
X199428Y37513
X199428Y27513
T05
X240678Y36647
X240678Y88379
T06
X29428Y22513
X214428Y22513
X214428Y102513
X29428Y102513
M30
