G75*
%MOIN*%
%OFA0B0*%
%FSLAX25Y25*%
%IPPOS*%
%LPD*%
%AMOC8*
5,1,8,0,0,1.08239X$1,22.5*
%
%ADD10C,0.13398*%
%ADD11R,0.02375X0.06706*%
%ADD12R,0.05524X0.05524*%
%ADD13R,0.05918X0.06706*%
%ADD14R,0.10249X0.10249*%
%ADD15R,0.10643X0.08674*%
%ADD16R,0.13792X0.08674*%
%ADD17R,0.13005X0.02769*%
%ADD18C,0.04343*%
%ADD19OC8,0.06540*%
%ADD20C,0.15824*%
%ADD21OC8,0.06800*%
D10*
X0014500Y0011600D03*
X0199500Y0011600D03*
X0199500Y0091600D03*
X0014500Y0091600D03*
D11*
X0097866Y0065872D03*
X0100425Y0065872D03*
X0102984Y0065872D03*
X0105543Y0065872D03*
X0108102Y0065872D03*
X0110661Y0065872D03*
X0113220Y0065872D03*
X0115780Y0065872D03*
X0118339Y0065872D03*
X0120898Y0065872D03*
X0123457Y0065872D03*
X0126016Y0065872D03*
X0128575Y0065872D03*
X0131134Y0065872D03*
X0131134Y0037328D03*
X0128575Y0037328D03*
X0126016Y0037328D03*
X0123457Y0037328D03*
X0120898Y0037328D03*
X0118339Y0037328D03*
X0115780Y0037328D03*
X0113220Y0037328D03*
X0110661Y0037328D03*
X0108102Y0037328D03*
X0105543Y0037328D03*
X0102984Y0037328D03*
X0100425Y0037328D03*
X0097866Y0037328D03*
D12*
X0145366Y0036600D03*
X0153634Y0036600D03*
X0153634Y0066600D03*
X0145366Y0066600D03*
X0068634Y0086600D03*
X0060366Y0086600D03*
X0060366Y0016600D03*
X0068634Y0016600D03*
D13*
X0068240Y0026600D03*
X0060760Y0026600D03*
X0080760Y0026600D03*
X0088240Y0026600D03*
X0110760Y0026600D03*
X0118240Y0026600D03*
X0068240Y0037850D03*
X0060760Y0037850D03*
X0060760Y0066600D03*
X0068240Y0066600D03*
X0068240Y0076600D03*
X0060760Y0076600D03*
X0080760Y0076600D03*
X0088240Y0076600D03*
X0110760Y0076600D03*
X0118240Y0076600D03*
X0145760Y0056600D03*
X0153240Y0056600D03*
X0153240Y0046600D03*
X0145760Y0046600D03*
D14*
X0078161Y0051600D03*
X0060839Y0051600D03*
D15*
X0012689Y0034080D03*
X0012689Y0069120D03*
D16*
X0035917Y0069120D03*
X0035917Y0034080D03*
D17*
X0036311Y0045301D03*
X0036311Y0048450D03*
X0036311Y0051600D03*
X0036311Y0054750D03*
X0036311Y0057899D03*
D18*
X0024500Y0060261D03*
X0024500Y0042939D03*
D19*
X0215081Y0047663D03*
X0215081Y0055537D03*
X0215081Y0065380D03*
X0215081Y0037820D03*
D20*
X0225750Y0025734D03*
X0225750Y0077466D03*
D21*
X0184500Y0076600D03*
X0184500Y0086600D03*
X0184500Y0066600D03*
X0184500Y0056600D03*
X0184500Y0046600D03*
X0184500Y0036600D03*
X0184500Y0026600D03*
X0184500Y0016600D03*
M02*
