G75*
%MOIN*%
%OFA0B0*%
%FSLAX25Y25*%
%IPPOS*%
%LPD*%
%AMOC8*
5,1,8,0,0,1.08239X$1,22.5*
%
%ADD10C,0.01000*%
%ADD11C,0.00000*%
%ADD12R,0.01575X0.05906*%
%ADD13R,0.04724X0.04724*%
%ADD14R,0.05118X0.05906*%
%ADD15R,0.09449X0.09449*%
%ADD16R,0.09843X0.07874*%
%ADD17R,0.12992X0.07874*%
%ADD18R,0.12205X0.01969*%
%ADD19C,0.05740*%
%ADD20C,0.13055*%
%ADD21R,0.06000X0.06000*%
%ADD22C,0.06000*%
%ADD23C,0.03569*%
%ADD24C,0.01200*%
%ADD25C,0.01600*%
%ADD26C,0.03200*%
D10*
X0024428Y0012513D02*
X0249428Y0012513D01*
X0249568Y0012515D01*
X0249708Y0012521D01*
X0249848Y0012531D01*
X0249988Y0012544D01*
X0250127Y0012562D01*
X0250266Y0012584D01*
X0250403Y0012609D01*
X0250541Y0012638D01*
X0250677Y0012671D01*
X0250812Y0012708D01*
X0250946Y0012749D01*
X0251079Y0012794D01*
X0251211Y0012842D01*
X0251341Y0012894D01*
X0251470Y0012949D01*
X0251597Y0013008D01*
X0251723Y0013071D01*
X0251847Y0013137D01*
X0251968Y0013206D01*
X0252088Y0013279D01*
X0252206Y0013356D01*
X0252321Y0013435D01*
X0252435Y0013518D01*
X0252545Y0013604D01*
X0252654Y0013693D01*
X0252760Y0013785D01*
X0252863Y0013880D01*
X0252964Y0013977D01*
X0253061Y0014078D01*
X0253156Y0014181D01*
X0253248Y0014287D01*
X0253337Y0014396D01*
X0253423Y0014506D01*
X0253506Y0014620D01*
X0253585Y0014735D01*
X0253662Y0014853D01*
X0253735Y0014973D01*
X0253804Y0015094D01*
X0253870Y0015218D01*
X0253933Y0015344D01*
X0253992Y0015471D01*
X0254047Y0015600D01*
X0254099Y0015730D01*
X0254147Y0015862D01*
X0254192Y0015995D01*
X0254233Y0016129D01*
X0254270Y0016264D01*
X0254303Y0016400D01*
X0254332Y0016538D01*
X0254357Y0016675D01*
X0254379Y0016814D01*
X0254397Y0016953D01*
X0254410Y0017093D01*
X0254420Y0017233D01*
X0254426Y0017373D01*
X0254428Y0017513D01*
X0254428Y0107513D01*
X0254426Y0107653D01*
X0254420Y0107793D01*
X0254410Y0107933D01*
X0254397Y0108073D01*
X0254379Y0108212D01*
X0254357Y0108351D01*
X0254332Y0108488D01*
X0254303Y0108626D01*
X0254270Y0108762D01*
X0254233Y0108897D01*
X0254192Y0109031D01*
X0254147Y0109164D01*
X0254099Y0109296D01*
X0254047Y0109426D01*
X0253992Y0109555D01*
X0253933Y0109682D01*
X0253870Y0109808D01*
X0253804Y0109932D01*
X0253735Y0110053D01*
X0253662Y0110173D01*
X0253585Y0110291D01*
X0253506Y0110406D01*
X0253423Y0110520D01*
X0253337Y0110630D01*
X0253248Y0110739D01*
X0253156Y0110845D01*
X0253061Y0110948D01*
X0252964Y0111049D01*
X0252863Y0111146D01*
X0252760Y0111241D01*
X0252654Y0111333D01*
X0252545Y0111422D01*
X0252435Y0111508D01*
X0252321Y0111591D01*
X0252206Y0111670D01*
X0252088Y0111747D01*
X0251968Y0111820D01*
X0251847Y0111889D01*
X0251723Y0111955D01*
X0251597Y0112018D01*
X0251470Y0112077D01*
X0251341Y0112132D01*
X0251211Y0112184D01*
X0251079Y0112232D01*
X0250946Y0112277D01*
X0250812Y0112318D01*
X0250677Y0112355D01*
X0250541Y0112388D01*
X0250403Y0112417D01*
X0250266Y0112442D01*
X0250127Y0112464D01*
X0249988Y0112482D01*
X0249848Y0112495D01*
X0249708Y0112505D01*
X0249568Y0112511D01*
X0249428Y0112513D01*
X0024428Y0112513D01*
X0024288Y0112511D01*
X0024148Y0112505D01*
X0024008Y0112495D01*
X0023868Y0112482D01*
X0023729Y0112464D01*
X0023590Y0112442D01*
X0023453Y0112417D01*
X0023315Y0112388D01*
X0023179Y0112355D01*
X0023044Y0112318D01*
X0022910Y0112277D01*
X0022777Y0112232D01*
X0022645Y0112184D01*
X0022515Y0112132D01*
X0022386Y0112077D01*
X0022259Y0112018D01*
X0022133Y0111955D01*
X0022009Y0111889D01*
X0021888Y0111820D01*
X0021768Y0111747D01*
X0021650Y0111670D01*
X0021535Y0111591D01*
X0021421Y0111508D01*
X0021311Y0111422D01*
X0021202Y0111333D01*
X0021096Y0111241D01*
X0020993Y0111146D01*
X0020892Y0111049D01*
X0020795Y0110948D01*
X0020700Y0110845D01*
X0020608Y0110739D01*
X0020519Y0110630D01*
X0020433Y0110520D01*
X0020350Y0110406D01*
X0020271Y0110291D01*
X0020194Y0110173D01*
X0020121Y0110053D01*
X0020052Y0109932D01*
X0019986Y0109808D01*
X0019923Y0109682D01*
X0019864Y0109555D01*
X0019809Y0109426D01*
X0019757Y0109296D01*
X0019709Y0109164D01*
X0019664Y0109031D01*
X0019623Y0108897D01*
X0019586Y0108762D01*
X0019553Y0108626D01*
X0019524Y0108488D01*
X0019499Y0108351D01*
X0019477Y0108212D01*
X0019459Y0108073D01*
X0019446Y0107933D01*
X0019436Y0107793D01*
X0019430Y0107653D01*
X0019428Y0107513D01*
X0019428Y0017513D01*
X0019430Y0017373D01*
X0019436Y0017233D01*
X0019446Y0017093D01*
X0019459Y0016953D01*
X0019477Y0016814D01*
X0019499Y0016675D01*
X0019524Y0016538D01*
X0019553Y0016400D01*
X0019586Y0016264D01*
X0019623Y0016129D01*
X0019664Y0015995D01*
X0019709Y0015862D01*
X0019757Y0015730D01*
X0019809Y0015600D01*
X0019864Y0015471D01*
X0019923Y0015344D01*
X0019986Y0015218D01*
X0020052Y0015094D01*
X0020121Y0014973D01*
X0020194Y0014853D01*
X0020271Y0014735D01*
X0020350Y0014620D01*
X0020433Y0014506D01*
X0020519Y0014396D01*
X0020608Y0014287D01*
X0020700Y0014181D01*
X0020795Y0014078D01*
X0020892Y0013977D01*
X0020993Y0013880D01*
X0021096Y0013785D01*
X0021202Y0013693D01*
X0021311Y0013604D01*
X0021421Y0013518D01*
X0021535Y0013435D01*
X0021650Y0013356D01*
X0021768Y0013279D01*
X0021888Y0013206D01*
X0022009Y0013137D01*
X0022133Y0013071D01*
X0022259Y0013008D01*
X0022386Y0012949D01*
X0022515Y0012894D01*
X0022645Y0012842D01*
X0022777Y0012794D01*
X0022910Y0012749D01*
X0023044Y0012708D01*
X0023179Y0012671D01*
X0023315Y0012638D01*
X0023453Y0012609D01*
X0023590Y0012584D01*
X0023729Y0012562D01*
X0023868Y0012544D01*
X0024008Y0012531D01*
X0024148Y0012521D01*
X0024288Y0012515D01*
X0024428Y0012513D01*
D11*
X0023129Y0022513D02*
X0023131Y0022671D01*
X0023137Y0022829D01*
X0023147Y0022987D01*
X0023161Y0023145D01*
X0023179Y0023302D01*
X0023200Y0023459D01*
X0023226Y0023615D01*
X0023256Y0023771D01*
X0023289Y0023926D01*
X0023327Y0024079D01*
X0023368Y0024232D01*
X0023413Y0024384D01*
X0023462Y0024535D01*
X0023515Y0024684D01*
X0023571Y0024832D01*
X0023631Y0024978D01*
X0023695Y0025123D01*
X0023763Y0025266D01*
X0023834Y0025408D01*
X0023908Y0025548D01*
X0023986Y0025685D01*
X0024068Y0025821D01*
X0024152Y0025955D01*
X0024241Y0026086D01*
X0024332Y0026215D01*
X0024427Y0026342D01*
X0024524Y0026467D01*
X0024625Y0026589D01*
X0024729Y0026708D01*
X0024836Y0026825D01*
X0024946Y0026939D01*
X0025059Y0027050D01*
X0025174Y0027159D01*
X0025292Y0027264D01*
X0025413Y0027366D01*
X0025536Y0027466D01*
X0025662Y0027562D01*
X0025790Y0027655D01*
X0025920Y0027745D01*
X0026053Y0027831D01*
X0026188Y0027915D01*
X0026324Y0027994D01*
X0026463Y0028071D01*
X0026604Y0028143D01*
X0026746Y0028213D01*
X0026890Y0028278D01*
X0027036Y0028340D01*
X0027183Y0028398D01*
X0027332Y0028453D01*
X0027482Y0028504D01*
X0027633Y0028551D01*
X0027785Y0028594D01*
X0027938Y0028633D01*
X0028093Y0028669D01*
X0028248Y0028700D01*
X0028404Y0028728D01*
X0028560Y0028752D01*
X0028717Y0028772D01*
X0028875Y0028788D01*
X0029032Y0028800D01*
X0029191Y0028808D01*
X0029349Y0028812D01*
X0029507Y0028812D01*
X0029665Y0028808D01*
X0029824Y0028800D01*
X0029981Y0028788D01*
X0030139Y0028772D01*
X0030296Y0028752D01*
X0030452Y0028728D01*
X0030608Y0028700D01*
X0030763Y0028669D01*
X0030918Y0028633D01*
X0031071Y0028594D01*
X0031223Y0028551D01*
X0031374Y0028504D01*
X0031524Y0028453D01*
X0031673Y0028398D01*
X0031820Y0028340D01*
X0031966Y0028278D01*
X0032110Y0028213D01*
X0032252Y0028143D01*
X0032393Y0028071D01*
X0032532Y0027994D01*
X0032668Y0027915D01*
X0032803Y0027831D01*
X0032936Y0027745D01*
X0033066Y0027655D01*
X0033194Y0027562D01*
X0033320Y0027466D01*
X0033443Y0027366D01*
X0033564Y0027264D01*
X0033682Y0027159D01*
X0033797Y0027050D01*
X0033910Y0026939D01*
X0034020Y0026825D01*
X0034127Y0026708D01*
X0034231Y0026589D01*
X0034332Y0026467D01*
X0034429Y0026342D01*
X0034524Y0026215D01*
X0034615Y0026086D01*
X0034704Y0025955D01*
X0034788Y0025821D01*
X0034870Y0025685D01*
X0034948Y0025548D01*
X0035022Y0025408D01*
X0035093Y0025266D01*
X0035161Y0025123D01*
X0035225Y0024978D01*
X0035285Y0024832D01*
X0035341Y0024684D01*
X0035394Y0024535D01*
X0035443Y0024384D01*
X0035488Y0024232D01*
X0035529Y0024079D01*
X0035567Y0023926D01*
X0035600Y0023771D01*
X0035630Y0023615D01*
X0035656Y0023459D01*
X0035677Y0023302D01*
X0035695Y0023145D01*
X0035709Y0022987D01*
X0035719Y0022829D01*
X0035725Y0022671D01*
X0035727Y0022513D01*
X0035725Y0022355D01*
X0035719Y0022197D01*
X0035709Y0022039D01*
X0035695Y0021881D01*
X0035677Y0021724D01*
X0035656Y0021567D01*
X0035630Y0021411D01*
X0035600Y0021255D01*
X0035567Y0021100D01*
X0035529Y0020947D01*
X0035488Y0020794D01*
X0035443Y0020642D01*
X0035394Y0020491D01*
X0035341Y0020342D01*
X0035285Y0020194D01*
X0035225Y0020048D01*
X0035161Y0019903D01*
X0035093Y0019760D01*
X0035022Y0019618D01*
X0034948Y0019478D01*
X0034870Y0019341D01*
X0034788Y0019205D01*
X0034704Y0019071D01*
X0034615Y0018940D01*
X0034524Y0018811D01*
X0034429Y0018684D01*
X0034332Y0018559D01*
X0034231Y0018437D01*
X0034127Y0018318D01*
X0034020Y0018201D01*
X0033910Y0018087D01*
X0033797Y0017976D01*
X0033682Y0017867D01*
X0033564Y0017762D01*
X0033443Y0017660D01*
X0033320Y0017560D01*
X0033194Y0017464D01*
X0033066Y0017371D01*
X0032936Y0017281D01*
X0032803Y0017195D01*
X0032668Y0017111D01*
X0032532Y0017032D01*
X0032393Y0016955D01*
X0032252Y0016883D01*
X0032110Y0016813D01*
X0031966Y0016748D01*
X0031820Y0016686D01*
X0031673Y0016628D01*
X0031524Y0016573D01*
X0031374Y0016522D01*
X0031223Y0016475D01*
X0031071Y0016432D01*
X0030918Y0016393D01*
X0030763Y0016357D01*
X0030608Y0016326D01*
X0030452Y0016298D01*
X0030296Y0016274D01*
X0030139Y0016254D01*
X0029981Y0016238D01*
X0029824Y0016226D01*
X0029665Y0016218D01*
X0029507Y0016214D01*
X0029349Y0016214D01*
X0029191Y0016218D01*
X0029032Y0016226D01*
X0028875Y0016238D01*
X0028717Y0016254D01*
X0028560Y0016274D01*
X0028404Y0016298D01*
X0028248Y0016326D01*
X0028093Y0016357D01*
X0027938Y0016393D01*
X0027785Y0016432D01*
X0027633Y0016475D01*
X0027482Y0016522D01*
X0027332Y0016573D01*
X0027183Y0016628D01*
X0027036Y0016686D01*
X0026890Y0016748D01*
X0026746Y0016813D01*
X0026604Y0016883D01*
X0026463Y0016955D01*
X0026324Y0017032D01*
X0026188Y0017111D01*
X0026053Y0017195D01*
X0025920Y0017281D01*
X0025790Y0017371D01*
X0025662Y0017464D01*
X0025536Y0017560D01*
X0025413Y0017660D01*
X0025292Y0017762D01*
X0025174Y0017867D01*
X0025059Y0017976D01*
X0024946Y0018087D01*
X0024836Y0018201D01*
X0024729Y0018318D01*
X0024625Y0018437D01*
X0024524Y0018559D01*
X0024427Y0018684D01*
X0024332Y0018811D01*
X0024241Y0018940D01*
X0024152Y0019071D01*
X0024068Y0019205D01*
X0023986Y0019341D01*
X0023908Y0019478D01*
X0023834Y0019618D01*
X0023763Y0019760D01*
X0023695Y0019903D01*
X0023631Y0020048D01*
X0023571Y0020194D01*
X0023515Y0020342D01*
X0023462Y0020491D01*
X0023413Y0020642D01*
X0023368Y0020794D01*
X0023327Y0020947D01*
X0023289Y0021100D01*
X0023256Y0021255D01*
X0023226Y0021411D01*
X0023200Y0021567D01*
X0023179Y0021724D01*
X0023161Y0021881D01*
X0023147Y0022039D01*
X0023137Y0022197D01*
X0023131Y0022355D01*
X0023129Y0022513D01*
X0037656Y0053851D02*
X0037658Y0053935D01*
X0037664Y0054018D01*
X0037674Y0054101D01*
X0037688Y0054184D01*
X0037705Y0054266D01*
X0037727Y0054347D01*
X0037752Y0054426D01*
X0037781Y0054505D01*
X0037814Y0054582D01*
X0037850Y0054657D01*
X0037890Y0054731D01*
X0037933Y0054803D01*
X0037980Y0054872D01*
X0038030Y0054939D01*
X0038083Y0055004D01*
X0038139Y0055066D01*
X0038197Y0055126D01*
X0038259Y0055183D01*
X0038323Y0055236D01*
X0038390Y0055287D01*
X0038459Y0055334D01*
X0038530Y0055379D01*
X0038603Y0055419D01*
X0038678Y0055456D01*
X0038755Y0055490D01*
X0038833Y0055520D01*
X0038912Y0055546D01*
X0038993Y0055569D01*
X0039075Y0055587D01*
X0039157Y0055602D01*
X0039240Y0055613D01*
X0039323Y0055620D01*
X0039407Y0055623D01*
X0039491Y0055622D01*
X0039574Y0055617D01*
X0039658Y0055608D01*
X0039740Y0055595D01*
X0039822Y0055579D01*
X0039903Y0055558D01*
X0039984Y0055534D01*
X0040062Y0055506D01*
X0040140Y0055474D01*
X0040216Y0055438D01*
X0040290Y0055399D01*
X0040362Y0055357D01*
X0040432Y0055311D01*
X0040500Y0055262D01*
X0040565Y0055210D01*
X0040628Y0055155D01*
X0040688Y0055097D01*
X0040746Y0055036D01*
X0040800Y0054972D01*
X0040852Y0054906D01*
X0040900Y0054838D01*
X0040945Y0054767D01*
X0040986Y0054694D01*
X0041025Y0054620D01*
X0041059Y0054544D01*
X0041090Y0054466D01*
X0041117Y0054387D01*
X0041141Y0054306D01*
X0041160Y0054225D01*
X0041176Y0054143D01*
X0041188Y0054060D01*
X0041196Y0053976D01*
X0041200Y0053893D01*
X0041200Y0053809D01*
X0041196Y0053726D01*
X0041188Y0053642D01*
X0041176Y0053559D01*
X0041160Y0053477D01*
X0041141Y0053396D01*
X0041117Y0053315D01*
X0041090Y0053236D01*
X0041059Y0053158D01*
X0041025Y0053082D01*
X0040986Y0053008D01*
X0040945Y0052935D01*
X0040900Y0052864D01*
X0040852Y0052796D01*
X0040800Y0052730D01*
X0040746Y0052666D01*
X0040688Y0052605D01*
X0040628Y0052547D01*
X0040565Y0052492D01*
X0040500Y0052440D01*
X0040432Y0052391D01*
X0040362Y0052345D01*
X0040290Y0052303D01*
X0040216Y0052264D01*
X0040140Y0052228D01*
X0040062Y0052196D01*
X0039984Y0052168D01*
X0039903Y0052144D01*
X0039822Y0052123D01*
X0039740Y0052107D01*
X0039658Y0052094D01*
X0039574Y0052085D01*
X0039491Y0052080D01*
X0039407Y0052079D01*
X0039323Y0052082D01*
X0039240Y0052089D01*
X0039157Y0052100D01*
X0039075Y0052115D01*
X0038993Y0052133D01*
X0038912Y0052156D01*
X0038833Y0052182D01*
X0038755Y0052212D01*
X0038678Y0052246D01*
X0038603Y0052283D01*
X0038530Y0052323D01*
X0038459Y0052368D01*
X0038390Y0052415D01*
X0038323Y0052466D01*
X0038259Y0052519D01*
X0038197Y0052576D01*
X0038139Y0052636D01*
X0038083Y0052698D01*
X0038030Y0052763D01*
X0037980Y0052830D01*
X0037933Y0052899D01*
X0037890Y0052971D01*
X0037850Y0053045D01*
X0037814Y0053120D01*
X0037781Y0053197D01*
X0037752Y0053276D01*
X0037727Y0053355D01*
X0037705Y0053436D01*
X0037688Y0053518D01*
X0037674Y0053601D01*
X0037664Y0053684D01*
X0037658Y0053767D01*
X0037656Y0053851D01*
X0037656Y0071174D02*
X0037658Y0071258D01*
X0037664Y0071341D01*
X0037674Y0071424D01*
X0037688Y0071507D01*
X0037705Y0071589D01*
X0037727Y0071670D01*
X0037752Y0071749D01*
X0037781Y0071828D01*
X0037814Y0071905D01*
X0037850Y0071980D01*
X0037890Y0072054D01*
X0037933Y0072126D01*
X0037980Y0072195D01*
X0038030Y0072262D01*
X0038083Y0072327D01*
X0038139Y0072389D01*
X0038197Y0072449D01*
X0038259Y0072506D01*
X0038323Y0072559D01*
X0038390Y0072610D01*
X0038459Y0072657D01*
X0038530Y0072702D01*
X0038603Y0072742D01*
X0038678Y0072779D01*
X0038755Y0072813D01*
X0038833Y0072843D01*
X0038912Y0072869D01*
X0038993Y0072892D01*
X0039075Y0072910D01*
X0039157Y0072925D01*
X0039240Y0072936D01*
X0039323Y0072943D01*
X0039407Y0072946D01*
X0039491Y0072945D01*
X0039574Y0072940D01*
X0039658Y0072931D01*
X0039740Y0072918D01*
X0039822Y0072902D01*
X0039903Y0072881D01*
X0039984Y0072857D01*
X0040062Y0072829D01*
X0040140Y0072797D01*
X0040216Y0072761D01*
X0040290Y0072722D01*
X0040362Y0072680D01*
X0040432Y0072634D01*
X0040500Y0072585D01*
X0040565Y0072533D01*
X0040628Y0072478D01*
X0040688Y0072420D01*
X0040746Y0072359D01*
X0040800Y0072295D01*
X0040852Y0072229D01*
X0040900Y0072161D01*
X0040945Y0072090D01*
X0040986Y0072017D01*
X0041025Y0071943D01*
X0041059Y0071867D01*
X0041090Y0071789D01*
X0041117Y0071710D01*
X0041141Y0071629D01*
X0041160Y0071548D01*
X0041176Y0071466D01*
X0041188Y0071383D01*
X0041196Y0071299D01*
X0041200Y0071216D01*
X0041200Y0071132D01*
X0041196Y0071049D01*
X0041188Y0070965D01*
X0041176Y0070882D01*
X0041160Y0070800D01*
X0041141Y0070719D01*
X0041117Y0070638D01*
X0041090Y0070559D01*
X0041059Y0070481D01*
X0041025Y0070405D01*
X0040986Y0070331D01*
X0040945Y0070258D01*
X0040900Y0070187D01*
X0040852Y0070119D01*
X0040800Y0070053D01*
X0040746Y0069989D01*
X0040688Y0069928D01*
X0040628Y0069870D01*
X0040565Y0069815D01*
X0040500Y0069763D01*
X0040432Y0069714D01*
X0040362Y0069668D01*
X0040290Y0069626D01*
X0040216Y0069587D01*
X0040140Y0069551D01*
X0040062Y0069519D01*
X0039984Y0069491D01*
X0039903Y0069467D01*
X0039822Y0069446D01*
X0039740Y0069430D01*
X0039658Y0069417D01*
X0039574Y0069408D01*
X0039491Y0069403D01*
X0039407Y0069402D01*
X0039323Y0069405D01*
X0039240Y0069412D01*
X0039157Y0069423D01*
X0039075Y0069438D01*
X0038993Y0069456D01*
X0038912Y0069479D01*
X0038833Y0069505D01*
X0038755Y0069535D01*
X0038678Y0069569D01*
X0038603Y0069606D01*
X0038530Y0069646D01*
X0038459Y0069691D01*
X0038390Y0069738D01*
X0038323Y0069789D01*
X0038259Y0069842D01*
X0038197Y0069899D01*
X0038139Y0069959D01*
X0038083Y0070021D01*
X0038030Y0070086D01*
X0037980Y0070153D01*
X0037933Y0070222D01*
X0037890Y0070294D01*
X0037850Y0070368D01*
X0037814Y0070443D01*
X0037781Y0070520D01*
X0037752Y0070599D01*
X0037727Y0070678D01*
X0037705Y0070759D01*
X0037688Y0070841D01*
X0037674Y0070924D01*
X0037664Y0071007D01*
X0037658Y0071090D01*
X0037656Y0071174D01*
X0023129Y0102513D02*
X0023131Y0102671D01*
X0023137Y0102829D01*
X0023147Y0102987D01*
X0023161Y0103145D01*
X0023179Y0103302D01*
X0023200Y0103459D01*
X0023226Y0103615D01*
X0023256Y0103771D01*
X0023289Y0103926D01*
X0023327Y0104079D01*
X0023368Y0104232D01*
X0023413Y0104384D01*
X0023462Y0104535D01*
X0023515Y0104684D01*
X0023571Y0104832D01*
X0023631Y0104978D01*
X0023695Y0105123D01*
X0023763Y0105266D01*
X0023834Y0105408D01*
X0023908Y0105548D01*
X0023986Y0105685D01*
X0024068Y0105821D01*
X0024152Y0105955D01*
X0024241Y0106086D01*
X0024332Y0106215D01*
X0024427Y0106342D01*
X0024524Y0106467D01*
X0024625Y0106589D01*
X0024729Y0106708D01*
X0024836Y0106825D01*
X0024946Y0106939D01*
X0025059Y0107050D01*
X0025174Y0107159D01*
X0025292Y0107264D01*
X0025413Y0107366D01*
X0025536Y0107466D01*
X0025662Y0107562D01*
X0025790Y0107655D01*
X0025920Y0107745D01*
X0026053Y0107831D01*
X0026188Y0107915D01*
X0026324Y0107994D01*
X0026463Y0108071D01*
X0026604Y0108143D01*
X0026746Y0108213D01*
X0026890Y0108278D01*
X0027036Y0108340D01*
X0027183Y0108398D01*
X0027332Y0108453D01*
X0027482Y0108504D01*
X0027633Y0108551D01*
X0027785Y0108594D01*
X0027938Y0108633D01*
X0028093Y0108669D01*
X0028248Y0108700D01*
X0028404Y0108728D01*
X0028560Y0108752D01*
X0028717Y0108772D01*
X0028875Y0108788D01*
X0029032Y0108800D01*
X0029191Y0108808D01*
X0029349Y0108812D01*
X0029507Y0108812D01*
X0029665Y0108808D01*
X0029824Y0108800D01*
X0029981Y0108788D01*
X0030139Y0108772D01*
X0030296Y0108752D01*
X0030452Y0108728D01*
X0030608Y0108700D01*
X0030763Y0108669D01*
X0030918Y0108633D01*
X0031071Y0108594D01*
X0031223Y0108551D01*
X0031374Y0108504D01*
X0031524Y0108453D01*
X0031673Y0108398D01*
X0031820Y0108340D01*
X0031966Y0108278D01*
X0032110Y0108213D01*
X0032252Y0108143D01*
X0032393Y0108071D01*
X0032532Y0107994D01*
X0032668Y0107915D01*
X0032803Y0107831D01*
X0032936Y0107745D01*
X0033066Y0107655D01*
X0033194Y0107562D01*
X0033320Y0107466D01*
X0033443Y0107366D01*
X0033564Y0107264D01*
X0033682Y0107159D01*
X0033797Y0107050D01*
X0033910Y0106939D01*
X0034020Y0106825D01*
X0034127Y0106708D01*
X0034231Y0106589D01*
X0034332Y0106467D01*
X0034429Y0106342D01*
X0034524Y0106215D01*
X0034615Y0106086D01*
X0034704Y0105955D01*
X0034788Y0105821D01*
X0034870Y0105685D01*
X0034948Y0105548D01*
X0035022Y0105408D01*
X0035093Y0105266D01*
X0035161Y0105123D01*
X0035225Y0104978D01*
X0035285Y0104832D01*
X0035341Y0104684D01*
X0035394Y0104535D01*
X0035443Y0104384D01*
X0035488Y0104232D01*
X0035529Y0104079D01*
X0035567Y0103926D01*
X0035600Y0103771D01*
X0035630Y0103615D01*
X0035656Y0103459D01*
X0035677Y0103302D01*
X0035695Y0103145D01*
X0035709Y0102987D01*
X0035719Y0102829D01*
X0035725Y0102671D01*
X0035727Y0102513D01*
X0035725Y0102355D01*
X0035719Y0102197D01*
X0035709Y0102039D01*
X0035695Y0101881D01*
X0035677Y0101724D01*
X0035656Y0101567D01*
X0035630Y0101411D01*
X0035600Y0101255D01*
X0035567Y0101100D01*
X0035529Y0100947D01*
X0035488Y0100794D01*
X0035443Y0100642D01*
X0035394Y0100491D01*
X0035341Y0100342D01*
X0035285Y0100194D01*
X0035225Y0100048D01*
X0035161Y0099903D01*
X0035093Y0099760D01*
X0035022Y0099618D01*
X0034948Y0099478D01*
X0034870Y0099341D01*
X0034788Y0099205D01*
X0034704Y0099071D01*
X0034615Y0098940D01*
X0034524Y0098811D01*
X0034429Y0098684D01*
X0034332Y0098559D01*
X0034231Y0098437D01*
X0034127Y0098318D01*
X0034020Y0098201D01*
X0033910Y0098087D01*
X0033797Y0097976D01*
X0033682Y0097867D01*
X0033564Y0097762D01*
X0033443Y0097660D01*
X0033320Y0097560D01*
X0033194Y0097464D01*
X0033066Y0097371D01*
X0032936Y0097281D01*
X0032803Y0097195D01*
X0032668Y0097111D01*
X0032532Y0097032D01*
X0032393Y0096955D01*
X0032252Y0096883D01*
X0032110Y0096813D01*
X0031966Y0096748D01*
X0031820Y0096686D01*
X0031673Y0096628D01*
X0031524Y0096573D01*
X0031374Y0096522D01*
X0031223Y0096475D01*
X0031071Y0096432D01*
X0030918Y0096393D01*
X0030763Y0096357D01*
X0030608Y0096326D01*
X0030452Y0096298D01*
X0030296Y0096274D01*
X0030139Y0096254D01*
X0029981Y0096238D01*
X0029824Y0096226D01*
X0029665Y0096218D01*
X0029507Y0096214D01*
X0029349Y0096214D01*
X0029191Y0096218D01*
X0029032Y0096226D01*
X0028875Y0096238D01*
X0028717Y0096254D01*
X0028560Y0096274D01*
X0028404Y0096298D01*
X0028248Y0096326D01*
X0028093Y0096357D01*
X0027938Y0096393D01*
X0027785Y0096432D01*
X0027633Y0096475D01*
X0027482Y0096522D01*
X0027332Y0096573D01*
X0027183Y0096628D01*
X0027036Y0096686D01*
X0026890Y0096748D01*
X0026746Y0096813D01*
X0026604Y0096883D01*
X0026463Y0096955D01*
X0026324Y0097032D01*
X0026188Y0097111D01*
X0026053Y0097195D01*
X0025920Y0097281D01*
X0025790Y0097371D01*
X0025662Y0097464D01*
X0025536Y0097560D01*
X0025413Y0097660D01*
X0025292Y0097762D01*
X0025174Y0097867D01*
X0025059Y0097976D01*
X0024946Y0098087D01*
X0024836Y0098201D01*
X0024729Y0098318D01*
X0024625Y0098437D01*
X0024524Y0098559D01*
X0024427Y0098684D01*
X0024332Y0098811D01*
X0024241Y0098940D01*
X0024152Y0099071D01*
X0024068Y0099205D01*
X0023986Y0099341D01*
X0023908Y0099478D01*
X0023834Y0099618D01*
X0023763Y0099760D01*
X0023695Y0099903D01*
X0023631Y0100048D01*
X0023571Y0100194D01*
X0023515Y0100342D01*
X0023462Y0100491D01*
X0023413Y0100642D01*
X0023368Y0100794D01*
X0023327Y0100947D01*
X0023289Y0101100D01*
X0023256Y0101255D01*
X0023226Y0101411D01*
X0023200Y0101567D01*
X0023179Y0101724D01*
X0023161Y0101881D01*
X0023147Y0102039D01*
X0023137Y0102197D01*
X0023131Y0102355D01*
X0023129Y0102513D01*
X0208129Y0102513D02*
X0208131Y0102671D01*
X0208137Y0102829D01*
X0208147Y0102987D01*
X0208161Y0103145D01*
X0208179Y0103302D01*
X0208200Y0103459D01*
X0208226Y0103615D01*
X0208256Y0103771D01*
X0208289Y0103926D01*
X0208327Y0104079D01*
X0208368Y0104232D01*
X0208413Y0104384D01*
X0208462Y0104535D01*
X0208515Y0104684D01*
X0208571Y0104832D01*
X0208631Y0104978D01*
X0208695Y0105123D01*
X0208763Y0105266D01*
X0208834Y0105408D01*
X0208908Y0105548D01*
X0208986Y0105685D01*
X0209068Y0105821D01*
X0209152Y0105955D01*
X0209241Y0106086D01*
X0209332Y0106215D01*
X0209427Y0106342D01*
X0209524Y0106467D01*
X0209625Y0106589D01*
X0209729Y0106708D01*
X0209836Y0106825D01*
X0209946Y0106939D01*
X0210059Y0107050D01*
X0210174Y0107159D01*
X0210292Y0107264D01*
X0210413Y0107366D01*
X0210536Y0107466D01*
X0210662Y0107562D01*
X0210790Y0107655D01*
X0210920Y0107745D01*
X0211053Y0107831D01*
X0211188Y0107915D01*
X0211324Y0107994D01*
X0211463Y0108071D01*
X0211604Y0108143D01*
X0211746Y0108213D01*
X0211890Y0108278D01*
X0212036Y0108340D01*
X0212183Y0108398D01*
X0212332Y0108453D01*
X0212482Y0108504D01*
X0212633Y0108551D01*
X0212785Y0108594D01*
X0212938Y0108633D01*
X0213093Y0108669D01*
X0213248Y0108700D01*
X0213404Y0108728D01*
X0213560Y0108752D01*
X0213717Y0108772D01*
X0213875Y0108788D01*
X0214032Y0108800D01*
X0214191Y0108808D01*
X0214349Y0108812D01*
X0214507Y0108812D01*
X0214665Y0108808D01*
X0214824Y0108800D01*
X0214981Y0108788D01*
X0215139Y0108772D01*
X0215296Y0108752D01*
X0215452Y0108728D01*
X0215608Y0108700D01*
X0215763Y0108669D01*
X0215918Y0108633D01*
X0216071Y0108594D01*
X0216223Y0108551D01*
X0216374Y0108504D01*
X0216524Y0108453D01*
X0216673Y0108398D01*
X0216820Y0108340D01*
X0216966Y0108278D01*
X0217110Y0108213D01*
X0217252Y0108143D01*
X0217393Y0108071D01*
X0217532Y0107994D01*
X0217668Y0107915D01*
X0217803Y0107831D01*
X0217936Y0107745D01*
X0218066Y0107655D01*
X0218194Y0107562D01*
X0218320Y0107466D01*
X0218443Y0107366D01*
X0218564Y0107264D01*
X0218682Y0107159D01*
X0218797Y0107050D01*
X0218910Y0106939D01*
X0219020Y0106825D01*
X0219127Y0106708D01*
X0219231Y0106589D01*
X0219332Y0106467D01*
X0219429Y0106342D01*
X0219524Y0106215D01*
X0219615Y0106086D01*
X0219704Y0105955D01*
X0219788Y0105821D01*
X0219870Y0105685D01*
X0219948Y0105548D01*
X0220022Y0105408D01*
X0220093Y0105266D01*
X0220161Y0105123D01*
X0220225Y0104978D01*
X0220285Y0104832D01*
X0220341Y0104684D01*
X0220394Y0104535D01*
X0220443Y0104384D01*
X0220488Y0104232D01*
X0220529Y0104079D01*
X0220567Y0103926D01*
X0220600Y0103771D01*
X0220630Y0103615D01*
X0220656Y0103459D01*
X0220677Y0103302D01*
X0220695Y0103145D01*
X0220709Y0102987D01*
X0220719Y0102829D01*
X0220725Y0102671D01*
X0220727Y0102513D01*
X0220725Y0102355D01*
X0220719Y0102197D01*
X0220709Y0102039D01*
X0220695Y0101881D01*
X0220677Y0101724D01*
X0220656Y0101567D01*
X0220630Y0101411D01*
X0220600Y0101255D01*
X0220567Y0101100D01*
X0220529Y0100947D01*
X0220488Y0100794D01*
X0220443Y0100642D01*
X0220394Y0100491D01*
X0220341Y0100342D01*
X0220285Y0100194D01*
X0220225Y0100048D01*
X0220161Y0099903D01*
X0220093Y0099760D01*
X0220022Y0099618D01*
X0219948Y0099478D01*
X0219870Y0099341D01*
X0219788Y0099205D01*
X0219704Y0099071D01*
X0219615Y0098940D01*
X0219524Y0098811D01*
X0219429Y0098684D01*
X0219332Y0098559D01*
X0219231Y0098437D01*
X0219127Y0098318D01*
X0219020Y0098201D01*
X0218910Y0098087D01*
X0218797Y0097976D01*
X0218682Y0097867D01*
X0218564Y0097762D01*
X0218443Y0097660D01*
X0218320Y0097560D01*
X0218194Y0097464D01*
X0218066Y0097371D01*
X0217936Y0097281D01*
X0217803Y0097195D01*
X0217668Y0097111D01*
X0217532Y0097032D01*
X0217393Y0096955D01*
X0217252Y0096883D01*
X0217110Y0096813D01*
X0216966Y0096748D01*
X0216820Y0096686D01*
X0216673Y0096628D01*
X0216524Y0096573D01*
X0216374Y0096522D01*
X0216223Y0096475D01*
X0216071Y0096432D01*
X0215918Y0096393D01*
X0215763Y0096357D01*
X0215608Y0096326D01*
X0215452Y0096298D01*
X0215296Y0096274D01*
X0215139Y0096254D01*
X0214981Y0096238D01*
X0214824Y0096226D01*
X0214665Y0096218D01*
X0214507Y0096214D01*
X0214349Y0096214D01*
X0214191Y0096218D01*
X0214032Y0096226D01*
X0213875Y0096238D01*
X0213717Y0096254D01*
X0213560Y0096274D01*
X0213404Y0096298D01*
X0213248Y0096326D01*
X0213093Y0096357D01*
X0212938Y0096393D01*
X0212785Y0096432D01*
X0212633Y0096475D01*
X0212482Y0096522D01*
X0212332Y0096573D01*
X0212183Y0096628D01*
X0212036Y0096686D01*
X0211890Y0096748D01*
X0211746Y0096813D01*
X0211604Y0096883D01*
X0211463Y0096955D01*
X0211324Y0097032D01*
X0211188Y0097111D01*
X0211053Y0097195D01*
X0210920Y0097281D01*
X0210790Y0097371D01*
X0210662Y0097464D01*
X0210536Y0097560D01*
X0210413Y0097660D01*
X0210292Y0097762D01*
X0210174Y0097867D01*
X0210059Y0097976D01*
X0209946Y0098087D01*
X0209836Y0098201D01*
X0209729Y0098318D01*
X0209625Y0098437D01*
X0209524Y0098559D01*
X0209427Y0098684D01*
X0209332Y0098811D01*
X0209241Y0098940D01*
X0209152Y0099071D01*
X0209068Y0099205D01*
X0208986Y0099341D01*
X0208908Y0099478D01*
X0208834Y0099618D01*
X0208763Y0099760D01*
X0208695Y0099903D01*
X0208631Y0100048D01*
X0208571Y0100194D01*
X0208515Y0100342D01*
X0208462Y0100491D01*
X0208413Y0100642D01*
X0208368Y0100794D01*
X0208327Y0100947D01*
X0208289Y0101100D01*
X0208256Y0101255D01*
X0208226Y0101411D01*
X0208200Y0101567D01*
X0208179Y0101724D01*
X0208161Y0101881D01*
X0208147Y0102039D01*
X0208137Y0102197D01*
X0208131Y0102355D01*
X0208129Y0102513D01*
X0208129Y0022513D02*
X0208131Y0022671D01*
X0208137Y0022829D01*
X0208147Y0022987D01*
X0208161Y0023145D01*
X0208179Y0023302D01*
X0208200Y0023459D01*
X0208226Y0023615D01*
X0208256Y0023771D01*
X0208289Y0023926D01*
X0208327Y0024079D01*
X0208368Y0024232D01*
X0208413Y0024384D01*
X0208462Y0024535D01*
X0208515Y0024684D01*
X0208571Y0024832D01*
X0208631Y0024978D01*
X0208695Y0025123D01*
X0208763Y0025266D01*
X0208834Y0025408D01*
X0208908Y0025548D01*
X0208986Y0025685D01*
X0209068Y0025821D01*
X0209152Y0025955D01*
X0209241Y0026086D01*
X0209332Y0026215D01*
X0209427Y0026342D01*
X0209524Y0026467D01*
X0209625Y0026589D01*
X0209729Y0026708D01*
X0209836Y0026825D01*
X0209946Y0026939D01*
X0210059Y0027050D01*
X0210174Y0027159D01*
X0210292Y0027264D01*
X0210413Y0027366D01*
X0210536Y0027466D01*
X0210662Y0027562D01*
X0210790Y0027655D01*
X0210920Y0027745D01*
X0211053Y0027831D01*
X0211188Y0027915D01*
X0211324Y0027994D01*
X0211463Y0028071D01*
X0211604Y0028143D01*
X0211746Y0028213D01*
X0211890Y0028278D01*
X0212036Y0028340D01*
X0212183Y0028398D01*
X0212332Y0028453D01*
X0212482Y0028504D01*
X0212633Y0028551D01*
X0212785Y0028594D01*
X0212938Y0028633D01*
X0213093Y0028669D01*
X0213248Y0028700D01*
X0213404Y0028728D01*
X0213560Y0028752D01*
X0213717Y0028772D01*
X0213875Y0028788D01*
X0214032Y0028800D01*
X0214191Y0028808D01*
X0214349Y0028812D01*
X0214507Y0028812D01*
X0214665Y0028808D01*
X0214824Y0028800D01*
X0214981Y0028788D01*
X0215139Y0028772D01*
X0215296Y0028752D01*
X0215452Y0028728D01*
X0215608Y0028700D01*
X0215763Y0028669D01*
X0215918Y0028633D01*
X0216071Y0028594D01*
X0216223Y0028551D01*
X0216374Y0028504D01*
X0216524Y0028453D01*
X0216673Y0028398D01*
X0216820Y0028340D01*
X0216966Y0028278D01*
X0217110Y0028213D01*
X0217252Y0028143D01*
X0217393Y0028071D01*
X0217532Y0027994D01*
X0217668Y0027915D01*
X0217803Y0027831D01*
X0217936Y0027745D01*
X0218066Y0027655D01*
X0218194Y0027562D01*
X0218320Y0027466D01*
X0218443Y0027366D01*
X0218564Y0027264D01*
X0218682Y0027159D01*
X0218797Y0027050D01*
X0218910Y0026939D01*
X0219020Y0026825D01*
X0219127Y0026708D01*
X0219231Y0026589D01*
X0219332Y0026467D01*
X0219429Y0026342D01*
X0219524Y0026215D01*
X0219615Y0026086D01*
X0219704Y0025955D01*
X0219788Y0025821D01*
X0219870Y0025685D01*
X0219948Y0025548D01*
X0220022Y0025408D01*
X0220093Y0025266D01*
X0220161Y0025123D01*
X0220225Y0024978D01*
X0220285Y0024832D01*
X0220341Y0024684D01*
X0220394Y0024535D01*
X0220443Y0024384D01*
X0220488Y0024232D01*
X0220529Y0024079D01*
X0220567Y0023926D01*
X0220600Y0023771D01*
X0220630Y0023615D01*
X0220656Y0023459D01*
X0220677Y0023302D01*
X0220695Y0023145D01*
X0220709Y0022987D01*
X0220719Y0022829D01*
X0220725Y0022671D01*
X0220727Y0022513D01*
X0220725Y0022355D01*
X0220719Y0022197D01*
X0220709Y0022039D01*
X0220695Y0021881D01*
X0220677Y0021724D01*
X0220656Y0021567D01*
X0220630Y0021411D01*
X0220600Y0021255D01*
X0220567Y0021100D01*
X0220529Y0020947D01*
X0220488Y0020794D01*
X0220443Y0020642D01*
X0220394Y0020491D01*
X0220341Y0020342D01*
X0220285Y0020194D01*
X0220225Y0020048D01*
X0220161Y0019903D01*
X0220093Y0019760D01*
X0220022Y0019618D01*
X0219948Y0019478D01*
X0219870Y0019341D01*
X0219788Y0019205D01*
X0219704Y0019071D01*
X0219615Y0018940D01*
X0219524Y0018811D01*
X0219429Y0018684D01*
X0219332Y0018559D01*
X0219231Y0018437D01*
X0219127Y0018318D01*
X0219020Y0018201D01*
X0218910Y0018087D01*
X0218797Y0017976D01*
X0218682Y0017867D01*
X0218564Y0017762D01*
X0218443Y0017660D01*
X0218320Y0017560D01*
X0218194Y0017464D01*
X0218066Y0017371D01*
X0217936Y0017281D01*
X0217803Y0017195D01*
X0217668Y0017111D01*
X0217532Y0017032D01*
X0217393Y0016955D01*
X0217252Y0016883D01*
X0217110Y0016813D01*
X0216966Y0016748D01*
X0216820Y0016686D01*
X0216673Y0016628D01*
X0216524Y0016573D01*
X0216374Y0016522D01*
X0216223Y0016475D01*
X0216071Y0016432D01*
X0215918Y0016393D01*
X0215763Y0016357D01*
X0215608Y0016326D01*
X0215452Y0016298D01*
X0215296Y0016274D01*
X0215139Y0016254D01*
X0214981Y0016238D01*
X0214824Y0016226D01*
X0214665Y0016218D01*
X0214507Y0016214D01*
X0214349Y0016214D01*
X0214191Y0016218D01*
X0214032Y0016226D01*
X0213875Y0016238D01*
X0213717Y0016254D01*
X0213560Y0016274D01*
X0213404Y0016298D01*
X0213248Y0016326D01*
X0213093Y0016357D01*
X0212938Y0016393D01*
X0212785Y0016432D01*
X0212633Y0016475D01*
X0212482Y0016522D01*
X0212332Y0016573D01*
X0212183Y0016628D01*
X0212036Y0016686D01*
X0211890Y0016748D01*
X0211746Y0016813D01*
X0211604Y0016883D01*
X0211463Y0016955D01*
X0211324Y0017032D01*
X0211188Y0017111D01*
X0211053Y0017195D01*
X0210920Y0017281D01*
X0210790Y0017371D01*
X0210662Y0017464D01*
X0210536Y0017560D01*
X0210413Y0017660D01*
X0210292Y0017762D01*
X0210174Y0017867D01*
X0210059Y0017976D01*
X0209946Y0018087D01*
X0209836Y0018201D01*
X0209729Y0018318D01*
X0209625Y0018437D01*
X0209524Y0018559D01*
X0209427Y0018684D01*
X0209332Y0018811D01*
X0209241Y0018940D01*
X0209152Y0019071D01*
X0209068Y0019205D01*
X0208986Y0019341D01*
X0208908Y0019478D01*
X0208834Y0019618D01*
X0208763Y0019760D01*
X0208695Y0019903D01*
X0208631Y0020048D01*
X0208571Y0020194D01*
X0208515Y0020342D01*
X0208462Y0020491D01*
X0208413Y0020642D01*
X0208368Y0020794D01*
X0208327Y0020947D01*
X0208289Y0021100D01*
X0208256Y0021255D01*
X0208226Y0021411D01*
X0208200Y0021567D01*
X0208179Y0021724D01*
X0208161Y0021881D01*
X0208147Y0022039D01*
X0208137Y0022197D01*
X0208131Y0022355D01*
X0208129Y0022513D01*
D12*
X0146062Y0048241D03*
X0143503Y0048241D03*
X0140944Y0048241D03*
X0138385Y0048241D03*
X0135826Y0048241D03*
X0133267Y0048241D03*
X0130708Y0048241D03*
X0128149Y0048241D03*
X0125590Y0048241D03*
X0123031Y0048241D03*
X0120472Y0048241D03*
X0117913Y0048241D03*
X0115354Y0048241D03*
X0112795Y0048241D03*
X0112795Y0076784D03*
X0115354Y0076784D03*
X0117913Y0076784D03*
X0120472Y0076784D03*
X0123031Y0076784D03*
X0125590Y0076784D03*
X0128149Y0076784D03*
X0130708Y0076784D03*
X0133267Y0076784D03*
X0135826Y0076784D03*
X0138385Y0076784D03*
X0140944Y0076784D03*
X0143503Y0076784D03*
X0146062Y0076784D03*
D13*
X0160295Y0077513D03*
X0168562Y0077513D03*
X0168562Y0047513D03*
X0160295Y0047513D03*
X0083562Y0027513D03*
X0075295Y0027513D03*
X0075295Y0097513D03*
X0083562Y0097513D03*
D14*
X0083169Y0087513D03*
X0075688Y0087513D03*
X0095688Y0087513D03*
X0103169Y0087513D03*
X0125688Y0087513D03*
X0133169Y0087513D03*
X0160688Y0067513D03*
X0168169Y0067513D03*
X0168169Y0057513D03*
X0160688Y0057513D03*
X0133169Y0037513D03*
X0125688Y0037513D03*
X0103169Y0037513D03*
X0095688Y0037513D03*
X0083169Y0037513D03*
X0075688Y0037513D03*
X0075688Y0047513D03*
X0083169Y0047513D03*
X0083169Y0077513D03*
X0075688Y0077513D03*
D15*
X0075767Y0062513D03*
X0093090Y0062513D03*
D16*
X0027617Y0080032D03*
X0027617Y0044993D03*
D17*
X0050846Y0044993D03*
X0050846Y0080032D03*
D18*
X0051239Y0068812D03*
X0051239Y0065662D03*
X0051239Y0062513D03*
X0051239Y0059363D03*
X0051239Y0056214D03*
D19*
X0227139Y0058576D02*
X0232879Y0058576D01*
X0232879Y0066450D02*
X0227139Y0066450D01*
X0227139Y0076292D02*
X0232879Y0076292D01*
X0232879Y0048733D02*
X0227139Y0048733D01*
D20*
X0240678Y0036647D03*
X0240678Y0088379D03*
D21*
X0199428Y0027513D03*
D22*
X0199428Y0037513D03*
X0199428Y0047513D03*
X0199428Y0057513D03*
X0199428Y0067513D03*
X0199428Y0077513D03*
X0199428Y0087513D03*
X0199428Y0097513D03*
D23*
X0180678Y0087513D03*
X0153178Y0076263D03*
X0143178Y0067513D03*
X0133267Y0066351D03*
X0133178Y0066263D03*
X0119428Y0062513D03*
X0101928Y0062513D03*
X0093178Y0052513D03*
X0141928Y0055013D03*
X0153178Y0048763D03*
X0183178Y0047513D03*
X0181928Y0033763D03*
X0175678Y0062513D03*
X0111928Y0085013D03*
X0106928Y0078763D03*
D24*
X0110607Y0078431D02*
X0102589Y0078431D01*
X0102678Y0078341D02*
X0097860Y0083160D01*
X0098827Y0083160D01*
X0099428Y0083761D01*
X0100030Y0083160D01*
X0106308Y0083160D01*
X0107128Y0083980D01*
X0107128Y0085513D01*
X0108600Y0085513D01*
X0108744Y0085369D01*
X0108744Y0084379D01*
X0109229Y0083209D01*
X0110125Y0082313D01*
X0111295Y0081829D01*
X0112562Y0081829D01*
X0113732Y0082313D01*
X0114628Y0083209D01*
X0115113Y0084379D01*
X0115113Y0085646D01*
X0114628Y0086816D01*
X0113732Y0087712D01*
X0112562Y0088197D01*
X0111573Y0088197D01*
X0111428Y0088341D01*
X0110257Y0089513D01*
X0107128Y0089513D01*
X0107128Y0091045D01*
X0106308Y0091866D01*
X0100030Y0091866D01*
X0099428Y0091264D01*
X0098827Y0091866D01*
X0092549Y0091866D01*
X0091729Y0091045D01*
X0091729Y0083980D01*
X0092549Y0083160D01*
X0093678Y0083160D01*
X0093678Y0081684D01*
X0094850Y0080513D01*
X0098678Y0076684D01*
X0098678Y0069184D01*
X0099850Y0068013D01*
X0101100Y0066763D01*
X0113354Y0066763D01*
X0113354Y0052594D01*
X0111427Y0052594D01*
X0110607Y0051774D01*
X0110607Y0050241D01*
X0095578Y0050241D01*
X0094850Y0049513D01*
X0093678Y0048341D01*
X0093678Y0041866D01*
X0092549Y0041866D01*
X0091729Y0041045D01*
X0091729Y0033980D01*
X0092549Y0033160D01*
X0098827Y0033160D01*
X0099428Y0033761D01*
X0100030Y0033160D01*
X0101169Y0033160D01*
X0101169Y0029194D01*
X0102428Y0027934D01*
X0103600Y0026763D01*
X0111100Y0026763D01*
X0111178Y0026684D01*
X0112350Y0025513D01*
X0190257Y0025513D01*
X0191507Y0026763D01*
X0192678Y0027934D01*
X0192678Y0032934D01*
X0194007Y0034263D01*
X0196456Y0034263D01*
X0196936Y0033783D01*
X0198553Y0033113D01*
X0200304Y0033113D01*
X0201921Y0033783D01*
X0203159Y0035020D01*
X0203363Y0035513D01*
X0219007Y0035513D01*
X0220257Y0036763D01*
X0221428Y0037934D01*
X0221428Y0055434D01*
X0222570Y0056576D01*
X0223346Y0056576D01*
X0223519Y0056157D01*
X0224720Y0054956D01*
X0226290Y0054306D01*
X0233729Y0054306D01*
X0235298Y0054956D01*
X0236499Y0056157D01*
X0237149Y0057726D01*
X0237149Y0059425D01*
X0236499Y0060995D01*
X0235298Y0062196D01*
X0234533Y0062513D01*
X0235298Y0062830D01*
X0236499Y0064031D01*
X0237149Y0065600D01*
X0237149Y0067299D01*
X0236499Y0068869D01*
X0235298Y0070070D01*
X0233729Y0070720D01*
X0226290Y0070720D01*
X0224720Y0070070D01*
X0223519Y0068869D01*
X0223346Y0068450D01*
X0216287Y0068450D01*
X0215115Y0067278D01*
X0214128Y0066291D01*
X0214128Y0071601D01*
X0215340Y0072813D01*
X0222840Y0072813D01*
X0223710Y0073683D01*
X0224720Y0072672D01*
X0226290Y0072022D01*
X0233729Y0072022D01*
X0235298Y0072672D01*
X0236499Y0073873D01*
X0237149Y0075443D01*
X0237149Y0077142D01*
X0236499Y0078711D01*
X0235298Y0079912D01*
X0233729Y0080562D01*
X0226290Y0080562D01*
X0224720Y0079912D01*
X0223519Y0078711D01*
X0223428Y0078492D01*
X0222297Y0078492D01*
X0221017Y0077213D01*
X0213517Y0077213D01*
X0212228Y0075924D01*
X0209728Y0073424D01*
X0209728Y0059713D01*
X0203280Y0059713D01*
X0203159Y0060005D01*
X0201921Y0061243D01*
X0200304Y0061913D01*
X0198553Y0061913D01*
X0196936Y0061243D01*
X0195698Y0060005D01*
X0195028Y0058388D01*
X0195028Y0056638D01*
X0195698Y0055020D01*
X0196936Y0053783D01*
X0198553Y0053113D01*
X0200304Y0053113D01*
X0201921Y0053783D01*
X0203159Y0055020D01*
X0203280Y0055313D01*
X0211590Y0055313D01*
X0212840Y0056563D01*
X0213678Y0057402D01*
X0213678Y0050841D01*
X0212350Y0049513D01*
X0203363Y0049513D01*
X0203159Y0050005D01*
X0201921Y0051243D01*
X0200304Y0051913D01*
X0198553Y0051913D01*
X0196936Y0051243D01*
X0195698Y0050005D01*
X0195494Y0049513D01*
X0192350Y0049513D01*
X0191178Y0048341D01*
X0189928Y0047091D01*
X0189928Y0042091D01*
X0187350Y0039513D01*
X0137128Y0039513D01*
X0137128Y0041045D01*
X0136308Y0041866D01*
X0130030Y0041866D01*
X0129428Y0041264D01*
X0128827Y0041866D01*
X0127678Y0041866D01*
X0127678Y0042091D01*
X0126507Y0043263D01*
X0125881Y0043888D01*
X0126586Y0043888D01*
X0126744Y0043797D01*
X0127151Y0043688D01*
X0128149Y0043688D01*
X0129147Y0043688D01*
X0129554Y0043797D01*
X0129711Y0043888D01*
X0147430Y0043888D01*
X0148250Y0044708D01*
X0148250Y0051774D01*
X0147430Y0052594D01*
X0144013Y0052594D01*
X0144628Y0053209D01*
X0145113Y0054379D01*
X0145113Y0055646D01*
X0144628Y0056816D01*
X0143732Y0057712D01*
X0143007Y0058013D01*
X0156729Y0058013D01*
X0156729Y0053980D01*
X0157549Y0053160D01*
X0163827Y0053160D01*
X0164428Y0053761D01*
X0165030Y0053160D01*
X0166362Y0053160D01*
X0166362Y0051275D01*
X0165620Y0051275D01*
X0164800Y0050455D01*
X0164800Y0044571D01*
X0165620Y0043751D01*
X0171504Y0043751D01*
X0172325Y0044571D01*
X0172325Y0050455D01*
X0171504Y0051275D01*
X0170762Y0051275D01*
X0170762Y0053160D01*
X0171308Y0053160D01*
X0172128Y0053980D01*
X0172128Y0061045D01*
X0171308Y0061866D01*
X0165030Y0061866D01*
X0164428Y0061264D01*
X0163827Y0061866D01*
X0159164Y0061866D01*
X0159017Y0062013D01*
X0146757Y0062013D01*
X0150257Y0065513D01*
X0156729Y0065513D01*
X0156729Y0063980D01*
X0157549Y0063160D01*
X0163827Y0063160D01*
X0164428Y0063761D01*
X0165030Y0063160D01*
X0171308Y0063160D01*
X0172128Y0063980D01*
X0172128Y0071045D01*
X0171308Y0071866D01*
X0170762Y0071866D01*
X0170762Y0073751D01*
X0171504Y0073751D01*
X0172325Y0074571D01*
X0172325Y0080455D01*
X0171504Y0081275D01*
X0165620Y0081275D01*
X0164800Y0080455D01*
X0164800Y0074571D01*
X0165620Y0073751D01*
X0166362Y0073751D01*
X0166362Y0071866D01*
X0165030Y0071866D01*
X0164428Y0071264D01*
X0163827Y0071866D01*
X0157549Y0071866D01*
X0156729Y0071045D01*
X0156729Y0069513D01*
X0148600Y0069513D01*
X0147428Y0068341D01*
X0146363Y0067275D01*
X0146363Y0068146D01*
X0145878Y0069316D01*
X0144982Y0070212D01*
X0143812Y0070697D01*
X0142944Y0070697D01*
X0142944Y0072432D01*
X0147430Y0072432D01*
X0148250Y0073252D01*
X0148250Y0080317D01*
X0148062Y0080504D01*
X0148062Y0106707D01*
X0147357Y0107413D01*
X0204672Y0107413D01*
X0204272Y0106720D01*
X0203529Y0103948D01*
X0203529Y0101078D01*
X0204272Y0098306D01*
X0205707Y0095820D01*
X0207736Y0093791D01*
X0210222Y0092356D01*
X0212994Y0091614D01*
X0215863Y0091614D01*
X0218635Y0092356D01*
X0221121Y0093791D01*
X0223150Y0095820D01*
X0224585Y0098306D01*
X0225328Y0101078D01*
X0225328Y0103948D01*
X0224585Y0106720D01*
X0224185Y0107413D01*
X0249328Y0107413D01*
X0249328Y0017613D01*
X0224185Y0017613D01*
X0224585Y0018306D01*
X0225328Y0021078D01*
X0225328Y0023948D01*
X0224585Y0026720D01*
X0223150Y0029205D01*
X0221121Y0031234D01*
X0218635Y0032669D01*
X0215863Y0033412D01*
X0212994Y0033412D01*
X0210222Y0032669D01*
X0207736Y0031234D01*
X0205707Y0029205D01*
X0204272Y0026720D01*
X0204028Y0025811D01*
X0204028Y0027113D01*
X0199829Y0027113D01*
X0199829Y0027913D01*
X0204028Y0027913D01*
X0204028Y0030723D01*
X0203919Y0031130D01*
X0203709Y0031495D01*
X0203411Y0031793D01*
X0203046Y0032004D01*
X0202639Y0032113D01*
X0199828Y0032113D01*
X0199828Y0027913D01*
X0199028Y0027913D01*
X0199028Y0027113D01*
X0194828Y0027113D01*
X0194828Y0024302D01*
X0194937Y0023895D01*
X0195148Y0023530D01*
X0195446Y0023232D01*
X0195811Y0023022D01*
X0196218Y0022913D01*
X0199028Y0022913D01*
X0199028Y0027113D01*
X0199828Y0027113D01*
X0199828Y0022913D01*
X0202639Y0022913D01*
X0203046Y0023022D01*
X0203411Y0023232D01*
X0203529Y0023351D01*
X0203529Y0021078D01*
X0204272Y0018306D01*
X0204672Y0017613D01*
X0039185Y0017613D01*
X0039585Y0018306D01*
X0040328Y0021078D01*
X0040328Y0023948D01*
X0039585Y0026720D01*
X0038150Y0029205D01*
X0036121Y0031234D01*
X0033635Y0032669D01*
X0030863Y0033412D01*
X0027994Y0033412D01*
X0025222Y0032669D01*
X0024528Y0032269D01*
X0024528Y0039656D01*
X0033119Y0039656D01*
X0033939Y0040476D01*
X0033939Y0049510D01*
X0033119Y0050330D01*
X0024528Y0050330D01*
X0024528Y0074695D01*
X0033119Y0074695D01*
X0033939Y0075516D01*
X0033939Y0084549D01*
X0033119Y0085369D01*
X0024528Y0085369D01*
X0024528Y0092756D01*
X0025222Y0092356D01*
X0027994Y0091614D01*
X0030863Y0091614D01*
X0033635Y0092356D01*
X0036121Y0093791D01*
X0038150Y0095820D01*
X0039585Y0098306D01*
X0040328Y0101078D01*
X0040328Y0103948D01*
X0039585Y0106720D01*
X0039185Y0107413D01*
X0061500Y0107413D01*
X0059928Y0105841D01*
X0059928Y0064591D01*
X0059850Y0064513D01*
X0058742Y0064513D01*
X0058742Y0067053D01*
X0058833Y0067210D01*
X0058942Y0067617D01*
X0058942Y0068812D01*
X0058942Y0070007D01*
X0058833Y0070414D01*
X0058622Y0070779D01*
X0058324Y0071077D01*
X0057959Y0071287D01*
X0057552Y0071396D01*
X0051240Y0071396D01*
X0051240Y0068812D01*
X0058942Y0068812D01*
X0051240Y0068812D01*
X0051240Y0068812D01*
X0051239Y0068812D01*
X0051239Y0071396D01*
X0045800Y0071396D01*
X0045800Y0072442D01*
X0044867Y0074695D01*
X0057922Y0074695D01*
X0058742Y0075516D01*
X0058742Y0084549D01*
X0057922Y0085369D01*
X0043770Y0085369D01*
X0042950Y0084549D01*
X0042950Y0076612D01*
X0040696Y0077546D01*
X0038161Y0077546D01*
X0035819Y0076576D01*
X0034027Y0074783D01*
X0033057Y0072442D01*
X0033057Y0069907D01*
X0034027Y0067565D01*
X0035819Y0065773D01*
X0038161Y0064803D01*
X0040696Y0064803D01*
X0043038Y0065773D01*
X0043737Y0066472D01*
X0043737Y0064098D01*
X0043748Y0064088D01*
X0043737Y0064077D01*
X0043737Y0060949D01*
X0043748Y0060938D01*
X0043737Y0060927D01*
X0043737Y0058554D01*
X0043038Y0059253D01*
X0040696Y0060223D01*
X0038161Y0060223D01*
X0035819Y0059253D01*
X0034027Y0057461D01*
X0033057Y0055119D01*
X0033057Y0052584D01*
X0034027Y0050242D01*
X0035819Y0048450D01*
X0038161Y0047480D01*
X0040696Y0047480D01*
X0042950Y0048413D01*
X0042950Y0040476D01*
X0043770Y0039656D01*
X0057922Y0039656D01*
X0058742Y0040476D01*
X0058742Y0047588D01*
X0059728Y0046601D01*
X0061017Y0045313D01*
X0071729Y0045313D01*
X0071729Y0043980D01*
X0072549Y0043160D01*
X0078827Y0043160D01*
X0079428Y0043761D01*
X0080030Y0043160D01*
X0080169Y0043160D01*
X0080169Y0041866D01*
X0080030Y0041866D01*
X0079428Y0041264D01*
X0078827Y0041866D01*
X0072549Y0041866D01*
X0071729Y0041045D01*
X0071729Y0033980D01*
X0072295Y0033415D01*
X0072295Y0031217D01*
X0071532Y0030455D01*
X0071532Y0024571D01*
X0072352Y0023751D01*
X0078237Y0023751D01*
X0079057Y0024571D01*
X0079057Y0030455D01*
X0078295Y0031217D01*
X0078295Y0033160D01*
X0078827Y0033160D01*
X0079428Y0033761D01*
X0080030Y0033160D01*
X0086308Y0033160D01*
X0087128Y0033980D01*
X0087128Y0041045D01*
X0086308Y0041866D01*
X0086169Y0041866D01*
X0086169Y0043160D01*
X0086308Y0043160D01*
X0087128Y0043980D01*
X0087128Y0051045D01*
X0086308Y0051866D01*
X0086169Y0051866D01*
X0086169Y0055708D01*
X0085712Y0056811D01*
X0081891Y0060631D01*
X0081891Y0064395D01*
X0085712Y0068215D01*
X0086169Y0069318D01*
X0086169Y0073160D01*
X0086308Y0073160D01*
X0087128Y0073980D01*
X0087128Y0081045D01*
X0086308Y0081866D01*
X0080030Y0081866D01*
X0079559Y0081394D01*
X0079528Y0081448D01*
X0079230Y0081746D01*
X0078865Y0081956D01*
X0078458Y0082066D01*
X0076288Y0082066D01*
X0076288Y0078113D01*
X0075088Y0078113D01*
X0075088Y0076913D01*
X0071529Y0076913D01*
X0071529Y0074349D01*
X0071638Y0073942D01*
X0071849Y0073578D01*
X0072147Y0073280D01*
X0072512Y0073069D01*
X0072919Y0072960D01*
X0075088Y0072960D01*
X0075088Y0076913D01*
X0076288Y0076913D01*
X0076288Y0072960D01*
X0078458Y0072960D01*
X0078865Y0073069D01*
X0079230Y0073280D01*
X0079528Y0073578D01*
X0079559Y0073631D01*
X0080030Y0073160D01*
X0080169Y0073160D01*
X0080169Y0071157D01*
X0077649Y0068637D01*
X0070463Y0068637D01*
X0069643Y0067817D01*
X0069643Y0057208D01*
X0070463Y0056388D01*
X0077649Y0056388D01*
X0080169Y0053869D01*
X0080169Y0051866D01*
X0080030Y0051866D01*
X0079428Y0051264D01*
X0078827Y0051866D01*
X0072549Y0051866D01*
X0071729Y0051045D01*
X0071729Y0049713D01*
X0062878Y0049713D01*
X0062878Y0055924D01*
X0061590Y0057213D01*
X0061439Y0057363D01*
X0067107Y0057363D01*
X0067757Y0058013D01*
X0068928Y0059184D01*
X0068928Y0100434D01*
X0070257Y0101763D01*
X0141100Y0101763D01*
X0141503Y0101360D01*
X0141503Y0088266D01*
X0141428Y0088341D01*
X0140257Y0089513D01*
X0137128Y0089513D01*
X0137128Y0091045D01*
X0136308Y0091866D01*
X0130030Y0091866D01*
X0129559Y0091394D01*
X0129528Y0091448D01*
X0129230Y0091746D01*
X0128865Y0091956D01*
X0128458Y0092066D01*
X0126288Y0092066D01*
X0126288Y0088113D01*
X0125088Y0088113D01*
X0125088Y0086913D01*
X0121529Y0086913D01*
X0121529Y0084349D01*
X0121638Y0083942D01*
X0121849Y0083578D01*
X0122147Y0083280D01*
X0122512Y0083069D01*
X0122919Y0082960D01*
X0125088Y0082960D01*
X0125088Y0086913D01*
X0126288Y0086913D01*
X0126288Y0082960D01*
X0128458Y0082960D01*
X0128865Y0083069D01*
X0129230Y0083280D01*
X0129528Y0083578D01*
X0129559Y0083631D01*
X0130030Y0083160D01*
X0136308Y0083160D01*
X0137128Y0083980D01*
X0137128Y0085513D01*
X0138600Y0085513D01*
X0138944Y0085169D01*
X0138944Y0081337D01*
X0138385Y0081337D01*
X0137387Y0081337D01*
X0136980Y0081228D01*
X0136823Y0081137D01*
X0132271Y0081137D01*
X0132113Y0081228D01*
X0131706Y0081337D01*
X0130708Y0081337D01*
X0130708Y0076785D01*
X0130708Y0081337D01*
X0129710Y0081337D01*
X0129303Y0081228D01*
X0129145Y0081137D01*
X0122034Y0081137D01*
X0121877Y0081228D01*
X0121470Y0081337D01*
X0120472Y0081337D01*
X0120472Y0076785D01*
X0120472Y0076785D01*
X0120472Y0081337D01*
X0119474Y0081337D01*
X0119192Y0081262D01*
X0118911Y0081337D01*
X0117913Y0081337D01*
X0117913Y0076785D01*
X0117913Y0076785D01*
X0117913Y0076784D02*
X0120300Y0076784D01*
X0120472Y0076784D01*
X0120472Y0072232D01*
X0121470Y0072232D01*
X0121877Y0072341D01*
X0122034Y0072432D01*
X0123590Y0072432D01*
X0123590Y0060523D01*
X0124928Y0059184D01*
X0125850Y0058263D01*
X0123600Y0058263D01*
X0122472Y0057134D01*
X0122472Y0061539D01*
X0122613Y0061879D01*
X0122613Y0063146D01*
X0122128Y0064316D01*
X0121232Y0065212D01*
X0120062Y0065697D01*
X0118795Y0065697D01*
X0117625Y0065212D01*
X0117354Y0064941D01*
X0117354Y0068666D01*
X0116428Y0069591D01*
X0115257Y0070763D01*
X0102757Y0070763D01*
X0102678Y0070841D01*
X0102678Y0078341D01*
X0102678Y0077232D02*
X0110607Y0077232D01*
X0110607Y0076034D02*
X0102678Y0076034D01*
X0102678Y0074835D02*
X0110607Y0074835D01*
X0110607Y0073637D02*
X0102678Y0073637D01*
X0102678Y0072438D02*
X0111421Y0072438D01*
X0111427Y0072432D02*
X0116350Y0072432D01*
X0116508Y0072341D01*
X0116915Y0072232D01*
X0117913Y0072232D01*
X0118911Y0072232D01*
X0119192Y0072307D01*
X0119474Y0072232D01*
X0120472Y0072232D01*
X0120472Y0076784D01*
X0120472Y0076784D01*
X0117913Y0076784D01*
X0117913Y0072232D01*
X0117913Y0076784D01*
X0117913Y0076784D01*
X0117913Y0076784D01*
X0117913Y0076785D02*
X0117913Y0081337D01*
X0116915Y0081337D01*
X0116508Y0081228D01*
X0116350Y0081137D01*
X0111427Y0081137D01*
X0110607Y0080317D01*
X0110607Y0073252D01*
X0111427Y0072432D01*
X0115978Y0070041D02*
X0123590Y0070041D01*
X0123590Y0068843D02*
X0117177Y0068843D01*
X0117354Y0067644D02*
X0123590Y0067644D01*
X0123590Y0066446D02*
X0117354Y0066446D01*
X0117354Y0065247D02*
X0117709Y0065247D01*
X0121148Y0065247D02*
X0123590Y0065247D01*
X0123590Y0064049D02*
X0122239Y0064049D01*
X0122613Y0062850D02*
X0123590Y0062850D01*
X0123590Y0061652D02*
X0122518Y0061652D01*
X0120472Y0061469D02*
X0119428Y0062513D01*
X0120472Y0061469D02*
X0120472Y0048241D01*
X0123031Y0048241D02*
X0123031Y0054865D01*
X0124428Y0056263D01*
X0140678Y0056263D01*
X0141928Y0055013D01*
X0145113Y0054461D02*
X0156729Y0054461D01*
X0156729Y0055659D02*
X0145107Y0055659D01*
X0144587Y0056858D02*
X0156729Y0056858D01*
X0158188Y0060013D02*
X0160688Y0057513D01*
X0158188Y0060013D02*
X0126928Y0060013D01*
X0125590Y0061351D01*
X0125590Y0076784D01*
X0128149Y0076784D02*
X0128149Y0063792D01*
X0129428Y0062513D01*
X0144428Y0062513D01*
X0149428Y0067513D01*
X0160688Y0067513D01*
X0156729Y0065247D02*
X0149991Y0065247D01*
X0148793Y0064049D02*
X0156729Y0064049D01*
X0164041Y0061652D02*
X0164816Y0061652D01*
X0171521Y0061652D02*
X0172588Y0061652D01*
X0172494Y0061879D02*
X0172979Y0060709D01*
X0173875Y0059813D01*
X0175045Y0059329D01*
X0176312Y0059329D01*
X0177482Y0059813D01*
X0178378Y0060709D01*
X0178863Y0061879D01*
X0178863Y0063146D01*
X0178378Y0064316D01*
X0177678Y0065016D01*
X0177678Y0084184D01*
X0178591Y0085097D01*
X0178875Y0084813D01*
X0180045Y0084329D01*
X0181312Y0084329D01*
X0182482Y0084813D01*
X0183378Y0085709D01*
X0183863Y0086879D01*
X0183863Y0088146D01*
X0183378Y0089316D01*
X0182482Y0090212D01*
X0181312Y0090697D01*
X0180045Y0090697D01*
X0178875Y0090212D01*
X0178175Y0089513D01*
X0177350Y0089513D01*
X0176178Y0088341D01*
X0173678Y0085841D01*
X0173678Y0065016D01*
X0172979Y0064316D01*
X0172494Y0063146D01*
X0172494Y0061879D01*
X0172494Y0062850D02*
X0147594Y0062850D01*
X0142100Y0064513D02*
X0135932Y0064513D01*
X0135967Y0064548D01*
X0136451Y0065718D01*
X0136451Y0066985D01*
X0135967Y0068155D01*
X0135267Y0068855D01*
X0135267Y0072432D01*
X0136823Y0072432D01*
X0136980Y0072341D01*
X0137387Y0072232D01*
X0138385Y0072232D01*
X0138385Y0076784D01*
X0138385Y0076784D01*
X0138385Y0072232D01*
X0138944Y0072232D01*
X0138944Y0068919D01*
X0139994Y0067869D01*
X0139994Y0066879D01*
X0140479Y0065709D01*
X0141375Y0064813D01*
X0142100Y0064513D01*
X0140941Y0065247D02*
X0136256Y0065247D01*
X0136451Y0066446D02*
X0140174Y0066446D01*
X0139994Y0067644D02*
X0136178Y0067644D01*
X0135279Y0068843D02*
X0139020Y0068843D01*
X0138944Y0070041D02*
X0135267Y0070041D01*
X0135267Y0071240D02*
X0138944Y0071240D01*
X0138385Y0072438D02*
X0138385Y0072438D01*
X0138385Y0073637D02*
X0138385Y0073637D01*
X0138385Y0074835D02*
X0138385Y0074835D01*
X0138385Y0076034D02*
X0138385Y0076034D01*
X0138385Y0076785D02*
X0138385Y0081337D01*
X0138385Y0076785D01*
X0138385Y0076785D01*
X0138385Y0077232D02*
X0138385Y0077232D01*
X0138385Y0078431D02*
X0138385Y0078431D01*
X0138385Y0079629D02*
X0138385Y0079629D01*
X0138385Y0080828D02*
X0138385Y0080828D01*
X0138944Y0082026D02*
X0113040Y0082026D01*
X0114635Y0083225D02*
X0122242Y0083225D01*
X0121529Y0084423D02*
X0115113Y0084423D01*
X0111928Y0085013D02*
X0109428Y0087513D01*
X0103169Y0087513D01*
X0110552Y0089217D02*
X0121529Y0089217D01*
X0121529Y0088113D02*
X0125088Y0088113D01*
X0125088Y0092066D01*
X0122919Y0092066D01*
X0122512Y0091956D01*
X0122147Y0091746D01*
X0121849Y0091448D01*
X0121638Y0091083D01*
X0121529Y0090676D01*
X0121529Y0088113D01*
X0121529Y0086820D02*
X0114624Y0086820D01*
X0115113Y0085622D02*
X0121529Y0085622D01*
X0125088Y0085622D02*
X0126288Y0085622D01*
X0126288Y0086820D02*
X0125088Y0086820D01*
X0125088Y0088019D02*
X0112992Y0088019D01*
X0111428Y0088341D02*
X0111428Y0088341D01*
X0107128Y0090416D02*
X0121529Y0090416D01*
X0122016Y0091615D02*
X0106559Y0091615D01*
X0099779Y0091615D02*
X0099078Y0091615D01*
X0092298Y0091615D02*
X0086559Y0091615D01*
X0086308Y0091866D02*
X0080030Y0091866D01*
X0079428Y0091264D01*
X0078827Y0091866D01*
X0078295Y0091866D01*
X0078295Y0093808D01*
X0079057Y0094571D01*
X0079057Y0100455D01*
X0078237Y0101275D01*
X0072352Y0101275D01*
X0071532Y0100455D01*
X0071532Y0094571D01*
X0072295Y0093808D01*
X0072295Y0091611D01*
X0071729Y0091045D01*
X0071729Y0083980D01*
X0072549Y0083160D01*
X0078827Y0083160D01*
X0079428Y0083761D01*
X0080030Y0083160D01*
X0085670Y0083160D01*
X0090890Y0077940D01*
X0090890Y0068637D01*
X0087786Y0068637D01*
X0086965Y0067817D01*
X0086965Y0057208D01*
X0087786Y0056388D01*
X0091178Y0056388D01*
X0091178Y0055016D01*
X0090479Y0054316D01*
X0089994Y0053146D01*
X0089994Y0051879D01*
X0090479Y0050709D01*
X0091375Y0049813D01*
X0092545Y0049329D01*
X0093812Y0049329D01*
X0094982Y0049813D01*
X0095878Y0050709D01*
X0096363Y0051879D01*
X0096363Y0053146D01*
X0095878Y0054316D01*
X0095178Y0055016D01*
X0095178Y0056388D01*
X0098394Y0056388D01*
X0099214Y0057208D01*
X0099214Y0060513D01*
X0099425Y0060513D01*
X0100125Y0059813D01*
X0101295Y0059329D01*
X0102562Y0059329D01*
X0103732Y0059813D01*
X0104628Y0060709D01*
X0105113Y0061879D01*
X0105113Y0063146D01*
X0104628Y0064316D01*
X0103732Y0065212D01*
X0102562Y0065697D01*
X0101295Y0065697D01*
X0100125Y0065212D01*
X0099425Y0064513D01*
X0099214Y0064513D01*
X0099214Y0067817D01*
X0098394Y0068637D01*
X0095290Y0068637D01*
X0095290Y0079763D01*
X0087128Y0087925D01*
X0087128Y0091045D01*
X0086308Y0091866D01*
X0087128Y0090416D02*
X0091729Y0090416D01*
X0091729Y0089217D02*
X0087128Y0089217D01*
X0087128Y0088019D02*
X0091729Y0088019D01*
X0091729Y0086820D02*
X0088232Y0086820D01*
X0089431Y0085622D02*
X0091729Y0085622D01*
X0095678Y0087503D02*
X0095688Y0087513D01*
X0095678Y0087503D02*
X0095678Y0082513D01*
X0100678Y0077513D01*
X0100678Y0070013D01*
X0101928Y0068763D01*
X0114428Y0068763D01*
X0115354Y0067838D01*
X0115354Y0048241D01*
X0112795Y0048241D02*
X0112795Y0032897D01*
X0114428Y0031263D01*
X0180678Y0031263D01*
X0181928Y0032513D01*
X0181928Y0033763D01*
X0188178Y0037513D02*
X0191928Y0041263D01*
X0191928Y0046263D01*
X0193178Y0047513D01*
X0199428Y0047513D01*
X0213178Y0047513D01*
X0215678Y0050013D01*
X0215678Y0065013D01*
X0217115Y0066450D01*
X0230009Y0066450D01*
X0236507Y0064049D02*
X0249328Y0064049D01*
X0249328Y0065247D02*
X0237003Y0065247D01*
X0237149Y0066446D02*
X0249328Y0066446D01*
X0249328Y0067644D02*
X0237006Y0067644D01*
X0236510Y0068843D02*
X0249328Y0068843D01*
X0249328Y0070041D02*
X0235327Y0070041D01*
X0234733Y0072438D02*
X0249328Y0072438D01*
X0249328Y0071240D02*
X0214128Y0071240D01*
X0214128Y0070041D02*
X0224692Y0070041D01*
X0223508Y0068843D02*
X0214128Y0068843D01*
X0214128Y0067644D02*
X0215482Y0067644D01*
X0214283Y0066446D02*
X0214128Y0066446D01*
X0209728Y0066446D02*
X0203749Y0066446D01*
X0203828Y0066638D02*
X0203159Y0065020D01*
X0201921Y0063783D01*
X0200304Y0063113D01*
X0198553Y0063113D01*
X0196936Y0063783D01*
X0195698Y0065020D01*
X0195028Y0066638D01*
X0195028Y0068388D01*
X0195698Y0070005D01*
X0196936Y0071243D01*
X0198553Y0071913D01*
X0200304Y0071913D01*
X0201921Y0071243D01*
X0203159Y0070005D01*
X0203828Y0068388D01*
X0203828Y0066638D01*
X0203828Y0067644D02*
X0209728Y0067644D01*
X0209728Y0068843D02*
X0203640Y0068843D01*
X0203122Y0070041D02*
X0209728Y0070041D01*
X0209728Y0071240D02*
X0201924Y0071240D01*
X0201569Y0073637D02*
X0209941Y0073637D01*
X0209728Y0072438D02*
X0190178Y0072438D01*
X0190178Y0071240D02*
X0196933Y0071240D01*
X0195734Y0070041D02*
X0190178Y0070041D01*
X0190178Y0068843D02*
X0195217Y0068843D01*
X0195028Y0067644D02*
X0190178Y0067644D01*
X0190178Y0066446D02*
X0195108Y0066446D01*
X0195604Y0065247D02*
X0190178Y0065247D01*
X0190178Y0064049D02*
X0196670Y0064049D01*
X0197923Y0061652D02*
X0190178Y0061652D01*
X0190178Y0062850D02*
X0209728Y0062850D01*
X0209728Y0061652D02*
X0200934Y0061652D01*
X0202711Y0060453D02*
X0209728Y0060453D01*
X0213135Y0056858D02*
X0213678Y0056858D01*
X0213678Y0055659D02*
X0211936Y0055659D01*
X0213678Y0054461D02*
X0202599Y0054461D01*
X0200664Y0053262D02*
X0213678Y0053262D01*
X0213678Y0052064D02*
X0189308Y0052064D01*
X0189007Y0051763D02*
X0190178Y0052934D01*
X0190178Y0095434D01*
X0190257Y0095513D01*
X0195494Y0095513D01*
X0195698Y0095020D01*
X0196936Y0093783D01*
X0198553Y0093113D01*
X0200304Y0093113D01*
X0201921Y0093783D01*
X0203159Y0095020D01*
X0203828Y0096638D01*
X0203828Y0098388D01*
X0203159Y0100005D01*
X0201921Y0101243D01*
X0200304Y0101913D01*
X0198553Y0101913D01*
X0196936Y0101243D01*
X0195698Y0100005D01*
X0195494Y0099513D01*
X0188600Y0099513D01*
X0187428Y0098341D01*
X0187350Y0098263D01*
X0186178Y0097091D01*
X0186178Y0054591D01*
X0182100Y0050513D01*
X0181375Y0050212D01*
X0180479Y0049316D01*
X0179994Y0048146D01*
X0179994Y0046879D01*
X0180479Y0045709D01*
X0181375Y0044813D01*
X0182545Y0044329D01*
X0183812Y0044329D01*
X0184982Y0044813D01*
X0185878Y0045709D01*
X0186363Y0046879D01*
X0186363Y0048146D01*
X0186078Y0048834D01*
X0189007Y0051763D01*
X0188109Y0050865D02*
X0196558Y0050865D01*
X0195558Y0049667D02*
X0186911Y0049667D01*
X0186229Y0048468D02*
X0191305Y0048468D01*
X0190107Y0047270D02*
X0186363Y0047270D01*
X0186028Y0046071D02*
X0189928Y0046071D01*
X0189928Y0044873D02*
X0185041Y0044873D01*
X0189928Y0043674D02*
X0126096Y0043674D01*
X0127294Y0042476D02*
X0189928Y0042476D01*
X0189114Y0041277D02*
X0136896Y0041277D01*
X0137128Y0040079D02*
X0187916Y0040079D01*
X0188178Y0037513D02*
X0133169Y0037513D01*
X0125688Y0037513D02*
X0125678Y0037523D01*
X0125678Y0041263D01*
X0123031Y0043910D01*
X0123031Y0048241D01*
X0128149Y0048241D02*
X0128149Y0048241D01*
X0128149Y0043688D01*
X0128149Y0048241D01*
X0128149Y0048241D01*
X0128149Y0052794D01*
X0129147Y0052794D01*
X0129554Y0052685D01*
X0129711Y0052594D01*
X0139577Y0052594D01*
X0139844Y0052594D01*
X0139229Y0053209D01*
X0138793Y0054263D01*
X0125257Y0054263D01*
X0125031Y0054037D01*
X0125031Y0052594D01*
X0126586Y0052594D01*
X0126744Y0052685D01*
X0127151Y0052794D01*
X0128149Y0052794D01*
X0128149Y0048241D01*
X0128149Y0048468D02*
X0128149Y0048468D01*
X0128149Y0047270D02*
X0128149Y0047270D01*
X0128149Y0046071D02*
X0128149Y0046071D01*
X0128149Y0044873D02*
X0128149Y0044873D01*
X0129416Y0041277D02*
X0129441Y0041277D01*
X0112795Y0048241D02*
X0096407Y0048241D01*
X0095678Y0047513D01*
X0095678Y0037523D01*
X0095688Y0037513D01*
X0091729Y0037681D02*
X0087128Y0037681D01*
X0087128Y0038880D02*
X0091729Y0038880D01*
X0091729Y0040079D02*
X0087128Y0040079D01*
X0086896Y0041277D02*
X0091961Y0041277D01*
X0093678Y0042476D02*
X0086169Y0042476D01*
X0086822Y0043674D02*
X0093678Y0043674D01*
X0093678Y0044873D02*
X0087128Y0044873D01*
X0087128Y0046071D02*
X0093678Y0046071D01*
X0093678Y0047270D02*
X0087128Y0047270D01*
X0087128Y0048468D02*
X0093805Y0048468D01*
X0094628Y0049667D02*
X0095004Y0049667D01*
X0095943Y0050865D02*
X0110607Y0050865D01*
X0110897Y0052064D02*
X0096363Y0052064D01*
X0096315Y0053262D02*
X0113354Y0053262D01*
X0113354Y0054461D02*
X0095734Y0054461D01*
X0095178Y0055659D02*
X0113354Y0055659D01*
X0113354Y0056858D02*
X0098864Y0056858D01*
X0099214Y0058056D02*
X0113354Y0058056D01*
X0113354Y0059255D02*
X0099214Y0059255D01*
X0099214Y0060453D02*
X0099485Y0060453D01*
X0104372Y0060453D02*
X0113354Y0060453D01*
X0113354Y0061652D02*
X0105018Y0061652D01*
X0105113Y0062850D02*
X0113354Y0062850D01*
X0113354Y0064049D02*
X0104739Y0064049D01*
X0103648Y0065247D02*
X0113354Y0065247D01*
X0113354Y0066446D02*
X0099214Y0066446D01*
X0099214Y0067644D02*
X0100219Y0067644D01*
X0099020Y0068843D02*
X0095290Y0068843D01*
X0095290Y0070041D02*
X0098678Y0070041D01*
X0098678Y0071240D02*
X0095290Y0071240D01*
X0095290Y0072438D02*
X0098678Y0072438D01*
X0098678Y0073637D02*
X0095290Y0073637D01*
X0095290Y0074835D02*
X0098678Y0074835D01*
X0098678Y0076034D02*
X0095290Y0076034D01*
X0095290Y0077232D02*
X0098130Y0077232D01*
X0096932Y0078431D02*
X0095290Y0078431D01*
X0095290Y0079629D02*
X0095733Y0079629D01*
X0094535Y0080828D02*
X0094225Y0080828D01*
X0093678Y0082026D02*
X0093026Y0082026D01*
X0092484Y0083225D02*
X0091828Y0083225D01*
X0091729Y0084423D02*
X0090629Y0084423D01*
X0086804Y0082026D02*
X0078604Y0082026D01*
X0078892Y0083225D02*
X0079965Y0083225D01*
X0076288Y0082026D02*
X0075088Y0082026D01*
X0075088Y0082066D02*
X0072919Y0082066D01*
X0072512Y0081956D01*
X0072147Y0081746D01*
X0071849Y0081448D01*
X0071638Y0081083D01*
X0071529Y0080676D01*
X0071529Y0078113D01*
X0075088Y0078113D01*
X0075088Y0082066D01*
X0075088Y0080828D02*
X0076288Y0080828D01*
X0076288Y0079629D02*
X0075088Y0079629D01*
X0075088Y0078431D02*
X0076288Y0078431D01*
X0075088Y0077232D02*
X0068928Y0077232D01*
X0068928Y0076034D02*
X0071529Y0076034D01*
X0071529Y0074835D02*
X0068928Y0074835D01*
X0068928Y0073637D02*
X0071815Y0073637D01*
X0068928Y0072438D02*
X0080169Y0072438D01*
X0080169Y0071240D02*
X0068928Y0071240D01*
X0068928Y0070041D02*
X0079053Y0070041D01*
X0077854Y0068843D02*
X0068928Y0068843D01*
X0068928Y0067644D02*
X0069643Y0067644D01*
X0069643Y0066446D02*
X0068928Y0066446D01*
X0068928Y0065247D02*
X0069643Y0065247D01*
X0069643Y0064049D02*
X0068928Y0064049D01*
X0068928Y0062850D02*
X0069643Y0062850D01*
X0069643Y0061652D02*
X0068928Y0061652D01*
X0068928Y0060453D02*
X0069643Y0060453D01*
X0069643Y0059255D02*
X0068928Y0059255D01*
X0069643Y0058056D02*
X0067800Y0058056D01*
X0069993Y0056858D02*
X0061945Y0056858D01*
X0062878Y0055659D02*
X0078378Y0055659D01*
X0079577Y0054461D02*
X0062878Y0054461D01*
X0062878Y0053262D02*
X0080169Y0053262D01*
X0080169Y0052064D02*
X0062878Y0052064D01*
X0062878Y0050865D02*
X0071729Y0050865D01*
X0060259Y0046071D02*
X0058742Y0046071D01*
X0058742Y0044873D02*
X0071729Y0044873D01*
X0072035Y0043674D02*
X0058742Y0043674D01*
X0058742Y0042476D02*
X0080169Y0042476D01*
X0079516Y0043674D02*
X0079341Y0043674D01*
X0079416Y0041277D02*
X0079441Y0041277D01*
X0071961Y0041277D02*
X0058742Y0041277D01*
X0058344Y0040079D02*
X0071729Y0040079D01*
X0071729Y0038880D02*
X0024528Y0038880D01*
X0024528Y0037681D02*
X0071729Y0037681D01*
X0071729Y0036483D02*
X0024528Y0036483D01*
X0024528Y0035284D02*
X0071729Y0035284D01*
X0071729Y0034086D02*
X0024528Y0034086D01*
X0024528Y0032887D02*
X0026036Y0032887D01*
X0032821Y0032887D02*
X0072295Y0032887D01*
X0072295Y0031689D02*
X0035333Y0031689D01*
X0036865Y0030490D02*
X0071568Y0030490D01*
X0071532Y0029292D02*
X0038063Y0029292D01*
X0038792Y0028093D02*
X0071532Y0028093D01*
X0071532Y0026895D02*
X0039484Y0026895D01*
X0039859Y0025696D02*
X0071532Y0025696D01*
X0071605Y0024498D02*
X0040180Y0024498D01*
X0040328Y0023299D02*
X0195379Y0023299D01*
X0194828Y0024498D02*
X0087395Y0024498D01*
X0087415Y0024533D02*
X0087525Y0024940D01*
X0087525Y0026932D01*
X0084144Y0026932D01*
X0084144Y0028094D01*
X0087525Y0028094D01*
X0087525Y0030086D01*
X0087415Y0030493D01*
X0087205Y0030857D01*
X0086907Y0031155D01*
X0086542Y0031366D01*
X0086135Y0031475D01*
X0084143Y0031475D01*
X0084143Y0028094D01*
X0082981Y0028094D01*
X0082981Y0026932D01*
X0079600Y0026932D01*
X0079600Y0024940D01*
X0079709Y0024533D01*
X0079920Y0024168D01*
X0080218Y0023870D01*
X0080583Y0023660D01*
X0080989Y0023551D01*
X0082981Y0023551D01*
X0082981Y0026932D01*
X0084143Y0026932D01*
X0084143Y0023551D01*
X0086135Y0023551D01*
X0086542Y0023660D01*
X0086907Y0023870D01*
X0087205Y0024168D01*
X0087415Y0024533D01*
X0087525Y0025696D02*
X0112166Y0025696D01*
X0113178Y0027513D02*
X0189428Y0027513D01*
X0190678Y0028763D01*
X0190678Y0033763D01*
X0193178Y0036263D01*
X0198178Y0036263D01*
X0199428Y0037513D01*
X0218178Y0037513D01*
X0219428Y0038763D01*
X0219428Y0056263D01*
X0221741Y0058576D01*
X0230009Y0058576D01*
X0236723Y0060453D02*
X0249328Y0060453D01*
X0249328Y0059255D02*
X0237149Y0059255D01*
X0237149Y0058056D02*
X0249328Y0058056D01*
X0249328Y0056858D02*
X0236789Y0056858D01*
X0236001Y0055659D02*
X0249328Y0055659D01*
X0249328Y0054461D02*
X0234103Y0054461D01*
X0233926Y0053093D02*
X0233231Y0053203D01*
X0230344Y0053203D01*
X0230344Y0049068D01*
X0230344Y0048398D01*
X0230344Y0044263D01*
X0233231Y0044263D01*
X0233926Y0044373D01*
X0234595Y0044591D01*
X0235222Y0044910D01*
X0235791Y0045324D01*
X0236289Y0045821D01*
X0236702Y0046390D01*
X0237022Y0047017D01*
X0237239Y0047686D01*
X0237349Y0048381D01*
X0237349Y0048398D01*
X0230344Y0048398D01*
X0229674Y0048398D01*
X0229674Y0044263D01*
X0226787Y0044263D01*
X0226092Y0044373D01*
X0225423Y0044591D01*
X0224796Y0044910D01*
X0224227Y0045324D01*
X0223730Y0045821D01*
X0223316Y0046390D01*
X0222997Y0047017D01*
X0222779Y0047686D01*
X0222669Y0048381D01*
X0222669Y0048398D01*
X0229674Y0048398D01*
X0229674Y0049068D01*
X0222669Y0049068D01*
X0222669Y0049085D01*
X0222779Y0049780D01*
X0222997Y0050449D01*
X0223316Y0051076D01*
X0223730Y0051645D01*
X0224227Y0052143D01*
X0224796Y0052556D01*
X0225423Y0052876D01*
X0226092Y0053093D01*
X0226787Y0053203D01*
X0229674Y0053203D01*
X0229674Y0049068D01*
X0230344Y0049068D01*
X0237349Y0049068D01*
X0237349Y0049085D01*
X0237239Y0049780D01*
X0237022Y0050449D01*
X0236702Y0051076D01*
X0236289Y0051645D01*
X0235791Y0052143D01*
X0235222Y0052556D01*
X0234595Y0052876D01*
X0233926Y0053093D01*
X0235870Y0052064D02*
X0249328Y0052064D01*
X0249328Y0053262D02*
X0221428Y0053262D01*
X0221428Y0052064D02*
X0224148Y0052064D01*
X0223208Y0050865D02*
X0221428Y0050865D01*
X0221428Y0049667D02*
X0222761Y0049667D01*
X0221428Y0048468D02*
X0229674Y0048468D01*
X0230344Y0048468D02*
X0249328Y0048468D01*
X0249328Y0047270D02*
X0237104Y0047270D01*
X0236470Y0046071D02*
X0249328Y0046071D01*
X0249328Y0044873D02*
X0235148Y0044873D01*
X0236153Y0043419D02*
X0235308Y0042770D01*
X0234555Y0042017D01*
X0233906Y0041172D01*
X0233373Y0040249D01*
X0232966Y0039265D01*
X0232690Y0038236D01*
X0232560Y0037247D01*
X0240078Y0037247D01*
X0240078Y0036047D01*
X0232560Y0036047D01*
X0232690Y0035058D01*
X0232966Y0034028D01*
X0233373Y0033044D01*
X0233906Y0032121D01*
X0234555Y0031276D01*
X0235308Y0030523D01*
X0236153Y0029874D01*
X0237076Y0029342D01*
X0238060Y0028934D01*
X0239089Y0028658D01*
X0240078Y0028528D01*
X0240078Y0036047D01*
X0241278Y0036047D01*
X0241278Y0028528D01*
X0242267Y0028658D01*
X0243297Y0028934D01*
X0244281Y0029342D01*
X0245204Y0029874D01*
X0246049Y0030523D01*
X0246802Y0031276D01*
X0247451Y0032121D01*
X0247983Y0033044D01*
X0248391Y0034028D01*
X0248667Y0035058D01*
X0248797Y0036047D01*
X0241279Y0036047D01*
X0241279Y0037247D01*
X0248797Y0037247D01*
X0248667Y0038236D01*
X0248391Y0039265D01*
X0247983Y0040249D01*
X0247451Y0041172D01*
X0246802Y0042017D01*
X0246049Y0042770D01*
X0245204Y0043419D01*
X0244281Y0043952D01*
X0243297Y0044359D01*
X0242267Y0044635D01*
X0241278Y0044765D01*
X0241278Y0037247D01*
X0240078Y0037247D01*
X0240078Y0044765D01*
X0239089Y0044635D01*
X0238060Y0044359D01*
X0237076Y0043952D01*
X0236153Y0043419D01*
X0236595Y0043674D02*
X0221428Y0043674D01*
X0221428Y0042476D02*
X0235013Y0042476D01*
X0233987Y0041277D02*
X0221428Y0041277D01*
X0221428Y0040079D02*
X0233303Y0040079D01*
X0232863Y0038880D02*
X0221428Y0038880D01*
X0221176Y0037681D02*
X0232617Y0037681D01*
X0240078Y0037681D02*
X0241278Y0037681D01*
X0241278Y0038880D02*
X0240078Y0038880D01*
X0240078Y0040079D02*
X0241278Y0040079D01*
X0241278Y0041277D02*
X0240078Y0041277D01*
X0240078Y0042476D02*
X0241278Y0042476D01*
X0241278Y0043674D02*
X0240078Y0043674D01*
X0244762Y0043674D02*
X0249328Y0043674D01*
X0249328Y0042476D02*
X0246344Y0042476D01*
X0247370Y0041277D02*
X0249328Y0041277D01*
X0249328Y0040079D02*
X0248054Y0040079D01*
X0248494Y0038880D02*
X0249328Y0038880D01*
X0249328Y0037681D02*
X0248740Y0037681D01*
X0249328Y0036483D02*
X0241279Y0036483D01*
X0241278Y0035284D02*
X0240078Y0035284D01*
X0240078Y0034086D02*
X0241278Y0034086D01*
X0241278Y0032887D02*
X0240078Y0032887D01*
X0240078Y0031689D02*
X0241278Y0031689D01*
X0241278Y0030490D02*
X0240078Y0030490D01*
X0240078Y0029292D02*
X0241278Y0029292D01*
X0244161Y0029292D02*
X0249328Y0029292D01*
X0249328Y0030490D02*
X0246007Y0030490D01*
X0247119Y0031689D02*
X0249328Y0031689D01*
X0249328Y0032887D02*
X0247893Y0032887D01*
X0248407Y0034086D02*
X0249328Y0034086D01*
X0249328Y0035284D02*
X0248697Y0035284D01*
X0240078Y0036483D02*
X0219977Y0036483D01*
X0217821Y0032887D02*
X0233464Y0032887D01*
X0232950Y0034086D02*
X0202224Y0034086D01*
X0203268Y0035284D02*
X0232660Y0035284D01*
X0234238Y0031689D02*
X0220333Y0031689D01*
X0221865Y0030490D02*
X0235350Y0030490D01*
X0237196Y0029292D02*
X0223063Y0029292D01*
X0223792Y0028093D02*
X0249328Y0028093D01*
X0249328Y0026895D02*
X0224484Y0026895D01*
X0224859Y0025696D02*
X0249328Y0025696D01*
X0249328Y0024498D02*
X0225180Y0024498D01*
X0225328Y0023299D02*
X0249328Y0023299D01*
X0249328Y0022101D02*
X0225328Y0022101D01*
X0225281Y0020902D02*
X0249328Y0020902D01*
X0249328Y0019704D02*
X0224959Y0019704D01*
X0224638Y0018505D02*
X0249328Y0018505D01*
X0211036Y0032887D02*
X0192678Y0032887D01*
X0192678Y0031689D02*
X0195342Y0031689D01*
X0195446Y0031793D02*
X0195148Y0031495D01*
X0194937Y0031130D01*
X0194828Y0030723D01*
X0194828Y0027913D01*
X0199028Y0027913D01*
X0199028Y0032113D01*
X0196218Y0032113D01*
X0195811Y0032004D01*
X0195446Y0031793D01*
X0194828Y0030490D02*
X0192678Y0030490D01*
X0192678Y0029292D02*
X0194828Y0029292D01*
X0194828Y0028093D02*
X0192678Y0028093D01*
X0191639Y0026895D02*
X0194828Y0026895D01*
X0194828Y0025696D02*
X0190441Y0025696D01*
X0199028Y0025696D02*
X0199828Y0025696D01*
X0199828Y0024498D02*
X0199028Y0024498D01*
X0199028Y0023299D02*
X0199828Y0023299D01*
X0203478Y0023299D02*
X0203529Y0023299D01*
X0203529Y0022101D02*
X0040328Y0022101D01*
X0040281Y0020902D02*
X0203576Y0020902D01*
X0203897Y0019704D02*
X0039959Y0019704D01*
X0039638Y0018505D02*
X0204219Y0018505D01*
X0204373Y0026895D02*
X0204028Y0026895D01*
X0204028Y0028093D02*
X0205065Y0028093D01*
X0205794Y0029292D02*
X0204028Y0029292D01*
X0204028Y0030490D02*
X0206992Y0030490D01*
X0208524Y0031689D02*
X0203515Y0031689D01*
X0199828Y0031689D02*
X0199028Y0031689D01*
X0199028Y0030490D02*
X0199828Y0030490D01*
X0199828Y0029292D02*
X0199028Y0029292D01*
X0199028Y0028093D02*
X0199828Y0028093D01*
X0199828Y0026895D02*
X0199028Y0026895D01*
X0196633Y0034086D02*
X0193830Y0034086D01*
X0181315Y0044873D02*
X0172325Y0044873D01*
X0172325Y0046071D02*
X0180329Y0046071D01*
X0179994Y0047270D02*
X0172325Y0047270D01*
X0172325Y0048468D02*
X0180128Y0048468D01*
X0180829Y0049667D02*
X0172325Y0049667D01*
X0171914Y0050865D02*
X0182452Y0050865D01*
X0183651Y0052064D02*
X0170762Y0052064D01*
X0171410Y0053262D02*
X0184849Y0053262D01*
X0186048Y0054461D02*
X0172128Y0054461D01*
X0172128Y0055659D02*
X0186178Y0055659D01*
X0186178Y0056858D02*
X0172128Y0056858D01*
X0172128Y0058056D02*
X0186178Y0058056D01*
X0186178Y0059255D02*
X0172128Y0059255D01*
X0172128Y0060453D02*
X0173235Y0060453D01*
X0178122Y0060453D02*
X0186178Y0060453D01*
X0186178Y0061652D02*
X0178768Y0061652D01*
X0178863Y0062850D02*
X0186178Y0062850D01*
X0186178Y0064049D02*
X0178489Y0064049D01*
X0177678Y0065247D02*
X0186178Y0065247D01*
X0186178Y0066446D02*
X0177678Y0066446D01*
X0177678Y0067644D02*
X0186178Y0067644D01*
X0186178Y0068843D02*
X0177678Y0068843D01*
X0177678Y0070041D02*
X0186178Y0070041D01*
X0186178Y0071240D02*
X0177678Y0071240D01*
X0177678Y0072438D02*
X0186178Y0072438D01*
X0186178Y0073637D02*
X0177678Y0073637D01*
X0177678Y0074835D02*
X0186178Y0074835D01*
X0186178Y0076034D02*
X0177678Y0076034D01*
X0177678Y0077232D02*
X0186178Y0077232D01*
X0186178Y0078431D02*
X0177678Y0078431D01*
X0177678Y0079629D02*
X0186178Y0079629D01*
X0186178Y0080828D02*
X0177678Y0080828D01*
X0177678Y0082026D02*
X0186178Y0082026D01*
X0186178Y0083225D02*
X0177678Y0083225D01*
X0177918Y0084423D02*
X0179816Y0084423D01*
X0181541Y0084423D02*
X0186178Y0084423D01*
X0186178Y0085622D02*
X0183291Y0085622D01*
X0183838Y0086820D02*
X0186178Y0086820D01*
X0186178Y0088019D02*
X0183863Y0088019D01*
X0183419Y0089217D02*
X0186178Y0089217D01*
X0186178Y0090416D02*
X0181990Y0090416D01*
X0179367Y0090416D02*
X0148062Y0090416D01*
X0148062Y0089217D02*
X0177055Y0089217D01*
X0175856Y0088019D02*
X0148062Y0088019D01*
X0148062Y0086820D02*
X0174658Y0086820D01*
X0173678Y0085622D02*
X0148062Y0085622D01*
X0148062Y0084423D02*
X0173678Y0084423D01*
X0173678Y0083225D02*
X0148062Y0083225D01*
X0148062Y0082026D02*
X0173678Y0082026D01*
X0173678Y0080828D02*
X0171951Y0080828D01*
X0172325Y0079629D02*
X0173678Y0079629D01*
X0173678Y0078431D02*
X0172325Y0078431D01*
X0172325Y0077232D02*
X0173678Y0077232D01*
X0173678Y0076034D02*
X0172325Y0076034D01*
X0172325Y0074835D02*
X0173678Y0074835D01*
X0173678Y0073637D02*
X0170762Y0073637D01*
X0170762Y0072438D02*
X0173678Y0072438D01*
X0173678Y0071240D02*
X0171933Y0071240D01*
X0172128Y0070041D02*
X0173678Y0070041D01*
X0173678Y0068843D02*
X0172128Y0068843D01*
X0172128Y0067644D02*
X0173678Y0067644D01*
X0173678Y0066446D02*
X0172128Y0066446D01*
X0172128Y0065247D02*
X0173678Y0065247D01*
X0172868Y0064049D02*
X0172128Y0064049D01*
X0175678Y0062513D02*
X0175678Y0085013D01*
X0178178Y0087513D01*
X0180678Y0087513D01*
X0186178Y0091615D02*
X0148062Y0091615D01*
X0148062Y0092813D02*
X0186178Y0092813D01*
X0186178Y0094012D02*
X0148062Y0094012D01*
X0148062Y0095210D02*
X0186178Y0095210D01*
X0186178Y0096409D02*
X0148062Y0096409D01*
X0148062Y0097607D02*
X0186694Y0097607D01*
X0187350Y0098263D02*
X0187350Y0098263D01*
X0187428Y0098341D02*
X0187428Y0098341D01*
X0187893Y0098806D02*
X0148062Y0098806D01*
X0148062Y0100004D02*
X0195698Y0100004D01*
X0196896Y0101203D02*
X0148062Y0101203D01*
X0148062Y0102401D02*
X0203529Y0102401D01*
X0203529Y0101203D02*
X0201961Y0101203D01*
X0203159Y0100004D02*
X0203817Y0100004D01*
X0203655Y0098806D02*
X0204138Y0098806D01*
X0203828Y0097607D02*
X0204675Y0097607D01*
X0205367Y0096409D02*
X0203734Y0096409D01*
X0203237Y0095210D02*
X0206317Y0095210D01*
X0207516Y0094012D02*
X0202150Y0094012D01*
X0201024Y0091615D02*
X0212990Y0091615D01*
X0215867Y0091615D02*
X0233221Y0091615D01*
X0233373Y0091981D02*
X0232966Y0090997D01*
X0232690Y0089968D01*
X0232560Y0088979D01*
X0240078Y0088979D01*
X0240078Y0087779D01*
X0232560Y0087779D01*
X0232690Y0086790D01*
X0232966Y0085761D01*
X0233373Y0084776D01*
X0233906Y0083854D01*
X0234555Y0083009D01*
X0235308Y0082255D01*
X0236153Y0081607D01*
X0237076Y0081074D01*
X0238060Y0080666D01*
X0239089Y0080390D01*
X0240078Y0080260D01*
X0240078Y0087779D01*
X0241278Y0087779D01*
X0241278Y0080260D01*
X0242267Y0080390D01*
X0243297Y0080666D01*
X0244281Y0081074D01*
X0245204Y0081607D01*
X0246049Y0082255D01*
X0246802Y0083009D01*
X0247451Y0083854D01*
X0247983Y0084776D01*
X0248391Y0085761D01*
X0248667Y0086790D01*
X0248797Y0087779D01*
X0241279Y0087779D01*
X0241279Y0088979D01*
X0248797Y0088979D01*
X0248667Y0089968D01*
X0248391Y0090997D01*
X0247983Y0091981D01*
X0247451Y0092904D01*
X0246802Y0093749D01*
X0246049Y0094503D01*
X0245204Y0095151D01*
X0244281Y0095684D01*
X0243297Y0096092D01*
X0242267Y0096367D01*
X0241278Y0096498D01*
X0241278Y0088979D01*
X0240078Y0088979D01*
X0240078Y0096498D01*
X0239089Y0096367D01*
X0238060Y0096092D01*
X0237076Y0095684D01*
X0236153Y0095151D01*
X0235308Y0094503D01*
X0234555Y0093749D01*
X0233906Y0092904D01*
X0233373Y0091981D01*
X0233854Y0092813D02*
X0219426Y0092813D01*
X0221341Y0094012D02*
X0234817Y0094012D01*
X0236255Y0095210D02*
X0222540Y0095210D01*
X0223490Y0096409D02*
X0239402Y0096409D01*
X0240078Y0096409D02*
X0241278Y0096409D01*
X0241955Y0096409D02*
X0249328Y0096409D01*
X0249328Y0097607D02*
X0224181Y0097607D01*
X0224719Y0098806D02*
X0249328Y0098806D01*
X0249328Y0100004D02*
X0225040Y0100004D01*
X0225328Y0101203D02*
X0249328Y0101203D01*
X0249328Y0102401D02*
X0225328Y0102401D01*
X0225328Y0103600D02*
X0249328Y0103600D01*
X0249328Y0104798D02*
X0225100Y0104798D01*
X0224779Y0105997D02*
X0249328Y0105997D01*
X0249328Y0107195D02*
X0224310Y0107195D01*
X0204547Y0107195D02*
X0147574Y0107195D01*
X0148062Y0105997D02*
X0204078Y0105997D01*
X0203757Y0104798D02*
X0148062Y0104798D01*
X0148062Y0103600D02*
X0203529Y0103600D01*
X0199428Y0097513D02*
X0189428Y0097513D01*
X0188178Y0096263D01*
X0188178Y0053763D01*
X0183178Y0048763D01*
X0183178Y0047513D01*
X0190178Y0053262D02*
X0198193Y0053262D01*
X0196258Y0054461D02*
X0190178Y0054461D01*
X0190178Y0055659D02*
X0195434Y0055659D01*
X0195028Y0056858D02*
X0190178Y0056858D01*
X0190178Y0058056D02*
X0195028Y0058056D01*
X0195387Y0059255D02*
X0190178Y0059255D01*
X0190178Y0060453D02*
X0196146Y0060453D01*
X0202187Y0064049D02*
X0209728Y0064049D01*
X0209728Y0065247D02*
X0203253Y0065247D01*
X0214965Y0072438D02*
X0225285Y0072438D01*
X0223756Y0073637D02*
X0223664Y0073637D01*
X0221037Y0077232D02*
X0203828Y0077232D01*
X0203828Y0076638D02*
X0203159Y0075020D01*
X0201921Y0073783D01*
X0200304Y0073113D01*
X0198553Y0073113D01*
X0196936Y0073783D01*
X0195698Y0075020D01*
X0195028Y0076638D01*
X0195028Y0078388D01*
X0195698Y0080005D01*
X0196936Y0081243D01*
X0198553Y0081913D01*
X0200304Y0081913D01*
X0201921Y0081243D01*
X0203159Y0080005D01*
X0203828Y0078388D01*
X0203828Y0076638D01*
X0203578Y0076034D02*
X0212338Y0076034D01*
X0211140Y0074835D02*
X0202974Y0074835D01*
X0197288Y0073637D02*
X0190178Y0073637D01*
X0190178Y0074835D02*
X0195883Y0074835D01*
X0195279Y0076034D02*
X0190178Y0076034D01*
X0190178Y0077232D02*
X0195028Y0077232D01*
X0195046Y0078431D02*
X0190178Y0078431D01*
X0190178Y0079629D02*
X0195543Y0079629D01*
X0196521Y0080828D02*
X0190178Y0080828D01*
X0190178Y0082026D02*
X0235606Y0082026D01*
X0234389Y0083225D02*
X0200574Y0083225D01*
X0200304Y0083113D02*
X0201921Y0083783D01*
X0203159Y0085020D01*
X0203828Y0086638D01*
X0203828Y0088388D01*
X0203159Y0090005D01*
X0201921Y0091243D01*
X0200304Y0091913D01*
X0198553Y0091913D01*
X0196936Y0091243D01*
X0195698Y0090005D01*
X0195028Y0088388D01*
X0195028Y0086638D01*
X0195698Y0085020D01*
X0196936Y0083783D01*
X0198553Y0083113D01*
X0200304Y0083113D01*
X0198282Y0083225D02*
X0190178Y0083225D01*
X0190178Y0084423D02*
X0196295Y0084423D01*
X0195449Y0085622D02*
X0190178Y0085622D01*
X0190178Y0086820D02*
X0195028Y0086820D01*
X0195028Y0088019D02*
X0190178Y0088019D01*
X0190178Y0089217D02*
X0195372Y0089217D01*
X0196109Y0090416D02*
X0190178Y0090416D01*
X0190178Y0091615D02*
X0197833Y0091615D01*
X0196707Y0094012D02*
X0190178Y0094012D01*
X0190178Y0095210D02*
X0195620Y0095210D01*
X0190178Y0092813D02*
X0209430Y0092813D01*
X0202748Y0090416D02*
X0232810Y0090416D01*
X0232591Y0089217D02*
X0203485Y0089217D01*
X0203828Y0088019D02*
X0240078Y0088019D01*
X0240078Y0089217D02*
X0241278Y0089217D01*
X0241279Y0088019D02*
X0249328Y0088019D01*
X0249328Y0089217D02*
X0248766Y0089217D01*
X0248547Y0090416D02*
X0249328Y0090416D01*
X0249328Y0091615D02*
X0248135Y0091615D01*
X0247503Y0092813D02*
X0249328Y0092813D01*
X0249328Y0094012D02*
X0246540Y0094012D01*
X0245102Y0095210D02*
X0249328Y0095210D01*
X0241278Y0095210D02*
X0240078Y0095210D01*
X0240078Y0094012D02*
X0241278Y0094012D01*
X0241278Y0092813D02*
X0240078Y0092813D01*
X0240078Y0091615D02*
X0241278Y0091615D01*
X0241278Y0090416D02*
X0240078Y0090416D01*
X0240078Y0086820D02*
X0241278Y0086820D01*
X0241278Y0085622D02*
X0240078Y0085622D01*
X0240078Y0084423D02*
X0241278Y0084423D01*
X0241278Y0083225D02*
X0240078Y0083225D01*
X0240078Y0082026D02*
X0241278Y0082026D01*
X0241278Y0080828D02*
X0240078Y0080828D01*
X0237670Y0080828D02*
X0202336Y0080828D01*
X0203314Y0079629D02*
X0224437Y0079629D01*
X0222235Y0078431D02*
X0203811Y0078431D01*
X0202562Y0084423D02*
X0233577Y0084423D01*
X0233023Y0085622D02*
X0203408Y0085622D01*
X0203828Y0086820D02*
X0232686Y0086820D01*
X0245751Y0082026D02*
X0249328Y0082026D01*
X0249328Y0080828D02*
X0243687Y0080828D01*
X0246968Y0083225D02*
X0249328Y0083225D01*
X0249328Y0084423D02*
X0247780Y0084423D01*
X0248334Y0085622D02*
X0249328Y0085622D01*
X0249328Y0086820D02*
X0248671Y0086820D01*
X0249328Y0079629D02*
X0235581Y0079629D01*
X0236615Y0078431D02*
X0249328Y0078431D01*
X0249328Y0077232D02*
X0237112Y0077232D01*
X0237149Y0076034D02*
X0249328Y0076034D01*
X0249328Y0074835D02*
X0236898Y0074835D01*
X0236263Y0073637D02*
X0249328Y0073637D01*
X0249328Y0062850D02*
X0235319Y0062850D01*
X0235842Y0061652D02*
X0249328Y0061652D01*
X0225916Y0054461D02*
X0221428Y0054461D01*
X0221653Y0055659D02*
X0224017Y0055659D01*
X0229674Y0052064D02*
X0230344Y0052064D01*
X0230344Y0050865D02*
X0229674Y0050865D01*
X0229674Y0049667D02*
X0230344Y0049667D01*
X0230344Y0047270D02*
X0229674Y0047270D01*
X0229674Y0046071D02*
X0230344Y0046071D01*
X0230344Y0044873D02*
X0229674Y0044873D01*
X0224870Y0044873D02*
X0221428Y0044873D01*
X0221428Y0046071D02*
X0223548Y0046071D01*
X0222915Y0047270D02*
X0221428Y0047270D01*
X0213678Y0050865D02*
X0202299Y0050865D01*
X0203299Y0049667D02*
X0212504Y0049667D01*
X0236810Y0050865D02*
X0249328Y0050865D01*
X0249328Y0049667D02*
X0237257Y0049667D01*
X0166362Y0052064D02*
X0147960Y0052064D01*
X0148250Y0050865D02*
X0150778Y0050865D01*
X0150479Y0050566D02*
X0149994Y0049396D01*
X0149994Y0048129D01*
X0150479Y0046959D01*
X0151375Y0046063D01*
X0152545Y0045579D01*
X0153534Y0045579D01*
X0153600Y0045513D01*
X0156532Y0045513D01*
X0156532Y0044571D01*
X0157352Y0043751D01*
X0163237Y0043751D01*
X0164057Y0044571D01*
X0164057Y0050455D01*
X0163237Y0051275D01*
X0157352Y0051275D01*
X0156532Y0050455D01*
X0156532Y0049513D01*
X0156314Y0049513D01*
X0155878Y0050566D01*
X0154982Y0051462D01*
X0153812Y0051947D01*
X0152545Y0051947D01*
X0151375Y0051462D01*
X0150479Y0050566D01*
X0150106Y0049667D02*
X0148250Y0049667D01*
X0148250Y0048468D02*
X0149994Y0048468D01*
X0150350Y0047270D02*
X0148250Y0047270D01*
X0148250Y0046071D02*
X0151367Y0046071D01*
X0153178Y0048763D02*
X0154428Y0047513D01*
X0160295Y0047513D01*
X0164057Y0047270D02*
X0164800Y0047270D01*
X0164800Y0048468D02*
X0164057Y0048468D01*
X0164057Y0049667D02*
X0164800Y0049667D01*
X0165210Y0050865D02*
X0163647Y0050865D01*
X0163929Y0053262D02*
X0164928Y0053262D01*
X0157447Y0053262D02*
X0144650Y0053262D01*
X0139207Y0053262D02*
X0125031Y0053262D01*
X0128149Y0052064D02*
X0128149Y0052064D01*
X0128149Y0050865D02*
X0128149Y0050865D01*
X0128149Y0049667D02*
X0128149Y0049667D01*
X0123393Y0058056D02*
X0122472Y0058056D01*
X0122472Y0059255D02*
X0124858Y0059255D01*
X0123660Y0060453D02*
X0122472Y0060453D01*
X0130149Y0067270D02*
X0130149Y0072232D01*
X0130708Y0072232D01*
X0131267Y0072232D01*
X0131267Y0068855D01*
X0130568Y0068155D01*
X0130479Y0068066D01*
X0130149Y0067270D01*
X0130149Y0067644D02*
X0130304Y0067644D01*
X0130149Y0068843D02*
X0131255Y0068843D01*
X0131267Y0070041D02*
X0130149Y0070041D01*
X0130149Y0071240D02*
X0131267Y0071240D01*
X0130708Y0072232D02*
X0130708Y0076784D01*
X0130708Y0076784D01*
X0130708Y0072232D01*
X0130708Y0072438D02*
X0130708Y0072438D01*
X0130708Y0073637D02*
X0130708Y0073637D01*
X0130708Y0074835D02*
X0130708Y0074835D01*
X0130708Y0076034D02*
X0130708Y0076034D01*
X0130708Y0076785D02*
X0130708Y0076785D01*
X0130708Y0077232D02*
X0130708Y0077232D01*
X0130708Y0078431D02*
X0130708Y0078431D01*
X0130708Y0079629D02*
X0130708Y0079629D01*
X0130708Y0080828D02*
X0130708Y0080828D01*
X0129965Y0083225D02*
X0129135Y0083225D01*
X0126288Y0083225D02*
X0125088Y0083225D01*
X0125088Y0084423D02*
X0126288Y0084423D01*
X0120472Y0080828D02*
X0120472Y0080828D01*
X0120472Y0079629D02*
X0120472Y0079629D01*
X0120472Y0078431D02*
X0120472Y0078431D01*
X0120472Y0077232D02*
X0120472Y0077232D01*
X0120472Y0076784D02*
X0120472Y0076784D01*
X0120472Y0076034D02*
X0120472Y0076034D01*
X0120472Y0074835D02*
X0120472Y0074835D01*
X0120472Y0073637D02*
X0120472Y0073637D01*
X0120472Y0072438D02*
X0120472Y0072438D01*
X0117913Y0072438D02*
X0117913Y0072438D01*
X0117913Y0073637D02*
X0117913Y0073637D01*
X0117913Y0074835D02*
X0117913Y0074835D01*
X0117913Y0076034D02*
X0117913Y0076034D01*
X0117913Y0077232D02*
X0117913Y0077232D01*
X0117913Y0078431D02*
X0117913Y0078431D01*
X0117913Y0079629D02*
X0117913Y0079629D01*
X0117913Y0080828D02*
X0117913Y0080828D01*
X0111118Y0080828D02*
X0100192Y0080828D01*
X0101390Y0079629D02*
X0110607Y0079629D01*
X0110817Y0082026D02*
X0098993Y0082026D01*
X0098892Y0083225D02*
X0099965Y0083225D01*
X0106373Y0083225D02*
X0109222Y0083225D01*
X0108744Y0084423D02*
X0107128Y0084423D01*
X0090890Y0077232D02*
X0087128Y0077232D01*
X0087128Y0076034D02*
X0090890Y0076034D01*
X0090890Y0074835D02*
X0087128Y0074835D01*
X0086784Y0073637D02*
X0090890Y0073637D01*
X0090890Y0072438D02*
X0086169Y0072438D01*
X0086169Y0071240D02*
X0090890Y0071240D01*
X0090890Y0070041D02*
X0086169Y0070041D01*
X0085972Y0068843D02*
X0090890Y0068843D01*
X0086965Y0067644D02*
X0085141Y0067644D01*
X0083943Y0066446D02*
X0086965Y0066446D01*
X0086965Y0065247D02*
X0082744Y0065247D01*
X0081891Y0064049D02*
X0086965Y0064049D01*
X0086965Y0062850D02*
X0081891Y0062850D01*
X0081891Y0061652D02*
X0086965Y0061652D01*
X0086965Y0060453D02*
X0082069Y0060453D01*
X0083268Y0059255D02*
X0086965Y0059255D01*
X0086965Y0058056D02*
X0084466Y0058056D01*
X0085665Y0056858D02*
X0087316Y0056858D01*
X0086169Y0055659D02*
X0091178Y0055659D01*
X0090623Y0054461D02*
X0086169Y0054461D01*
X0086169Y0053262D02*
X0090042Y0053262D01*
X0089994Y0052064D02*
X0086169Y0052064D01*
X0087128Y0050865D02*
X0090414Y0050865D01*
X0091729Y0049667D02*
X0087128Y0049667D01*
X0093178Y0052513D02*
X0093178Y0062424D01*
X0093090Y0062513D01*
X0101928Y0062513D01*
X0100209Y0065247D02*
X0099214Y0065247D01*
X0102678Y0071240D02*
X0123590Y0071240D01*
X0133267Y0066351D02*
X0133267Y0076784D01*
X0140944Y0076784D02*
X0140944Y0069747D01*
X0143178Y0067513D01*
X0146074Y0068843D02*
X0147930Y0068843D01*
X0146732Y0067644D02*
X0146363Y0067644D01*
X0145153Y0070041D02*
X0156729Y0070041D01*
X0156924Y0071240D02*
X0142944Y0071240D01*
X0147436Y0072438D02*
X0166362Y0072438D01*
X0166362Y0073637D02*
X0155056Y0073637D01*
X0154982Y0073563D02*
X0155878Y0074459D01*
X0156314Y0075513D01*
X0156532Y0075513D01*
X0156532Y0074571D01*
X0157352Y0073751D01*
X0163237Y0073751D01*
X0164057Y0074571D01*
X0164057Y0080455D01*
X0163237Y0081275D01*
X0157352Y0081275D01*
X0156532Y0080455D01*
X0156532Y0079513D01*
X0153600Y0079513D01*
X0153534Y0079447D01*
X0152545Y0079447D01*
X0151375Y0078962D01*
X0150479Y0078066D01*
X0149994Y0076896D01*
X0149994Y0075629D01*
X0150479Y0074459D01*
X0151375Y0073563D01*
X0152545Y0073079D01*
X0153812Y0073079D01*
X0154982Y0073563D01*
X0156034Y0074835D02*
X0156532Y0074835D01*
X0154428Y0077513D02*
X0160295Y0077513D01*
X0164057Y0077232D02*
X0164800Y0077232D01*
X0164800Y0076034D02*
X0164057Y0076034D01*
X0164057Y0074835D02*
X0164800Y0074835D01*
X0164800Y0078431D02*
X0164057Y0078431D01*
X0164057Y0079629D02*
X0164800Y0079629D01*
X0165173Y0080828D02*
X0163684Y0080828D01*
X0156905Y0080828D02*
X0148062Y0080828D01*
X0148250Y0079629D02*
X0156532Y0079629D01*
X0154428Y0077513D02*
X0153178Y0076263D01*
X0150323Y0074835D02*
X0148250Y0074835D01*
X0148250Y0073637D02*
X0151301Y0073637D01*
X0149994Y0076034D02*
X0148250Y0076034D01*
X0148250Y0077232D02*
X0150133Y0077232D01*
X0150843Y0078431D02*
X0148250Y0078431D01*
X0146062Y0076784D02*
X0146062Y0105879D01*
X0144428Y0107513D01*
X0064428Y0107513D01*
X0061928Y0105013D01*
X0061928Y0063763D01*
X0060678Y0062513D01*
X0051239Y0062513D01*
X0051239Y0059363D02*
X0066279Y0059363D01*
X0066928Y0060013D01*
X0066928Y0101263D01*
X0069428Y0103763D01*
X0141928Y0103763D01*
X0143503Y0102188D01*
X0143503Y0076784D01*
X0140944Y0076784D02*
X0140944Y0085997D01*
X0139428Y0087513D01*
X0133169Y0087513D01*
X0126288Y0089217D02*
X0125088Y0089217D01*
X0125088Y0090416D02*
X0126288Y0090416D01*
X0126288Y0091615D02*
X0125088Y0091615D01*
X0129361Y0091615D02*
X0129779Y0091615D01*
X0136559Y0091615D02*
X0141503Y0091615D01*
X0141503Y0092813D02*
X0078295Y0092813D01*
X0078498Y0094012D02*
X0080076Y0094012D01*
X0080218Y0093870D02*
X0080583Y0093660D01*
X0080989Y0093551D01*
X0082981Y0093551D01*
X0082981Y0096932D01*
X0079600Y0096932D01*
X0079600Y0094940D01*
X0079709Y0094533D01*
X0079920Y0094168D01*
X0080218Y0093870D01*
X0079600Y0095210D02*
X0079057Y0095210D01*
X0079057Y0096409D02*
X0079600Y0096409D01*
X0079057Y0097607D02*
X0082981Y0097607D01*
X0082981Y0098094D02*
X0082981Y0096932D01*
X0084143Y0096932D01*
X0084143Y0093551D01*
X0086135Y0093551D01*
X0086542Y0093660D01*
X0086907Y0093870D01*
X0087205Y0094168D01*
X0087415Y0094533D01*
X0087525Y0094940D01*
X0087525Y0096932D01*
X0084144Y0096932D01*
X0084144Y0098094D01*
X0087525Y0098094D01*
X0087525Y0100086D01*
X0087415Y0100493D01*
X0087205Y0100857D01*
X0086907Y0101155D01*
X0086542Y0101366D01*
X0086135Y0101475D01*
X0084143Y0101475D01*
X0084143Y0098094D01*
X0082981Y0098094D01*
X0079600Y0098094D01*
X0079600Y0100086D01*
X0079709Y0100493D01*
X0079920Y0100857D01*
X0080218Y0101155D01*
X0080583Y0101366D01*
X0080989Y0101475D01*
X0082981Y0101475D01*
X0082981Y0098094D01*
X0082981Y0098806D02*
X0084143Y0098806D01*
X0084143Y0100004D02*
X0082981Y0100004D01*
X0082981Y0101203D02*
X0084143Y0101203D01*
X0086825Y0101203D02*
X0141503Y0101203D01*
X0141503Y0100004D02*
X0087525Y0100004D01*
X0087525Y0098806D02*
X0141503Y0098806D01*
X0141503Y0097607D02*
X0084144Y0097607D01*
X0084143Y0096409D02*
X0082981Y0096409D01*
X0082981Y0095210D02*
X0084143Y0095210D01*
X0084143Y0094012D02*
X0082981Y0094012D01*
X0087048Y0094012D02*
X0141503Y0094012D01*
X0141503Y0095210D02*
X0087525Y0095210D01*
X0087525Y0096409D02*
X0141503Y0096409D01*
X0141503Y0090416D02*
X0137128Y0090416D01*
X0140552Y0089217D02*
X0141503Y0089217D01*
X0138944Y0084423D02*
X0137128Y0084423D01*
X0136373Y0083225D02*
X0138944Y0083225D01*
X0090399Y0078431D02*
X0087128Y0078431D01*
X0087128Y0079629D02*
X0089201Y0079629D01*
X0088002Y0080828D02*
X0087128Y0080828D01*
X0076288Y0076034D02*
X0075088Y0076034D01*
X0075088Y0074835D02*
X0076288Y0074835D01*
X0076288Y0073637D02*
X0075088Y0073637D01*
X0071529Y0078431D02*
X0068928Y0078431D01*
X0068928Y0079629D02*
X0071529Y0079629D01*
X0071570Y0080828D02*
X0068928Y0080828D01*
X0068928Y0082026D02*
X0072773Y0082026D01*
X0072484Y0083225D02*
X0068928Y0083225D01*
X0068928Y0084423D02*
X0071729Y0084423D01*
X0071729Y0085622D02*
X0068928Y0085622D01*
X0068928Y0086820D02*
X0071729Y0086820D01*
X0071729Y0088019D02*
X0068928Y0088019D01*
X0068928Y0089217D02*
X0071729Y0089217D01*
X0071729Y0090416D02*
X0068928Y0090416D01*
X0068928Y0091615D02*
X0072295Y0091615D01*
X0072295Y0092813D02*
X0068928Y0092813D01*
X0068928Y0094012D02*
X0072092Y0094012D01*
X0071532Y0095210D02*
X0068928Y0095210D01*
X0068928Y0096409D02*
X0071532Y0096409D01*
X0071532Y0097607D02*
X0068928Y0097607D01*
X0068928Y0098806D02*
X0071532Y0098806D01*
X0071532Y0100004D02*
X0068928Y0100004D01*
X0069697Y0101203D02*
X0072280Y0101203D01*
X0078309Y0101203D02*
X0080300Y0101203D01*
X0079600Y0100004D02*
X0079057Y0100004D01*
X0079057Y0098806D02*
X0079600Y0098806D01*
X0079779Y0091615D02*
X0079078Y0091615D01*
X0059928Y0091615D02*
X0030867Y0091615D01*
X0027990Y0091615D02*
X0024528Y0091615D01*
X0024528Y0090416D02*
X0059928Y0090416D01*
X0059928Y0089217D02*
X0024528Y0089217D01*
X0024528Y0088019D02*
X0059928Y0088019D01*
X0059928Y0086820D02*
X0024528Y0086820D01*
X0024528Y0085622D02*
X0059928Y0085622D01*
X0059928Y0084423D02*
X0058742Y0084423D01*
X0058742Y0083225D02*
X0059928Y0083225D01*
X0059928Y0082026D02*
X0058742Y0082026D01*
X0058742Y0080828D02*
X0059928Y0080828D01*
X0059928Y0079629D02*
X0058742Y0079629D01*
X0058742Y0078431D02*
X0059928Y0078431D01*
X0059928Y0077232D02*
X0058742Y0077232D01*
X0058742Y0076034D02*
X0059928Y0076034D01*
X0059928Y0074835D02*
X0058062Y0074835D01*
X0059928Y0073637D02*
X0045305Y0073637D01*
X0045800Y0072438D02*
X0059928Y0072438D01*
X0059928Y0071240D02*
X0058041Y0071240D01*
X0058933Y0070041D02*
X0059928Y0070041D01*
X0059928Y0068843D02*
X0058942Y0068843D01*
X0058942Y0067644D02*
X0059928Y0067644D01*
X0059928Y0066446D02*
X0058742Y0066446D01*
X0058742Y0065247D02*
X0059928Y0065247D01*
X0051240Y0068843D02*
X0051239Y0068843D01*
X0051239Y0070041D02*
X0051240Y0070041D01*
X0051239Y0071240D02*
X0051240Y0071240D01*
X0043737Y0066446D02*
X0043711Y0066446D01*
X0043737Y0065247D02*
X0041770Y0065247D01*
X0043737Y0064049D02*
X0024528Y0064049D01*
X0024528Y0065247D02*
X0037087Y0065247D01*
X0035146Y0066446D02*
X0024528Y0066446D01*
X0024528Y0067644D02*
X0033994Y0067644D01*
X0033498Y0068843D02*
X0024528Y0068843D01*
X0024528Y0070041D02*
X0033057Y0070041D01*
X0033057Y0071240D02*
X0024528Y0071240D01*
X0024528Y0072438D02*
X0033057Y0072438D01*
X0033552Y0073637D02*
X0024528Y0073637D01*
X0033259Y0074835D02*
X0034079Y0074835D01*
X0033939Y0076034D02*
X0035277Y0076034D01*
X0033939Y0077232D02*
X0037404Y0077232D01*
X0041453Y0077232D02*
X0042950Y0077232D01*
X0042950Y0078431D02*
X0033939Y0078431D01*
X0033939Y0079629D02*
X0042950Y0079629D01*
X0042950Y0080828D02*
X0033939Y0080828D01*
X0033939Y0082026D02*
X0042950Y0082026D01*
X0042950Y0083225D02*
X0033939Y0083225D01*
X0033939Y0084423D02*
X0042950Y0084423D01*
X0034426Y0092813D02*
X0059928Y0092813D01*
X0059928Y0094012D02*
X0036341Y0094012D01*
X0037540Y0095210D02*
X0059928Y0095210D01*
X0059928Y0096409D02*
X0038490Y0096409D01*
X0039181Y0097607D02*
X0059928Y0097607D01*
X0059928Y0098806D02*
X0039719Y0098806D01*
X0040040Y0100004D02*
X0059928Y0100004D01*
X0059928Y0101203D02*
X0040328Y0101203D01*
X0040328Y0102401D02*
X0059928Y0102401D01*
X0059928Y0103600D02*
X0040328Y0103600D01*
X0040100Y0104798D02*
X0059928Y0104798D01*
X0060084Y0105997D02*
X0039779Y0105997D01*
X0039310Y0107195D02*
X0061282Y0107195D01*
X0043737Y0062850D02*
X0024528Y0062850D01*
X0024528Y0061652D02*
X0043737Y0061652D01*
X0043737Y0060453D02*
X0024528Y0060453D01*
X0024528Y0059255D02*
X0035823Y0059255D01*
X0034622Y0058056D02*
X0024528Y0058056D01*
X0024528Y0056858D02*
X0033777Y0056858D01*
X0033281Y0055659D02*
X0024528Y0055659D01*
X0024528Y0054461D02*
X0033057Y0054461D01*
X0033057Y0053262D02*
X0024528Y0053262D01*
X0024528Y0052064D02*
X0033272Y0052064D01*
X0033769Y0050865D02*
X0024528Y0050865D01*
X0033782Y0049667D02*
X0034602Y0049667D01*
X0033939Y0048468D02*
X0035801Y0048468D01*
X0033939Y0047270D02*
X0042950Y0047270D01*
X0042950Y0046071D02*
X0033939Y0046071D01*
X0033939Y0044873D02*
X0042950Y0044873D01*
X0042950Y0043674D02*
X0033939Y0043674D01*
X0033939Y0042476D02*
X0042950Y0042476D01*
X0042950Y0041277D02*
X0033939Y0041277D01*
X0033541Y0040079D02*
X0043347Y0040079D01*
X0058742Y0047270D02*
X0059060Y0047270D01*
X0043737Y0059255D02*
X0043034Y0059255D01*
X0087128Y0036483D02*
X0091729Y0036483D01*
X0091729Y0035284D02*
X0087128Y0035284D01*
X0087128Y0034086D02*
X0091729Y0034086D01*
X0087416Y0030490D02*
X0101169Y0030490D01*
X0101169Y0029292D02*
X0087525Y0029292D01*
X0084143Y0029292D02*
X0082981Y0029292D01*
X0082981Y0028094D02*
X0082981Y0031475D01*
X0080989Y0031475D01*
X0080583Y0031366D01*
X0080218Y0031155D01*
X0079920Y0030857D01*
X0079709Y0030493D01*
X0079600Y0030086D01*
X0079600Y0028094D01*
X0082981Y0028094D01*
X0082981Y0028093D02*
X0079057Y0028093D01*
X0079057Y0026895D02*
X0079600Y0026895D01*
X0079600Y0025696D02*
X0079057Y0025696D01*
X0078984Y0024498D02*
X0079729Y0024498D01*
X0082981Y0024498D02*
X0084143Y0024498D01*
X0084143Y0025696D02*
X0082981Y0025696D01*
X0082981Y0026895D02*
X0084143Y0026895D01*
X0084144Y0028093D02*
X0102269Y0028093D01*
X0103468Y0026895D02*
X0087525Y0026895D01*
X0079600Y0029292D02*
X0079057Y0029292D01*
X0079021Y0030490D02*
X0079709Y0030490D01*
X0078295Y0031689D02*
X0101169Y0031689D01*
X0101169Y0032887D02*
X0078295Y0032887D01*
X0082981Y0030490D02*
X0084143Y0030490D01*
X0103169Y0030023D02*
X0104428Y0028763D01*
X0111928Y0028763D01*
X0113178Y0027513D01*
X0103169Y0030023D02*
X0103169Y0037513D01*
X0148250Y0044873D02*
X0156532Y0044873D01*
X0164057Y0044873D02*
X0164800Y0044873D01*
X0164800Y0046071D02*
X0164057Y0046071D01*
X0156532Y0049667D02*
X0156251Y0049667D01*
X0155579Y0050865D02*
X0156943Y0050865D01*
D25*
X0168562Y0047513D02*
X0168562Y0057119D01*
X0168169Y0057513D01*
X0168169Y0067513D02*
X0168562Y0067906D01*
X0168562Y0077513D01*
X0211928Y0072513D02*
X0214428Y0075013D01*
X0221928Y0075013D01*
X0223208Y0076292D01*
X0230009Y0076292D01*
X0211928Y0072513D02*
X0211928Y0058763D01*
X0210678Y0057513D01*
X0199428Y0057513D01*
X0093090Y0062513D02*
X0093090Y0078851D01*
X0084428Y0087513D01*
X0083169Y0087513D01*
X0059478Y0056214D02*
X0051239Y0056214D01*
X0059478Y0056214D02*
X0060678Y0055013D01*
X0060678Y0048763D01*
X0061928Y0047513D01*
X0075688Y0047513D01*
D26*
X0083169Y0047513D02*
X0083169Y0055111D01*
X0075767Y0062513D01*
X0083169Y0069914D01*
X0083169Y0077513D01*
X0075688Y0087513D02*
X0075295Y0087906D01*
X0075295Y0097513D01*
X0083169Y0047513D02*
X0083169Y0037513D01*
X0075688Y0037513D02*
X0075295Y0037119D01*
X0075295Y0027513D01*
M02*
