G75*
%MOIN*%
%OFA0B0*%
%FSLAX25Y25*%
%IPPOS*%
%LPD*%
%AMOC8*
5,1,8,0,0,1.08239X$1,22.5*
%
%ADD10C,0.00600*%
%ADD11C,0.00500*%
D10*
X0092078Y0087332D02*
X0093146Y0086265D01*
X0094213Y0086265D01*
X0092078Y0087332D02*
X0092078Y0092670D01*
X0096349Y0092670D02*
X0096349Y0089468D01*
X0095281Y0088400D01*
X0092078Y0088400D01*
X0098524Y0089468D02*
X0098524Y0091603D01*
X0099591Y0092670D01*
X0102794Y0092670D01*
X0102794Y0094805D02*
X0102794Y0088400D01*
X0099591Y0088400D01*
X0098524Y0089468D01*
X0111415Y0088400D02*
X0111415Y0094805D01*
X0111415Y0092670D02*
X0114618Y0092670D01*
X0115685Y0091603D01*
X0115685Y0089468D01*
X0114618Y0088400D01*
X0111415Y0088400D01*
X0117860Y0090535D02*
X0122131Y0090535D01*
X0122131Y0089468D02*
X0122131Y0091603D01*
X0121063Y0092670D01*
X0118928Y0092670D01*
X0117860Y0091603D01*
X0117860Y0090535D01*
X0118928Y0088400D02*
X0121063Y0088400D01*
X0122131Y0089468D01*
X0124306Y0088400D02*
X0124306Y0091603D01*
X0125373Y0092670D01*
X0128576Y0092670D01*
X0128576Y0088400D01*
X0130751Y0088400D02*
X0133954Y0088400D01*
X0135022Y0089468D01*
X0135022Y0091603D01*
X0133954Y0092670D01*
X0130751Y0092670D01*
X0130751Y0087332D01*
X0131819Y0086265D01*
X0132886Y0086265D01*
X0137183Y0088400D02*
X0139319Y0088400D01*
X0138251Y0088400D02*
X0138251Y0092670D01*
X0139319Y0092670D01*
X0141494Y0092670D02*
X0144697Y0092670D01*
X0145764Y0091603D01*
X0144697Y0090535D01*
X0142561Y0090535D01*
X0141494Y0089468D01*
X0142561Y0088400D01*
X0145764Y0088400D01*
X0149007Y0088400D02*
X0151142Y0088400D01*
X0152210Y0089468D01*
X0152210Y0091603D01*
X0151142Y0092670D01*
X0149007Y0092670D01*
X0147939Y0091603D01*
X0147939Y0090535D01*
X0152210Y0090535D01*
X0154385Y0089468D02*
X0154385Y0093738D01*
X0155452Y0094805D01*
X0158655Y0094805D01*
X0158655Y0088400D01*
X0155452Y0088400D01*
X0154385Y0089468D01*
X0138251Y0094805D02*
X0138251Y0095873D01*
X0083458Y0094805D02*
X0083458Y0088400D01*
X0080255Y0088400D01*
X0079187Y0089468D01*
X0079187Y0093738D01*
X0080255Y0094805D01*
X0083458Y0094805D01*
X0077012Y0094805D02*
X0074877Y0094805D01*
X0075945Y0094805D02*
X0075945Y0088400D01*
X0077012Y0088400D02*
X0074877Y0088400D01*
X0072715Y0089468D02*
X0071648Y0088400D01*
X0069512Y0088400D01*
X0068445Y0089468D01*
X0068445Y0093738D01*
X0069512Y0094805D01*
X0071648Y0094805D01*
X0072715Y0093738D01*
X0072715Y0089468D01*
X0066270Y0089468D02*
X0065202Y0088400D01*
X0063067Y0088400D01*
X0061999Y0089468D01*
X0061999Y0090535D01*
X0063067Y0091603D01*
X0065202Y0091603D01*
X0066270Y0092670D01*
X0066270Y0093738D01*
X0065202Y0094805D01*
X0063067Y0094805D01*
X0061999Y0093738D01*
X0059824Y0094805D02*
X0055554Y0094805D01*
X0057689Y0094805D02*
X0057689Y0088400D01*
X0053379Y0089468D02*
X0052311Y0088400D01*
X0050176Y0088400D01*
X0049108Y0089468D01*
X0049108Y0094805D01*
X0046933Y0094805D02*
X0043730Y0094805D01*
X0042663Y0093738D01*
X0042663Y0089468D01*
X0043730Y0088400D01*
X0046933Y0088400D01*
X0046933Y0094805D01*
X0040488Y0094805D02*
X0038352Y0094805D01*
X0039420Y0094805D02*
X0039420Y0088400D01*
X0040488Y0088400D02*
X0038352Y0088400D01*
X0036191Y0089468D02*
X0035123Y0088400D01*
X0032988Y0088400D01*
X0031920Y0089468D01*
X0031920Y0093738D01*
X0032988Y0094805D01*
X0035123Y0094805D01*
X0036191Y0093738D01*
X0036191Y0089468D01*
X0053379Y0089468D02*
X0053379Y0094805D01*
D11*
X0031217Y0081603D02*
X0031217Y0078550D01*
X0035287Y0078550D02*
X0035287Y0082620D01*
X0032234Y0082620D01*
X0031217Y0081603D01*
X0037294Y0082620D02*
X0040347Y0082620D01*
X0041364Y0081603D01*
X0041364Y0079568D01*
X0040347Y0078550D01*
X0037294Y0078550D01*
X0043385Y0078550D02*
X0044403Y0078550D01*
X0044403Y0079568D01*
X0043385Y0079568D01*
X0043385Y0078550D01*
X0046410Y0079568D02*
X0046410Y0081603D01*
X0047427Y0082620D01*
X0049462Y0082620D01*
X0050480Y0081603D01*
X0050480Y0079568D01*
X0049462Y0078550D01*
X0047427Y0078550D01*
X0046410Y0079568D01*
X0052496Y0078550D02*
X0054531Y0078550D01*
X0053514Y0078550D02*
X0053514Y0082620D01*
X0054531Y0082620D01*
X0056538Y0082620D02*
X0059591Y0082620D01*
X0060609Y0081603D01*
X0060609Y0079568D01*
X0059591Y0078550D01*
X0056538Y0078550D01*
X0056538Y0084655D01*
X0053514Y0084655D02*
X0053514Y0085673D01*
X0062616Y0082620D02*
X0062616Y0078550D01*
X0065668Y0078550D01*
X0066686Y0079568D01*
X0066686Y0082620D01*
X0068702Y0082620D02*
X0070737Y0082620D01*
X0069720Y0083638D02*
X0069720Y0079568D01*
X0068702Y0078550D01*
X0072744Y0079568D02*
X0073762Y0080585D01*
X0075797Y0080585D01*
X0076814Y0081603D01*
X0075797Y0082620D01*
X0072744Y0082620D01*
X0078821Y0081603D02*
X0079839Y0082620D01*
X0081874Y0082620D01*
X0082892Y0081603D01*
X0082892Y0079568D01*
X0081874Y0078550D01*
X0079839Y0078550D01*
X0078821Y0079568D01*
X0078821Y0081603D01*
X0073762Y0078550D02*
X0072744Y0079568D01*
X0073762Y0078550D02*
X0076814Y0078550D01*
X0084908Y0078550D02*
X0086943Y0078550D01*
X0085925Y0078550D02*
X0085925Y0082620D01*
X0086943Y0082620D01*
X0088950Y0082620D02*
X0092003Y0082620D01*
X0093020Y0081603D01*
X0093020Y0079568D01*
X0092003Y0078550D01*
X0088950Y0078550D01*
X0088950Y0084655D01*
X0085925Y0084655D02*
X0085925Y0085673D01*
X0098066Y0082620D02*
X0098066Y0079568D01*
X0099083Y0078550D01*
X0100101Y0079568D01*
X0101118Y0078550D01*
X0102136Y0079568D01*
X0102136Y0082620D01*
X0104143Y0082620D02*
X0104143Y0079568D01*
X0105161Y0078550D01*
X0106178Y0079568D01*
X0107196Y0078550D01*
X0108213Y0079568D01*
X0108213Y0082620D01*
X0110220Y0082620D02*
X0110220Y0079568D01*
X0111238Y0078550D01*
X0112255Y0079568D01*
X0113273Y0078550D01*
X0114290Y0079568D01*
X0114290Y0082620D01*
X0096059Y0079568D02*
X0096059Y0078550D01*
X0095041Y0078550D01*
X0095041Y0079568D01*
X0096059Y0079568D01*
M02*
