G75*
%MOIN*%
%OFA0B0*%
%FSLAX25Y25*%
%IPPOS*%
%LPD*%
%AMOC8*
5,1,8,0,0,1.08239X$1,22.5*
%
%ADD10OC8,0.06737*%
%ADD11OC8,0.05950*%
%ADD12OC8,0.09658*%
%ADD13OC8,0.06800*%
%ADD14C,0.06000*%
%ADD15C,0.05918*%
%ADD16C,0.04737*%
%ADD17C,0.04369*%
D10*
X0110352Y0031500D03*
X0120352Y0031500D03*
X0130352Y0031500D03*
X0140352Y0031500D03*
X0150352Y0031500D03*
X0160352Y0031500D03*
X0170352Y0031500D03*
X0180352Y0031500D03*
X0180352Y0211500D03*
X0170352Y0211500D03*
X0160352Y0211500D03*
X0150352Y0211500D03*
X0140352Y0211500D03*
X0130352Y0211500D03*
X0120352Y0211500D03*
X0110352Y0211500D03*
D11*
X0095352Y0221500D03*
X0075352Y0221500D03*
D12*
X0070352Y0211500D03*
X0100352Y0211500D03*
D13*
X0190352Y0211500D03*
X0200352Y0211500D03*
X0210352Y0211500D03*
X0220352Y0211500D03*
X0230352Y0211500D03*
X0240352Y0211500D03*
X0220352Y0031500D03*
X0210352Y0031500D03*
X0200352Y0031500D03*
X0190352Y0031500D03*
D14*
X0190352Y0132000D03*
X0190352Y0151000D03*
D15*
X0197478Y0071500D03*
X0107478Y0071500D03*
D16*
X0077950Y0071500D03*
X0167950Y0071500D03*
D17*
X0171602Y0104000D03*
X0181602Y0119000D03*
X0166602Y0144000D03*
X0156602Y0144000D03*
X0140352Y0146500D03*
X0135352Y0134000D03*
X0139102Y0124000D03*
X0122852Y0119000D03*
X0122852Y0131500D03*
X0121602Y0154000D03*
X0121602Y0166500D03*
X0135352Y0160250D03*
X0156602Y0161500D03*
X0156602Y0174000D03*
X0155352Y0191500D03*
X0145352Y0191500D03*
X0105352Y0191500D03*
X0102852Y0164000D03*
X0089102Y0159000D03*
X0086602Y0145250D03*
X0059102Y0084000D03*
X0191602Y0164000D03*
X0219102Y0150250D03*
X0231602Y0145250D03*
X0225352Y0132750D03*
X0239102Y0132750D03*
X0239102Y0116500D03*
X0212852Y0114000D03*
X0212852Y0124000D03*
M02*
