%
M48
M72
T01C0.01969
T02C0.03150
T03C0.03200
T04C0.03937
T05C0.04000
T06C0.05118
T07C0.05906
%
T01
X59102Y84000
X122852Y119000
X122852Y131500
X135352Y134000
X139102Y124000
X156602Y144000
X166602Y144000
X156602Y161500
X156602Y174000
X155352Y191500
X145352Y191500
X121602Y166500
X121602Y154000
X135352Y160250
X140352Y146500
X102852Y164000
X89102Y159000
X86602Y145250
X105352Y191500
X181602Y119000
X171602Y104000
X212852Y114000
X212852Y124000
X225352Y132750
X239102Y132750
X231602Y145250
X219102Y150250
X191602Y164000
X239102Y116500
T02
X95352Y221500
X75352Y221500
T03
X190352Y151000
X190352Y132000
T04
X77950Y71500
X110352Y31500
X120352Y31500
X130352Y31500
X140352Y31500
X150352Y31500
X160352Y31500
X170352Y31500
X180352Y31500
X167950Y71500
X170352Y211500
X160352Y211500
X150352Y211500
X140352Y211500
X130352Y211500
X120352Y211500
X110352Y211500
X180352Y211500
T05
X190352Y211500
X200352Y211500
X210352Y211500
X220352Y211500
X230352Y211500
X240352Y211500
X220352Y31500
X210352Y31500
X200352Y31500
X190352Y31500
T06
X197478Y71500
X107478Y71500
T07
X100352Y211500
X70352Y211500
M30
